<svg xmlns="http://www.w3.org/2000/svg" xmlns:xlink="http://www.w3.org/1999/xlink" width="935" height="1360" contentScriptType="application/ecmascript" contentStyleType="text/css" style="width:935px;height:1360px" preserveAspectRatio="none" version="1.1" viewBox="0 0 935 1360" zoomAndPan="magnify"><defs><filter id="ff48twa9wx17z" width="300%" height="300%" x="-1" y="-1"><feGaussianBlur result="blurOut" stdDeviation="2"/><feColorMatrix in="blurOut" result="blurOut2" type="matrix" values="0 0 0 0 0 0 0 0 0 0 0 0 0 0 0 0 0 0 .4 0"/><feOffset dx="4" dy="4" in="blurOut2" result="blurOut3"/><feBlend in="SourceGraphic" in2="blurOut3" mode="normal"/></filter></defs><g><rect style="stroke:#a80036;stroke-width:1.5" width="140" height="33.969" x="10" y="667.625" fill="#FEFECE" filter="url(#ff48twa9wx17z)" rx="12.5" ry="12.5"/><text x="20" y="688.764" fill="#000" font-family="sans-serif" font-size="12" lengthAdjust="spacingAndGlyphs" textLength="120">如何快速熟悉一个领域</text><rect style="stroke:#a80036;stroke-width:1.5" width="140" height="33.969" x="200" y="154.922" fill="#FEFECE" filter="url(#ff48twa9wx17z)" rx="12.5" ry="12.5"/><text x="210" y="176.06" fill="#000" font-family="sans-serif" font-size="12" lengthAdjust="spacingAndGlyphs" textLength="120">第一步，形成感性认识</text><rect style="stroke:#a80036;stroke-width:1.5" width="80" height="33.969" x="390" y="20" fill="#FEFECE" filter="url(#ff48twa9wx17z)" rx="12.5" ry="12.5"/><text x="400" y="41.139" fill="#000" font-family="sans-serif" font-size="12" lengthAdjust="spacingAndGlyphs" textLength="60">推荐路径：</text><path fill="none" d="M340,171.9063 L350,171.9063 C365,171.9063 365,36.9844 380,36.9844 L390,36.9844" style="stroke:#a80036;stroke-width:1"/><rect style="stroke:#a80036;stroke-width:1.5" width="67" height="33.969" x="390" y="73.969" fill="#FEFECE" filter="url(#ff48twa9wx17z)" rx="12.5" ry="12.5"/><text x="400" y="95.107" fill="#000" font-family="sans-serif" font-size="12" lengthAdjust="spacingAndGlyphs" textLength="47">①微信；</text><path fill="none" d="M340,171.9063 L350,171.9063 C365,171.9063 365,90.9531 380,90.9531 L390,90.9531" style="stroke:#a80036;stroke-width:1"/><rect style="stroke:#a80036;stroke-width:1.5" width="67" height="33.969" x="390" y="127.938" fill="#FEFECE" filter="url(#ff48twa9wx17z)" rx="12.5" ry="12.5"/><text x="400" y="149.076" fill="#000" font-family="sans-serif" font-size="12" lengthAdjust="spacingAndGlyphs" textLength="47">②知乎；</text><path fill="none" d="M340,171.9063 L350,171.9063 C365,171.9063 365,144.9219 380,144.9219 L390,144.9219" style="stroke:#a80036;stroke-width:1"/><rect style="stroke:#a80036;stroke-width:1.5" width="91" height="33.969" x="390" y="181.906" fill="#FEFECE" filter="url(#ff48twa9wx17z)" rx="12.5" ry="12.5"/><text x="400" y="203.045" fill="#000" font-family="sans-serif" font-size="12" lengthAdjust="spacingAndGlyphs" textLength="71">③经管之家；</text><path fill="none" d="M340,171.9063 L350,171.9063 C365,171.9063 365,198.8906 380,198.8906 L390,198.8906" style="stroke:#a80036;stroke-width:1"/><rect style="stroke:#a80036;stroke-width:1.5" width="91" height="33.969" x="390" y="235.875" fill="#FEFECE" filter="url(#ff48twa9wx17z)" rx="12.5" ry="12.5"/><text x="400" y="257.014" fill="#000" font-family="sans-serif" font-size="12" lengthAdjust="spacingAndGlyphs" textLength="71">④投行报告；</text><path fill="none" d="M340,171.9063 L350,171.9063 C365,171.9063 365,252.8594 380,252.8594 L390,252.8594" style="stroke:#a80036;stroke-width:1"/><rect style="stroke:#a80036;stroke-width:1.5" width="115" height="33.969" x="390" y="289.844" fill="#FEFECE" filter="url(#ff48twa9wx17z)" rx="12.5" ry="12.5"/><text x="400" y="310.982" fill="#000" font-family="sans-serif" font-size="12" lengthAdjust="spacingAndGlyphs" textLength="95">⑤上市公司年报。</text><path fill="none" d="M340,171.9063 L350,171.9063 C365,171.9063 365,306.8281 380,306.8281 L390,306.8281" style="stroke:#a80036;stroke-width:1"/><path fill="none" d="M150,684.6094 L160,684.6094 C175,684.6094 175,171.9063 190,171.9063 L200,171.9063" style="stroke:#a80036;stroke-width:1"/><rect style="stroke:#a80036;stroke-width:1.5" width="116" height="33.969" x="200" y="370.797" fill="#FEFECE" filter="url(#ff48twa9wx17z)" rx="12.5" ry="12.5"/><text x="210" y="391.935" fill="#000" font-family="sans-serif" font-size="12" lengthAdjust="spacingAndGlyphs" textLength="96">第二步，初步整理</text><rect style="stroke:#a80036;stroke-width:1.5" width="79" height="33.969" x="366" y="343.813" fill="#FEFECE" filter="url(#ff48twa9wx17z)" rx="12.5" ry="12.5"/><text x="376" y="364.951" fill="#000" font-family="sans-serif" font-size="12" lengthAdjust="spacingAndGlyphs" textLength="59">①保存文章</text><path fill="none" d="M316,387.7813 L326,387.7813 C341,387.7813 341,360.7969 356,360.7969 L366,360.7969" style="stroke:#a80036;stroke-width:1"/><rect style="stroke:#a80036;stroke-width:1.5" width="79" height="33.969" x="366" y="397.781" fill="#FEFECE" filter="url(#ff48twa9wx17z)" rx="12.5" ry="12.5"/><text x="376" y="418.92" fill="#000" font-family="sans-serif" font-size="12" lengthAdjust="spacingAndGlyphs" textLength="59">②标注重点</text><path fill="none" d="M316,387.7813 L326,387.7813 C341,387.7813 341,414.7656 356,414.7656 L366,414.7656" style="stroke:#a80036;stroke-width:1"/><path fill="none" d="M150,684.6094 L160,684.6094 C175,684.6094 175,387.7813 190,387.7813 L200,387.7813" style="stroke:#a80036;stroke-width:1"/><rect style="stroke:#a80036;stroke-width:1.5" width="116" height="33.969" x="200" y="667.625" fill="#FEFECE" filter="url(#ff48twa9wx17z)" rx="12.5" ry="12.5"/><text x="210" y="688.764" fill="#000" font-family="sans-serif" font-size="12" lengthAdjust="spacingAndGlyphs" textLength="96">第三步，理清框架</text><rect style="stroke:#a80036;stroke-width:1.5" width="56" height="33.969" x="366" y="478.734" fill="#FEFECE" filter="url(#ff48twa9wx17z)" rx="12.5" ry="12.5"/><text x="376" y="499.873" fill="#000" font-family="sans-serif" font-size="12" lengthAdjust="spacingAndGlyphs" textLength="36">借助：</text><rect style="stroke:#a80036;stroke-width:1.5" width="91" height="33.969" x="472" y="451.75" fill="#FEFECE" filter="url(#ff48twa9wx17z)" rx="12.5" ry="12.5"/><text x="482" y="472.889" fill="#000" font-family="sans-serif" font-size="12" lengthAdjust="spacingAndGlyphs" textLength="71">①图书目录；</text><path fill="none" d="M422,495.7188 L432,495.7188 C447,495.7188 447,468.7344 462,468.7344 L472,468.7344" style="stroke:#a80036;stroke-width:1"/><rect style="stroke:#a80036;stroke-width:1.5" width="91" height="33.969" x="472" y="505.719" fill="#FEFECE" filter="url(#ff48twa9wx17z)" rx="12.5" ry="12.5"/><text x="482" y="526.857" fill="#000" font-family="sans-serif" font-size="12" lengthAdjust="spacingAndGlyphs" textLength="71">②行业研报。</text><path fill="none" d="M422,495.7188 L432,495.7188 C447,495.7188 447,522.7031 462,522.7031 L472,522.7031" style="stroke:#a80036;stroke-width:1"/><path fill="none" d="M316,684.6094 L326,684.6094 C341,684.6094 341,495.7188 356,495.7188 L366,495.7188" style="stroke:#a80036;stroke-width:1"/><rect style="stroke:#a80036;stroke-width:1.5" width="68" height="33.969" x="366" y="721.594" fill="#FEFECE" filter="url(#ff48twa9wx17z)" rx="12.5" ry="12.5"/><text x="376" y="742.732" fill="#000" font-family="sans-serif" font-size="12" lengthAdjust="spacingAndGlyphs" textLength="48">几个问题</text><rect style="stroke:#a80036;stroke-width:1.5" width="428" height="33.969" x="484" y="559.688" fill="#FEFECE" filter="url(#ff48twa9wx17z)" rx="12.5" ry="12.5"/><text x="494" y="580.826" fill="#000" font-family="sans-serif" font-size="12" lengthAdjust="spacingAndGlyphs" textLength="408">这个领域涉及哪些概念？大概念里有哪些小概念？有关联的其他概念是什么？</text><path fill="none" d="M434,738.5781 L444,738.5781 C459,738.5781 459,576.6719 474,576.6719 L484,576.6719" style="stroke:#a80036;stroke-width:1"/><rect style="stroke:#a80036;stroke-width:1.5" width="440" height="33.969" x="484" y="613.656" fill="#FEFECE" filter="url(#ff48twa9wx17z)" rx="12.5" ry="12.5"/><text x="494" y="634.795" fill="#000" font-family="sans-serif" font-size="12" lengthAdjust="spacingAndGlyphs" textLength="420">这个领域的发展历史是什么？前景是什么？在国外是如何发展？在国内又如何？</text><path fill="none" d="M434,738.5781 L444,738.5781 C459,738.5781 459,630.6406 474,630.6406 L484,630.6406" style="stroke:#a80036;stroke-width:1"/><rect style="stroke:#a80036;stroke-width:1.5" width="260" height="33.969" x="484" y="667.625" fill="#FEFECE" filter="url(#ff48twa9wx17z)" rx="12.5" ry="12.5"/><text x="494" y="688.764" fill="#000" font-family="sans-serif" font-size="12" lengthAdjust="spacingAndGlyphs" textLength="240">最近两年的行业报告是如何评判这个行业的？</text><path fill="none" d="M434,738.5781 L444,738.5781 C459,738.5781 459,684.6094 474,684.6094 L484,684.6094" style="stroke:#a80036;stroke-width:1"/><rect style="stroke:#a80036;stroke-width:1.5" width="356" height="33.969" x="484" y="721.594" fill="#FEFECE" filter="url(#ff48twa9wx17z)" rx="12.5" ry="12.5"/><text x="494" y="742.732" fill="#000" font-family="sans-serif" font-size="12" lengthAdjust="spacingAndGlyphs" textLength="336">这个领域的知名专家有哪些？他们的观点是什么？有什么著作？</text><path fill="none" d="M434,738.5781 L444,738.5781 C459,738.5781 459,738.5781 474,738.5781 L484,738.5781" style="stroke:#a80036;stroke-width:1"/><rect style="stroke:#a80036;stroke-width:1.5" width="380" height="33.969" x="484" y="775.563" fill="#FEFECE" filter="url(#ff48twa9wx17z)" rx="12.5" ry="12.5"/><text x="494" y="796.701" fill="#000" font-family="sans-serif" font-size="12" lengthAdjust="spacingAndGlyphs" textLength="360">行业的竞争格局是怎样的？分为几种流派？各自的代表理论是什么？</text><path fill="none" d="M434,738.5781 L444,738.5781 C459,738.5781 459,792.5469 474,792.5469 L484,792.5469" style="stroke:#a80036;stroke-width:1"/><rect style="stroke:#a80036;stroke-width:1.5" width="320" height="33.969" x="484" y="829.531" fill="#FEFECE" filter="url(#ff48twa9wx17z)" rx="12.5" ry="12.5"/><text x="494" y="850.67" fill="#000" font-family="sans-serif" font-size="12" lengthAdjust="spacingAndGlyphs" textLength="300">这个领域里的顶尖企业分别是谁？各有什么产品或服务？</text><path fill="none" d="M434,738.5781 L444,738.5781 C459,738.5781 459,846.5156 474,846.5156 L484,846.5156" style="stroke:#a80036;stroke-width:1"/><rect style="stroke:#a80036;stroke-width:1.5" width="236" height="33.969" x="484" y="883.5" fill="#FEFECE" filter="url(#ff48twa9wx17z)" rx="12.5" ry="12.5"/><text x="494" y="904.639" fill="#000" font-family="sans-serif" font-size="12" lengthAdjust="spacingAndGlyphs" textLength="216">行业有什么大的活动进行？或者要进行？</text><path fill="none" d="M434,738.5781 L444,738.5781 C459,738.5781 459,900.4844 474,900.4844 L484,900.4844" style="stroke:#a80036;stroke-width:1"/><path fill="none" d="M316,684.6094 L326,684.6094 C341,684.6094 341,738.5781 356,738.5781 L366,738.5781" style="stroke:#a80036;stroke-width:1"/><path fill="none" d="M150,684.6094 L160,684.6094 C175,684.6094 175,684.6094 190,684.6094 L200,684.6094" style="stroke:#a80036;stroke-width:1"/><rect style="stroke:#a80036;stroke-width:1.5" width="116" height="33.969" x="200" y="964.453" fill="#FEFECE" filter="url(#ff48twa9wx17z)" rx="12.5" ry="12.5"/><text x="210" y="985.592" fill="#000" font-family="sans-serif" font-size="12" lengthAdjust="spacingAndGlyphs" textLength="96">第四步，绘制脑图</text><rect style="stroke:#a80036;stroke-width:1.5" width="103" height="33.969" x="366" y="937.469" fill="#FEFECE" filter="url(#ff48twa9wx17z)" rx="12.5" ry="12.5"/><text x="376" y="958.607" fill="#000" font-family="sans-serif" font-size="12" lengthAdjust="spacingAndGlyphs" textLength="83">①方格笔记本法</text><path fill="none" d="M316,981.4375 L326,981.4375 C341,981.4375 341,954.4531 356,954.4531 L366,954.4531" style="stroke:#a80036;stroke-width:1"/><rect style="stroke:#a80036;stroke-width:1.5" width="79" height="33.969" x="366" y="991.438" fill="#FEFECE" filter="url(#ff48twa9wx17z)" rx="12.5" ry="12.5"/><text x="376" y="1012.576" fill="#000" font-family="sans-serif" font-size="12" lengthAdjust="spacingAndGlyphs" textLength="59">②思维导图</text><path fill="none" d="M316,981.4375 L326,981.4375 C341,981.4375 341,1008.4219 356,1008.4219 L366,1008.4219" style="stroke:#a80036;stroke-width:1"/><path fill="none" d="M150,684.6094 L160,684.6094 C175,684.6094 175,981.4375 190,981.4375 L200,981.4375" style="stroke:#a80036;stroke-width:1"/><rect style="stroke:#a80036;stroke-width:1.5" width="116" height="33.969" x="200" y="1126.359" fill="#FEFECE" filter="url(#ff48twa9wx17z)" rx="12.5" ry="12.5"/><text x="210" y="1147.498" fill="#000" font-family="sans-serif" font-size="12" lengthAdjust="spacingAndGlyphs" textLength="96">第五步，主题阅读</text><rect style="stroke:#a80036;stroke-width:1.5" width="55" height="33.969" x="366" y="1045.406" fill="#FEFECE" filter="url(#ff48twa9wx17z)" rx="12.5" ry="12.5"/><text x="376" y="1066.545" fill="#000" font-family="sans-serif" font-size="12" lengthAdjust="spacingAndGlyphs" textLength="35">①图书</text><path fill="none" d="M316,1143.3438 L326,1143.3438 C341,1143.3438 341,1062.3906 356,1062.3906 L366,1062.3906" style="stroke:#a80036;stroke-width:1"/><rect style="stroke:#a80036;stroke-width:1.5" width="79" height="33.969" x="366" y="1099.375" fill="#FEFECE" filter="url(#ff48twa9wx17z)" rx="12.5" ry="12.5"/><text x="376" y="1120.514" fill="#000" font-family="sans-serif" font-size="12" lengthAdjust="spacingAndGlyphs" textLength="59">②在线课程</text><path fill="none" d="M316,1143.3438 L326,1143.3438 C341,1143.3438 341,1116.3594 356,1116.3594 L366,1116.3594" style="stroke:#a80036;stroke-width:1"/><rect style="stroke:#a80036;stroke-width:1.5" width="115" height="33.969" x="366" y="1153.344" fill="#FEFECE" filter="url(#ff48twa9wx17z)" rx="12.5" ry="12.5"/><text x="376" y="1174.482" fill="#000" font-family="sans-serif" font-size="12" lengthAdjust="spacingAndGlyphs" textLength="95">③访谈行业从业者</text><path fill="none" d="M316,1143.3438 L326,1143.3438 C341,1143.3438 341,1170.3281 356,1170.3281 L366,1170.3281" style="stroke:#a80036;stroke-width:1"/><rect style="stroke:#a80036;stroke-width:1.5" width="103" height="33.969" x="366" y="1207.313" fill="#FEFECE" filter="url(#ff48twa9wx17z)" rx="12.5" ry="12.5"/><text x="376" y="1228.451" fill="#000" font-family="sans-serif" font-size="12" lengthAdjust="spacingAndGlyphs" textLength="83">④咨询公司报告</text><path fill="none" d="M316,1143.3438 L326,1143.3438 C341,1143.3438 341,1224.2969 356,1224.2969 L366,1224.2969" style="stroke:#a80036;stroke-width:1"/><path fill="none" d="M150,684.6094 L160,684.6094 C175,684.6094 175,1143.3438 190,1143.3438 L200,1143.3438" style="stroke:#a80036;stroke-width:1"/><rect style="stroke:#a80036;stroke-width:1.5" width="116" height="33.969" x="200" y="1288.266" fill="#FEFECE" filter="url(#ff48twa9wx17z)" rx="12.5" ry="12.5"/><text x="210" y="1309.404" fill="#000" font-family="sans-serif" font-size="12" lengthAdjust="spacingAndGlyphs" textLength="96">第六步，整理输出</text><rect style="stroke:#a80036;stroke-width:1.5" width="416" height="33.969" x="366" y="1261.281" fill="#FEFECE" filter="url(#ff48twa9wx17z)" rx="12.5" ry="12.5"/><text x="376" y="1282.42" fill="#000" font-family="sans-serif" font-size="12" lengthAdjust="spacingAndGlyphs" textLength="396">基于思维导图再次整理。这次的整理以系统化的方式呈现，最好能做到输出</text><path fill="none" d="M316,1305.25 L326,1305.25 C341,1305.25 341,1278.2656 356,1278.2656 L366,1278.2656" style="stroke:#a80036;stroke-width:1"/><rect style="stroke:#a80036;stroke-width:1.5" width="356" height="33.969" x="366" y="1315.25" fill="#FEFECE" filter="url(#ff48twa9wx17z)" rx="12.5" ry="12.5"/><text x="376" y="1336.389" fill="#000" font-family="sans-serif" font-size="12" lengthAdjust="spacingAndGlyphs" textLength="336">每做一个新的主题阅读，都以将来把它成稿成书作为目的来实现</text><path fill="none" d="M316,1305.25 L326,1305.25 C341,1305.25 341,1332.2344 356,1332.2344 L366,1332.2344" style="stroke:#a80036;stroke-width:1"/><path fill="none" d="M150,684.6094 L160,684.6094 C175,684.6094 175,1305.25 190,1305.25 L200,1305.25" style="stroke:#a80036;stroke-width:1"/></g></svg>