<?xml version="1.0" encoding="UTF-8" standalone="no"?><svg xmlns="http://www.w3.org/2000/svg" xmlns:xlink="http://www.w3.org/1999/xlink" contentScriptType="application/ecmascript" contentStyleType="text/css" height="766px" preserveAspectRatio="none" style="width:758px;height:766px;" version="1.1" viewBox="0 0 758 766" width="758px" zoomAndPan="magnify"><defs><filter height="300%" id="fu9auhrv4ser2" width="300%" x="-1" y="-1"><feGaussianBlur result="blurOut" stdDeviation="2.0"/><feColorMatrix in="blurOut" result="blurOut2" type="matrix" values="0 0 0 0 0 0 0 0 0 0 0 0 0 0 0 0 0 0 .4 0"/><feOffset dx="4.0" dy="4.0" in="blurOut2" result="blurOut3"/><feBlend in="SourceGraphic" in2="blurOut3" mode="normal"/></filter></defs><g><rect fill="#FEFECE" filter="url(#fu9auhrv4ser2)" height="33.9688" rx="12.5" ry="12.5" style="stroke: #A80036; stroke-width: 1.5;" width="92" x="10" y="370.7969"/><text fill="#000000" font-family="sans-serif" font-size="12" lengthAdjust="spacingAndGlyphs" textLength="72" x="20" y="391.9355">容器基本概念</text><rect fill="#FEFECE" filter="url(#fu9auhrv4ser2)" height="33.9688" rx="12.5" ry="12.5" style="stroke: #A80036; stroke-width: 1.5;" width="78" x="152" y="289.8438"/><text fill="#000000" font-family="sans-serif" font-size="12" lengthAdjust="spacingAndGlyphs" textLength="58" x="162" y="310.9824">容器&amp;镜像</text><rect fill="#FEFECE" filter="url(#fu9auhrv4ser2)" height="33.9688" rx="12.5" ry="12.5" style="stroke: #A80036; stroke-width: 1.5;" width="68" x="280" y="154.9219"/><text fill="#000000" font-family="sans-serif" font-size="12" lengthAdjust="spacingAndGlyphs" textLength="48" x="290" y="176.0605">容器定义</text><rect fill="#FEFECE" filter="url(#fu9auhrv4ser2)" height="33.9688" rx="12.5" ry="12.5" style="stroke: #A80036; stroke-width: 1.5;" width="68" x="398" y="46.9844"/><text fill="#000000" font-family="sans-serif" font-size="12" lengthAdjust="spacingAndGlyphs" textLength="48" x="408" y="68.123">视图隔离</text><rect fill="#FEFECE" filter="url(#fu9auhrv4ser2)" height="33.9688" rx="12.5" ry="12.5" style="stroke: #A80036; stroke-width: 1.5;" width="104" x="516" y="20"/><text fill="#000000" font-family="sans-serif" font-size="12" lengthAdjust="spacingAndGlyphs" textLength="84" x="526" y="41.1387">能看见部分进程</text><path d="M466,63.9688 L476,63.9688 C491,63.9688 491,36.9844 506,36.9844 L516,36.9844 " fill="none" style="stroke: #A80036; stroke-width: 1.0;"/><rect fill="#FEFECE" filter="url(#fu9auhrv4ser2)" height="33.9688" rx="12.5" ry="12.5" style="stroke: #A80036; stroke-width: 1.5;" width="80" x="516" y="73.9688"/><text fill="#000000" font-family="sans-serif" font-size="12" lengthAdjust="spacingAndGlyphs" textLength="60" x="526" y="95.1074">独立主机名</text><path d="M466,63.9688 L476,63.9688 C491,63.9688 491,90.9531 506,90.9531 L516,90.9531 " fill="none" style="stroke: #A80036; stroke-width: 1.0;"/><path d="M348,171.9063 L358,171.9063 C373,171.9063 373,63.9688 388,63.9688 L398,63.9688 " fill="none" style="stroke: #A80036; stroke-width: 1.0;"/><rect fill="#FEFECE" filter="url(#fu9auhrv4ser2)" height="33.9688" rx="12.5" ry="12.5" style="stroke: #A80036; stroke-width: 1.5;" width="80" x="398" y="154.9219"/><text fill="#000000" font-family="sans-serif" font-size="12" lengthAdjust="spacingAndGlyphs" textLength="60" x="408" y="176.0605">资源可限制</text><rect fill="#FEFECE" filter="url(#fu9auhrv4ser2)" height="33.9688" rx="12.5" ry="12.5" style="stroke: #A80036; stroke-width: 1.5;" width="104" x="528" y="127.9375"/><text fill="#000000" font-family="sans-serif" font-size="12" lengthAdjust="spacingAndGlyphs" textLength="84" x="538" y="149.0762">控制资源使用率</text><path d="M478,171.9063 L488,171.9063 C503,171.9063 503,144.9219 518,144.9219 L528,144.9219 " fill="none" style="stroke: #A80036; stroke-width: 1.0;"/><rect fill="#FEFECE" filter="url(#fu9auhrv4ser2)" height="33.9688" rx="12.5" ry="12.5" style="stroke: #A80036; stroke-width: 1.5;" width="165" x="528" y="181.9063"/><text fill="#000000" font-family="sans-serif" font-size="12" lengthAdjust="spacingAndGlyphs" textLength="145" x="538" y="203.0449">如内存大小、CPU使用个数</text><path d="M478,171.9063 L488,171.9063 C503,171.9063 503,198.8906 518,198.8906 L528,198.8906 " fill="none" style="stroke: #A80036; stroke-width: 1.0;"/><path d="M348,171.9063 L358,171.9063 C373,171.9063 373,171.9063 388,171.9063 L398,171.9063 " fill="none" style="stroke: #A80036; stroke-width: 1.0;"/><rect fill="#FEFECE" filter="url(#fu9auhrv4ser2)" height="33.9688" rx="12.5" ry="12.5" style="stroke: #A80036; stroke-width: 1.5;" width="92" x="398" y="235.875"/><text fill="#000000" font-family="sans-serif" font-size="12" lengthAdjust="spacingAndGlyphs" textLength="72" x="408" y="257.0137">独立文件系统</text><path d="M348,171.9063 L358,171.9063 C373,171.9063 373,252.8594 388,252.8594 L398,252.8594 " fill="none" style="stroke: #A80036; stroke-width: 1.0;"/><rect fill="#FEFECE" filter="url(#fu9auhrv4ser2)" height="33.9688" rx="12.5" ry="12.5" style="stroke: #A80036; stroke-width: 1.5;" width="80" x="398" y="289.8438"/><text fill="#000000" font-family="sans-serif" font-size="12" lengthAdjust="spacingAndGlyphs" textLength="60" x="408" y="310.9824">的进程集合</text><path d="M348,171.9063 L358,171.9063 C373,171.9063 373,306.8281 388,306.8281 L398,306.8281 " fill="none" style="stroke: #A80036; stroke-width: 1.0;"/><path d="M230,306.8281 L240,306.8281 C255,306.8281 255,171.9063 270,171.9063 L280,171.9063 " fill="none" style="stroke: #A80036; stroke-width: 1.0;"/><rect fill="#FEFECE" filter="url(#fu9auhrv4ser2)" height="33.9688" rx="12.5" ry="12.5" style="stroke: #A80036; stroke-width: 1.5;" width="92" x="280" y="451.75"/><text fill="#000000" font-family="sans-serif" font-size="12" lengthAdjust="spacingAndGlyphs" textLength="72" x="290" y="472.8887">容器镜像定义</text><rect fill="#FEFECE" filter="url(#fu9auhrv4ser2)" height="33.9688" rx="12.5" ry="12.5" style="stroke: #A80036; stroke-width: 1.5;" width="188" x="422" y="343.8125"/><text fill="#000000" font-family="sans-serif" font-size="12" lengthAdjust="spacingAndGlyphs" textLength="168" x="432" y="364.9512">运行容器所需的所有文件的集合</text><path d="M372,468.7344 L382,468.7344 C397,468.7344 397,360.7969 412,360.7969 L422,360.7969 " fill="none" style="stroke: #A80036; stroke-width: 1.0;"/><rect fill="#FEFECE" filter="url(#fu9auhrv4ser2)" height="33.9688" rx="12.5" ry="12.5" style="stroke: #A80036; stroke-width: 1.5;" width="194" x="422" y="397.7813"/><text fill="#000000" font-family="sans-serif" font-size="12" lengthAdjust="spacingAndGlyphs" textLength="174" x="432" y="418.9199">Dockerfile-描述镜像的构建步骤</text><path d="M372,468.7344 L382,468.7344 C397,468.7344 397,414.7656 412,414.7656 L422,414.7656 " fill="none" style="stroke: #A80036; stroke-width: 1.0;"/><rect fill="#FEFECE" filter="url(#fu9auhrv4ser2)" height="33.9688" rx="12.5" ry="12.5" style="stroke: #A80036; stroke-width: 1.5;" width="87" x="422" y="505.7188"/><text fill="#000000" font-family="sans-serif" font-size="12" lengthAdjust="spacingAndGlyphs" textLength="67" x="432" y="526.8574">changeset</text><rect fill="#FEFECE" filter="url(#fu9auhrv4ser2)" height="33.9688" rx="12.5" ry="12.5" style="stroke: #A80036; stroke-width: 1.5;" width="188" x="559" y="451.75"/><text fill="#000000" font-family="sans-serif" font-size="12" lengthAdjust="spacingAndGlyphs" textLength="168" x="569" y="472.8887">构建步骤产生出文件系统的变化</text><path d="M509,522.7031 L519,522.7031 C534,522.7031 534,468.7344 549,468.7344 L559,468.7344 " fill="none" style="stroke: #A80036; stroke-width: 1.0;"/><rect fill="#FEFECE" filter="url(#fu9auhrv4ser2)" height="33.9688" rx="12.5" ry="12.5" style="stroke: #A80036; stroke-width: 1.5;" width="132" x="559" y="505.7188"/><text fill="#000000" font-family="sans-serif" font-size="12" lengthAdjust="spacingAndGlyphs" textLength="112" x="569" y="526.8574">类似disk snapshot</text><path d="M509,522.7031 L519,522.7031 C534,522.7031 534,522.7031 549,522.7031 L559,522.7031 " fill="none" style="stroke: #A80036; stroke-width: 1.0;"/><rect fill="#FEFECE" filter="url(#fu9auhrv4ser2)" height="33.9688" rx="12.5" ry="12.5" style="stroke: #A80036; stroke-width: 1.5;" width="176" x="559" y="559.6875"/><text fill="#000000" font-family="sans-serif" font-size="12" lengthAdjust="spacingAndGlyphs" textLength="156" x="569" y="580.8262">提高分发效率，减小磁盘压力</text><path d="M509,522.7031 L519,522.7031 C534,522.7031 534,576.6719 549,576.6719 L559,576.6719 " fill="none" style="stroke: #A80036; stroke-width: 1.0;"/><path d="M372,468.7344 L382,468.7344 C397,468.7344 397,522.7031 412,522.7031 L422,522.7031 " fill="none" style="stroke: #A80036; stroke-width: 1.0;"/><path d="M230,306.8281 L240,306.8281 C255,306.8281 255,468.7344 270,468.7344 L280,468.7344 " fill="none" style="stroke: #A80036; stroke-width: 1.0;"/><path d="M102,387.7813 L112,387.7813 C127,387.7813 127,306.8281 142,306.8281 L152,306.8281 " fill="none" style="stroke: #A80036; stroke-width: 1.0;"/><rect fill="#FEFECE" filter="url(#fu9auhrv4ser2)" height="33.9688" rx="12.5" ry="12.5" style="stroke: #A80036; stroke-width: 1.5;" width="104" x="152" y="613.6563"/><text fill="#000000" font-family="sans-serif" font-size="12" lengthAdjust="spacingAndGlyphs" textLength="84" x="162" y="634.7949">容器的生命周期</text><path d="M102,387.7813 L112,387.7813 C127,387.7813 127,630.6406 142,630.6406 L152,630.6406 " fill="none" style="stroke: #A80036; stroke-width: 1.0;"/><rect fill="#FEFECE" filter="url(#fu9auhrv4ser2)" height="33.9688" rx="12.5" ry="12.5" style="stroke: #A80036; stroke-width: 1.5;" width="104" x="152" y="667.625"/><text fill="#000000" font-family="sans-serif" font-size="12" lengthAdjust="spacingAndGlyphs" textLength="84" x="162" y="688.7637">容器项目的架构</text><path d="M102,387.7813 L112,387.7813 C127,387.7813 127,684.6094 142,684.6094 L152,684.6094 " fill="none" style="stroke: #A80036; stroke-width: 1.0;"/><rect fill="#FEFECE" filter="url(#fu9auhrv4ser2)" height="33.9688" rx="12.5" ry="12.5" style="stroke: #A80036; stroke-width: 1.5;" width="83" x="152" y="721.5938"/><text fill="#000000" font-family="sans-serif" font-size="12" lengthAdjust="spacingAndGlyphs" textLength="63" x="162" y="742.7324">容器 vs VM</text><path d="M102,387.7813 L112,387.7813 C127,387.7813 127,738.5781 142,738.5781 L152,738.5781 " fill="none" style="stroke: #A80036; stroke-width: 1.0;"/><!--
--></g></svg>