<svg xmlns="http://www.w3.org/2000/svg" xmlns:xlink="http://www.w3.org/1999/xlink" width="565" height="118" contentScriptType="application/ecmascript" contentStyleType="text/css" style="width:565px;height:118px" preserveAspectRatio="none" version="1.1" viewBox="0 0 565 118" zoomAndPan="magnify"><defs><filter id="fpkesyian334d" width="300%" height="300%" x="-1" y="-1"><feGaussianBlur result="blurOut" stdDeviation="2"/><feColorMatrix in="blurOut" result="blurOut2" type="matrix" values="0 0 0 0 0 0 0 0 0 0 0 0 0 0 0 0 0 0 .4 0"/><feOffset dx="4" dy="4" in="blurOut2" result="blurOut3"/><feBlend in="SourceGraphic" in2="blurOut3" mode="normal"/></filter></defs><g><rect style="stroke:#a80036;stroke-width:1.5" width="68" height="33.969" x="10" y="46.984" fill="#FEFECE" filter="url(#fpkesyian334d)" rx="12.5" ry="12.5"/><text x="20" y="68.123" fill="#000" font-family="sans-serif" font-size="12" lengthAdjust="spacingAndGlyphs" textLength="48">面试总结</text><rect style="stroke:#a80036;stroke-width:1.5" width="92" height="33.969" x="128" y="20" fill="#FEFECE" filter="url(#fpkesyian334d)" rx="12.5" ry="12.5"/><text x="138" y="41.139" fill="#000" font-family="sans-serif" font-size="12" lengthAdjust="spacingAndGlyphs" textLength="72">常规面试内容</text><rect style="stroke:#a80036;stroke-width:1.5" width="80" height="33.969" x="270" y="20" fill="#FEFECE" filter="url(#fpkesyian334d)" rx="12.5" ry="12.5"/><text x="280" y="41.139" fill="#000" font-family="sans-serif" font-size="12" lengthAdjust="spacingAndGlyphs" textLength="60">兴趣、爱好</text><path fill="none" d="M220,36.9844 L230,36.9844 C245,36.9844 245,36.9844 260,36.9844 L270,36.9844" style="stroke:#a80036;stroke-width:1"/><path fill="none" d="M78,63.9688 L88,63.9688 C103,63.9688 103,36.9844 118,36.9844 L128,36.9844" style="stroke:#a80036;stroke-width:1"/><rect style="stroke:#a80036;stroke-width:1.5" width="56" height="33.969" x="128" y="73.969" fill="#FEFECE" filter="url(#fpkesyian334d)" rx="12.5" ry="12.5"/><text x="138" y="95.107" fill="#000" font-family="sans-serif" font-size="12" lengthAdjust="spacingAndGlyphs" textLength="36">小技巧</text><rect style="stroke:#a80036;stroke-width:1.5" width="320" height="33.969" x="234" y="73.969" fill="#FEFECE" filter="url(#fpkesyian334d)" rx="12.5" ry="12.5"/><text x="244" y="95.107" fill="#000" font-family="sans-serif" font-size="12" lengthAdjust="spacingAndGlyphs" textLength="300">1.故意出一些模糊不清的题，用于测试他主动询问的能力</text><path fill="none" d="M184,90.9531 L194,90.9531 C209,90.9531 209,90.9531 224,90.9531 L234,90.9531" style="stroke:#a80036;stroke-width:1"/><path fill="none" d="M78,63.9688 L88,63.9688 C103,63.9688 103,90.9531 118,90.9531 L128,90.9531" style="stroke:#a80036;stroke-width:1"/></g></svg>