<svg xmlns="http://www.w3.org/2000/svg" xmlns:xlink="http://www.w3.org/1999/xlink" width="457" height="982" contentScriptType="application/ecmascript" contentStyleType="text/css" style="width:457px;height:982px" preserveAspectRatio="none" version="1.1" viewBox="0 0 457 982" zoomAndPan="magnify"><defs><filter id="fegdaoepfc0og" width="300%" height="300%" x="-1" y="-1"><feGaussianBlur result="blurOut" stdDeviation="2"/><feColorMatrix in="blurOut" result="blurOut2" type="matrix" values="0 0 0 0 0 0 0 0 0 0 0 0 0 0 0 0 0 0 .4 0"/><feOffset dx="4" dy="4" in="blurOut2" result="blurOut3"/><feBlend in="SourceGraphic" in2="blurOut3" mode="normal"/></filter></defs><g><rect style="stroke:#a80036;stroke-width:1.5" width="92" height="33.969" x="10" y="478.734" fill="#FEFECE" filter="url(#fegdaoepfc0og)" rx="12.5" ry="12.5"/><text x="20" y="499.873" fill="#000" font-family="sans-serif" font-size="12" lengthAdjust="spacingAndGlyphs" textLength="72">企业架构演化</text><rect style="stroke:#a80036;stroke-width:1.5" width="68" height="33.969" x="152" y="100.953" fill="#FEFECE" filter="url(#fegdaoepfc0og)" rx="12.5" ry="12.5"/><text x="162" y="122.092" fill="#000" font-family="sans-serif" font-size="12" lengthAdjust="spacingAndGlyphs" textLength="48">业务架构</text><rect style="stroke:#a80036;stroke-width:1.5" width="68" height="33.969" x="270" y="20" fill="#FEFECE" filter="url(#fegdaoepfc0og)" rx="12.5" ry="12.5"/><text x="280" y="41.139" fill="#000" font-family="sans-serif" font-size="12" lengthAdjust="spacingAndGlyphs" textLength="48">单体架构</text><path fill="none" d="M220,117.9375 L230,117.9375 C245,117.9375 245,36.9844 260,36.9844 L270,36.9844" style="stroke:#a80036;stroke-width:1"/><rect style="stroke:#a80036;stroke-width:1.5" width="68" height="33.969" x="270" y="73.969" fill="#FEFECE" filter="url(#fegdaoepfc0og)" rx="12.5" ry="12.5"/><text x="280" y="95.107" fill="#000" font-family="sans-serif" font-size="12" lengthAdjust="spacingAndGlyphs" textLength="48">垂直架构</text><path fill="none" d="M220,117.9375 L230,117.9375 C245,117.9375 245,90.9531 260,90.9531 L270,90.9531" style="stroke:#a80036;stroke-width:1"/><rect style="stroke:#a80036;stroke-width:1.5" width="139" height="33.969" x="270" y="127.938" fill="#FEFECE" filter="url(#fegdaoepfc0og)" rx="12.5" ry="12.5"/><text x="280" y="149.076" fill="#000" font-family="sans-serif" font-size="12" lengthAdjust="spacingAndGlyphs" textLength="119">面向服务的架构(SOA)</text><path fill="none" d="M220,117.9375 L230,117.9375 C245,117.9375 245,144.9219 260,144.9219 L270,144.9219" style="stroke:#a80036;stroke-width:1"/><rect style="stroke:#a80036;stroke-width:1.5" width="92" height="33.969" x="270" y="181.906" fill="#FEFECE" filter="url(#fegdaoepfc0og)" rx="12.5" ry="12.5"/><text x="280" y="203.045" fill="#000" font-family="sans-serif" font-size="12" lengthAdjust="spacingAndGlyphs" textLength="72">微服务化架构</text><path fill="none" d="M220,117.9375 L230,117.9375 C245,117.9375 245,198.8906 260,198.8906 L270,198.8906" style="stroke:#a80036;stroke-width:1"/><path fill="none" d="M102,495.7188 L112,495.7188 C127,495.7188 127,117.9375 142,117.9375 L152,117.9375" style="stroke:#a80036;stroke-width:1"/><rect style="stroke:#a80036;stroke-width:1.5" width="68" height="33.969" x="152" y="316.828" fill="#FEFECE" filter="url(#fegdaoepfc0og)" rx="12.5" ry="12.5"/><text x="162" y="337.967" fill="#000" font-family="sans-serif" font-size="12" lengthAdjust="spacingAndGlyphs" textLength="48">技术架构</text><rect style="stroke:#a80036;stroke-width:1.5" width="96" height="33.969" x="270" y="235.875" fill="#FEFECE" filter="url(#fegdaoepfc0og)" rx="12.5" ry="12.5"/><text x="280" y="257.014" fill="#000" font-family="sans-serif" font-size="12" lengthAdjust="spacingAndGlyphs" textLength="76">物理机/虚拟机</text><path fill="none" d="M220,333.8125 L230,333.8125 C245,333.8125 245,252.8594 260,252.8594 L270,252.8594" style="stroke:#a80036;stroke-width:1"/><rect style="stroke:#a80036;stroke-width:1.5" width="127" height="33.969" x="270" y="289.844" fill="#FEFECE" filter="url(#fegdaoepfc0og)" rx="12.5" ry="12.5"/><text x="280" y="310.982" fill="#000" font-family="sans-serif" font-size="12" lengthAdjust="spacingAndGlyphs" textLength="107">云计算(Iaas/Paas)</text><path fill="none" d="M220,333.8125 L230,333.8125 C245,333.8125 245,306.8281 260,306.8281 L270,306.8281" style="stroke:#a80036;stroke-width:1"/><rect style="stroke:#a80036;stroke-width:1.5" width="174" height="33.969" x="270" y="343.813" fill="#FEFECE" filter="url(#fegdaoepfc0og)" rx="12.5" ry="12.5"/><text x="280" y="364.951" fill="#000" font-family="sans-serif" font-size="12" lengthAdjust="spacingAndGlyphs" textLength="154">容器+SpringCloud/Dubbo</text><path fill="none" d="M220,333.8125 L230,333.8125 C245,333.8125 245,360.7969 260,360.7969 L270,360.7969" style="stroke:#a80036;stroke-width:1"/><rect style="stroke:#a80036;stroke-width:1.5" width="98" height="33.969" x="270" y="397.781" fill="#FEFECE" filter="url(#fegdaoepfc0og)" rx="12.5" ry="12.5"/><text x="280" y="418.92" fill="#000" font-family="sans-serif" font-size="12" lengthAdjust="spacingAndGlyphs" textLength="78">ServiceMesh</text><path fill="none" d="M220,333.8125 L230,333.8125 C245,333.8125 245,414.7656 260,414.7656 L270,414.7656" style="stroke:#a80036;stroke-width:1"/><path fill="none" d="M102,495.7188 L112,495.7188 C127,495.7188 127,333.8125 142,333.8125 L152,333.8125" style="stroke:#a80036;stroke-width:1"/><rect style="stroke:#a80036;stroke-width:1.5" width="68" height="33.969" x="152" y="505.719" fill="#FEFECE" filter="url(#fegdaoepfc0og)" rx="12.5" ry="12.5"/><text x="162" y="526.857" fill="#000" font-family="sans-serif" font-size="12" lengthAdjust="spacingAndGlyphs" textLength="48">数据架构</text><rect style="stroke:#a80036;stroke-width:1.5" width="92" height="33.969" x="270" y="451.75" fill="#FEFECE" filter="url(#fegdaoepfc0og)" rx="12.5" ry="12.5"/><text x="280" y="472.889" fill="#000" font-family="sans-serif" font-size="12" lengthAdjust="spacingAndGlyphs" textLength="72">简单统计分析</text><path fill="none" d="M220,522.7031 L230,522.7031 C245,522.7031 245,468.7344 260,468.7344 L270,468.7344" style="stroke:#a80036;stroke-width:1"/><rect style="stroke:#a80036;stroke-width:1.5" width="92" height="33.969" x="270" y="505.719" fill="#FEFECE" filter="url(#fegdaoepfc0og)" rx="12.5" ry="12.5"/><text x="280" y="526.857" fill="#000" font-family="sans-serif" font-size="12" lengthAdjust="spacingAndGlyphs" textLength="72">支持管理决策</text><path fill="none" d="M220,522.7031 L230,522.7031 C245,522.7031 245,522.7031 260,522.7031 L270,522.7031" style="stroke:#a80036;stroke-width:1"/><rect style="stroke:#a80036;stroke-width:1.5" width="116" height="33.969" x="270" y="559.688" fill="#FEFECE" filter="url(#fegdaoepfc0og)" rx="12.5" ry="12.5"/><text x="280" y="580.826" fill="#000" font-family="sans-serif" font-size="12" lengthAdjust="spacingAndGlyphs" textLength="96">数据运营驱动创新</text><path fill="none" d="M220,522.7031 L230,522.7031 C245,522.7031 245,576.6719 260,576.6719 L270,576.6719" style="stroke:#a80036;stroke-width:1"/><path fill="none" d="M102,495.7188 L112,495.7188 C127,495.7188 127,522.7031 142,522.7031 L152,522.7031" style="stroke:#a80036;stroke-width:1"/><rect style="stroke:#a80036;stroke-width:1.5" width="68" height="33.969" x="152" y="694.609" fill="#FEFECE" filter="url(#fegdaoepfc0og)" rx="12.5" ry="12.5"/><text x="162" y="715.748" fill="#000" font-family="sans-serif" font-size="12" lengthAdjust="spacingAndGlyphs" textLength="48">研发流程</text><rect style="stroke:#a80036;stroke-width:1.5" width="104" height="33.969" x="270" y="613.656" fill="#FEFECE" filter="url(#fegdaoepfc0og)" rx="12.5" ry="12.5"/><text x="280" y="634.795" fill="#000" font-family="sans-serif" font-size="12" lengthAdjust="spacingAndGlyphs" textLength="84">测试发布手工化</text><path fill="none" d="M220,711.5938 L230,711.5938 C245,711.5938 245,630.6406 260,630.6406 L270,630.6406" style="stroke:#a80036;stroke-width:1"/><rect style="stroke:#a80036;stroke-width:1.5" width="104" height="33.969" x="270" y="667.625" fill="#FEFECE" filter="url(#fegdaoepfc0og)" rx="12.5" ry="12.5"/><text x="280" y="688.764" fill="#000" font-family="sans-serif" font-size="12" lengthAdjust="spacingAndGlyphs" textLength="84">测试发布脚本化</text><path fill="none" d="M220,711.5938 L230,711.5938 C245,711.5938 245,684.6094 260,684.6094 L270,684.6094" style="stroke:#a80036;stroke-width:1"/><rect style="stroke:#a80036;stroke-width:1.5" width="104" height="33.969" x="270" y="721.594" fill="#FEFECE" filter="url(#fegdaoepfc0og)" rx="12.5" ry="12.5"/><text x="280" y="742.732" fill="#000" font-family="sans-serif" font-size="12" lengthAdjust="spacingAndGlyphs" textLength="84">测试发布平台化</text><path fill="none" d="M220,711.5938 L230,711.5938 C245,711.5938 245,738.5781 260,738.5781 L270,738.5781" style="stroke:#a80036;stroke-width:1"/><rect style="stroke:#a80036;stroke-width:1.5" width="67" height="33.969" x="270" y="775.563" fill="#FEFECE" filter="url(#fegdaoepfc0og)" rx="12.5" ry="12.5"/><text x="280" y="796.701" fill="#000" font-family="sans-serif" font-size="12" lengthAdjust="spacingAndGlyphs" textLength="47">DevOps</text><path fill="none" d="M220,711.5938 L230,711.5938 C245,711.5938 245,792.5469 260,792.5469 L270,792.5469" style="stroke:#a80036;stroke-width:1"/><path fill="none" d="M102,495.7188 L112,495.7188 C127,495.7188 127,711.5938 142,711.5938 L152,711.5938" style="stroke:#a80036;stroke-width:1"/><rect style="stroke:#a80036;stroke-width:1.5" width="68" height="33.969" x="152" y="883.5" fill="#FEFECE" filter="url(#fegdaoepfc0og)" rx="12.5" ry="12.5"/><text x="162" y="904.639" fill="#000" font-family="sans-serif" font-size="12" lengthAdjust="spacingAndGlyphs" textLength="48">组织架构</text><rect style="stroke:#a80036;stroke-width:1.5" width="92" height="33.969" x="270" y="829.531" fill="#FEFECE" filter="url(#fegdaoepfc0og)" rx="12.5" ry="12.5"/><text x="280" y="850.67" fill="#000" font-family="sans-serif" font-size="12" lengthAdjust="spacingAndGlyphs" textLength="72">研发运维隔离</text><path fill="none" d="M220,900.4844 L230,900.4844 C245,900.4844 245,846.5156 260,846.5156 L270,846.5156" style="stroke:#a80036;stroke-width:1"/><rect style="stroke:#a80036;stroke-width:1.5" width="152" height="33.969" x="270" y="883.5" fill="#FEFECE" filter="url(#fegdaoepfc0og)" rx="12.5" ry="12.5"/><text x="280" y="904.639" fill="#000" font-family="sans-serif" font-size="12" lengthAdjust="spacingAndGlyphs" textLength="132">建立中台组衔接研发运维</text><path fill="none" d="M220,900.4844 L230,900.4844 C245,900.4844 245,900.4844 260,900.4844 L270,900.4844" style="stroke:#a80036;stroke-width:1"/><rect style="stroke:#a80036;stroke-width:1.5" width="176" height="33.969" x="270" y="937.469" fill="#FEFECE" filter="url(#fegdaoepfc0og)" rx="12.5" ry="12.5"/><text x="280" y="958.607" fill="#000" font-family="sans-serif" font-size="12" lengthAdjust="spacingAndGlyphs" textLength="156">建立架构委员会融合研发运维</text><path fill="none" d="M220,900.4844 L230,900.4844 C245,900.4844 245,954.4531 260,954.4531 L270,954.4531" style="stroke:#a80036;stroke-width:1"/><path fill="none" d="M102,495.7188 L112,495.7188 C127,495.7188 127,900.4844 142,900.4844 L152,900.4844" style="stroke:#a80036;stroke-width:1"/></g></svg>