<?xml version="1.0" encoding="UTF-8" standalone="no"?><svg xmlns="http://www.w3.org/2000/svg" xmlns:xlink="http://www.w3.org/1999/xlink" contentScriptType="application/ecmascript" contentStyleType="text/css" height="982px" preserveAspectRatio="none" style="width:457px;height:982px;" version="1.1" viewBox="0 0 457 982" width="457px" zoomAndPan="magnify"><defs><filter height="300%" id="fegdaoepfc0og" width="300%" x="-1" y="-1"><feGaussianBlur result="blurOut" stdDeviation="2.0"/><feColorMatrix in="blurOut" result="blurOut2" type="matrix" values="0 0 0 0 0 0 0 0 0 0 0 0 0 0 0 0 0 0 .4 0"/><feOffset dx="4.0" dy="4.0" in="blurOut2" result="blurOut3"/><feBlend in="SourceGraphic" in2="blurOut3" mode="normal"/></filter></defs><g><rect fill="#FEFECE" filter="url(#fegdaoepfc0og)" height="33.9688" rx="12.5" ry="12.5" style="stroke: #A80036; stroke-width: 1.5;" width="92" x="10" y="478.7344"/><text fill="#000000" font-family="sans-serif" font-size="12" lengthAdjust="spacingAndGlyphs" textLength="72" x="20" y="499.873">企业架构演化</text><rect fill="#FEFECE" filter="url(#fegdaoepfc0og)" height="33.9688" rx="12.5" ry="12.5" style="stroke: #A80036; stroke-width: 1.5;" width="68" x="152" y="100.9531"/><text fill="#000000" font-family="sans-serif" font-size="12" lengthAdjust="spacingAndGlyphs" textLength="48" x="162" y="122.0918">业务架构</text><rect fill="#FEFECE" filter="url(#fegdaoepfc0og)" height="33.9688" rx="12.5" ry="12.5" style="stroke: #A80036; stroke-width: 1.5;" width="68" x="270" y="20"/><text fill="#000000" font-family="sans-serif" font-size="12" lengthAdjust="spacingAndGlyphs" textLength="48" x="280" y="41.1387">单体架构</text><path d="M220,117.9375 L230,117.9375 C245,117.9375 245,36.9844 260,36.9844 L270,36.9844 " fill="none" style="stroke: #A80036; stroke-width: 1.0;"/><rect fill="#FEFECE" filter="url(#fegdaoepfc0og)" height="33.9688" rx="12.5" ry="12.5" style="stroke: #A80036; stroke-width: 1.5;" width="68" x="270" y="73.9688"/><text fill="#000000" font-family="sans-serif" font-size="12" lengthAdjust="spacingAndGlyphs" textLength="48" x="280" y="95.1074">垂直架构</text><path d="M220,117.9375 L230,117.9375 C245,117.9375 245,90.9531 260,90.9531 L270,90.9531 " fill="none" style="stroke: #A80036; stroke-width: 1.0;"/><rect fill="#FEFECE" filter="url(#fegdaoepfc0og)" height="33.9688" rx="12.5" ry="12.5" style="stroke: #A80036; stroke-width: 1.5;" width="139" x="270" y="127.9375"/><text fill="#000000" font-family="sans-serif" font-size="12" lengthAdjust="spacingAndGlyphs" textLength="119" x="280" y="149.0762">面向服务的架构(SOA)</text><path d="M220,117.9375 L230,117.9375 C245,117.9375 245,144.9219 260,144.9219 L270,144.9219 " fill="none" style="stroke: #A80036; stroke-width: 1.0;"/><rect fill="#FEFECE" filter="url(#fegdaoepfc0og)" height="33.9688" rx="12.5" ry="12.5" style="stroke: #A80036; stroke-width: 1.5;" width="92" x="270" y="181.9063"/><text fill="#000000" font-family="sans-serif" font-size="12" lengthAdjust="spacingAndGlyphs" textLength="72" x="280" y="203.0449">微服务化架构</text><path d="M220,117.9375 L230,117.9375 C245,117.9375 245,198.8906 260,198.8906 L270,198.8906 " fill="none" style="stroke: #A80036; stroke-width: 1.0;"/><path d="M102,495.7188 L112,495.7188 C127,495.7188 127,117.9375 142,117.9375 L152,117.9375 " fill="none" style="stroke: #A80036; stroke-width: 1.0;"/><rect fill="#FEFECE" filter="url(#fegdaoepfc0og)" height="33.9688" rx="12.5" ry="12.5" style="stroke: #A80036; stroke-width: 1.5;" width="68" x="152" y="316.8281"/><text fill="#000000" font-family="sans-serif" font-size="12" lengthAdjust="spacingAndGlyphs" textLength="48" x="162" y="337.9668">技术架构</text><rect fill="#FEFECE" filter="url(#fegdaoepfc0og)" height="33.9688" rx="12.5" ry="12.5" style="stroke: #A80036; stroke-width: 1.5;" width="96" x="270" y="235.875"/><text fill="#000000" font-family="sans-serif" font-size="12" lengthAdjust="spacingAndGlyphs" textLength="76" x="280" y="257.0137">物理机/虚拟机</text><path d="M220,333.8125 L230,333.8125 C245,333.8125 245,252.8594 260,252.8594 L270,252.8594 " fill="none" style="stroke: #A80036; stroke-width: 1.0;"/><rect fill="#FEFECE" filter="url(#fegdaoepfc0og)" height="33.9688" rx="12.5" ry="12.5" style="stroke: #A80036; stroke-width: 1.5;" width="127" x="270" y="289.8438"/><text fill="#000000" font-family="sans-serif" font-size="12" lengthAdjust="spacingAndGlyphs" textLength="107" x="280" y="310.9824">云计算(Iaas/Paas)</text><path d="M220,333.8125 L230,333.8125 C245,333.8125 245,306.8281 260,306.8281 L270,306.8281 " fill="none" style="stroke: #A80036; stroke-width: 1.0;"/><rect fill="#FEFECE" filter="url(#fegdaoepfc0og)" height="33.9688" rx="12.5" ry="12.5" style="stroke: #A80036; stroke-width: 1.5;" width="174" x="270" y="343.8125"/><text fill="#000000" font-family="sans-serif" font-size="12" lengthAdjust="spacingAndGlyphs" textLength="154" x="280" y="364.9512">容器+SpringCloud/Dubbo</text><path d="M220,333.8125 L230,333.8125 C245,333.8125 245,360.7969 260,360.7969 L270,360.7969 " fill="none" style="stroke: #A80036; stroke-width: 1.0;"/><rect fill="#FEFECE" filter="url(#fegdaoepfc0og)" height="33.9688" rx="12.5" ry="12.5" style="stroke: #A80036; stroke-width: 1.5;" width="98" x="270" y="397.7813"/><text fill="#000000" font-family="sans-serif" font-size="12" lengthAdjust="spacingAndGlyphs" textLength="78" x="280" y="418.9199">ServiceMesh</text><path d="M220,333.8125 L230,333.8125 C245,333.8125 245,414.7656 260,414.7656 L270,414.7656 " fill="none" style="stroke: #A80036; stroke-width: 1.0;"/><path d="M102,495.7188 L112,495.7188 C127,495.7188 127,333.8125 142,333.8125 L152,333.8125 " fill="none" style="stroke: #A80036; stroke-width: 1.0;"/><rect fill="#FEFECE" filter="url(#fegdaoepfc0og)" height="33.9688" rx="12.5" ry="12.5" style="stroke: #A80036; stroke-width: 1.5;" width="68" x="152" y="505.7188"/><text fill="#000000" font-family="sans-serif" font-size="12" lengthAdjust="spacingAndGlyphs" textLength="48" x="162" y="526.8574">数据架构</text><rect fill="#FEFECE" filter="url(#fegdaoepfc0og)" height="33.9688" rx="12.5" ry="12.5" style="stroke: #A80036; stroke-width: 1.5;" width="92" x="270" y="451.75"/><text fill="#000000" font-family="sans-serif" font-size="12" lengthAdjust="spacingAndGlyphs" textLength="72" x="280" y="472.8887">简单统计分析</text><path d="M220,522.7031 L230,522.7031 C245,522.7031 245,468.7344 260,468.7344 L270,468.7344 " fill="none" style="stroke: #A80036; stroke-width: 1.0;"/><rect fill="#FEFECE" filter="url(#fegdaoepfc0og)" height="33.9688" rx="12.5" ry="12.5" style="stroke: #A80036; stroke-width: 1.5;" width="92" x="270" y="505.7188"/><text fill="#000000" font-family="sans-serif" font-size="12" lengthAdjust="spacingAndGlyphs" textLength="72" x="280" y="526.8574">支持管理决策</text><path d="M220,522.7031 L230,522.7031 C245,522.7031 245,522.7031 260,522.7031 L270,522.7031 " fill="none" style="stroke: #A80036; stroke-width: 1.0;"/><rect fill="#FEFECE" filter="url(#fegdaoepfc0og)" height="33.9688" rx="12.5" ry="12.5" style="stroke: #A80036; stroke-width: 1.5;" width="116" x="270" y="559.6875"/><text fill="#000000" font-family="sans-serif" font-size="12" lengthAdjust="spacingAndGlyphs" textLength="96" x="280" y="580.8262">数据运营驱动创新</text><path d="M220,522.7031 L230,522.7031 C245,522.7031 245,576.6719 260,576.6719 L270,576.6719 " fill="none" style="stroke: #A80036; stroke-width: 1.0;"/><path d="M102,495.7188 L112,495.7188 C127,495.7188 127,522.7031 142,522.7031 L152,522.7031 " fill="none" style="stroke: #A80036; stroke-width: 1.0;"/><rect fill="#FEFECE" filter="url(#fegdaoepfc0og)" height="33.9688" rx="12.5" ry="12.5" style="stroke: #A80036; stroke-width: 1.5;" width="68" x="152" y="694.6094"/><text fill="#000000" font-family="sans-serif" font-size="12" lengthAdjust="spacingAndGlyphs" textLength="48" x="162" y="715.748">研发流程</text><rect fill="#FEFECE" filter="url(#fegdaoepfc0og)" height="33.9688" rx="12.5" ry="12.5" style="stroke: #A80036; stroke-width: 1.5;" width="104" x="270" y="613.6563"/><text fill="#000000" font-family="sans-serif" font-size="12" lengthAdjust="spacingAndGlyphs" textLength="84" x="280" y="634.7949">测试发布手工化</text><path d="M220,711.5938 L230,711.5938 C245,711.5938 245,630.6406 260,630.6406 L270,630.6406 " fill="none" style="stroke: #A80036; stroke-width: 1.0;"/><rect fill="#FEFECE" filter="url(#fegdaoepfc0og)" height="33.9688" rx="12.5" ry="12.5" style="stroke: #A80036; stroke-width: 1.5;" width="104" x="270" y="667.625"/><text fill="#000000" font-family="sans-serif" font-size="12" lengthAdjust="spacingAndGlyphs" textLength="84" x="280" y="688.7637">测试发布脚本化</text><path d="M220,711.5938 L230,711.5938 C245,711.5938 245,684.6094 260,684.6094 L270,684.6094 " fill="none" style="stroke: #A80036; stroke-width: 1.0;"/><rect fill="#FEFECE" filter="url(#fegdaoepfc0og)" height="33.9688" rx="12.5" ry="12.5" style="stroke: #A80036; stroke-width: 1.5;" width="104" x="270" y="721.5938"/><text fill="#000000" font-family="sans-serif" font-size="12" lengthAdjust="spacingAndGlyphs" textLength="84" x="280" y="742.7324">测试发布平台化</text><path d="M220,711.5938 L230,711.5938 C245,711.5938 245,738.5781 260,738.5781 L270,738.5781 " fill="none" style="stroke: #A80036; stroke-width: 1.0;"/><rect fill="#FEFECE" filter="url(#fegdaoepfc0og)" height="33.9688" rx="12.5" ry="12.5" style="stroke: #A80036; stroke-width: 1.5;" width="67" x="270" y="775.5625"/><text fill="#000000" font-family="sans-serif" font-size="12" lengthAdjust="spacingAndGlyphs" textLength="47" x="280" y="796.7012">DevOps</text><path d="M220,711.5938 L230,711.5938 C245,711.5938 245,792.5469 260,792.5469 L270,792.5469 " fill="none" style="stroke: #A80036; stroke-width: 1.0;"/><path d="M102,495.7188 L112,495.7188 C127,495.7188 127,711.5938 142,711.5938 L152,711.5938 " fill="none" style="stroke: #A80036; stroke-width: 1.0;"/><rect fill="#FEFECE" filter="url(#fegdaoepfc0og)" height="33.9688" rx="12.5" ry="12.5" style="stroke: #A80036; stroke-width: 1.5;" width="68" x="152" y="883.5"/><text fill="#000000" font-family="sans-serif" font-size="12" lengthAdjust="spacingAndGlyphs" textLength="48" x="162" y="904.6387">组织架构</text><rect fill="#FEFECE" filter="url(#fegdaoepfc0og)" height="33.9688" rx="12.5" ry="12.5" style="stroke: #A80036; stroke-width: 1.5;" width="92" x="270" y="829.5313"/><text fill="#000000" font-family="sans-serif" font-size="12" lengthAdjust="spacingAndGlyphs" textLength="72" x="280" y="850.6699">研发运维隔离</text><path d="M220,900.4844 L230,900.4844 C245,900.4844 245,846.5156 260,846.5156 L270,846.5156 " fill="none" style="stroke: #A80036; stroke-width: 1.0;"/><rect fill="#FEFECE" filter="url(#fegdaoepfc0og)" height="33.9688" rx="12.5" ry="12.5" style="stroke: #A80036; stroke-width: 1.5;" width="152" x="270" y="883.5"/><text fill="#000000" font-family="sans-serif" font-size="12" lengthAdjust="spacingAndGlyphs" textLength="132" x="280" y="904.6387">建立中台组衔接研发运维</text><path d="M220,900.4844 L230,900.4844 C245,900.4844 245,900.4844 260,900.4844 L270,900.4844 " fill="none" style="stroke: #A80036; stroke-width: 1.0;"/><rect fill="#FEFECE" filter="url(#fegdaoepfc0og)" height="33.9688" rx="12.5" ry="12.5" style="stroke: #A80036; stroke-width: 1.5;" width="176" x="270" y="937.4688"/><text fill="#000000" font-family="sans-serif" font-size="12" lengthAdjust="spacingAndGlyphs" textLength="156" x="280" y="958.6074">建立架构委员会融合研发运维</text><path d="M220,900.4844 L230,900.4844 C245,900.4844 245,954.4531 260,954.4531 L270,954.4531 " fill="none" style="stroke: #A80036; stroke-width: 1.0;"/><path d="M102,495.7188 L112,495.7188 C127,495.7188 127,900.4844 142,900.4844 L152,900.4844 " fill="none" style="stroke: #A80036; stroke-width: 1.0;"/><!--
--></g></svg>