<svg xmlns="http://www.w3.org/2000/svg" xmlns:xlink="http://www.w3.org/1999/xlink" width="885" height="1657" contentScriptType="application/ecmascript" contentStyleType="text/css" style="width:885px;height:1657px" preserveAspectRatio="none" version="1.1" viewBox="0 0 885 1657" zoomAndPan="magnify"><defs><filter id="f1ys4jnsmwy77" width="300%" height="300%" x="-1" y="-1"><feGaussianBlur result="blurOut" stdDeviation="2"/><feColorMatrix in="blurOut" result="blurOut2" type="matrix" values="0 0 0 0 0 0 0 0 0 0 0 0 0 0 0 0 0 0 .4 0"/><feOffset dx="4" dy="4" in="blurOut2" result="blurOut3"/><feBlend in="SourceGraphic" in2="blurOut3" mode="normal"/></filter></defs><g><rect style="stroke:#a80036;stroke-width:1.5" width="92" height="33.969" x="10" y="816.039" fill="#FEFECE" filter="url(#f1ys4jnsmwy77)" rx="12.5" ry="12.5"/><text x="20" y="837.178" fill="#000" font-family="sans-serif" font-size="12" lengthAdjust="spacingAndGlyphs" textLength="72">如何高效学习</text><rect style="stroke:#a80036;stroke-width:1.5" width="68" height="33.969" x="152" y="73.969" fill="#FEFECE" filter="url(#f1ys4jnsmwy77)" rx="12.5" ry="12.5"/><text x="162" y="95.107" fill="#000" font-family="sans-serif" font-size="12" lengthAdjust="spacingAndGlyphs" textLength="48">认识自己</text><rect style="stroke:#a80036;stroke-width:1.5" width="80" height="33.969" x="270" y="73.969" fill="#FEFECE" filter="url(#f1ys4jnsmwy77)" rx="12.5" ry="12.5"/><text x="280" y="95.107" fill="#000" font-family="sans-serif" font-size="12" lengthAdjust="spacingAndGlyphs" textLength="60">应该学什么</text><rect style="stroke:#a80036;stroke-width:1.5" width="68" height="33.969" x="400" y="20" fill="#FEFECE" filter="url(#f1ys4jnsmwy77)" rx="12.5" ry="12.5"/><text x="410" y="41.139" fill="#000" font-family="sans-serif" font-size="12" lengthAdjust="spacingAndGlyphs" textLength="48">即学即用</text><path fill="none" d="M350,90.9531 L360,90.9531 C375,90.9531 375,36.9844 390,36.9844 L400,36.9844" style="stroke:#a80036;stroke-width:1"/><rect style="stroke:#a80036;stroke-width:1.5" width="56" height="33.969" x="400" y="73.969" fill="#FEFECE" filter="url(#f1ys4jnsmwy77)" rx="12.5" ry="12.5"/><text x="410" y="95.107" fill="#000" font-family="sans-serif" font-size="12" lengthAdjust="spacingAndGlyphs" textLength="36">基本功</text><rect style="stroke:#a80036;stroke-width:1.5" width="212" height="33.969" x="506" y="73.969" fill="#FEFECE" filter="url(#f1ys4jnsmwy77)" rx="12.5" ry="12.5"/><text x="516" y="95.107" fill="#000" font-family="sans-serif" font-size="12" lengthAdjust="spacingAndGlyphs" textLength="192">可以作为其他知识或能力的基础知识</text><path fill="none" d="M456,90.9531 L466,90.9531 C481,90.9531 481,90.9531 496,90.9531 L506,90.9531" style="stroke:#a80036;stroke-width:1"/><path fill="none" d="M350,90.9531 L360,90.9531 C375,90.9531 375,90.9531 390,90.9531 L400,90.9531" style="stroke:#a80036;stroke-width:1"/><rect style="stroke:#a80036;stroke-width:1.5" width="68" height="33.969" x="400" y="127.938" fill="#FEFECE" filter="url(#f1ys4jnsmwy77)" rx="12.5" ry="12.5"/><text x="410" y="149.076" fill="#000" font-family="sans-serif" font-size="12" lengthAdjust="spacingAndGlyphs" textLength="48">兴趣驱动</text><path fill="none" d="M350,90.9531 L360,90.9531 C375,90.9531 375,144.9219 390,144.9219 L400,144.9219" style="stroke:#a80036;stroke-width:1"/><path fill="none" d="M220,90.9531 L230,90.9531 C245,90.9531 245,90.9531 260,90.9531 L270,90.9531" style="stroke:#a80036;stroke-width:1"/><path fill="none" d="M102,833.0234 L112,833.0234 C127,833.0234 127,90.9531 142,90.9531 L152,90.9531" style="stroke:#a80036;stroke-width:1"/><rect style="stroke:#a80036;stroke-width:1.5" width="68" height="33.969" x="152" y="613.656" fill="#FEFECE" filter="url(#f1ys4jnsmwy77)" rx="12.5" ry="12.5"/><text x="162" y="634.795" fill="#000" font-family="sans-serif" font-size="12" lengthAdjust="spacingAndGlyphs" textLength="48">分清知识</text><rect style="stroke:#a80036;stroke-width:1.5" width="123" height="33.969" x="270" y="208.891" fill="#FEFECE" filter="url(#f1ys4jnsmwy77)" rx="12.5" ry="12.5"/><text x="280" y="230.029" fill="#000" font-family="sans-serif" font-size="12" lengthAdjust="spacingAndGlyphs" textLength="103">🔥取其精华去其糟粕</text><rect style="stroke:#a80036;stroke-width:1.5" width="68" height="33.969" x="443" y="181.906" fill="#FEFECE" filter="url(#f1ys4jnsmwy77)" rx="12.5" ry="12.5"/><text x="453" y="203.045" fill="#000" font-family="sans-serif" font-size="12" lengthAdjust="spacingAndGlyphs" textLength="48">学海无涯</text><path fill="none" d="M393,225.875 L403,225.875 C418,225.875 418,198.8906 433,198.8906 L443,198.8906" style="stroke:#a80036;stroke-width:1"/><rect style="stroke:#a80036;stroke-width:1.5" width="248" height="33.969" x="443" y="235.875" fill="#FEFECE" filter="url(#f1ys4jnsmwy77)" rx="12.5" ry="12.5"/><text x="453" y="257.014" fill="#000" font-family="sans-serif" font-size="12" lengthAdjust="spacingAndGlyphs" textLength="228">知识大爆炸时代，没办法把所有东西都学完</text><path fill="none" d="M393,225.875 L403,225.875 C418,225.875 418,252.8594 433,252.8594 L443,252.8594" style="stroke:#a80036;stroke-width:1"/><path fill="none" d="M220,630.6406 L230,630.6406 C245,630.6406 245,225.875 260,225.875 L270,225.875" style="stroke:#a80036;stroke-width:1"/><rect style="stroke:#a80036;stroke-width:1.5" width="44" height="33.969" x="270" y="397.781" fill="#FEFECE" filter="url(#f1ys4jnsmwy77)" rx="12.5" ry="12.5"/><text x="280" y="418.92" fill="#000" font-family="sans-serif" font-size="12" lengthAdjust="spacingAndGlyphs" textLength="24">分类</text><rect style="stroke:#a80036;stroke-width:1.5" width="316" height="33.969" x="364" y="343.813" fill="#FEFECE" filter="url(#f1ys4jnsmwy77)" rx="12.5" ry="12.5"/><text x="374" y="364.951" fill="#000" font-family="sans-serif" font-size="12" lengthAdjust="spacingAndGlyphs" textLength="296">第一手知识: 原创、硬干货。根据自己经历研究总结而成</text><rect style="stroke:#a80036;stroke-width:1.5" width="80" height="33.969" x="730" y="289.844" fill="#FEFECE" filter="url(#f1ys4jnsmwy77)" rx="12.5" ry="12.5"/><text x="740" y="310.982" fill="#000" font-family="sans-serif" font-size="12" lengthAdjust="spacingAndGlyphs" textLength="60">硬干货文章</text><path fill="none" d="M680,360.7969 L690,360.7969 C705,360.7969 705,306.8281 720,306.8281 L730,306.8281" style="stroke:#a80036;stroke-width:1"/><rect style="stroke:#a80036;stroke-width:1.5" width="90" height="33.969" x="730" y="343.813" fill="#FEFECE" filter="url(#f1ys4jnsmwy77)" rx="12.5" ry="12.5"/><text x="740" y="364.951" fill="#000" font-family="sans-serif" font-size="12" lengthAdjust="spacingAndGlyphs" textLength="70">源码&amp;架构图</text><path fill="none" d="M680,360.7969 L690,360.7969 C705,360.7969 705,360.7969 720,360.7969 L730,360.7969" style="stroke:#a80036;stroke-width:1"/><rect style="stroke:#a80036;stroke-width:1.5" width="68" height="33.969" x="730" y="397.781" fill="#FEFECE" filter="url(#f1ys4jnsmwy77)" rx="12.5" ry="12.5"/><text x="740" y="418.92" fill="#000" font-family="sans-serif" font-size="12" lengthAdjust="spacingAndGlyphs" textLength="48">优秀论文</text><path fill="none" d="M680,360.7969 L690,360.7969 C705,360.7969 705,414.7656 720,414.7656 L730,414.7656" style="stroke:#a80036;stroke-width:1"/><path fill="none" d="M314,414.7656 L324,414.7656 C339,414.7656 339,360.7969 354,360.7969 L364,360.7969" style="stroke:#a80036;stroke-width:1"/><rect style="stroke:#a80036;stroke-width:1.5" width="280" height="33.969" x="364" y="397.781" fill="#FEFECE" filter="url(#f1ys4jnsmwy77)" rx="12.5" ry="12.5"/><text x="374" y="418.92" fill="#000" font-family="sans-serif" font-size="12" lengthAdjust="spacingAndGlyphs" textLength="260">第二手知识: 硬干货的转述。带有作者的个人理解</text><path fill="none" d="M314,414.7656 L324,414.7656 C339,414.7656 339,414.7656 354,414.7656 L364,414.7656" style="stroke:#a80036;stroke-width:1"/><rect style="stroke:#a80036;stroke-width:1.5" width="220" height="33.969" x="364" y="451.75" fill="#FEFECE" filter="url(#f1ys4jnsmwy77)" rx="12.5" ry="12.5"/><text x="374" y="472.889" fill="#000" font-family="sans-serif" font-size="12" lengthAdjust="spacingAndGlyphs" textLength="200">第三手知识: 对第一、二手知识的转化</text><path fill="none" d="M314,414.7656 L324,414.7656 C339,414.7656 339,468.7344 354,468.7344 L364,468.7344" style="stroke:#a80036;stroke-width:1"/><rect style="stroke:#a80036;stroke-width:1.5" width="268" height="33.969" x="364" y="505.719" fill="#FEFECE" filter="url(#f1ys4jnsmwy77)" rx="12.5" ry="12.5"/><text x="374" y="526.857" fill="#000" font-family="sans-serif" font-size="12" lengthAdjust="spacingAndGlyphs" textLength="248">第四手知识: 使用未经证实的内容。纯个人理解</text><path fill="none" d="M314,414.7656 L324,414.7656 C339,414.7656 339,522.7031 354,522.7031 L364,522.7031" style="stroke:#a80036;stroke-width:1"/><path fill="none" d="M220,630.6406 L230,630.6406 C245,630.6406 245,414.7656 260,414.7656 L270,414.7656" style="stroke:#a80036;stroke-width:1"/><rect style="stroke:#a80036;stroke-width:1.5" width="68" height="33.969" x="270" y="721.594" fill="#FEFECE" filter="url(#f1ys4jnsmwy77)" rx="12.5" ry="12.5"/><text x="280" y="742.732" fill="#000" font-family="sans-serif" font-size="12" lengthAdjust="spacingAndGlyphs" textLength="48">如何做？</text><rect style="stroke:#a80036;stroke-width:1.5" width="104" height="33.969" x="388" y="586.672" fill="#FEFECE" filter="url(#f1ys4jnsmwy77)" rx="12.5" ry="12.5"/><text x="398" y="607.811" fill="#000" font-family="sans-serif" font-size="12" lengthAdjust="spacingAndGlyphs" textLength="84">能够对知识评级</text><path fill="none" d="M338,738.5781 L348,738.5781 C363,738.5781 363,603.6563 378,603.6563 L388,603.6563" style="stroke:#a80036;stroke-width:1"/><rect style="stroke:#a80036;stroke-width:1.5" width="152" height="33.969" x="388" y="640.641" fill="#FEFECE" filter="url(#f1ys4jnsmwy77)" rx="12.5" ry="12.5"/><text x="398" y="661.779" fill="#000" font-family="sans-serif" font-size="12" lengthAdjust="spacingAndGlyphs" textLength="132">区别对待不同等级的知识</text><rect style="stroke:#a80036;stroke-width:1.5" width="80" height="33.969" x="590" y="559.688" fill="#FEFECE" filter="url(#f1ys4jnsmwy77)" rx="12.5" ry="12.5"/><text x="600" y="580.826" fill="#000" font-family="sans-serif" font-size="12" lengthAdjust="spacingAndGlyphs" textLength="60">一手要研究</text><path fill="none" d="M540,657.625 L550,657.625 C565,657.625 565,576.6719 580,576.6719 L590,576.6719" style="stroke:#a80036;stroke-width:1"/><rect style="stroke:#a80036;stroke-width:1.5" width="80" height="33.969" x="590" y="613.656" fill="#FEFECE" filter="url(#f1ys4jnsmwy77)" rx="12.5" ry="12.5"/><text x="600" y="634.795" fill="#000" font-family="sans-serif" font-size="12" lengthAdjust="spacingAndGlyphs" textLength="60">二手要精读</text><path fill="none" d="M540,657.625 L550,657.625 C565,657.625 565,630.6406 580,630.6406 L590,630.6406" style="stroke:#a80036;stroke-width:1"/><rect style="stroke:#a80036;stroke-width:1.5" width="80" height="33.969" x="590" y="667.625" fill="#FEFECE" filter="url(#f1ys4jnsmwy77)" rx="12.5" ry="12.5"/><text x="600" y="688.764" fill="#000" font-family="sans-serif" font-size="12" lengthAdjust="spacingAndGlyphs" textLength="60">三手要速读</text><path fill="none" d="M540,657.625 L550,657.625 C565,657.625 565,684.6094 580,684.6094 L590,684.6094" style="stroke:#a80036;stroke-width:1"/><rect style="stroke:#a80036;stroke-width:1.5" width="80" height="33.969" x="590" y="721.594" fill="#FEFECE" filter="url(#f1ys4jnsmwy77)" rx="12.5" ry="12.5"/><text x="600" y="742.732" fill="#000" font-family="sans-serif" font-size="12" lengthAdjust="spacingAndGlyphs" textLength="60">四手要过滤</text><path fill="none" d="M540,657.625 L550,657.625 C565,657.625 565,738.5781 580,738.5781 L590,738.5781" style="stroke:#a80036;stroke-width:1"/><path fill="none" d="M338,738.5781 L348,738.5781 C363,738.5781 363,657.625 378,657.625 L388,657.625" style="stroke:#a80036;stroke-width:1"/><rect style="stroke:#a80036;stroke-width:1.5" width="116" height="33.969" x="388" y="829.531" fill="#FEFECE" filter="url(#f1ys4jnsmwy77)" rx="12.5" ry="12.5"/><text x="398" y="850.67" fill="#000" font-family="sans-serif" font-size="12" lengthAdjust="spacingAndGlyphs" textLength="96">学会追溯知识源头</text><rect style="stroke:#a80036;stroke-width:1.5" width="172" height="33.969" x="554" y="775.563" fill="#FEFECE" filter="url(#f1ys4jnsmwy77)" rx="12.5" ry="12.5"/><text x="564" y="796.701" fill="#000" font-family="sans-serif" font-size="12" lengthAdjust="spacingAndGlyphs" textLength="152">如: 搜索、阅读、咨询、交流</text><path fill="none" d="M504,846.5156 L514,846.5156 C529,846.5156 529,792.5469 544,792.5469 L554,792.5469" style="stroke:#a80036;stroke-width:1"/><rect style="stroke:#a80036;stroke-width:1.5" width="212" height="33.969" x="554" y="829.531" fill="#FEFECE" filter="url(#f1ys4jnsmwy77)" rx="12.5" ry="12.5"/><text x="564" y="850.67" fill="#000" font-family="sans-serif" font-size="12" lengthAdjust="spacingAndGlyphs" textLength="192">对有价值的知识进行更深层次的挖掘</text><path fill="none" d="M504,846.5156 L514,846.5156 C529,846.5156 529,846.5156 544,846.5156 L554,846.5156" style="stroke:#a80036;stroke-width:1"/><rect style="stroke:#a80036;stroke-width:1.5" width="152" height="33.969" x="554" y="883.5" fill="#FEFECE" filter="url(#f1ys4jnsmwy77)" rx="12.5" ry="12.5"/><text x="564" y="904.639" fill="#000" font-family="sans-serif" font-size="12" lengthAdjust="spacingAndGlyphs" textLength="132">要透彻理解而非人云亦云</text><path fill="none" d="M504,846.5156 L514,846.5156 C529,846.5156 529,900.4844 544,900.4844 L554,900.4844" style="stroke:#a80036;stroke-width:1"/><path fill="none" d="M338,738.5781 L348,738.5781 C363,738.5781 363,846.5156 378,846.5156 L388,846.5156" style="stroke:#a80036;stroke-width:1"/><path fill="none" d="M220,630.6406 L230,630.6406 C245,630.6406 245,738.5781 260,738.5781 L270,738.5781" style="stroke:#a80036;stroke-width:1"/><rect style="stroke:#a80036;stroke-width:1.5" width="68" height="33.969" x="270" y="991.438" fill="#FEFECE" filter="url(#f1ys4jnsmwy77)" rx="12.5" ry="12.5"/><text x="280" y="1012.576" fill="#000" font-family="sans-serif" font-size="12" lengthAdjust="spacingAndGlyphs" textLength="48">知识维度</text><rect style="stroke:#a80036;stroke-width:1.5" width="68" height="33.969" x="388" y="937.469" fill="#FEFECE" filter="url(#f1ys4jnsmwy77)" rx="12.5" ry="12.5"/><text x="398" y="958.607" fill="#000" font-family="sans-serif" font-size="12" lengthAdjust="spacingAndGlyphs" textLength="48">显性知识</text><rect style="stroke:#a80036;stroke-width:1.5" width="152" height="33.969" x="506" y="937.469" fill="#FEFECE" filter="url(#f1ys4jnsmwy77)" rx="12.5" ry="12.5"/><text x="516" y="958.607" fill="#000" font-family="sans-serif" font-size="12" lengthAdjust="spacingAndGlyphs" textLength="132">各种非理论、技巧类知识</text><path fill="none" d="M456,954.4531 L466,954.4531 C481,954.4531 481,954.4531 496,954.4531 L506,954.4531" style="stroke:#a80036;stroke-width:1"/><path fill="none" d="M338,1008.4219 L348,1008.4219 C363,1008.4219 363,954.4531 378,954.4531 L388,954.4531" style="stroke:#a80036;stroke-width:1"/><rect style="stroke:#a80036;stroke-width:1.5" width="68" height="33.969" x="388" y="1018.422" fill="#FEFECE" filter="url(#f1ys4jnsmwy77)" rx="12.5" ry="12.5"/><text x="398" y="1039.561" fill="#000" font-family="sans-serif" font-size="12" lengthAdjust="spacingAndGlyphs" textLength="48">隐性知识</text><rect style="stroke:#a80036;stroke-width:1.5" width="56" height="33.969" x="506" y="991.438" fill="#FEFECE" filter="url(#f1ys4jnsmwy77)" rx="12.5" ry="12.5"/><text x="516" y="1012.576" fill="#000" font-family="sans-serif" font-size="12" lengthAdjust="spacingAndGlyphs" textLength="36">方法论</text><path fill="none" d="M456,1035.4063 L466,1035.4063 C481,1035.4063 481,1008.4219 496,1008.4219 L506,1008.4219" style="stroke:#a80036;stroke-width:1"/><rect style="stroke:#a80036;stroke-width:1.5" width="68" height="33.969" x="506" y="1045.406" fill="#FEFECE" filter="url(#f1ys4jnsmwy77)" rx="12.5" ry="12.5"/><text x="516" y="1066.545" fill="#000" font-family="sans-serif" font-size="12" lengthAdjust="spacingAndGlyphs" textLength="48">设计模式</text><path fill="none" d="M456,1035.4063 L466,1035.4063 C481,1035.4063 481,1062.3906 496,1062.3906 L506,1062.3906" style="stroke:#a80036;stroke-width:1"/><path fill="none" d="M338,1008.4219 L348,1008.4219 C363,1008.4219 363,1035.4063 378,1035.4063 L388,1035.4063" style="stroke:#a80036;stroke-width:1"/><path fill="none" d="M220,630.6406 L230,630.6406 C245,630.6406 245,1008.4219 260,1008.4219 L270,1008.4219" style="stroke:#a80036;stroke-width:1"/><path fill="none" d="M102,833.0234 L112,833.0234 C127,833.0234 127,630.6406 142,630.6406 L152,630.6406" style="stroke:#a80036;stroke-width:1"/><rect style="stroke:#a80036;stroke-width:1.5" width="68" height="33.969" x="152" y="1355.727" fill="#FEFECE" filter="url(#f1ys4jnsmwy77)" rx="12.5" ry="12.5"/><text x="162" y="1376.865" fill="#000" font-family="sans-serif" font-size="12" lengthAdjust="spacingAndGlyphs" textLength="48">吸收知识</text><rect style="stroke:#a80036;stroke-width:1.5" width="176" height="33.969" x="270" y="1274.773" fill="#FEFECE" filter="url(#f1ys4jnsmwy77)" rx="12.5" ry="12.5"/><text x="280" y="1295.912" fill="#000" font-family="sans-serif" font-size="12" lengthAdjust="spacingAndGlyphs" textLength="156">思考模板让你更快的吸收知识</text><rect style="stroke:#a80036;stroke-width:1.5" width="166" height="33.969" x="496" y="1099.375" fill="#FEFECE" filter="url(#f1ys4jnsmwy77)" rx="12.5" ry="12.5"/><text x="506" y="1120.514" fill="#000" font-family="sans-serif" font-size="12" lengthAdjust="spacingAndGlyphs" textLength="146">what: 最简单的话讲述含义</text><path fill="none" d="M446,1291.7578 L456,1291.7578 C471,1291.7578 471,1116.3594 486,1116.3594 L496,1116.3594" style="stroke:#a80036;stroke-width:1"/><rect style="stroke:#a80036;stroke-width:1.5" width="183" height="33.969" x="496" y="1153.344" fill="#FEFECE" filter="url(#f1ys4jnsmwy77)" rx="12.5" ry="12.5"/><text x="506" y="1174.482" fill="#000" font-family="sans-serif" font-size="12" lengthAdjust="spacingAndGlyphs" textLength="163">origin: 知识超源，对知识分级</text><path fill="none" d="M446,1291.7578 L456,1291.7578 C471,1291.7578 471,1170.3281 486,1170.3281 L496,1170.3281" style="stroke:#a80036;stroke-width:1"/><rect style="stroke:#a80036;stroke-width:1.5" width="185" height="33.969" x="496" y="1207.313" fill="#FEFECE" filter="url(#f1ys4jnsmwy77)" rx="12.5" ry="12.5"/><text x="506" y="1228.451" fill="#000" font-family="sans-serif" font-size="12" lengthAdjust="spacingAndGlyphs" textLength="165">associate: 将知识点关联起来</text><rect style="stroke:#a80036;stroke-width:1.5" width="68" height="33.969" x="731" y="1180.328" fill="#FEFECE" filter="url(#f1ys4jnsmwy77)" rx="12.5" ry="12.5"/><text x="741" y="1201.467" fill="#000" font-family="sans-serif" font-size="12" lengthAdjust="spacingAndGlyphs" textLength="48">点串成线</text><path fill="none" d="M681,1224.2969 L691,1224.2969 C706,1224.2969 706,1197.3125 721,1197.3125 L731,1197.3125" style="stroke:#a80036;stroke-width:1"/><rect style="stroke:#a80036;stroke-width:1.5" width="68" height="33.969" x="731" y="1234.297" fill="#FEFECE" filter="url(#f1ys4jnsmwy77)" rx="12.5" ry="12.5"/><text x="741" y="1255.436" fill="#000" font-family="sans-serif" font-size="12" lengthAdjust="spacingAndGlyphs" textLength="48">线组成面</text><path fill="none" d="M681,1224.2969 L691,1224.2969 C706,1224.2969 706,1251.2813 721,1251.2813 L731,1251.2813" style="stroke:#a80036;stroke-width:1"/><path fill="none" d="M446,1291.7578 L456,1291.7578 C471,1291.7578 471,1224.2969 486,1224.2969 L496,1224.2969" style="stroke:#a80036;stroke-width:1"/><rect style="stroke:#a80036;stroke-width:1.5" width="125" height="33.969" x="496" y="1342.234" fill="#FEFECE" filter="url(#f1ys4jnsmwy77)" rx="12.5" ry="12.5"/><text x="506" y="1363.373" fill="#000" font-family="sans-serif" font-size="12" lengthAdjust="spacingAndGlyphs" textLength="105">how: 明白使用场景</text><rect style="stroke:#a80036;stroke-width:1.5" width="92" height="33.969" x="671" y="1288.266" fill="#FEFECE" filter="url(#f1ys4jnsmwy77)" rx="12.5" ry="12.5"/><text x="681" y="1309.404" fill="#000" font-family="sans-serif" font-size="12" lengthAdjust="spacingAndGlyphs" textLength="72">解决什么问题</text><path fill="none" d="M621,1359.2188 L631,1359.2188 C646,1359.2188 646,1305.25 661,1305.25 L671,1305.25" style="stroke:#a80036;stroke-width:1"/><rect style="stroke:#a80036;stroke-width:1.5" width="92" height="33.969" x="671" y="1342.234" fill="#FEFECE" filter="url(#f1ys4jnsmwy77)" rx="12.5" ry="12.5"/><text x="681" y="1363.373" fill="#000" font-family="sans-serif" font-size="12" lengthAdjust="spacingAndGlyphs" textLength="72">带来什么价值</text><path fill="none" d="M621,1359.2188 L631,1359.2188 C646,1359.2188 646,1359.2188 661,1359.2188 L671,1359.2188" style="stroke:#a80036;stroke-width:1"/><rect style="stroke:#a80036;stroke-width:1.5" width="128" height="33.969" x="671" y="1396.203" fill="#FEFECE" filter="url(#f1ys4jnsmwy77)" rx="12.5" ry="12.5"/><text x="681" y="1417.342" fill="#000" font-family="sans-serif" font-size="12" lengthAdjust="spacingAndGlyphs" textLength="108">自己什么时候可以用</text><path fill="none" d="M621,1359.2188 L631,1359.2188 C646,1359.2188 646,1413.1875 661,1413.1875 L671,1413.1875" style="stroke:#a80036;stroke-width:1"/><path fill="none" d="M446,1291.7578 L456,1291.7578 C471,1291.7578 471,1359.2188 486,1359.2188 L496,1359.2188" style="stroke:#a80036;stroke-width:1"/><rect style="stroke:#a80036;stroke-width:1.5" width="184" height="33.969" x="496" y="1450.172" fill="#FEFECE" filter="url(#f1ys4jnsmwy77)" rx="12.5" ry="12.5"/><text x="506" y="1471.311" fill="#000" font-family="sans-serif" font-size="12" lengthAdjust="spacingAndGlyphs" textLength="164">result: 反馈、反思、不断优化</text><path fill="none" d="M446,1291.7578 L456,1291.7578 C471,1291.7578 471,1467.1563 486,1467.1563 L496,1467.1563" style="stroke:#a80036;stroke-width:1"/><path fill="none" d="M220,1372.7109 L230,1372.7109 C245,1372.7109 245,1291.7578 260,1291.7578 L270,1291.7578" style="stroke:#a80036;stroke-width:1"/><rect style="stroke:#a80036;stroke-width:1.5" width="68" height="33.969" x="270" y="1558.109" fill="#FEFECE" filter="url(#f1ys4jnsmwy77)" rx="12.5" ry="12.5"/><text x="280" y="1579.248" fill="#000" font-family="sans-serif" font-size="12" lengthAdjust="spacingAndGlyphs" textLength="48">学习套路</text><rect style="stroke:#a80036;stroke-width:1.5" width="80" height="33.969" x="388" y="1504.141" fill="#FEFECE" filter="url(#f1ys4jnsmwy77)" rx="12.5" ry="12.5"/><text x="398" y="1525.279" fill="#000" font-family="sans-serif" font-size="12" lengthAdjust="spacingAndGlyphs" textLength="60">费曼学习法</text><rect style="stroke:#a80036;stroke-width:1.5" width="68" height="33.969" x="518" y="1504.141" fill="#FEFECE" filter="url(#f1ys4jnsmwy77)" rx="12.5" ry="12.5"/><text x="528" y="1525.279" fill="#000" font-family="sans-serif" font-size="12" lengthAdjust="spacingAndGlyphs" textLength="48">以教为学</text><path fill="none" d="M468,1521.125 L478,1521.125 C493,1521.125 493,1521.125 508,1521.125 L518,1521.125" style="stroke:#a80036;stroke-width:1"/><path fill="none" d="M338,1575.0938 L348,1575.0938 C363,1575.0938 363,1521.125 378,1521.125 L388,1521.125" style="stroke:#a80036;stroke-width:1"/><rect style="stroke:#a80036;stroke-width:1.5" width="80" height="33.969" x="388" y="1558.109" fill="#FEFECE" filter="url(#f1ys4jnsmwy77)" rx="12.5" ry="12.5"/><text x="398" y="1579.248" fill="#000" font-family="sans-serif" font-size="12" lengthAdjust="spacingAndGlyphs" textLength="60">西蒙学习法</text><rect style="stroke:#a80036;stroke-width:1.5" width="116" height="33.969" x="518" y="1558.109" fill="#FEFECE" filter="url(#f1ys4jnsmwy77)" rx="12.5" ry="12.5"/><text x="528" y="1579.248" fill="#000" font-family="sans-serif" font-size="12" lengthAdjust="spacingAndGlyphs" textLength="96">集中时间密集学习</text><path fill="none" d="M468,1575.0938 L478,1575.0938 C493,1575.0938 493,1575.0938 508,1575.0938 L518,1575.0938" style="stroke:#a80036;stroke-width:1"/><path fill="none" d="M338,1575.0938 L348,1575.0938 C363,1575.0938 363,1575.0938 378,1575.0938 L388,1575.0938" style="stroke:#a80036;stroke-width:1"/><rect style="stroke:#a80036;stroke-width:1.5" width="104" height="33.969" x="388" y="1612.078" fill="#FEFECE" filter="url(#f1ys4jnsmwy77)" rx="12.5" ry="12.5"/><text x="398" y="1633.217" fill="#000" font-family="sans-serif" font-size="12" lengthAdjust="spacingAndGlyphs" textLength="84">对知识进行分类</text><rect style="stroke:#a80036;stroke-width:1.5" width="332" height="33.969" x="542" y="1612.078" fill="#FEFECE" filter="url(#f1ys4jnsmwy77)" rx="12.5" ry="12.5"/><text x="552" y="1633.217" fill="#000" font-family="sans-serif" font-size="12" lengthAdjust="spacingAndGlyphs" textLength="312">对半衰期长，重要性高的知识要进行深刻的、全方位的研读</text><path fill="none" d="M492,1629.0625 L502,1629.0625 C517,1629.0625 517,1629.0625 532,1629.0625 L542,1629.0625" style="stroke:#a80036;stroke-width:1"/><path fill="none" d="M338,1575.0938 L348,1575.0938 C363,1575.0938 363,1629.0625 378,1629.0625 L388,1629.0625" style="stroke:#a80036;stroke-width:1"/><path fill="none" d="M220,1372.7109 L230,1372.7109 C245,1372.7109 245,1575.0938 260,1575.0938 L270,1575.0938" style="stroke:#a80036;stroke-width:1"/><path fill="none" d="M102,833.0234 L112,833.0234 C127,833.0234 127,1372.7109 142,1372.7109 L152,1372.7109" style="stroke:#a80036;stroke-width:1"/></g></svg>