<svg xmlns="http://www.w3.org/2000/svg" xmlns:xlink="http://www.w3.org/1999/xlink" width="1054" height="2736" contentScriptType="application/ecmascript" contentStyleType="text/css" style="width:1054px;height:2736px" preserveAspectRatio="none" version="1.1" viewBox="0 0 1054 2736" zoomAndPan="magnify"><defs><filter id="f1wg29bvz2sz5f" width="300%" height="300%" x="-1" y="-1"><feGaussianBlur result="blurOut" stdDeviation="2"/><feColorMatrix in="blurOut" result="blurOut2" type="matrix" values="0 0 0 0 0 0 0 0 0 0 0 0 0 0 0 0 0 0 .4 0"/><feOffset dx="4" dy="4" in="blurOut2" result="blurOut3"/><feBlend in="SourceGraphic" in2="blurOut3" mode="normal"/></filter></defs><g><rect style="stroke:#a80036;stroke-width:1.5" width="116" height="33.969" x="10" y="1355.727" fill="#FEFECE" filter="url(#f1wg29bvz2sz5f)" rx="12.5" ry="12.5"/><text x="20" y="1376.865" fill="#000" font-family="sans-serif" font-size="12" lengthAdjust="spacingAndGlyphs" textLength="96">如何高效阅读源码</text><rect style="stroke:#a80036;stroke-width:1.5" width="92" height="33.969" x="176" y="316.828" fill="#FEFECE" filter="url(#f1wg29bvz2sz5f)" rx="12.5" ry="12.5"/><text x="186" y="337.967" fill="#000" font-family="sans-serif" font-size="12" lengthAdjust="spacingAndGlyphs" textLength="72">如何对待开源</text><rect style="stroke:#a80036;stroke-width:1.5" width="140" height="33.969" x="318" y="127.938" fill="#FEFECE" filter="url(#f1wg29bvz2sz5f)" rx="12.5" ry="12.5"/><text x="328" y="149.076" fill="#000" font-family="sans-serif" font-size="12" lengthAdjust="spacingAndGlyphs" textLength="120">1.需要树立正确的观念</text><rect style="stroke:#a80036;stroke-width:1.5" width="308" height="33.969" x="508" y="20" fill="#FEFECE" filter="url(#f1wg29bvz2sz5f)" rx="12.5" ry="12.5"/><text x="518" y="41.139" fill="#000" font-family="sans-serif" font-size="12" lengthAdjust="spacingAndGlyphs" textLength="288">不管你是什么身份，都可以从开源项目中学到很多东西</text><path fill="none" d="M458,144.9219 L468,144.9219 C483,144.9219 483,36.9844 498,36.9844 L508,36.9844" style="stroke:#a80036;stroke-width:1"/><rect style="stroke:#a80036;stroke-width:1.5" width="174" height="33.969" x="508" y="154.922" fill="#FEFECE" filter="url(#f1wg29bvz2sz5f)" rx="12.5" ry="12.5"/><text x="518" y="176.06" fill="#000" font-family="sans-serif" font-size="12" lengthAdjust="spacingAndGlyphs" textLength="154">实例:理解 Redis 的网络模型</text><rect style="stroke:#a80036;stroke-width:1.5" width="170" height="33.969" x="732" y="73.969" fill="#FEFECE" filter="url(#f1wg29bvz2sz5f)" rx="12.5" ry="12.5"/><text x="742" y="95.107" fill="#000" font-family="sans-serif" font-size="12" lengthAdjust="spacingAndGlyphs" textLength="150">不需要成为 Redis 的开发者</text><path fill="none" d="M682,171.9063 L692,171.9063 C707,171.9063 707,90.9531 722,90.9531 L732,90.9531" style="stroke:#a80036;stroke-width:1"/><rect style="stroke:#a80036;stroke-width:1.5" width="154" height="33.969" x="732" y="127.938" fill="#FEFECE" filter="url(#f1wg29bvz2sz5f)" rx="12.5" ry="12.5"/><text x="742" y="149.076" fill="#000" font-family="sans-serif" font-size="12" lengthAdjust="spacingAndGlyphs" textLength="134">不需要一定要用到 Redis</text><path fill="none" d="M682,171.9063 L692,171.9063 C707,171.9063 707,144.9219 722,144.9219 L732,144.9219" style="stroke:#a80036;stroke-width:1"/><rect style="stroke:#a80036;stroke-width:1.5" width="176" height="33.969" x="732" y="181.906" fill="#FEFECE" filter="url(#f1wg29bvz2sz5f)" rx="12.5" ry="12.5"/><text x="742" y="203.045" fill="#000" font-family="sans-serif" font-size="12" lengthAdjust="spacingAndGlyphs" textLength="156">只要具备一定的网络编程基础</text><path fill="none" d="M682,171.9063 L692,171.9063 C707,171.9063 707,198.8906 722,198.8906 L732,198.8906" style="stroke:#a80036;stroke-width:1"/><rect style="stroke:#a80036;stroke-width:1.5" width="311" height="33.969" x="732" y="235.875" fill="#FEFECE" filter="url(#f1wg29bvz2sz5f)" rx="12.5" ry="12.5"/><text x="742" y="257.014" fill="#000" font-family="sans-serif" font-size="12" lengthAdjust="spacingAndGlyphs" textLength="291">都可阅读源码学习 Redis 这种单进程的 Reactor 模型</text><path fill="none" d="M682,171.9063 L692,171.9063 C707,171.9063 707,252.8594 722,252.8594 L732,252.8594" style="stroke:#a80036;stroke-width:1"/><path fill="none" d="M458,144.9219 L468,144.9219 C483,144.9219 483,171.9063 498,171.9063 L508,171.9063" style="stroke:#a80036;stroke-width:1"/><path fill="none" d="M268,333.8125 L278,333.8125 C293,333.8125 293,144.9219 308,144.9219 L318,144.9219" style="stroke:#a80036;stroke-width:1"/><rect style="stroke:#a80036;stroke-width:1.5" width="176" height="33.969" x="318" y="343.813" fill="#FEFECE" filter="url(#f1wg29bvz2sz5f)" rx="12.5" ry="12.5"/><text x="328" y="364.951" fill="#000" font-family="sans-serif" font-size="12" lengthAdjust="spacingAndGlyphs" textLength="156">2.不要只盯着数据结构和算法</text><rect style="stroke:#a80036;stroke-width:1.5" width="260" height="33.969" x="544" y="289.844" fill="#FEFECE" filter="url(#f1wg29bvz2sz5f)" rx="12.5" ry="12.5"/><text x="554" y="310.982" fill="#000" font-family="sans-serif" font-size="12" lengthAdjust="spacingAndGlyphs" textLength="240">这两点在学习开源项目的时候并没有那么重要</text><path fill="none" d="M494,360.7969 L504,360.7969 C519,360.7969 519,306.8281 534,306.8281 L544,306.8281" style="stroke:#a80036;stroke-width:1"/><rect style="stroke:#a80036;stroke-width:1.5" width="222" height="33.969" x="544" y="370.797" fill="#FEFECE" filter="url(#f1wg29bvz2sz5f)" rx="12.5" ry="12.5"/><text x="554" y="391.935" fill="#000" font-family="sans-serif" font-size="12" lengthAdjust="spacingAndGlyphs" textLength="202">实例: Nginx 使用红黑树来管理定时器</text><rect style="stroke:#a80036;stroke-width:1.5" width="200" height="33.969" x="816" y="343.813" fill="#FEFECE" filter="url(#f1wg29bvz2sz5f)" rx="12.5" ry="12.5"/><text x="826" y="364.951" fill="#000" font-family="sans-serif" font-size="12" lengthAdjust="spacingAndGlyphs" textLength="180">对大部分人，只要知道这点就够了</text><path fill="none" d="M766,387.7813 L776,387.7813 C791,387.7813 791,360.7969 806,360.7969 L816,360.7969" style="stroke:#a80036;stroke-width:1"/><rect style="stroke:#a80036;stroke-width:1.5" width="218" height="33.969" x="816" y="397.781" fill="#FEFECE" filter="url(#f1wg29bvz2sz5f)" rx="12.5" ry="12.5"/><text x="826" y="418.92" fill="#000" font-family="sans-serif" font-size="12" lengthAdjust="spacingAndGlyphs" textLength="198">无需去研究 Nginx 实现红黑树的源码</text><path fill="none" d="M766,387.7813 L776,387.7813 C791,387.7813 791,414.7656 806,414.7656 L816,414.7656" style="stroke:#a80036;stroke-width:1"/><path fill="none" d="M494,360.7969 L504,360.7969 C519,360.7969 519,387.7813 534,387.7813 L544,387.7813" style="stroke:#a80036;stroke-width:1"/><path fill="none" d="M268,333.8125 L278,333.8125 C293,333.8125 293,360.7969 308,360.7969 L318,360.7969" style="stroke:#a80036;stroke-width:1"/><rect style="stroke:#a80036;stroke-width:1.5" width="164" height="33.969" x="318" y="532.703" fill="#FEFECE" filter="url(#f1wg29bvz2sz5f)" rx="12.5" ry="12.5"/><text x="328" y="553.842" fill="#000" font-family="sans-serif" font-size="12" lengthAdjust="spacingAndGlyphs" textLength="144">3.采取自顶向下的学习方法</text><rect style="stroke:#a80036;stroke-width:1.5" width="188" height="33.969" x="532" y="451.75" fill="#FEFECE" filter="url(#f1wg29bvz2sz5f)" rx="12.5" ry="12.5"/><text x="542" y="472.889" fill="#000" font-family="sans-serif" font-size="12" lengthAdjust="spacingAndGlyphs" textLength="168">源码不是第一步，而是最后一步</text><path fill="none" d="M482,549.6875 L492,549.6875 C507,549.6875 507,468.7344 522,468.7344 L532,468.7344" style="stroke:#a80036;stroke-width:1"/><rect style="stroke:#a80036;stroke-width:1.5" width="152" height="33.969" x="532" y="505.719" fill="#FEFECE" filter="url(#f1wg29bvz2sz5f)" rx="12.5" ry="12.5"/><text x="542" y="526.857" fill="#000" font-family="sans-serif" font-size="12" lengthAdjust="spacingAndGlyphs" textLength="132">不要一上来就去看源码，</text><path fill="none" d="M482,549.6875 L492,549.6875 C507,549.6875 507,522.7031 522,522.7031 L532,522.7031" style="stroke:#a80036;stroke-width:1"/><rect style="stroke:#a80036;stroke-width:1.5" width="332" height="33.969" x="532" y="559.688" fill="#FEFECE" filter="url(#f1wg29bvz2sz5f)" rx="12.5" ry="12.5"/><text x="542" y="580.826" fill="#000" font-family="sans-serif" font-size="12" lengthAdjust="spacingAndGlyphs" textLength="312">而是要基本掌握了功能、原理、关键设计之后再去看源码，</text><path fill="none" d="M482,549.6875 L492,549.6875 C507,549.6875 507,576.6719 522,576.6719 L532,576.6719" style="stroke:#a80036;stroke-width:1"/><rect style="stroke:#a80036;stroke-width:1.5" width="404" height="33.969" x="532" y="613.656" fill="#FEFECE" filter="url(#f1wg29bvz2sz5f)" rx="12.5" ry="12.5"/><text x="542" y="634.795" fill="#000" font-family="sans-serif" font-size="12" lengthAdjust="spacingAndGlyphs" textLength="384">看源码的主要目的是为了学习其代码的写作方式，以及关键技术的实现。</text><path fill="none" d="M482,549.6875 L492,549.6875 C507,549.6875 507,630.6406 522,630.6406 L532,630.6406" style="stroke:#a80036;stroke-width:1"/><path fill="none" d="M268,333.8125 L278,333.8125 C293,333.8125 293,549.6875 308,549.6875 L318,549.6875" style="stroke:#a80036;stroke-width:1"/><path fill="none" d="M126,1372.7109 L136,1372.7109 C151,1372.7109 151,333.8125 166,333.8125 L176,333.8125" style="stroke:#a80036;stroke-width:1"/><rect style="stroke:#a80036;stroke-width:1.5" width="88" height="33.969" x="176" y="721.594" fill="#FEFECE" filter="url(#f1wg29bvz2sz5f)" rx="12.5" ry="12.5"/><text x="186" y="742.732" fill="#000" font-family="sans-serif" font-size="12" lengthAdjust="spacingAndGlyphs" textLength="68">第一步: 安装</text><rect style="stroke:#a80036;stroke-width:1.5" width="308" height="33.969" x="314" y="667.625" fill="#FEFECE" filter="url(#f1wg29bvz2sz5f)" rx="12.5" ry="12.5"/><text x="324" y="688.764" fill="#000" font-family="sans-serif" font-size="12" lengthAdjust="spacingAndGlyphs" textLength="288">了解依赖组件，而依赖的组件是系统设计和实现的基础</text><path fill="none" d="M264,738.5781 L274,738.5781 C289,738.5781 289,684.6094 304,684.6094 L314,684.6094" style="stroke:#a80036;stroke-width:1"/><rect style="stroke:#a80036;stroke-width:1.5" width="272" height="33.969" x="314" y="721.594" fill="#FEFECE" filter="url(#f1wg29bvz2sz5f)" rx="12.5" ry="12.5"/><text x="324" y="742.732" fill="#000" font-family="sans-serif" font-size="12" lengthAdjust="spacingAndGlyphs" textLength="252">安装目录也能够提供一些使用和运行的基本信息</text><path fill="none" d="M264,738.5781 L274,738.5781 C289,738.5781 289,738.5781 304,738.5781 L314,738.5781" style="stroke:#a80036;stroke-width:1"/><rect style="stroke:#a80036;stroke-width:1.5" width="200" height="33.969" x="314" y="775.563" fill="#FEFECE" filter="url(#f1wg29bvz2sz5f)" rx="12.5" ry="12.5"/><text x="324" y="796.701" fill="#000" font-family="sans-serif" font-size="12" lengthAdjust="spacingAndGlyphs" textLength="180">系统提供了哪些工具方便我们使用</text><path fill="none" d="M264,738.5781 L274,738.5781 C289,738.5781 289,792.5469 304,792.5469 L314,792.5469" style="stroke:#a80036;stroke-width:1"/><path fill="none" d="M126,1372.7109 L136,1372.7109 C151,1372.7109 151,738.5781 166,738.5781 L176,738.5781" style="stroke:#a80036;stroke-width:1"/><rect style="stroke:#a80036;stroke-width:1.5" width="92" height="33.969" x="176" y="937.469" fill="#FEFECE" filter="url(#f1wg29bvz2sz5f)" rx="12.5" ry="12.5"/><text x="186" y="958.607" fill="#000" font-family="sans-serif" font-size="12" lengthAdjust="spacingAndGlyphs" textLength="72">第二步：运行</text><rect style="stroke:#a80036;stroke-width:1.5" width="236" height="33.969" x="318" y="856.516" fill="#FEFECE" filter="url(#f1wg29bvz2sz5f)" rx="12.5" ry="12.5"/><text x="328" y="877.654" fill="#000" font-family="sans-serif" font-size="12" lengthAdjust="spacingAndGlyphs" textLength="216">两个地方要特别关注：命令行和配置文件</text><rect style="stroke:#a80036;stroke-width:1.5" width="224" height="33.969" x="604" y="829.531" fill="#FEFECE" filter="url(#f1wg29bvz2sz5f)" rx="12.5" ry="12.5"/><text x="614" y="850.67" fill="#000" font-family="sans-serif" font-size="12" lengthAdjust="spacingAndGlyphs" textLength="204">系统具备哪些能力和系统将会如何运行</text><path fill="none" d="M554,873.5 L564,873.5 C579,873.5 579,846.5156 594,846.5156 L604,846.5156" style="stroke:#a80036;stroke-width:1"/><rect style="stroke:#a80036;stroke-width:1.5" width="320" height="33.969" x="604" y="883.5" fill="#FEFECE" filter="url(#f1wg29bvz2sz5f)" rx="12.5" ry="12.5"/><text x="614" y="904.639" fill="#000" font-family="sans-serif" font-size="12" lengthAdjust="spacingAndGlyphs" textLength="300">这些信息是我们窥视系统内部运行机制和原理的一扇窗口</text><path fill="none" d="M554,873.5 L564,873.5 C579,873.5 579,900.4844 594,900.4844 L604,900.4844" style="stroke:#a80036;stroke-width:1"/><path fill="none" d="M268,954.4531 L278,954.4531 C293,954.4531 293,873.5 308,873.5 L318,873.5" style="stroke:#a80036;stroke-width:1"/><rect style="stroke:#a80036;stroke-width:1.5" width="116" height="33.969" x="318" y="991.438" fill="#FEFECE" filter="url(#f1wg29bvz2sz5f)" rx="12.5" ry="12.5"/><text x="328" y="1012.576" fill="#000" font-family="sans-serif" font-size="12" lengthAdjust="spacingAndGlyphs" textLength="96">令行参数和配置项</text><rect style="stroke:#a80036;stroke-width:1.5" width="320" height="33.969" x="484" y="937.469" fill="#FEFECE" filter="url(#f1wg29bvz2sz5f)" rx="12.5" ry="12.5"/><text x="494" y="958.607" fill="#000" font-family="sans-serif" font-size="12" lengthAdjust="spacingAndGlyphs" textLength="300">将每个命令行参数和配置项的作用和原理都全部掌握清楚</text><path fill="none" d="M434,1008.4219 L444,1008.4219 C459,1008.4219 459,954.4531 474,954.4531 L484,954.4531" style="stroke:#a80036;stroke-width:1"/><rect style="stroke:#a80036;stroke-width:1.5" width="188" height="33.969" x="484" y="991.438" fill="#FEFECE" filter="url(#f1wg29bvz2sz5f)" rx="12.5" ry="12.5"/><text x="494" y="1012.576" fill="#000" font-family="sans-serif" font-size="12" lengthAdjust="spacingAndGlyphs" textLength="168">包括配置项的原理、作用、影响</text><path fill="none" d="M434,1008.4219 L444,1008.4219 C459,1008.4219 459,1008.4219 474,1008.4219 L484,1008.4219" style="stroke:#a80036;stroke-width:1"/><rect style="stroke:#a80036;stroke-width:1.5" width="260" height="33.969" x="484" y="1045.406" fill="#FEFECE" filter="url(#f1wg29bvz2sz5f)" rx="12.5" ry="12.5"/><text x="494" y="1066.545" fill="#000" font-family="sans-serif" font-size="12" lengthAdjust="spacingAndGlyphs" textLength="240">尝试去修改配置项然后看看系统会有什么变化</text><path fill="none" d="M434,1008.4219 L444,1008.4219 C459,1008.4219 459,1062.3906 474,1062.3906 L484,1062.3906" style="stroke:#a80036;stroke-width:1"/><path fill="none" d="M268,954.4531 L278,954.4531 C293,954.4531 293,1008.4219 308,1008.4219 L318,1008.4219" style="stroke:#a80036;stroke-width:1"/><path fill="none" d="M126,1372.7109 L136,1372.7109 C151,1372.7109 151,954.4531 166,954.4531 L176,954.4531" style="stroke:#a80036;stroke-width:1"/><rect style="stroke:#a80036;stroke-width:1.5" width="116" height="33.969" x="176" y="1355.727" fill="#FEFECE" filter="url(#f1wg29bvz2sz5f)" rx="12.5" ry="12.5"/><text x="186" y="1376.865" fill="#000" font-family="sans-serif" font-size="12" lengthAdjust="spacingAndGlyphs" textLength="96">第三步：原理研究</text><rect style="stroke:#a80036;stroke-width:1.5" width="152" height="33.969" x="342" y="1099.375" fill="#FEFECE" filter="url(#f1wg29bvz2sz5f)" rx="12.5" ry="12.5"/><text x="352" y="1120.514" fill="#000" font-family="sans-serif" font-size="12" lengthAdjust="spacingAndGlyphs" textLength="132">关键就是“系统性”三个字</text><path fill="none" d="M292,1372.7109 L302,1372.7109 C317,1372.7109 317,1116.3594 332,1116.3594 L342,1116.3594" style="stroke:#a80036;stroke-width:1"/><rect style="stroke:#a80036;stroke-width:1.5" width="152" height="33.969" x="342" y="1153.344" fill="#FEFECE" filter="url(#f1wg29bvz2sz5f)" rx="12.5" ry="12.5"/><text x="352" y="1174.482" fill="#000" font-family="sans-serif" font-size="12" lengthAdjust="spacingAndGlyphs" textLength="132">关键特性的基本实现原理</text><rect style="stroke:#a80036;stroke-width:1.5" width="246" height="33.969" x="544" y="1126.359" fill="#FEFECE" filter="url(#f1wg29bvz2sz5f)" rx="12.5" ry="12.5"/><text x="554" y="1147.498" fill="#000" font-family="sans-serif" font-size="12" lengthAdjust="spacingAndGlyphs" textLength="226">这个开源项目的「关键特性」是什么(卖点)</text><path fill="none" d="M494,1170.3281 L504,1170.3281 C519,1170.3281 519,1143.3438 534,1143.3438 L544,1143.3438" style="stroke:#a80036;stroke-width:1"/><rect style="stroke:#a80036;stroke-width:1.5" width="236" height="33.969" x="544" y="1180.328" fill="#FEFECE" filter="url(#f1wg29bvz2sz5f)" rx="12.5" ry="12.5"/><text x="554" y="1201.467" fill="#000" font-family="sans-serif" font-size="12" lengthAdjust="spacingAndGlyphs" textLength="216">常见的有高性能、高可用、可扩展等特性</text><path fill="none" d="M494,1170.3281 L504,1170.3281 C519,1170.3281 519,1197.3125 534,1197.3125 L544,1197.3125" style="stroke:#a80036;stroke-width:1"/><path fill="none" d="M292,1372.7109 L302,1372.7109 C317,1372.7109 317,1170.3281 332,1170.3281 L342,1170.3281" style="stroke:#a80036;stroke-width:1"/><rect style="stroke:#a80036;stroke-width:1.5" width="104" height="33.969" x="342" y="1342.234" fill="#FEFECE" filter="url(#f1wg29bvz2sz5f)" rx="12.5" ry="12.5"/><text x="352" y="1363.373" fill="#000" font-family="sans-serif" font-size="12" lengthAdjust="spacingAndGlyphs" textLength="84">优缺点对比分析</text><rect style="stroke:#a80036;stroke-width:1.5" width="44" height="33.969" x="496" y="1261.281" fill="#FEFECE" filter="url(#f1wg29bvz2sz5f)" rx="12.5" ry="12.5"/><text x="506" y="1282.42" fill="#000" font-family="sans-serif" font-size="12" lengthAdjust="spacingAndGlyphs" textLength="24">意义</text><rect style="stroke:#a80036;stroke-width:1.5" width="332" height="33.969" x="590" y="1234.297" fill="#FEFECE" filter="url(#f1wg29bvz2sz5f)" rx="12.5" ry="12.5"/><text x="600" y="1255.436" fill="#000" font-family="sans-serif" font-size="12" lengthAdjust="spacingAndGlyphs" textLength="312">只有清楚掌握技术方案的优缺点后才算真正的掌握这门技术</text><path fill="none" d="M540,1278.2656 L550,1278.2656 C565,1278.2656 565,1251.2813 580,1251.2813 L590,1251.2813" style="stroke:#a80036;stroke-width:1"/><rect style="stroke:#a80036;stroke-width:1.5" width="380" height="33.969" x="590" y="1288.266" fill="#FEFECE" filter="url(#f1wg29bvz2sz5f)" rx="12.5" ry="12.5"/><text x="600" y="1309.404" fill="#000" font-family="sans-serif" font-size="12" lengthAdjust="spacingAndGlyphs" textLength="360">只有掌握了技术方案的优缺点后才能在架构设计的时做出合理的选择</text><path fill="none" d="M540,1278.2656 L550,1278.2656 C565,1278.2656 565,1305.25 580,1305.25 L590,1305.25" style="stroke:#a80036;stroke-width:1"/><path fill="none" d="M446,1359.2188 L456,1359.2188 C471,1359.2188 471,1278.2656 486,1278.2656 L496,1278.2656" style="stroke:#a80036;stroke-width:1"/><rect style="stroke:#a80036;stroke-width:1.5" width="96" height="33.969" x="496" y="1396.203" fill="#FEFECE" filter="url(#f1wg29bvz2sz5f)" rx="12.5" ry="12.5"/><text x="506" y="1417.342" fill="#000" font-family="sans-serif" font-size="12" lengthAdjust="spacingAndGlyphs" textLength="76">方法:对比分析</text><rect style="stroke:#a80036;stroke-width:1.5" width="164" height="33.969" x="642" y="1342.234" fill="#FEFECE" filter="url(#f1wg29bvz2sz5f)" rx="12.5" ry="12.5"/><text x="652" y="1363.373" fill="#000" font-family="sans-serif" font-size="12" lengthAdjust="spacingAndGlyphs" textLength="144">将两个类似的系统进行对比</text><path fill="none" d="M592,1413.1875 L602,1413.1875 C617,1413.1875 617,1359.2188 632,1359.2188 L642,1359.2188" style="stroke:#a80036;stroke-width:1"/><rect style="stroke:#a80036;stroke-width:1.5" width="308" height="33.969" x="642" y="1396.203" fill="#FEFECE" filter="url(#f1wg29bvz2sz5f)" rx="12.5" ry="12.5"/><text x="652" y="1417.342" fill="#000" font-family="sans-serif" font-size="12" lengthAdjust="spacingAndGlyphs" textLength="288">看看它们的实现差异，以及不同的实现优缺点都是什么</text><path fill="none" d="M592,1413.1875 L602,1413.1875 C617,1413.1875 617,1413.1875 632,1413.1875 L642,1413.1875" style="stroke:#a80036;stroke-width:1"/><rect style="stroke:#a80036;stroke-width:1.5" width="217" height="33.969" x="642" y="1450.172" fill="#FEFECE" filter="url(#f1wg29bvz2sz5f)" rx="12.5" ry="12.5"/><text x="652" y="1471.311" fill="#000" font-family="sans-serif" font-size="12" lengthAdjust="spacingAndGlyphs" textLength="197">典型的对比有 Memcache 和 Redis</text><path fill="none" d="M592,1413.1875 L602,1413.1875 C617,1413.1875 617,1467.1563 632,1467.1563 L642,1467.1563" style="stroke:#a80036;stroke-width:1"/><path fill="none" d="M446,1359.2188 L456,1359.2188 C471,1359.2188 471,1413.1875 486,1413.1875 L496,1413.1875" style="stroke:#a80036;stroke-width:1"/><path fill="none" d="M292,1372.7109 L302,1372.7109 C317,1372.7109 317,1359.2188 332,1359.2188 L342,1359.2188" style="stroke:#a80036;stroke-width:1"/><rect style="stroke:#a80036;stroke-width:1.5" width="104" height="33.969" x="342" y="1558.109" fill="#FEFECE" filter="url(#f1wg29bvz2sz5f)" rx="12.5" ry="12.5"/><text x="352" y="1579.248" fill="#000" font-family="sans-serif" font-size="12" lengthAdjust="spacingAndGlyphs" textLength="84">原理研究的手段</text><rect style="stroke:#a80036;stroke-width:1.5" width="128" height="33.969" x="496" y="1504.141" fill="#FEFECE" filter="url(#f1wg29bvz2sz5f)" rx="12.5" ry="12.5"/><text x="506" y="1525.279" fill="#000" font-family="sans-serif" font-size="12" lengthAdjust="spacingAndGlyphs" textLength="108">通读项目的设计文档</text><path fill="none" d="M446,1575.0938 L456,1575.0938 C471,1575.0938 471,1521.125 486,1521.125 L496,1521.125" style="stroke:#a80036;stroke-width:1"/><rect style="stroke:#a80036;stroke-width:1.5" width="152" height="33.969" x="496" y="1558.109" fill="#FEFECE" filter="url(#f1wg29bvz2sz5f)" rx="12.5" ry="12.5"/><text x="506" y="1579.248" fill="#000" font-family="sans-serif" font-size="12" lengthAdjust="spacingAndGlyphs" textLength="132">阅读网上已有的分析文档</text><path fill="none" d="M446,1575.0938 L456,1575.0938 C471,1575.0938 471,1575.0938 486,1575.0938 L496,1575.0938" style="stroke:#a80036;stroke-width:1"/><rect style="stroke:#a80036;stroke-width:1.5" width="84" height="33.969" x="496" y="1612.078" fill="#FEFECE" filter="url(#f1wg29bvz2sz5f)" rx="12.5" ry="12.5"/><text x="506" y="1633.217" fill="#000" font-family="sans-serif" font-size="12" lengthAdjust="spacingAndGlyphs" textLength="64">Demo 验证</text><path fill="none" d="M446,1575.0938 L456,1575.0938 C471,1575.0938 471,1629.0625 486,1629.0625 L496,1629.0625" style="stroke:#a80036;stroke-width:1"/><path fill="none" d="M292,1372.7109 L302,1372.7109 C317,1372.7109 317,1575.0938 332,1575.0938 L342,1575.0938" style="stroke:#a80036;stroke-width:1"/><path fill="none" d="M126,1372.7109 L136,1372.7109 C151,1372.7109 151,1372.7109 166,1372.7109 L176,1372.7109" style="stroke:#a80036;stroke-width:1"/><rect style="stroke:#a80036;stroke-width:1.5" width="92" height="33.969" x="176" y="1854.938" fill="#FEFECE" filter="url(#f1wg29bvz2sz5f)" rx="12.5" ry="12.5"/><text x="186" y="1876.076" fill="#000" font-family="sans-serif" font-size="12" lengthAdjust="spacingAndGlyphs" textLength="72">第四步：测试</text><rect style="stroke:#a80036;stroke-width:1.5" width="44" height="33.969" x="318" y="1720.016" fill="#FEFECE" filter="url(#f1wg29bvz2sz5f)" rx="12.5" ry="12.5"/><text x="328" y="1741.154" fill="#000" font-family="sans-serif" font-size="12" lengthAdjust="spacingAndGlyphs" textLength="24">意义</text><rect style="stroke:#a80036;stroke-width:1.5" width="224" height="33.969" x="412" y="1666.047" fill="#FEFECE" filter="url(#f1wg29bvz2sz5f)" rx="12.5" ry="12.5"/><text x="422" y="1687.186" fill="#000" font-family="sans-serif" font-size="12" lengthAdjust="spacingAndGlyphs" textLength="204">只是自己学习和研究可以只看网上结论</text><path fill="none" d="M362,1737 L372,1737 C387,1737 387,1683.0313 402,1683.0313 L412,1683.0313" style="stroke:#a80036;stroke-width:1"/><rect style="stroke:#a80036;stroke-width:1.5" width="320" height="33.969" x="412" y="1720.016" fill="#FEFECE" filter="url(#f1wg29bvz2sz5f)" rx="12.5" ry="12.5"/><text x="422" y="1741.154" fill="#000" font-family="sans-serif" font-size="12" lengthAdjust="spacingAndGlyphs" textLength="300">准备在实际项目中使用某个开源项目的话，必须进行测试</text><path fill="none" d="M362,1737 L372,1737 C387,1737 387,1737 402,1737 L412,1737" style="stroke:#a80036;stroke-width:1"/><rect style="stroke:#a80036;stroke-width:1.5" width="320" height="33.969" x="412" y="1773.984" fill="#FEFECE" filter="url(#f1wg29bvz2sz5f)" rx="12.5" ry="12.5"/><text x="422" y="1795.123" fill="#000" font-family="sans-serif" font-size="12" lengthAdjust="spacingAndGlyphs" textLength="300">因为网上搜的测试结果，不一定与自己的业务场景很契合</text><path fill="none" d="M362,1737 L372,1737 C387,1737 387,1790.9688 402,1790.9688 L412,1790.9688" style="stroke:#a80036;stroke-width:1"/><path fill="none" d="M268,1871.9219 L278,1871.9219 C293,1871.9219 293,1737 308,1737 L318,1737" style="stroke:#a80036;stroke-width:1"/><rect style="stroke:#a80036;stroke-width:1.5" width="44" height="33.969" x="318" y="1935.891" fill="#FEFECE" filter="url(#f1wg29bvz2sz5f)" rx="12.5" ry="12.5"/><text x="328" y="1957.029" fill="#000" font-family="sans-serif" font-size="12" lengthAdjust="spacingAndGlyphs" textLength="24">注意</text><rect style="stroke:#a80036;stroke-width:1.5" width="332" height="33.969" x="412" y="1827.953" fill="#FEFECE" filter="url(#f1wg29bvz2sz5f)" rx="12.5" ry="12.5"/><text x="422" y="1849.092" fill="#000" font-family="sans-serif" font-size="12" lengthAdjust="spacingAndGlyphs" textLength="312">测试一定要在原理研究之后做，不能安装完成立马就测试！</text><path fill="none" d="M362,1952.875 L372,1952.875 C387,1952.875 387,1844.9375 402,1844.9375 L412,1844.9375" style="stroke:#a80036;stroke-width:1"/><rect style="stroke:#a80036;stroke-width:1.5" width="368" height="33.969" x="412" y="1881.922" fill="#FEFECE" filter="url(#f1wg29bvz2sz5f)" rx="12.5" ry="12.5"/><text x="422" y="1903.061" fill="#000" font-family="sans-serif" font-size="12" lengthAdjust="spacingAndGlyphs" textLength="348">原因在于如果对系统不熟悉，很可能出现命令行、配置参数没用对</text><path fill="none" d="M362,1952.875 L372,1952.875 C387,1952.875 387,1898.9063 402,1898.9063 L412,1898.9063" style="stroke:#a80036;stroke-width:1"/><rect style="stroke:#a80036;stroke-width:1.5" width="152" height="33.969" x="412" y="1935.891" fill="#FEFECE" filter="url(#f1wg29bvz2sz5f)" rx="12.5" ry="12.5"/><text x="422" y="1957.029" fill="#000" font-family="sans-serif" font-size="12" lengthAdjust="spacingAndGlyphs" textLength="132">或者运行模式选择不对，</text><path fill="none" d="M362,1952.875 L372,1952.875 C387,1952.875 387,1952.875 402,1952.875 L412,1952.875" style="stroke:#a80036;stroke-width:1"/><rect style="stroke:#a80036;stroke-width:1.5" width="392" height="33.969" x="412" y="1989.859" fill="#FEFECE" filter="url(#f1wg29bvz2sz5f)" rx="12.5" ry="12.5"/><text x="422" y="2010.998" fill="#000" font-family="sans-serif" font-size="12" lengthAdjust="spacingAndGlyphs" textLength="372">导致没有根据业务的特点搭建正确的环境、没有设计合理的测试用例，</text><path fill="none" d="M362,1952.875 L372,1952.875 C387,1952.875 387,2006.8438 402,2006.8438 L412,2006.8438" style="stroke:#a80036;stroke-width:1"/><rect style="stroke:#a80036;stroke-width:1.5" width="332" height="33.969" x="412" y="2043.828" fill="#FEFECE" filter="url(#f1wg29bvz2sz5f)" rx="12.5" ry="12.5"/><text x="422" y="2064.967" fill="#000" font-family="sans-serif" font-size="12" lengthAdjust="spacingAndGlyphs" textLength="312">从而使得最终的测试结果得出了错误结论，误导了设计决策</text><path fill="none" d="M362,1952.875 L372,1952.875 C387,1952.875 387,2060.8125 402,2060.8125 L412,2060.8125" style="stroke:#a80036;stroke-width:1"/><path fill="none" d="M268,1871.9219 L278,1871.9219 C293,1871.9219 293,1952.875 308,1952.875 L318,1952.875" style="stroke:#a80036;stroke-width:1"/><path fill="none" d="M126,1372.7109 L136,1372.7109 C151,1372.7109 151,1871.9219 166,1871.9219 L176,1871.9219" style="stroke:#a80036;stroke-width:1"/><rect style="stroke:#a80036;stroke-width:1.5" width="116" height="33.969" x="176" y="2232.719" fill="#FEFECE" filter="url(#f1wg29bvz2sz5f)" rx="12.5" ry="12.5"/><text x="186" y="2253.857" fill="#000" font-family="sans-serif" font-size="12" lengthAdjust="spacingAndGlyphs" textLength="96">第五步：源码研究</text><rect style="stroke:#a80036;stroke-width:1.5" width="44" height="33.969" x="342" y="2124.781" fill="#FEFECE" filter="url(#f1wg29bvz2sz5f)" rx="12.5" ry="12.5"/><text x="352" y="2145.92" fill="#000" font-family="sans-serif" font-size="12" lengthAdjust="spacingAndGlyphs" textLength="24">建议</text><rect style="stroke:#a80036;stroke-width:1.5" width="200" height="33.969" x="436" y="2097.797" fill="#FEFECE" filter="url(#f1wg29bvz2sz5f)" rx="12.5" ry="12.5"/><text x="446" y="2118.936" fill="#000" font-family="sans-serif" font-size="12" lengthAdjust="spacingAndGlyphs" textLength="180">通常情况下，不建议通读所有源码</text><path fill="none" d="M386,2141.7656 L396,2141.7656 C411,2141.7656 411,2114.7813 426,2114.7813 L436,2114.7813" style="stroke:#a80036;stroke-width:1"/><rect style="stroke:#a80036;stroke-width:1.5" width="233" height="33.969" x="436" y="2151.766" fill="#FEFECE" filter="url(#f1wg29bvz2sz5f)" rx="12.5" ry="12.5"/><text x="446" y="2172.904" fill="#000" font-family="sans-serif" font-size="12" lengthAdjust="spacingAndGlyphs" textLength="213">尤其是 MySQL、Nginx 这种规模的项目</text><path fill="none" d="M386,2141.7656 L396,2141.7656 C411,2141.7656 411,2168.75 426,2168.75 L436,2168.75" style="stroke:#a80036;stroke-width:1"/><path fill="none" d="M292,2249.7031 L302,2249.7031 C317,2249.7031 317,2141.7656 332,2141.7656 L342,2141.7656" style="stroke:#a80036;stroke-width:1"/><rect style="stroke:#a80036;stroke-width:1.5" width="80" height="33.969" x="342" y="2286.688" fill="#FEFECE" filter="url(#f1wg29bvz2sz5f)" rx="12.5" ry="12.5"/><text x="352" y="2307.826" fill="#000" font-family="sans-serif" font-size="12" lengthAdjust="spacingAndGlyphs" textLength="60">Demo调用</text><rect style="stroke:#a80036;stroke-width:1.5" width="200" height="33.969" x="472" y="2205.734" fill="#FEFECE" filter="url(#f1wg29bvz2sz5f)" rx="12.5" ry="12.5"/><text x="482" y="2226.873" fill="#000" font-family="sans-serif" font-size="12" lengthAdjust="spacingAndGlyphs" textLength="180">对于一些基础库，除了阅读源码外</text><path fill="none" d="M422,2303.6719 L432,2303.6719 C447,2303.6719 447,2222.7188 462,2222.7188 L472,2222.7188" style="stroke:#a80036;stroke-width:1"/><rect style="stroke:#a80036;stroke-width:1.5" width="316" height="33.969" x="472" y="2259.703" fill="#FEFECE" filter="url(#f1wg29bvz2sz5f)" rx="12.5" ry="12.5"/><text x="482" y="2280.842" fill="#000" font-family="sans-serif" font-size="12" lengthAdjust="spacingAndGlyphs" textLength="296">还可以自己写个 Demo 调用基础库完成一些简单的功能</text><path fill="none" d="M422,2303.6719 L432,2303.6719 C447,2303.6719 447,2276.6875 462,2276.6875 L472,2276.6875" style="stroke:#a80036;stroke-width:1"/><rect style="stroke:#a80036;stroke-width:1.5" width="308" height="33.969" x="472" y="2313.672" fill="#FEFECE" filter="url(#f1wg29bvz2sz5f)" rx="12.5" ry="12.5"/><text x="482" y="2334.811" fill="#000" font-family="sans-serif" font-size="12" lengthAdjust="spacingAndGlyphs" textLength="288">然后调试来通过调用栈来理解基础库的处理逻辑和过程</text><path fill="none" d="M422,2303.6719 L432,2303.6719 C447,2303.6719 447,2330.6563 462,2330.6563 L472,2330.6563" style="stroke:#a80036;stroke-width:1"/><rect style="stroke:#a80036;stroke-width:1.5" width="224" height="33.969" x="472" y="2367.641" fill="#FEFECE" filter="url(#f1wg29bvz2sz5f)" rx="12.5" ry="12.5"/><text x="482" y="2388.779" fill="#000" font-family="sans-serif" font-size="12" lengthAdjust="spacingAndGlyphs" textLength="204">这比单纯看代码去理解逻辑要高效一些</text><path fill="none" d="M422,2303.6719 L432,2303.6719 C447,2303.6719 447,2384.625 462,2384.625 L472,2384.625" style="stroke:#a80036;stroke-width:1"/><path fill="none" d="M292,2249.7031 L302,2249.7031 C317,2249.7031 317,2303.6719 332,2303.6719 L342,2303.6719" style="stroke:#a80036;stroke-width:1"/><path fill="none" d="M126,1372.7109 L136,1372.7109 C151,1372.7109 151,2249.7031 166,2249.7031 L176,2249.7031" style="stroke:#a80036;stroke-width:1"/><rect style="stroke:#a80036;stroke-width:1.5" width="68" height="33.969" x="176" y="2556.531" fill="#FEFECE" filter="url(#f1wg29bvz2sz5f)" rx="12.5" ry="12.5"/><text x="186" y="2577.67" fill="#000" font-family="sans-serif" font-size="12" lengthAdjust="spacingAndGlyphs" textLength="48">时间分配</text><rect style="stroke:#a80036;stroke-width:1.5" width="80" height="33.969" x="294" y="2475.578" fill="#FEFECE" filter="url(#f1wg29bvz2sz5f)" rx="12.5" ry="12.5"/><text x="304" y="2496.717" fill="#000" font-family="sans-serif" font-size="12" lengthAdjust="spacingAndGlyphs" textLength="60">时间不够用</text><rect style="stroke:#a80036;stroke-width:1.5" width="132" height="33.969" x="424" y="2421.609" fill="#FEFECE" filter="url(#f1wg29bvz2sz5f)" rx="12.5" ry="12.5"/><text x="434" y="2442.748" fill="#000" font-family="sans-serif" font-size="12" lengthAdjust="spacingAndGlyphs" textLength="112">前 3 个步骤必不可少</text><path fill="none" d="M374,2492.5625 L384,2492.5625 C399,2492.5625 399,2438.5938 414,2438.5938 L424,2438.5938" style="stroke:#a80036;stroke-width:1"/><rect style="stroke:#a80036;stroke-width:1.5" width="248" height="33.969" x="424" y="2475.578" fill="#FEFECE" filter="url(#f1wg29bvz2sz5f)" rx="12.5" ry="12.5"/><text x="434" y="2496.717" fill="#000" font-family="sans-serif" font-size="12" lengthAdjust="spacingAndGlyphs" textLength="228">第四步可在准备采用开源项目的时候才实施</text><path fill="none" d="M374,2492.5625 L384,2492.5625 C399,2492.5625 399,2492.5625 414,2492.5625 L424,2492.5625" style="stroke:#a80036;stroke-width:1"/><rect style="stroke:#a80036;stroke-width:1.5" width="152" height="33.969" x="424" y="2529.547" fill="#FEFECE" filter="url(#f1wg29bvz2sz5f)" rx="12.5" ry="12.5"/><text x="434" y="2550.686" fill="#000" font-family="sans-serif" font-size="12" lengthAdjust="spacingAndGlyphs" textLength="132">第五步可以自己灵活安排</text><path fill="none" d="M374,2492.5625 L384,2492.5625 C399,2492.5625 399,2546.5313 414,2546.5313 L424,2546.5313" style="stroke:#a80036;stroke-width:1"/><path fill="none" d="M244,2573.5156 L254,2573.5156 C269,2573.5156 269,2492.5625 284,2492.5625 L294,2492.5625" style="stroke:#a80036;stroke-width:1"/><rect style="stroke:#a80036;stroke-width:1.5" width="44" height="33.969" x="294" y="2637.484" fill="#FEFECE" filter="url(#f1wg29bvz2sz5f)" rx="12.5" ry="12.5"/><text x="304" y="2658.623" fill="#000" font-family="sans-serif" font-size="12" lengthAdjust="spacingAndGlyphs" textLength="24">技巧</text><rect style="stroke:#a80036;stroke-width:1.5" width="260" height="33.969" x="388" y="2583.516" fill="#FEFECE" filter="url(#f1wg29bvz2sz5f)" rx="12.5" ry="12.5"/><text x="398" y="2604.654" fill="#000" font-family="sans-serif" font-size="12" lengthAdjust="spacingAndGlyphs" textLength="240">与其蜻蜓点水每个开源项目都去简单了解一下</text><path fill="none" d="M338,2654.4688 L348,2654.4688 C363,2654.4688 363,2600.5 378,2600.5 L388,2600.5" style="stroke:#a80036;stroke-width:1"/><rect style="stroke:#a80036;stroke-width:1.5" width="224" height="33.969" x="388" y="2637.484" fill="#FEFECE" filter="url(#f1wg29bvz2sz5f)" rx="12.5" ry="12.5"/><text x="398" y="2658.623" fill="#000" font-family="sans-serif" font-size="12" lengthAdjust="spacingAndGlyphs" textLength="204">不如集中精力将一个开源项目研究通透</text><path fill="none" d="M338,2654.4688 L348,2654.4688 C363,2654.4688 363,2654.4688 378,2654.4688 L388,2654.4688" style="stroke:#a80036;stroke-width:1"/><rect style="stroke:#a80036;stroke-width:1.5" width="404" height="33.969" x="388" y="2691.453" fill="#FEFECE" filter="url(#f1wg29bvz2sz5f)" rx="12.5" ry="12.5"/><text x="398" y="2712.592" fill="#000" font-family="sans-serif" font-size="12" lengthAdjust="spacingAndGlyphs" textLength="384">就算是每个季度只学习一个开源项目，积累几年后这个数量也是很客观的</text><path fill="none" d="M338,2654.4688 L348,2654.4688 C363,2654.4688 363,2708.4375 378,2708.4375 L388,2708.4375" style="stroke:#a80036;stroke-width:1"/><path fill="none" d="M244,2573.5156 L254,2573.5156 C269,2573.5156 269,2654.4688 284,2654.4688 L294,2654.4688" style="stroke:#a80036;stroke-width:1"/><path fill="none" d="M126,1372.7109 L136,1372.7109 C151,1372.7109 151,2573.5156 166,2573.5156 L176,2573.5156" style="stroke:#a80036;stroke-width:1"/></g></svg>