<?xml version="1.0" encoding="UTF-8" standalone="no"?><svg xmlns="http://www.w3.org/2000/svg" xmlns:xlink="http://www.w3.org/1999/xlink" contentScriptType="application/ecmascript" contentStyleType="text/css" height="712px" preserveAspectRatio="none" style="width:459px;height:712px;" version="1.1" viewBox="0 0 459 712" width="459px" zoomAndPan="magnify"><defs><filter height="300%" id="ftpniyjfs15ha" width="300%" x="-1" y="-1"><feGaussianBlur result="blurOut" stdDeviation="2.0"/><feColorMatrix in="blurOut" result="blurOut2" type="matrix" values="0 0 0 0 0 0 0 0 0 0 0 0 0 0 0 0 0 0 .4 0"/><feOffset dx="4.0" dy="4.0" in="blurOut2" result="blurOut3"/><feBlend in="SourceGraphic" in2="blurOut3" mode="normal"/></filter></defs><g><rect fill="#FEFECE" filter="url(#ftpniyjfs15ha)" height="33.9688" rx="12.5" ry="12.5" style="stroke: #A80036; stroke-width: 1.5;" width="68" x="10" y="343.8125"/><text fill="#000000" font-family="sans-serif" font-size="12" lengthAdjust="spacingAndGlyphs" textLength="48" x="20" y="364.9512">如何写作</text><rect fill="#FEFECE" filter="url(#ftpniyjfs15ha)" height="33.9688" rx="12.5" ry="12.5" style="stroke: #A80036; stroke-width: 1.5;" width="52" x="128" y="343.8125"/><text fill="#000000" font-family="sans-serif" font-size="12" lengthAdjust="spacingAndGlyphs" textLength="32" x="138" y="364.9512">实例1</text><rect fill="#FEFECE" filter="url(#ftpniyjfs15ha)" height="33.9688" rx="12.5" ry="12.5" style="stroke: #A80036; stroke-width: 1.5;" width="44" x="230" y="20"/><text fill="#000000" font-family="sans-serif" font-size="12" lengthAdjust="spacingAndGlyphs" textLength="24" x="240" y="41.1387">技巧</text><rect fill="#FEFECE" filter="url(#ftpniyjfs15ha)" height="33.9688" rx="12.5" ry="12.5" style="stroke: #A80036; stroke-width: 1.5;" width="68" x="324" y="20"/><text fill="#000000" font-family="sans-serif" font-size="12" lengthAdjust="spacingAndGlyphs" textLength="48" x="334" y="41.1387">先说后写</text><path d="M274,36.9844 L284,36.9844 C299,36.9844 299,36.9844 314,36.9844 L324,36.9844 " fill="none" style="stroke: #A80036; stroke-width: 1.0;"/><path d="M180,360.7969 L190,360.7969 C205,360.7969 205,36.9844 220,36.9844 L230,36.9844 " fill="none" style="stroke: #A80036; stroke-width: 1.0;"/><rect fill="#FEFECE" filter="url(#ftpniyjfs15ha)" height="33.9688" rx="12.5" ry="12.5" style="stroke: #A80036; stroke-width: 1.5;" width="44" x="230" y="100.9531"/><text fill="#000000" font-family="sans-serif" font-size="12" lengthAdjust="spacingAndGlyphs" textLength="24" x="240" y="122.0918">选题</text><rect fill="#FEFECE" filter="url(#ftpniyjfs15ha)" height="33.9688" rx="12.5" ry="12.5" style="stroke: #A80036; stroke-width: 1.5;" width="68" x="324" y="73.9688"/><text fill="#000000" font-family="sans-serif" font-size="12" lengthAdjust="spacingAndGlyphs" textLength="48" x="334" y="95.1074">热点事件</text><path d="M274,117.9375 L284,117.9375 C299,117.9375 299,90.9531 314,90.9531 L324,90.9531 " fill="none" style="stroke: #A80036; stroke-width: 1.0;"/><rect fill="#FEFECE" filter="url(#ftpniyjfs15ha)" height="33.9688" rx="12.5" ry="12.5" style="stroke: #A80036; stroke-width: 1.5;" width="68" x="324" y="127.9375"/><text fill="#000000" font-family="sans-serif" font-size="12" lengthAdjust="spacingAndGlyphs" textLength="48" x="334" y="149.0762">常规痛点</text><path d="M274,117.9375 L284,117.9375 C299,117.9375 299,144.9219 314,144.9219 L324,144.9219 " fill="none" style="stroke: #A80036; stroke-width: 1.0;"/><path d="M180,360.7969 L190,360.7969 C205,360.7969 205,117.9375 220,117.9375 L230,117.9375 " fill="none" style="stroke: #A80036; stroke-width: 1.0;"/><rect fill="#FEFECE" filter="url(#ftpniyjfs15ha)" height="33.9688" rx="12.5" ry="12.5" style="stroke: #A80036; stroke-width: 1.5;" width="56" x="230" y="235.875"/><text fill="#000000" font-family="sans-serif" font-size="12" lengthAdjust="spacingAndGlyphs" textLength="36" x="240" y="257.0137">列目标</text><rect fill="#FEFECE" filter="url(#ftpniyjfs15ha)" height="33.9688" rx="12.5" ry="12.5" style="stroke: #A80036; stroke-width: 1.5;" width="44" x="336" y="181.9063"/><text fill="#000000" font-family="sans-serif" font-size="12" lengthAdjust="spacingAndGlyphs" textLength="24" x="346" y="203.0449">受众</text><path d="M286,252.8594 L296,252.8594 C311,252.8594 311,198.8906 326,198.8906 L336,198.8906 " fill="none" style="stroke: #A80036; stroke-width: 1.0;"/><rect fill="#FEFECE" filter="url(#ftpniyjfs15ha)" height="33.9688" rx="12.5" ry="12.5" style="stroke: #A80036; stroke-width: 1.5;" width="44" x="336" y="235.875"/><text fill="#000000" font-family="sans-serif" font-size="12" lengthAdjust="spacingAndGlyphs" textLength="24" x="346" y="257.0137">目的</text><path d="M286,252.8594 L296,252.8594 C311,252.8594 311,252.8594 326,252.8594 L336,252.8594 " fill="none" style="stroke: #A80036; stroke-width: 1.0;"/><rect fill="#FEFECE" filter="url(#ftpniyjfs15ha)" height="33.9688" rx="12.5" ry="12.5" style="stroke: #A80036; stroke-width: 1.5;" width="80" x="336" y="289.8438"/><text fill="#000000" font-family="sans-serif" font-size="12" lengthAdjust="spacingAndGlyphs" textLength="60" x="346" y="310.9824">训练的目标</text><path d="M286,252.8594 L296,252.8594 C311,252.8594 311,306.8281 326,306.8281 L336,306.8281 " fill="none" style="stroke: #A80036; stroke-width: 1.0;"/><path d="M180,360.7969 L190,360.7969 C205,360.7969 205,252.8594 220,252.8594 L230,252.8594 " fill="none" style="stroke: #A80036; stroke-width: 1.0;"/><rect fill="#FEFECE" filter="url(#ftpniyjfs15ha)" height="33.9688" rx="12.5" ry="12.5" style="stroke: #A80036; stroke-width: 1.5;" width="44" x="230" y="343.8125"/><text fill="#000000" font-family="sans-serif" font-size="12" lengthAdjust="spacingAndGlyphs" textLength="24" x="240" y="364.9512">提纲</text><rect fill="#FEFECE" filter="url(#ftpniyjfs15ha)" height="33.9688" rx="12.5" ry="12.5" style="stroke: #A80036; stroke-width: 1.5;" width="68" x="324" y="343.8125"/><text fill="#000000" font-family="sans-serif" font-size="12" lengthAdjust="spacingAndGlyphs" textLength="48" x="334" y="364.9512">思维导图</text><path d="M274,360.7969 L284,360.7969 C299,360.7969 299,360.7969 314,360.7969 L324,360.7969 " fill="none" style="stroke: #A80036; stroke-width: 1.0;"/><path d="M180,360.7969 L190,360.7969 C205,360.7969 205,360.7969 220,360.7969 L230,360.7969 " fill="none" style="stroke: #A80036; stroke-width: 1.0;"/><rect fill="#FEFECE" filter="url(#ftpniyjfs15ha)" height="33.9688" rx="12.5" ry="12.5" style="stroke: #A80036; stroke-width: 1.5;" width="80" x="230" y="397.7813"/><text fill="#000000" font-family="sans-serif" font-size="12" lengthAdjust="spacingAndGlyphs" textLength="60" x="240" y="418.9199">一口气写完</text><rect fill="#FEFECE" filter="url(#ftpniyjfs15ha)" height="33.9688" rx="12.5" ry="12.5" style="stroke: #A80036; stroke-width: 1.5;" width="88" x="360" y="397.7813"/><text fill="#000000" font-family="sans-serif" font-size="12" lengthAdjust="spacingAndGlyphs" textLength="68" x="370" y="418.9199">语音迭代3遍</text><path d="M310,414.7656 L320,414.7656 C335,414.7656 335,414.7656 350,414.7656 L360,414.7656 " fill="none" style="stroke: #A80036; stroke-width: 1.0;"/><path d="M180,360.7969 L190,360.7969 C205,360.7969 205,414.7656 220,414.7656 L230,414.7656 " fill="none" style="stroke: #A80036; stroke-width: 1.0;"/><rect fill="#FEFECE" filter="url(#ftpniyjfs15ha)" height="33.9688" rx="12.5" ry="12.5" style="stroke: #A80036; stroke-width: 1.5;" width="44" x="230" y="559.6875"/><text fill="#000000" font-family="sans-serif" font-size="12" lengthAdjust="spacingAndGlyphs" textLength="24" x="240" y="580.8262">其他</text><rect fill="#FEFECE" filter="url(#ftpniyjfs15ha)" height="33.9688" rx="12.5" ry="12.5" style="stroke: #A80036; stroke-width: 1.5;" width="44" x="324" y="451.75"/><text fill="#000000" font-family="sans-serif" font-size="12" lengthAdjust="spacingAndGlyphs" textLength="24" x="334" y="472.8887">排版</text><path d="M274,576.6719 L284,576.6719 C299,576.6719 299,468.7344 314,468.7344 L324,468.7344 " fill="none" style="stroke: #A80036; stroke-width: 1.0;"/><rect fill="#FEFECE" filter="url(#ftpniyjfs15ha)" height="33.9688" rx="12.5" ry="12.5" style="stroke: #A80036; stroke-width: 1.5;" width="80" x="324" y="505.7188"/><text fill="#000000" font-family="sans-serif" font-size="12" lengthAdjust="spacingAndGlyphs" textLength="60" x="334" y="526.8574">检查错别字</text><path d="M274,576.6719 L284,576.6719 C299,576.6719 299,522.7031 314,522.7031 L324,522.7031 " fill="none" style="stroke: #A80036; stroke-width: 1.0;"/><rect fill="#FEFECE" filter="url(#ftpniyjfs15ha)" height="33.9688" rx="12.5" ry="12.5" style="stroke: #A80036; stroke-width: 1.5;" width="68" x="324" y="559.6875"/><text fill="#000000" font-family="sans-serif" font-size="12" lengthAdjust="spacingAndGlyphs" textLength="48" x="334" y="580.8262">长句变短</text><path d="M274,576.6719 L284,576.6719 C299,576.6719 299,576.6719 314,576.6719 L324,576.6719 " fill="none" style="stroke: #A80036; stroke-width: 1.0;"/><rect fill="#FEFECE" filter="url(#ftpniyjfs15ha)" height="33.9688" rx="12.5" ry="12.5" style="stroke: #A80036; stroke-width: 1.5;" width="44" x="324" y="613.6563"/><text fill="#000000" font-family="sans-serif" font-size="12" lengthAdjust="spacingAndGlyphs" textLength="24" x="334" y="634.7949">润色</text><path d="M274,576.6719 L284,576.6719 C299,576.6719 299,630.6406 314,630.6406 L324,630.6406 " fill="none" style="stroke: #A80036; stroke-width: 1.0;"/><rect fill="#FEFECE" filter="url(#ftpniyjfs15ha)" height="33.9688" rx="12.5" ry="12.5" style="stroke: #A80036; stroke-width: 1.5;" width="44" x="324" y="667.625"/><text fill="#000000" font-family="sans-serif" font-size="12" lengthAdjust="spacingAndGlyphs" textLength="24" x="334" y="688.7637">配图</text><path d="M274,576.6719 L284,576.6719 C299,576.6719 299,684.6094 314,684.6094 L324,684.6094 " fill="none" style="stroke: #A80036; stroke-width: 1.0;"/><path d="M180,360.7969 L190,360.7969 C205,360.7969 205,576.6719 220,576.6719 L230,576.6719 " fill="none" style="stroke: #A80036; stroke-width: 1.0;"/><path d="M78,360.7969 L88,360.7969 C103,360.7969 103,360.7969 118,360.7969 L128,360.7969 " fill="none" style="stroke: #A80036; stroke-width: 1.0;"/><!--
--></g></svg>