<?xml version="1.0" encoding="UTF-8" standalone="no"?><svg xmlns="http://www.w3.org/2000/svg" xmlns:xlink="http://www.w3.org/1999/xlink" contentScriptType="application/ecmascript" contentStyleType="text/css" height="2007px" preserveAspectRatio="none" style="width:977px;height:2007px;" version="1.1" viewBox="0 0 977 2007" width="977px" zoomAndPan="magnify"><defs><filter height="300%" id="f1oc5c9gkiy1ax" width="300%" x="-1" y="-1"><feGaussianBlur result="blurOut" stdDeviation="2.0"/><feColorMatrix in="blurOut" result="blurOut2" type="matrix" values="0 0 0 0 0 0 0 0 0 0 0 0 0 0 0 0 0 0 .4 0"/><feOffset dx="4.0" dy="4.0" in="blurOut2" result="blurOut3"/><feBlend in="SourceGraphic" in2="blurOut3" mode="normal"/></filter></defs><g><rect fill="#FEFECE" filter="url(#f1oc5c9gkiy1ax)" height="33.9688" rx="12.5" ry="12.5" style="stroke: #A80036; stroke-width: 1.5;" width="100" x="10" y="991.4375"/><text fill="#000000" font-family="sans-serif" font-size="12" lengthAdjust="spacingAndGlyphs" textLength="80" x="20" y="1012.5762">关于招聘-caoz</text><rect fill="#FEFECE" filter="url(#f1oc5c9gkiy1ax)" height="33.9688" rx="12.5" ry="12.5" style="stroke: #A80036; stroke-width: 1.5;" width="68" x="160" y="127.9375"/><text fill="#000000" font-family="sans-serif" font-size="12" lengthAdjust="spacingAndGlyphs" textLength="48" x="170" y="149.0762">初阶职位</text><rect fill="#FEFECE" filter="url(#f1oc5c9gkiy1ax)" height="33.9688" rx="12.5" ry="12.5" style="stroke: #A80036; stroke-width: 1.5;" width="224" x="278" y="20"/><text fill="#000000" font-family="sans-serif" font-size="12" lengthAdjust="spacingAndGlyphs" textLength="204" x="288" y="41.1387">最关键是的培养机制，而不是招聘方式</text><path d="M228,144.9219 L238,144.9219 C253,144.9219 253,36.9844 268,36.9844 L278,36.9844 " fill="none" style="stroke: #A80036; stroke-width: 1.0;"/><rect fill="#FEFECE" filter="url(#f1oc5c9gkiy1ax)" height="33.9688" rx="12.5" ry="12.5" style="stroke: #A80036; stroke-width: 1.5;" width="68" x="278" y="154.9219"/><text fill="#000000" font-family="sans-serif" font-size="12" lengthAdjust="spacingAndGlyphs" textLength="48" x="288" y="176.0605">培养机制</text><rect fill="#FEFECE" filter="url(#f1oc5c9gkiy1ax)" height="33.9688" rx="12.5" ry="12.5" style="stroke: #A80036; stroke-width: 1.5;" width="140" x="396" y="73.9688"/><text fill="#000000" font-family="sans-serif" font-size="12" lengthAdjust="spacingAndGlyphs" textLength="120" x="406" y="95.1074">并不是手把手教就是好</text><path d="M346,171.9063 L356,171.9063 C371,171.9063 371,90.9531 386,90.9531 L396,90.9531 " fill="none" style="stroke: #A80036; stroke-width: 1.0;"/><rect fill="#FEFECE" filter="url(#f1oc5c9gkiy1ax)" height="33.9688" rx="12.5" ry="12.5" style="stroke: #A80036; stroke-width: 1.5;" width="68" x="396" y="127.9375"/><text fill="#000000" font-family="sans-serif" font-size="12" lengthAdjust="spacingAndGlyphs" textLength="48" x="406" y="149.0762">1.敢放手</text><path d="M346,171.9063 L356,171.9063 C371,171.9063 371,144.9219 386,144.9219 L396,144.9219 " fill="none" style="stroke: #A80036; stroke-width: 1.0;"/><rect fill="#FEFECE" filter="url(#f1oc5c9gkiy1ax)" height="33.9688" rx="12.5" ry="12.5" style="stroke: #A80036; stroke-width: 1.5;" width="80" x="396" y="181.9063"/><text fill="#000000" font-family="sans-serif" font-size="12" lengthAdjust="spacingAndGlyphs" textLength="60" x="406" y="203.0449">2.允许犯错</text><path d="M346,171.9063 L356,171.9063 C371,171.9063 371,198.8906 386,198.8906 L396,198.8906 " fill="none" style="stroke: #A80036; stroke-width: 1.0;"/><rect fill="#FEFECE" filter="url(#f1oc5c9gkiy1ax)" height="33.9688" rx="12.5" ry="12.5" style="stroke: #A80036; stroke-width: 1.5;" width="188" x="396" y="235.875"/><text fill="#000000" font-family="sans-serif" font-size="12" lengthAdjust="spacingAndGlyphs" textLength="168" x="406" y="257.0137">3.做好总结（犯错后要有提升）</text><path d="M346,171.9063 L356,171.9063 C371,171.9063 371,252.8594 386,252.8594 L396,252.8594 " fill="none" style="stroke: #A80036; stroke-width: 1.0;"/><path d="M228,144.9219 L238,144.9219 C253,144.9219 253,171.9063 268,171.9063 L278,171.9063 " fill="none" style="stroke: #A80036; stroke-width: 1.0;"/><path d="M110,1008.4219 L120,1008.4219 C135,1008.4219 135,144.9219 150,144.9219 L160,144.9219 " fill="none" style="stroke: #A80036; stroke-width: 1.0;"/><rect fill="#FEFECE" filter="url(#f1oc5c9gkiy1ax)" height="33.9688" rx="12.5" ry="12.5" style="stroke: #A80036; stroke-width: 1.5;" width="68" x="160" y="370.7969"/><text fill="#000000" font-family="sans-serif" font-size="12" lengthAdjust="spacingAndGlyphs" textLength="48" x="170" y="391.9355">高阶职位</text><rect fill="#FEFECE" filter="url(#f1oc5c9gkiy1ax)" height="33.9688" rx="12.5" ry="12.5" style="stroke: #A80036; stroke-width: 1.5;" width="44" x="278" y="316.8281"/><text fill="#000000" font-family="sans-serif" font-size="12" lengthAdjust="spacingAndGlyphs" textLength="24" x="288" y="337.9668">方法</text><rect fill="#FEFECE" filter="url(#f1oc5c9gkiy1ax)" height="33.9688" rx="12.5" ry="12.5" style="stroke: #A80036; stroke-width: 1.5;" width="224" x="372" y="289.8438"/><text fill="#000000" font-family="sans-serif" font-size="12" lengthAdjust="spacingAndGlyphs" textLength="204" x="382" y="310.9824">用正确的题目考核，是非常有效的方法</text><path d="M322,333.8125 L332,333.8125 C347,333.8125 347,306.8281 362,306.8281 L372,306.8281 " fill="none" style="stroke: #A80036; stroke-width: 1.0;"/><rect fill="#FEFECE" filter="url(#f1oc5c9gkiy1ax)" height="33.9688" rx="12.5" ry="12.5" style="stroke: #A80036; stroke-width: 1.5;" width="116" x="372" y="343.8125"/><text fill="#000000" font-family="sans-serif" font-size="12" lengthAdjust="spacingAndGlyphs" textLength="96" x="382" y="364.9512">甚至不用当面面试</text><path d="M322,333.8125 L332,333.8125 C347,333.8125 347,360.7969 362,360.7969 L372,360.7969 " fill="none" style="stroke: #A80036; stroke-width: 1.0;"/><path d="M228,387.7813 L238,387.7813 C253,387.7813 253,333.8125 268,333.8125 L278,333.8125 " fill="none" style="stroke: #A80036; stroke-width: 1.0;"/><rect fill="#FEFECE" filter="url(#f1oc5c9gkiy1ax)" height="33.9688" rx="12.5" ry="12.5" style="stroke: #A80036; stroke-width: 1.5;" width="80" x="278" y="424.7656"/><text fill="#000000" font-family="sans-serif" font-size="12" lengthAdjust="spacingAndGlyphs" textLength="60" x="288" y="445.9043">面试的作用</text><rect fill="#FEFECE" filter="url(#f1oc5c9gkiy1ax)" height="33.9688" rx="12.5" ry="12.5" style="stroke: #A80036; stroke-width: 1.5;" width="212" x="408" y="397.7813"/><text fill="#000000" font-family="sans-serif" font-size="12" lengthAdjust="spacingAndGlyphs" textLength="192" x="418" y="418.9199">1.观察这人的价值观和个人目标诉求</text><path d="M358,441.75 L368,441.75 C383,441.75 383,414.7656 398,414.7656 L408,414.7656 " fill="none" style="stroke: #A80036; stroke-width: 1.0;"/><rect fill="#FEFECE" filter="url(#f1oc5c9gkiy1ax)" height="33.9688" rx="12.5" ry="12.5" style="stroke: #A80036; stroke-width: 1.5;" width="188" x="408" y="451.75"/><text fill="#000000" font-family="sans-serif" font-size="12" lengthAdjust="spacingAndGlyphs" textLength="168" x="418" y="472.8887">2.判断是否真的是自己完成题目</text><path d="M358,441.75 L368,441.75 C383,441.75 383,468.7344 398,468.7344 L408,468.7344 " fill="none" style="stroke: #A80036; stroke-width: 1.0;"/><path d="M228,387.7813 L238,387.7813 C253,387.7813 253,441.75 268,441.75 L278,441.75 " fill="none" style="stroke: #A80036; stroke-width: 1.0;"/><path d="M110,1008.4219 L120,1008.4219 C135,1008.4219 135,387.7813 150,387.7813 L160,387.7813 " fill="none" style="stroke: #A80036; stroke-width: 1.0;"/><rect fill="#FEFECE" filter="url(#f1oc5c9gkiy1ax)" height="33.9688" rx="12.5" ry="12.5" style="stroke: #A80036; stroke-width: 1.5;" width="80" x="160" y="910.4844"/><text fill="#000000" font-family="sans-serif" font-size="12" lengthAdjust="spacingAndGlyphs" textLength="60" x="170" y="931.623">正确的题目</text><rect fill="#FEFECE" filter="url(#f1oc5c9gkiy1ax)" height="33.9688" rx="12.5" ry="12.5" style="stroke: #A80036; stroke-width: 1.5;" width="68" x="290" y="586.6719"/><text fill="#000000" font-family="sans-serif" font-size="12" lengthAdjust="spacingAndGlyphs" textLength="48" x="300" y="607.8105">1.算法题</text><path d="M240,927.4688 L250,927.4688 C265,927.4688 265,603.6563 280,603.6563 L290,603.6563 " fill="none" style="stroke: #A80036; stroke-width: 1.0;"/><rect fill="#FEFECE" filter="url(#f1oc5c9gkiy1ax)" height="33.9688" rx="12.5" ry="12.5" style="stroke: #A80036; stroke-width: 1.5;" width="92" x="290" y="640.6406"/><text fill="#000000" font-family="sans-serif" font-size="12" lengthAdjust="spacingAndGlyphs" textLength="72" x="300" y="661.7793">2.技术算法题</text><rect fill="#FEFECE" filter="url(#f1oc5c9gkiy1ax)" height="33.9688" rx="12.5" ry="12.5" style="stroke: #A80036; stroke-width: 1.5;" width="128" x="432" y="505.7188"/><text fill="#000000" font-family="sans-serif" font-size="12" lengthAdjust="spacingAndGlyphs" textLength="108" x="442" y="526.8574">互联网的屏蔽词处理</text><path d="M382,657.625 L392,657.625 C407,657.625 407,522.7031 422,522.7031 L432,522.7031 " fill="none" style="stroke: #A80036; stroke-width: 1.0;"/><rect fill="#FEFECE" filter="url(#f1oc5c9gkiy1ax)" height="33.9688" rx="12.5" ry="12.5" style="stroke: #A80036; stroke-width: 1.5;" width="44" x="432" y="586.6719"/><text fill="#000000" font-family="sans-serif" font-size="12" lengthAdjust="spacingAndGlyphs" textLength="24" x="442" y="607.8105">题目</text><rect fill="#FEFECE" filter="url(#f1oc5c9gkiy1ax)" height="33.9688" rx="12.5" ry="12.5" style="stroke: #A80036; stroke-width: 1.5;" width="236" x="526" y="559.6875"/><text fill="#000000" font-family="sans-serif" font-size="12" lengthAdjust="spacingAndGlyphs" textLength="216" x="536" y="580.8262">一个屏蔽词库，里面有几万条屏蔽词信息</text><path d="M476,603.6563 L486,603.6563 C501,603.6563 501,576.6719 516,576.6719 L526,576.6719 " fill="none" style="stroke: #A80036; stroke-width: 1.0;"/><rect fill="#FEFECE" filter="url(#f1oc5c9gkiy1ax)" height="33.9688" rx="12.5" ry="12.5" style="stroke: #A80036; stroke-width: 1.5;" width="224" x="526" y="613.6563"/><text fill="#000000" font-family="sans-serif" font-size="12" lengthAdjust="spacingAndGlyphs" textLength="204" x="536" y="634.7949">一个火爆的社区，每天有上百万篇文章</text><path d="M476,603.6563 L486,603.6563 C501,603.6563 501,630.6406 516,630.6406 L526,630.6406 " fill="none" style="stroke: #A80036; stroke-width: 1.0;"/><path d="M382,657.625 L392,657.625 C407,657.625 407,603.6563 422,603.6563 L432,603.6563 " fill="none" style="stroke: #A80036; stroke-width: 1.0;"/><rect fill="#FEFECE" filter="url(#f1oc5c9gkiy1ax)" height="33.9688" rx="12.5" ry="12.5" style="stroke: #A80036; stroke-width: 1.5;" width="44" x="432" y="721.5938"/><text fill="#000000" font-family="sans-serif" font-size="12" lengthAdjust="spacingAndGlyphs" textLength="24" x="442" y="742.7324">要求</text><rect fill="#FEFECE" filter="url(#f1oc5c9gkiy1ax)" height="33.9688" rx="12.5" ry="12.5" style="stroke: #A80036; stroke-width: 1.5;" width="248" x="526" y="667.625"/><text fill="#000000" font-family="sans-serif" font-size="12" lengthAdjust="spacingAndGlyphs" textLength="228" x="536" y="688.7637">要求每篇文章都能快速通过屏蔽词库去检索</text><path d="M476,738.5781 L486,738.5781 C501,738.5781 501,684.6094 516,684.6094 L526,684.6094 " fill="none" style="stroke: #A80036; stroke-width: 1.0;"/><rect fill="#FEFECE" filter="url(#f1oc5c9gkiy1ax)" height="33.9688" rx="12.5" ry="12.5" style="stroke: #A80036; stroke-width: 1.5;" width="236" x="526" y="721.5938"/><text fill="#000000" font-family="sans-serif" font-size="12" lengthAdjust="spacingAndGlyphs" textLength="216" x="536" y="742.7324">要求服务器可以支撑尽可能多的处理请求</text><path d="M476,738.5781 L486,738.5781 C501,738.5781 501,738.5781 516,738.5781 L526,738.5781 " fill="none" style="stroke: #A80036; stroke-width: 1.0;"/><rect fill="#FEFECE" filter="url(#f1oc5c9gkiy1ax)" height="33.9688" rx="12.5" ry="12.5" style="stroke: #A80036; stroke-width: 1.5;" width="188" x="526" y="775.5625"/><text fill="#000000" font-family="sans-serif" font-size="12" lengthAdjust="spacingAndGlyphs" textLength="168" x="536" y="796.7012">设计一个屏蔽词过滤的算法逻辑</text><path d="M476,738.5781 L486,738.5781 C501,738.5781 501,792.5469 516,792.5469 L526,792.5469 " fill="none" style="stroke: #A80036; stroke-width: 1.0;"/><path d="M382,657.625 L392,657.625 C407,657.625 407,738.5781 422,738.5781 L432,738.5781 " fill="none" style="stroke: #A80036; stroke-width: 1.0;"/><path d="M240,927.4688 L250,927.4688 C265,927.4688 265,657.625 280,657.625 L290,657.625 " fill="none" style="stroke: #A80036; stroke-width: 1.0;"/><rect fill="#FEFECE" filter="url(#f1oc5c9gkiy1ax)" height="33.9688" rx="12.5" ry="12.5" style="stroke: #A80036; stroke-width: 1.5;" width="104" x="290" y="856.5156"/><text fill="#000000" font-family="sans-serif" font-size="12" lengthAdjust="spacingAndGlyphs" textLength="84" x="300" y="877.6543">3.技术非算法题</text><rect fill="#FEFECE" filter="url(#f1oc5c9gkiy1ax)" height="33.9688" rx="12.5" ry="12.5" style="stroke: #A80036; stroke-width: 1.5;" width="152" x="444" y="829.5313"/><text fill="#000000" font-family="sans-serif" font-size="12" lengthAdjust="spacingAndGlyphs" textLength="132" x="454" y="850.6699">玩家反馈说游戏现在很卡</text><path d="M394,873.5 L404,873.5 C419,873.5 419,846.5156 434,846.5156 L444,846.5156 " fill="none" style="stroke: #A80036; stroke-width: 1.0;"/><rect fill="#FEFECE" filter="url(#f1oc5c9gkiy1ax)" height="33.9688" rx="12.5" ry="12.5" style="stroke: #A80036; stroke-width: 1.5;" width="260" x="444" y="883.5"/><text fill="#000000" font-family="sans-serif" font-size="12" lengthAdjust="spacingAndGlyphs" textLength="240" x="454" y="904.6387">如何有效快速的确认原因，请给出分析的逻辑</text><path d="M394,873.5 L404,873.5 C419,873.5 419,900.4844 434,900.4844 L444,900.4844 " fill="none" style="stroke: #A80036; stroke-width: 1.0;"/><path d="M240,927.4688 L250,927.4688 C265,927.4688 265,873.5 280,873.5 L290,873.5 " fill="none" style="stroke: #A80036; stroke-width: 1.0;"/><rect fill="#FEFECE" filter="url(#f1oc5c9gkiy1ax)" height="33.9688" rx="12.5" ry="12.5" style="stroke: #A80036; stroke-width: 1.5;" width="128" x="290" y="1072.3906"/><text fill="#000000" font-family="sans-serif" font-size="12" lengthAdjust="spacingAndGlyphs" textLength="108" x="300" y="1093.5293">4.非技术、游戏运营</text><rect fill="#FEFECE" filter="url(#f1oc5c9gkiy1ax)" height="33.9688" rx="12.5" ry="12.5" style="stroke: #A80036; stroke-width: 1.5;" width="44" x="468" y="991.4375"/><text fill="#000000" font-family="sans-serif" font-size="12" lengthAdjust="spacingAndGlyphs" textLength="24" x="478" y="1012.5762">数据</text><rect fill="#FEFECE" filter="url(#f1oc5c9gkiy1ax)" height="33.9688" rx="12.5" ry="12.5" style="stroke: #A80036; stroke-width: 1.5;" width="128" x="562" y="937.4688"/><text fill="#000000" font-family="sans-serif" font-size="12" lengthAdjust="spacingAndGlyphs" textLength="108" x="572" y="958.6074">运营指标，xx日留存</text><path d="M512,1008.4219 L522,1008.4219 C537,1008.4219 537,954.4531 552,954.4531 L562,954.4531 " fill="none" style="stroke: #A80036; stroke-width: 1.0;"/><rect fill="#FEFECE" filter="url(#f1oc5c9gkiy1ax)" height="33.9688" rx="12.5" ry="12.5" style="stroke: #A80036; stroke-width: 1.5;" width="134" x="562" y="991.4375"/><text fill="#000000" font-family="sans-serif" font-size="12" lengthAdjust="spacingAndGlyphs" textLength="114" x="572" y="1012.5762">新玩家x日平均付费率</text><path d="M512,1008.4219 L522,1008.4219 C537,1008.4219 537,1008.4219 552,1008.4219 L562,1008.4219 " fill="none" style="stroke: #A80036; stroke-width: 1.0;"/><rect fill="#FEFECE" filter="url(#f1oc5c9gkiy1ax)" height="33.9688" rx="12.5" ry="12.5" style="stroke: #A80036; stroke-width: 1.5;" width="284" x="562" y="1045.4063"/><text fill="#000000" font-family="sans-serif" font-size="12" lengthAdjust="spacingAndGlyphs" textLength="264" x="572" y="1066.5449">基本玩家画像，年龄分布，学历分布，地区分布等</text><path d="M512,1008.4219 L522,1008.4219 C537,1008.4219 537,1062.3906 552,1062.3906 L562,1062.3906 " fill="none" style="stroke: #A80036; stroke-width: 1.0;"/><path d="M418,1089.375 L428,1089.375 C443,1089.375 443,1008.4219 458,1008.4219 L468,1008.4219 " fill="none" style="stroke: #A80036; stroke-width: 1.0;"/><rect fill="#FEFECE" filter="url(#f1oc5c9gkiy1ax)" height="33.9688" rx="12.5" ry="12.5" style="stroke: #A80036; stroke-width: 1.5;" width="44" x="468" y="1153.3438"/><text fill="#000000" font-family="sans-serif" font-size="12" lengthAdjust="spacingAndGlyphs" textLength="24" x="478" y="1174.4824">提问</text><rect fill="#FEFECE" filter="url(#f1oc5c9gkiy1ax)" height="33.9688" rx="12.5" ry="12.5" style="stroke: #A80036; stroke-width: 1.5;" width="236" x="562" y="1099.375"/><text fill="#000000" font-family="sans-serif" font-size="12" lengthAdjust="spacingAndGlyphs" textLength="216" x="572" y="1120.5137">这个游戏应该如何推广，在哪些渠道推广</text><path d="M512,1170.3281 L522,1170.3281 C537,1170.3281 537,1116.3594 552,1116.3594 L562,1116.3594 " fill="none" style="stroke: #A80036; stroke-width: 1.0;"/><rect fill="#FEFECE" filter="url(#f1oc5c9gkiy1ax)" height="33.9688" rx="12.5" ry="12.5" style="stroke: #A80036; stroke-width: 1.5;" width="404" x="562" y="1153.3438"/><text fill="#000000" font-family="sans-serif" font-size="12" lengthAdjust="spacingAndGlyphs" textLength="384" x="572" y="1174.4824">广告投放的价格策略如何标定，对这个游戏产品收入的整体判断是怎样的</text><path d="M512,1170.3281 L522,1170.3281 C537,1170.3281 537,1170.3281 552,1170.3281 L562,1170.3281 " fill="none" style="stroke: #A80036; stroke-width: 1.0;"/><rect fill="#FEFECE" filter="url(#f1oc5c9gkiy1ax)" height="33.9688" rx="12.5" ry="12.5" style="stroke: #A80036; stroke-width: 1.5;" width="272" x="562" y="1207.3125"/><text fill="#000000" font-family="sans-serif" font-size="12" lengthAdjust="spacingAndGlyphs" textLength="252" x="572" y="1228.4512">以及你认为还需要哪些数据才能给出更好的评估</text><path d="M512,1170.3281 L522,1170.3281 C537,1170.3281 537,1224.2969 552,1224.2969 L562,1224.2969 " fill="none" style="stroke: #A80036; stroke-width: 1.0;"/><path d="M418,1089.375 L428,1089.375 C443,1089.375 443,1170.3281 458,1170.3281 L468,1170.3281 " fill="none" style="stroke: #A80036; stroke-width: 1.0;"/><path d="M240,927.4688 L250,927.4688 C265,927.4688 265,1089.375 280,1089.375 L290,1089.375 " fill="none" style="stroke: #A80036; stroke-width: 1.0;"/><rect fill="#FEFECE" filter="url(#f1oc5c9gkiy1ax)" height="33.9688" rx="12.5" ry="12.5" style="stroke: #A80036; stroke-width: 1.5;" width="140" x="290" y="1288.2656"/><text fill="#000000" font-family="sans-serif" font-size="12" lengthAdjust="spacingAndGlyphs" textLength="120" x="300" y="1309.4043">5.社区运营或社区策略</text><rect fill="#FEFECE" filter="url(#f1oc5c9gkiy1ax)" height="33.9688" rx="12.5" ry="12.5" style="stroke: #A80036; stroke-width: 1.5;" width="284" x="480" y="1261.2813"/><text fill="#000000" font-family="sans-serif" font-size="12" lengthAdjust="spacingAndGlyphs" textLength="264" x="490" y="1282.4199">知乎社区，很多大号做营销，还有刷赞刷粉的很多</text><path d="M430,1305.25 L440,1305.25 C455,1305.25 455,1278.2656 470,1278.2656 L480,1278.2656 " fill="none" style="stroke: #A80036; stroke-width: 1.0;"/><rect fill="#FEFECE" filter="url(#f1oc5c9gkiy1ax)" height="33.9688" rx="12.5" ry="12.5" style="stroke: #A80036; stroke-width: 1.5;" width="212" x="480" y="1315.25"/><text fill="#000000" font-family="sans-serif" font-size="12" lengthAdjust="spacingAndGlyphs" textLength="192" x="490" y="1336.3887">给出你对这些事情的认识和处理策略</text><path d="M430,1305.25 L440,1305.25 C455,1305.25 455,1332.2344 470,1332.2344 L480,1332.2344 " fill="none" style="stroke: #A80036; stroke-width: 1.0;"/><path d="M240,927.4688 L250,927.4688 C265,927.4688 265,1305.25 280,1305.25 L290,1305.25 " fill="none" style="stroke: #A80036; stroke-width: 1.0;"/><path d="M110,1008.4219 L120,1008.4219 C135,1008.4219 135,927.4688 150,927.4688 L160,927.4688 " fill="none" style="stroke: #A80036; stroke-width: 1.0;"/><rect fill="#FEFECE" filter="url(#f1oc5c9gkiy1ax)" height="33.9688" rx="12.5" ry="12.5" style="stroke: #A80036; stroke-width: 1.5;" width="68" x="160" y="1666.0469"/><text fill="#000000" font-family="sans-serif" font-size="12" lengthAdjust="spacingAndGlyphs" textLength="48" x="170" y="1687.1855">面试总结</text><rect fill="#FEFECE" filter="url(#f1oc5c9gkiy1ax)" height="33.9688" rx="12.5" ry="12.5" style="stroke: #A80036; stroke-width: 1.5;" width="104" x="278" y="1369.2188"/><text fill="#000000" font-family="sans-serif" font-size="12" lengthAdjust="spacingAndGlyphs" textLength="84" x="288" y="1390.3574">1.评估面试成本</text><rect fill="#FEFECE" filter="url(#f1oc5c9gkiy1ax)" height="33.9688" rx="12.5" ry="12.5" style="stroke: #A80036; stroke-width: 1.5;" width="176" x="432" y="1369.2188"/><text fill="#000000" font-family="sans-serif" font-size="12" lengthAdjust="spacingAndGlyphs" textLength="156" x="442" y="1390.3574">特别是占用业务人员时间成本</text><path d="M382,1386.2031 L392,1386.2031 C407,1386.2031 407,1386.2031 422,1386.2031 L432,1386.2031 " fill="none" style="stroke: #A80036; stroke-width: 1.0;"/><path d="M228,1683.0313 L238,1683.0313 C253,1683.0313 253,1386.2031 268,1386.2031 L278,1386.2031 " fill="none" style="stroke: #A80036; stroke-width: 1.0;"/><rect fill="#FEFECE" filter="url(#f1oc5c9gkiy1ax)" height="33.9688" rx="12.5" ry="12.5" style="stroke: #A80036; stroke-width: 1.5;" width="104" x="278" y="1450.1719"/><text fill="#000000" font-family="sans-serif" font-size="12" lengthAdjust="spacingAndGlyphs" textLength="84" x="288" y="1471.3105">2.评估面试效率</text><rect fill="#FEFECE" filter="url(#f1oc5c9gkiy1ax)" height="33.9688" rx="12.5" ry="12.5" style="stroke: #A80036; stroke-width: 1.5;" width="236" x="432" y="1423.1875"/><text fill="#000000" font-family="sans-serif" font-size="12" lengthAdjust="spacingAndGlyphs" textLength="216" x="442" y="1444.3262">面试官平均多少时间可以招聘到合格人才</text><path d="M382,1467.1563 L392,1467.1563 C407,1467.1563 407,1440.1719 422,1440.1719 L432,1440.1719 " fill="none" style="stroke: #A80036; stroke-width: 1.0;"/><rect fill="#FEFECE" filter="url(#f1oc5c9gkiy1ax)" height="33.9688" rx="12.5" ry="12.5" style="stroke: #A80036; stroke-width: 1.5;" width="320" x="432" y="1477.1563"/><text fill="#000000" font-family="sans-serif" font-size="12" lengthAdjust="spacingAndGlyphs" textLength="300" x="442" y="1498.2949">每个面试官的招聘结果，平均流失多少，平均表现如何？</text><path d="M382,1467.1563 L392,1467.1563 C407,1467.1563 407,1494.1406 422,1494.1406 L432,1494.1406 " fill="none" style="stroke: #A80036; stroke-width: 1.0;"/><path d="M228,1683.0313 L238,1683.0313 C253,1683.0313 253,1467.1563 268,1467.1563 L278,1467.1563 " fill="none" style="stroke: #A80036; stroke-width: 1.0;"/><rect fill="#FEFECE" filter="url(#f1oc5c9gkiy1ax)" height="33.9688" rx="12.5" ry="12.5" style="stroke: #A80036; stroke-width: 1.5;" width="188" x="278" y="1747"/><text fill="#000000" font-family="sans-serif" font-size="12" lengthAdjust="spacingAndGlyphs" textLength="168" x="288" y="1768.1387">3.组织面试官的经验与教训分享</text><rect fill="#FEFECE" filter="url(#f1oc5c9gkiy1ax)" height="33.9688" rx="12.5" ry="12.5" style="stroke: #A80036; stroke-width: 1.5;" width="380" x="516" y="1531.125"/><text fill="#000000" font-family="sans-serif" font-size="12" lengthAdjust="spacingAndGlyphs" textLength="360" x="526" y="1552.2637">行成知识库，方便新的管理人员，骨干人员快速掌握面试技巧和能力</text><path d="M466,1763.9844 L476,1763.9844 C491,1763.9844 491,1548.1094 506,1548.1094 L516,1548.1094 " fill="none" style="stroke: #A80036; stroke-width: 1.0;"/><rect fill="#FEFECE" filter="url(#f1oc5c9gkiy1ax)" height="33.9688" rx="12.5" ry="12.5" style="stroke: #A80036; stroke-width: 1.5;" width="44" x="516" y="1639.0625"/><text fill="#000000" font-family="sans-serif" font-size="12" lengthAdjust="spacingAndGlyphs" textLength="24" x="526" y="1660.2012">经验</text><rect fill="#FEFECE" filter="url(#f1oc5c9gkiy1ax)" height="33.9688" rx="12.5" ry="12.5" style="stroke: #A80036; stroke-width: 1.5;" width="164" x="610" y="1585.0938"/><text fill="#000000" font-family="sans-serif" font-size="12" lengthAdjust="spacingAndGlyphs" textLength="144" x="620" y="1606.2324">优秀的人才是怎么招进来的</text><path d="M560,1656.0469 L570,1656.0469 C585,1656.0469 585,1602.0781 600,1602.0781 L610,1602.0781 " fill="none" style="stroke: #A80036; stroke-width: 1.0;"/><rect fill="#FEFECE" filter="url(#f1oc5c9gkiy1ax)" height="33.9688" rx="12.5" ry="12.5" style="stroke: #A80036; stroke-width: 1.5;" width="200" x="610" y="1639.0625"/><text fill="#000000" font-family="sans-serif" font-size="12" lengthAdjust="spacingAndGlyphs" textLength="180" x="620" y="1660.2012">哪些素质在面试的时候可以看出来</text><path d="M560,1656.0469 L570,1656.0469 C585,1656.0469 585,1656.0469 600,1656.0469 L610,1656.0469 " fill="none" style="stroke: #A80036; stroke-width: 1.0;"/><rect fill="#FEFECE" filter="url(#f1oc5c9gkiy1ax)" height="33.9688" rx="12.5" ry="12.5" style="stroke: #A80036; stroke-width: 1.5;" width="116" x="610" y="1693.0313"/><text fill="#000000" font-family="sans-serif" font-size="12" lengthAdjust="spacingAndGlyphs" textLength="96" x="620" y="1714.1699">具有怎样的共性；</text><path d="M560,1656.0469 L570,1656.0469 C585,1656.0469 585,1710.0156 600,1710.0156 L610,1710.0156 " fill="none" style="stroke: #A80036; stroke-width: 1.0;"/><path d="M466,1763.9844 L476,1763.9844 C491,1763.9844 491,1656.0469 506,1656.0469 L516,1656.0469 " fill="none" style="stroke: #A80036; stroke-width: 1.0;"/><rect fill="#FEFECE" filter="url(#f1oc5c9gkiy1ax)" height="33.9688" rx="12.5" ry="12.5" style="stroke: #A80036; stroke-width: 1.5;" width="44" x="516" y="1800.9688"/><text fill="#000000" font-family="sans-serif" font-size="12" lengthAdjust="spacingAndGlyphs" textLength="24" x="526" y="1822.1074">教训</text><rect fill="#FEFECE" filter="url(#f1oc5c9gkiy1ax)" height="33.9688" rx="12.5" ry="12.5" style="stroke: #A80036; stroke-width: 1.5;" width="236" x="610" y="1747"/><text fill="#000000" font-family="sans-serif" font-size="12" lengthAdjust="spacingAndGlyphs" textLength="216" x="620" y="1768.1387">不合格，或者不稳定的人是怎么招进来的</text><path d="M560,1817.9531 L570,1817.9531 C585,1817.9531 585,1763.9844 600,1763.9844 L610,1763.9844 " fill="none" style="stroke: #A80036; stroke-width: 1.0;"/><rect fill="#FEFECE" filter="url(#f1oc5c9gkiy1ax)" height="33.9688" rx="12.5" ry="12.5" style="stroke: #A80036; stroke-width: 1.5;" width="272" x="610" y="1800.9688"/><text fill="#000000" font-family="sans-serif" font-size="12" lengthAdjust="spacingAndGlyphs" textLength="252" x="620" y="1822.1074">哪些特征是面试的时候可以看出来但没有看出来</text><path d="M560,1817.9531 L570,1817.9531 C585,1817.9531 585,1817.9531 600,1817.9531 L610,1817.9531 " fill="none" style="stroke: #A80036; stroke-width: 1.0;"/><rect fill="#FEFECE" filter="url(#f1oc5c9gkiy1ax)" height="33.9688" rx="12.5" ry="12.5" style="stroke: #A80036; stroke-width: 1.5;" width="164" x="610" y="1854.9375"/><text fill="#000000" font-family="sans-serif" font-size="12" lengthAdjust="spacingAndGlyphs" textLength="144" x="620" y="1876.0762">或者看出来但没有当回事的</text><path d="M560,1817.9531 L570,1817.9531 C585,1817.9531 585,1871.9219 600,1871.9219 L610,1871.9219 " fill="none" style="stroke: #A80036; stroke-width: 1.0;"/><path d="M466,1763.9844 L476,1763.9844 C491,1763.9844 491,1817.9531 506,1817.9531 L516,1817.9531 " fill="none" style="stroke: #A80036; stroke-width: 1.0;"/><rect fill="#FEFECE" filter="url(#f1oc5c9gkiy1ax)" height="33.9688" rx="12.5" ry="12.5" style="stroke: #A80036; stroke-width: 1.5;" width="44" x="516" y="1935.8906"/><text fill="#000000" font-family="sans-serif" font-size="12" lengthAdjust="spacingAndGlyphs" textLength="24" x="526" y="1957.0293">总结</text><rect fill="#FEFECE" filter="url(#f1oc5c9gkiy1ax)" height="33.9688" rx="12.5" ry="12.5" style="stroke: #A80036; stroke-width: 1.5;" width="229" x="610" y="1908.9063"/><text fill="#000000" font-family="sans-serif" font-size="12" lengthAdjust="spacingAndGlyphs" textLength="209" x="620" y="1930.0449">是否存在心仪的人才拒绝了offer的情况</text><path d="M560,1952.875 L570,1952.875 C585,1952.875 585,1925.8906 600,1925.8906 L610,1925.8906 " fill="none" style="stroke: #A80036; stroke-width: 1.0;"/><rect fill="#FEFECE" filter="url(#f1oc5c9gkiy1ax)" height="33.9688" rx="12.5" ry="12.5" style="stroke: #A80036; stroke-width: 1.5;" width="104" x="610" y="1962.875"/><text fill="#000000" font-family="sans-serif" font-size="12" lengthAdjust="spacingAndGlyphs" textLength="84" x="620" y="1984.0137">以及为什么拒绝</text><path d="M560,1952.875 L570,1952.875 C585,1952.875 585,1979.8594 600,1979.8594 L610,1979.8594 " fill="none" style="stroke: #A80036; stroke-width: 1.0;"/><path d="M466,1763.9844 L476,1763.9844 C491,1763.9844 491,1952.875 506,1952.875 L516,1952.875 " fill="none" style="stroke: #A80036; stroke-width: 1.0;"/><path d="M228,1683.0313 L238,1683.0313 C253,1683.0313 253,1763.9844 268,1763.9844 L278,1763.9844 " fill="none" style="stroke: #A80036; stroke-width: 1.0;"/><path d="M110,1008.4219 L120,1008.4219 C135,1008.4219 135,1683.0313 150,1683.0313 L160,1683.0313 " fill="none" style="stroke: #A80036; stroke-width: 1.0;"/><!--
--></g></svg>