<svg xmlns="http://www.w3.org/2000/svg" xmlns:xlink="http://www.w3.org/1999/xlink" width="731" height="334" contentScriptType="application/ecmascript" contentStyleType="text/css" style="width:731px;height:334px" preserveAspectRatio="none" version="1.1" viewBox="0 0 731 334" zoomAndPan="magnify"><defs><filter id="f1qil770yvc75p" width="300%" height="300%" x="-1" y="-1"><feGaussianBlur result="blurOut" stdDeviation="2"/><feColorMatrix in="blurOut" result="blurOut2" type="matrix" values="0 0 0 0 0 0 0 0 0 0 0 0 0 0 0 0 0 0 .4 0"/><feOffset dx="4" dy="4" in="blurOut2" result="blurOut3"/><feBlend in="SourceGraphic" in2="blurOut3" mode="normal"/></filter></defs><g><rect style="stroke:#a80036;stroke-width:1.5" width="128" height="33.969" x="10" y="154.922" fill="#FEFECE" filter="url(#f1qil770yvc75p)" rx="12.5" ry="12.5"/><text x="20" y="176.06" fill="#000" font-family="sans-serif" font-size="12" lengthAdjust="spacingAndGlyphs" textLength="108">如何成为好的架构师</text><rect style="stroke:#a80036;stroke-width:1.5" width="44" height="33.969" x="188" y="73.969" fill="#FEFECE" filter="url(#f1qil770yvc75p)" rx="12.5" ry="12.5"/><text x="198" y="95.107" fill="#000" font-family="sans-serif" font-size="12" lengthAdjust="spacingAndGlyphs" textLength="24">职责</text><rect style="stroke:#a80036;stroke-width:1.5" width="176" height="33.969" x="282" y="20" fill="#FEFECE" filter="url(#f1qil770yvc75p)" rx="12.5" ry="12.5"/><text x="292" y="41.139" fill="#000" font-family="sans-serif" font-size="12" lengthAdjust="spacingAndGlyphs" textLength="156">确保团队有个共同的技术愿景</text><rect style="stroke:#a80036;stroke-width:1.5" width="212" height="33.969" x="508" y="20" fill="#FEFECE" filter="url(#f1qil770yvc75p)" rx="12.5" ry="12.5"/><text x="518" y="41.139" fill="#000" font-family="sans-serif" font-size="12" lengthAdjust="spacingAndGlyphs" textLength="192">帮助团队向客户交付他们想要的系统</text><path fill="none" d="M458,36.9844 L468,36.9844 C483,36.9844 483,36.9844 498,36.9844 L508,36.9844" style="stroke:#a80036;stroke-width:1"/><path fill="none" d="M232,90.9531 L242,90.9531 C257,90.9531 257,36.9844 272,36.9844 L282,36.9844" style="stroke:#a80036;stroke-width:1"/><rect style="stroke:#a80036;stroke-width:1.5" width="116" height="33.969" x="282" y="73.969" fill="#FEFECE" filter="url(#f1qil770yvc75p)" rx="12.5" ry="12.5"/><text x="292" y="95.107" fill="#000" font-family="sans-serif" font-size="12" lengthAdjust="spacingAndGlyphs" textLength="96">只和一个团队工作</text><rect style="stroke:#a80036;stroke-width:1.5" width="80" height="33.969" x="448" y="73.969" fill="#FEFECE" filter="url(#f1qil770yvc75p)" rx="12.5" ry="12.5"/><text x="458" y="95.107" fill="#000" font-family="sans-serif" font-size="12" lengthAdjust="spacingAndGlyphs" textLength="60">技术引领者</text><path fill="none" d="M398,90.9531 L408,90.9531 C423,90.9531 423,90.9531 438,90.9531 L448,90.9531" style="stroke:#a80036;stroke-width:1"/><path fill="none" d="M232,90.9531 L242,90.9531 C257,90.9531 257,90.9531 272,90.9531 L282,90.9531" style="stroke:#a80036;stroke-width:1"/><rect style="stroke:#a80036;stroke-width:1.5" width="164" height="33.969" x="282" y="127.938" fill="#FEFECE" filter="url(#f1qil770yvc75p)" rx="12.5" ry="12.5"/><text x="292" y="149.076" fill="#000" font-family="sans-serif" font-size="12" lengthAdjust="spacingAndGlyphs" textLength="144">负责整个项目组的技术愿景</text><rect style="stroke:#a80036;stroke-width:1.5" width="140" height="33.969" x="496" y="127.938" fill="#FEFECE" filter="url(#f1qil770yvc75p)" rx="12.5" ry="12.5"/><text x="506" y="149.076" fill="#000" font-family="sans-serif" font-size="12" lengthAdjust="spacingAndGlyphs" textLength="120">协调多个团队间的工作</text><path fill="none" d="M446,144.9219 L456,144.9219 C471,144.9219 471,144.9219 486,144.9219 L496,144.9219" style="stroke:#a80036;stroke-width:1"/><path fill="none" d="M232,90.9531 L242,90.9531 C257,90.9531 257,144.9219 272,144.9219 L282,144.9219" style="stroke:#a80036;stroke-width:1"/><path fill="none" d="M138,171.9063 L148,171.9063 C163,171.9063 163,90.9531 178,90.9531 L188,90.9531" style="stroke:#a80036;stroke-width:1"/><rect style="stroke:#a80036;stroke-width:1.5" width="92" height="33.969" x="188" y="235.875" fill="#FEFECE" filter="url(#f1qil770yvc75p)" rx="12.5" ry="12.5"/><text x="198" y="257.014" fill="#000" font-family="sans-serif" font-size="12" lengthAdjust="spacingAndGlyphs" textLength="72">难做好的原因</text><rect style="stroke:#a80036;stroke-width:1.5" width="128" height="33.969" x="330" y="235.875" fill="#FEFECE" filter="url(#f1qil770yvc75p)" rx="12.5" ry="12.5"/><text x="340" y="257.014" fill="#000" font-family="sans-serif" font-size="12" lengthAdjust="spacingAndGlyphs" textLength="108">响应客户的需求变更</text><rect style="stroke:#a80036;stroke-width:1.5" width="200" height="33.969" x="508" y="181.906" fill="#FEFECE" filter="url(#f1qil770yvc75p)" rx="12.5" ry="12.5"/><text x="518" y="203.045" fill="#000" font-family="sans-serif" font-size="12" lengthAdjust="spacingAndGlyphs" textLength="180">放弃一开始设计出完美系统的想法</text><path fill="none" d="M458,252.8594 L468,252.8594 C483,252.8594 483,198.8906 498,198.8906 L508,198.8906" style="stroke:#a80036;stroke-width:1"/><rect style="stroke:#a80036;stroke-width:1.5" width="176" height="33.969" x="508" y="235.875" fill="#FEFECE" filter="url(#f1qil770yvc75p)" rx="12.5" ry="12.5"/><text x="518" y="257.014" fill="#000" font-family="sans-serif" font-size="12" lengthAdjust="spacingAndGlyphs" textLength="156">设计一个可以不断演化的框架</text><path fill="none" d="M458,252.8594 L468,252.8594 C483,252.8594 483,252.8594 498,252.8594 L508,252.8594" style="stroke:#a80036;stroke-width:1"/><rect style="stroke:#a80036;stroke-width:1.5" width="200" height="33.969" x="508" y="289.844" fill="#FEFECE" filter="url(#f1qil770yvc75p)" rx="12.5" ry="12.5"/><text x="518" y="310.982" fill="#000" font-family="sans-serif" font-size="12" lengthAdjust="spacingAndGlyphs" textLength="180">新知识可以很容易的应用到系统中</text><path fill="none" d="M458,252.8594 L468,252.8594 C483,252.8594 483,306.8281 498,306.8281 L508,306.8281" style="stroke:#a80036;stroke-width:1"/><path fill="none" d="M280,252.8594 L290,252.8594 C305,252.8594 305,252.8594 320,252.8594 L330,252.8594" style="stroke:#a80036;stroke-width:1"/><path fill="none" d="M138,171.9063 L148,171.9063 C163,171.9063 163,252.8594 178,252.8594 L188,252.8594" style="stroke:#a80036;stroke-width:1"/></g></svg>