<?xml version="1.0" encoding="UTF-8" standalone="no"?><svg xmlns="http://www.w3.org/2000/svg" xmlns:xlink="http://www.w3.org/1999/xlink" contentScriptType="application/ecmascript" contentStyleType="text/css" height="550px" preserveAspectRatio="none" style="width:649px;height:550px;" version="1.1" viewBox="0 0 649 550" width="649px" zoomAndPan="magnify"><defs><filter height="300%" id="f1xxpwf49ry6lz" width="300%" x="-1" y="-1"><feGaussianBlur result="blurOut" stdDeviation="2.0"/><feColorMatrix in="blurOut" result="blurOut2" type="matrix" values="0 0 0 0 0 0 0 0 0 0 0 0 0 0 0 0 0 0 .4 0"/><feOffset dx="4.0" dy="4.0" in="blurOut2" result="blurOut3"/><feBlend in="SourceGraphic" in2="blurOut3" mode="normal"/></filter></defs><g><rect fill="#FEFECE" filter="url(#f1xxpwf49ry6lz)" height="33.9688" rx="12.5" ry="12.5" style="stroke: #A80036; stroke-width: 1.5;" width="68" x="10" y="262.8594"/><text fill="#000000" font-family="sans-serif" font-size="12" lengthAdjust="spacingAndGlyphs" textLength="48" x="20" y="283.998">以教为学</text><rect fill="#FEFECE" filter="url(#f1xxpwf49ry6lz)" height="33.9688" rx="12.5" ry="12.5" style="stroke: #A80036; stroke-width: 1.5;" width="200" x="128" y="127.9375"/><text fill="#000000" font-family="sans-serif" font-size="12" lengthAdjust="spacingAndGlyphs" textLength="180" x="138" y="149.0762">一次教学过程，通常包含几个环节</text><rect fill="#FEFECE" filter="url(#f1xxpwf49ry6lz)" height="33.9688" rx="12.5" ry="12.5" style="stroke: #A80036; stroke-width: 1.5;" width="176" x="378" y="20"/><text fill="#000000" font-family="sans-serif" font-size="12" lengthAdjust="spacingAndGlyphs" textLength="156" x="388" y="41.1387">说明（告诉学生应该怎么做）</text><path d="M328,144.9219 L338,144.9219 C353,144.9219 353,36.9844 368,36.9844 L378,36.9844 " fill="none" style="stroke: #A80036; stroke-width: 1.0;"/><rect fill="#FEFECE" filter="url(#f1xxpwf49ry6lz)" height="33.9688" rx="12.5" ry="12.5" style="stroke: #A80036; stroke-width: 1.5;" width="128" x="378" y="73.9688"/><text fill="#000000" font-family="sans-serif" font-size="12" lengthAdjust="spacingAndGlyphs" textLength="108" x="388" y="95.1074">示范（做给学生看）</text><path d="M328,144.9219 L338,144.9219 C353,144.9219 353,90.9531 368,90.9531 L378,90.9531 " fill="none" style="stroke: #A80036; stroke-width: 1.0;"/><rect fill="#FEFECE" filter="url(#f1xxpwf49ry6lz)" height="33.9688" rx="12.5" ry="12.5" style="stroke: #A80036; stroke-width: 1.5;" width="128" x="378" y="127.9375"/><text fill="#000000" font-family="sans-serif" font-size="12" lengthAdjust="spacingAndGlyphs" textLength="108" x="388" y="149.0762">练习（让学生练习）</text><path d="M328,144.9219 L338,144.9219 C353,144.9219 353,144.9219 368,144.9219 L378,144.9219 " fill="none" style="stroke: #A80036; stroke-width: 1.0;"/><rect fill="#FEFECE" filter="url(#f1xxpwf49ry6lz)" height="33.9688" rx="12.5" ry="12.5" style="stroke: #A80036; stroke-width: 1.5;" width="152" x="378" y="181.9063"/><text fill="#000000" font-family="sans-serif" font-size="12" lengthAdjust="spacingAndGlyphs" textLength="132" x="388" y="203.0449">观察（老师在旁边观察）</text><path d="M328,144.9219 L338,144.9219 C353,144.9219 353,198.8906 368,198.8906 L378,198.8906 " fill="none" style="stroke: #A80036; stroke-width: 1.0;"/><rect fill="#FEFECE" filter="url(#f1xxpwf49ry6lz)" height="33.9688" rx="12.5" ry="12.5" style="stroke: #A80036; stroke-width: 1.5;" width="260" x="378" y="235.875"/><text fill="#000000" font-family="sans-serif" font-size="12" lengthAdjust="spacingAndGlyphs" textLength="240" x="388" y="257.0137">反馈（鼓励做的好的，纠正做的不好的地方）</text><path d="M328,144.9219 L338,144.9219 C353,144.9219 353,252.8594 368,252.8594 L378,252.8594 " fill="none" style="stroke: #A80036; stroke-width: 1.0;"/><path d="M78,279.8438 L88,279.8438 C103,279.8438 103,144.9219 118,144.9219 L128,144.9219 " fill="none" style="stroke: #A80036; stroke-width: 1.0;"/><rect fill="#FEFECE" filter="url(#f1xxpwf49ry6lz)" height="33.9688" rx="12.5" ry="12.5" style="stroke: #A80036; stroke-width: 1.5;" width="92" x="128" y="397.7813"/><text fill="#000000" font-family="sans-serif" font-size="12" lengthAdjust="spacingAndGlyphs" textLength="72" x="138" y="418.9199">以教为学方式</text><rect fill="#FEFECE" filter="url(#f1xxpwf49ry6lz)" height="33.9688" rx="12.5" ry="12.5" style="stroke: #A80036; stroke-width: 1.5;" width="128" x="270" y="289.8438"/><text fill="#000000" font-family="sans-serif" font-size="12" lengthAdjust="spacingAndGlyphs" textLength="108" x="280" y="310.9824">你先给我说说怎么做</text><path d="M220,414.7656 L230,414.7656 C245,414.7656 245,306.8281 260,306.8281 L270,306.8281 " fill="none" style="stroke: #A80036; stroke-width: 1.0;"/><rect fill="#FEFECE" filter="url(#f1xxpwf49ry6lz)" height="33.9688" rx="12.5" ry="12.5" style="stroke: #A80036; stroke-width: 1.5;" width="104" x="270" y="343.8125"/><text fill="#000000" font-family="sans-serif" font-size="12" lengthAdjust="spacingAndGlyphs" textLength="84" x="280" y="364.9512">你做一遍给我看</text><path d="M220,414.7656 L230,414.7656 C245,414.7656 245,360.7969 260,360.7969 L270,360.7969 " fill="none" style="stroke: #A80036; stroke-width: 1.0;"/><rect fill="#FEFECE" filter="url(#f1xxpwf49ry6lz)" height="33.9688" rx="12.5" ry="12.5" style="stroke: #A80036; stroke-width: 1.5;" width="104" x="270" y="397.7813"/><text fill="#000000" font-family="sans-serif" font-size="12" lengthAdjust="spacingAndGlyphs" textLength="84" x="280" y="418.9199">我来试着做一下</text><path d="M220,414.7656 L230,414.7656 C245,414.7656 245,414.7656 260,414.7656 L270,414.7656 " fill="none" style="stroke: #A80036; stroke-width: 1.0;"/><rect fill="#FEFECE" filter="url(#f1xxpwf49ry6lz)" height="33.9688" rx="12.5" ry="12.5" style="stroke: #A80036; stroke-width: 1.5;" width="164" x="270" y="451.75"/><text fill="#000000" font-family="sans-serif" font-size="12" lengthAdjust="spacingAndGlyphs" textLength="144" x="280" y="472.8887">请你在旁边观察我做的过程</text><path d="M220,414.7656 L230,414.7656 C245,414.7656 245,468.7344 260,468.7344 L270,468.7344 " fill="none" style="stroke: #A80036; stroke-width: 1.0;"/><rect fill="#FEFECE" filter="url(#f1xxpwf49ry6lz)" height="33.9688" rx="12.5" ry="12.5" style="stroke: #A80036; stroke-width: 1.5;" width="152" x="270" y="505.7188"/><text fill="#000000" font-family="sans-serif" font-size="12" lengthAdjust="spacingAndGlyphs" textLength="132" x="280" y="526.8574">你看看我哪里做的不到位</text><path d="M220,414.7656 L230,414.7656 C245,414.7656 245,522.7031 260,522.7031 L270,522.7031 " fill="none" style="stroke: #A80036; stroke-width: 1.0;"/><path d="M78,279.8438 L88,279.8438 C103,279.8438 103,414.7656 118,414.7656 L128,414.7656 " fill="none" style="stroke: #A80036; stroke-width: 1.0;"/><!--
--></g></svg>