<?xml version="1.0" encoding="UTF-8" standalone="no"?><svg xmlns="http://www.w3.org/2000/svg" xmlns:xlink="http://www.w3.org/1999/xlink" contentScriptType="application/ecmascript" contentStyleType="text/css" height="928px" preserveAspectRatio="none" style="width:457px;height:928px;" version="1.1" viewBox="0 0 457 928" width="457px" zoomAndPan="magnify"><defs><filter height="300%" id="fcexx0ns8pj2s" width="300%" x="-1" y="-1"><feGaussianBlur result="blurOut" stdDeviation="2.0"/><feColorMatrix in="blurOut" result="blurOut2" type="matrix" values="0 0 0 0 0 0 0 0 0 0 0 0 0 0 0 0 0 0 .4 0"/><feOffset dx="4.0" dy="4.0" in="blurOut2" result="blurOut3"/><feBlend in="SourceGraphic" in2="blurOut3" mode="normal"/></filter></defs><g><rect fill="#FEFECE" filter="url(#fcexx0ns8pj2s)" height="33.9688" rx="12.5" ry="12.5" style="stroke: #A80036; stroke-width: 1.5;" width="92" x="10" y="451.75"/><text fill="#000000" font-family="sans-serif" font-size="12" lengthAdjust="spacingAndGlyphs" textLength="72" x="20" y="472.8887">企业架构演化</text><rect fill="#FEFECE" filter="url(#fcexx0ns8pj2s)" height="33.9688" rx="12.5" ry="12.5" style="stroke: #A80036; stroke-width: 1.5;" width="68" x="152" y="73.9688"/><text fill="#000000" font-family="sans-serif" font-size="12" lengthAdjust="spacingAndGlyphs" textLength="48" x="162" y="95.1074">业务架构</text><rect fill="#FEFECE" filter="url(#fcexx0ns8pj2s)" height="33.9688" rx="12.5" ry="12.5" style="stroke: #A80036; stroke-width: 1.5;" width="68" x="270" y="20"/><text fill="#000000" font-family="sans-serif" font-size="12" lengthAdjust="spacingAndGlyphs" textLength="48" x="280" y="41.1387">单体架构</text><path d="M220,90.9531 L230,90.9531 C245,90.9531 245,36.9844 260,36.9844 L270,36.9844 " fill="none" style="stroke: #A80036; stroke-width: 1.0;"/><rect fill="#FEFECE" filter="url(#fcexx0ns8pj2s)" height="33.9688" rx="12.5" ry="12.5" style="stroke: #A80036; stroke-width: 1.5;" width="80" x="270" y="73.9688"/><text fill="#000000" font-family="sans-serif" font-size="12" lengthAdjust="spacingAndGlyphs" textLength="60" x="280" y="95.1074">服务化架构</text><path d="M220,90.9531 L230,90.9531 C245,90.9531 245,90.9531 260,90.9531 L270,90.9531 " fill="none" style="stroke: #A80036; stroke-width: 1.0;"/><rect fill="#FEFECE" filter="url(#fcexx0ns8pj2s)" height="33.9688" rx="12.5" ry="12.5" style="stroke: #A80036; stroke-width: 1.5;" width="92" x="270" y="127.9375"/><text fill="#000000" font-family="sans-serif" font-size="12" lengthAdjust="spacingAndGlyphs" textLength="72" x="280" y="149.0762">微服务化架构</text><path d="M220,90.9531 L230,90.9531 C245,90.9531 245,144.9219 260,144.9219 L270,144.9219 " fill="none" style="stroke: #A80036; stroke-width: 1.0;"/><path d="M102,468.7344 L112,468.7344 C127,468.7344 127,90.9531 142,90.9531 L152,90.9531 " fill="none" style="stroke: #A80036; stroke-width: 1.0;"/><rect fill="#FEFECE" filter="url(#fcexx0ns8pj2s)" height="33.9688" rx="12.5" ry="12.5" style="stroke: #A80036; stroke-width: 1.5;" width="68" x="152" y="262.8594"/><text fill="#000000" font-family="sans-serif" font-size="12" lengthAdjust="spacingAndGlyphs" textLength="48" x="162" y="283.998">技术架构</text><rect fill="#FEFECE" filter="url(#fcexx0ns8pj2s)" height="33.9688" rx="12.5" ry="12.5" style="stroke: #A80036; stroke-width: 1.5;" width="96" x="270" y="181.9063"/><text fill="#000000" font-family="sans-serif" font-size="12" lengthAdjust="spacingAndGlyphs" textLength="76" x="280" y="203.0449">物理机/虚拟机</text><path d="M220,279.8438 L230,279.8438 C245,279.8438 245,198.8906 260,198.8906 L270,198.8906 " fill="none" style="stroke: #A80036; stroke-width: 1.0;"/><rect fill="#FEFECE" filter="url(#fcexx0ns8pj2s)" height="33.9688" rx="12.5" ry="12.5" style="stroke: #A80036; stroke-width: 1.5;" width="127" x="270" y="235.875"/><text fill="#000000" font-family="sans-serif" font-size="12" lengthAdjust="spacingAndGlyphs" textLength="107" x="280" y="257.0137">云计算(Iaas/Paas)</text><path d="M220,279.8438 L230,279.8438 C245,279.8438 245,252.8594 260,252.8594 L270,252.8594 " fill="none" style="stroke: #A80036; stroke-width: 1.0;"/><rect fill="#FEFECE" filter="url(#fcexx0ns8pj2s)" height="33.9688" rx="12.5" ry="12.5" style="stroke: #A80036; stroke-width: 1.5;" width="174" x="270" y="289.8438"/><text fill="#000000" font-family="sans-serif" font-size="12" lengthAdjust="spacingAndGlyphs" textLength="154" x="280" y="310.9824">容器+SpringCloud/Dubbo</text><path d="M220,279.8438 L230,279.8438 C245,279.8438 245,306.8281 260,306.8281 L270,306.8281 " fill="none" style="stroke: #A80036; stroke-width: 1.0;"/><rect fill="#FEFECE" filter="url(#fcexx0ns8pj2s)" height="33.9688" rx="12.5" ry="12.5" style="stroke: #A80036; stroke-width: 1.5;" width="98" x="270" y="343.8125"/><text fill="#000000" font-family="sans-serif" font-size="12" lengthAdjust="spacingAndGlyphs" textLength="78" x="280" y="364.9512">ServiceMesh</text><path d="M220,279.8438 L230,279.8438 C245,279.8438 245,360.7969 260,360.7969 L270,360.7969 " fill="none" style="stroke: #A80036; stroke-width: 1.0;"/><path d="M102,468.7344 L112,468.7344 C127,468.7344 127,279.8438 142,279.8438 L152,279.8438 " fill="none" style="stroke: #A80036; stroke-width: 1.0;"/><rect fill="#FEFECE" filter="url(#fcexx0ns8pj2s)" height="33.9688" rx="12.5" ry="12.5" style="stroke: #A80036; stroke-width: 1.5;" width="68" x="152" y="451.75"/><text fill="#000000" font-family="sans-serif" font-size="12" lengthAdjust="spacingAndGlyphs" textLength="48" x="162" y="472.8887">数据架构</text><rect fill="#FEFECE" filter="url(#fcexx0ns8pj2s)" height="33.9688" rx="12.5" ry="12.5" style="stroke: #A80036; stroke-width: 1.5;" width="92" x="270" y="397.7813"/><text fill="#000000" font-family="sans-serif" font-size="12" lengthAdjust="spacingAndGlyphs" textLength="72" x="280" y="418.9199">简单统计分析</text><path d="M220,468.7344 L230,468.7344 C245,468.7344 245,414.7656 260,414.7656 L270,414.7656 " fill="none" style="stroke: #A80036; stroke-width: 1.0;"/><rect fill="#FEFECE" filter="url(#fcexx0ns8pj2s)" height="33.9688" rx="12.5" ry="12.5" style="stroke: #A80036; stroke-width: 1.5;" width="92" x="270" y="451.75"/><text fill="#000000" font-family="sans-serif" font-size="12" lengthAdjust="spacingAndGlyphs" textLength="72" x="280" y="472.8887">支持管理决策</text><path d="M220,468.7344 L230,468.7344 C245,468.7344 245,468.7344 260,468.7344 L270,468.7344 " fill="none" style="stroke: #A80036; stroke-width: 1.0;"/><rect fill="#FEFECE" filter="url(#fcexx0ns8pj2s)" height="33.9688" rx="12.5" ry="12.5" style="stroke: #A80036; stroke-width: 1.5;" width="116" x="270" y="505.7188"/><text fill="#000000" font-family="sans-serif" font-size="12" lengthAdjust="spacingAndGlyphs" textLength="96" x="280" y="526.8574">数据运营驱动创新</text><path d="M220,468.7344 L230,468.7344 C245,468.7344 245,522.7031 260,522.7031 L270,522.7031 " fill="none" style="stroke: #A80036; stroke-width: 1.0;"/><path d="M102,468.7344 L112,468.7344 C127,468.7344 127,468.7344 142,468.7344 L152,468.7344 " fill="none" style="stroke: #A80036; stroke-width: 1.0;"/><rect fill="#FEFECE" filter="url(#fcexx0ns8pj2s)" height="33.9688" rx="12.5" ry="12.5" style="stroke: #A80036; stroke-width: 1.5;" width="68" x="152" y="640.6406"/><text fill="#000000" font-family="sans-serif" font-size="12" lengthAdjust="spacingAndGlyphs" textLength="48" x="162" y="661.7793">研发流程</text><rect fill="#FEFECE" filter="url(#fcexx0ns8pj2s)" height="33.9688" rx="12.5" ry="12.5" style="stroke: #A80036; stroke-width: 1.5;" width="104" x="270" y="559.6875"/><text fill="#000000" font-family="sans-serif" font-size="12" lengthAdjust="spacingAndGlyphs" textLength="84" x="280" y="580.8262">测试发布手工化</text><path d="M220,657.625 L230,657.625 C245,657.625 245,576.6719 260,576.6719 L270,576.6719 " fill="none" style="stroke: #A80036; stroke-width: 1.0;"/><rect fill="#FEFECE" filter="url(#fcexx0ns8pj2s)" height="33.9688" rx="12.5" ry="12.5" style="stroke: #A80036; stroke-width: 1.5;" width="104" x="270" y="613.6563"/><text fill="#000000" font-family="sans-serif" font-size="12" lengthAdjust="spacingAndGlyphs" textLength="84" x="280" y="634.7949">测试发布脚本化</text><path d="M220,657.625 L230,657.625 C245,657.625 245,630.6406 260,630.6406 L270,630.6406 " fill="none" style="stroke: #A80036; stroke-width: 1.0;"/><rect fill="#FEFECE" filter="url(#fcexx0ns8pj2s)" height="33.9688" rx="12.5" ry="12.5" style="stroke: #A80036; stroke-width: 1.5;" width="104" x="270" y="667.625"/><text fill="#000000" font-family="sans-serif" font-size="12" lengthAdjust="spacingAndGlyphs" textLength="84" x="280" y="688.7637">测试发布平台化</text><path d="M220,657.625 L230,657.625 C245,657.625 245,684.6094 260,684.6094 L270,684.6094 " fill="none" style="stroke: #A80036; stroke-width: 1.0;"/><rect fill="#FEFECE" filter="url(#fcexx0ns8pj2s)" height="33.9688" rx="12.5" ry="12.5" style="stroke: #A80036; stroke-width: 1.5;" width="67" x="270" y="721.5938"/><text fill="#000000" font-family="sans-serif" font-size="12" lengthAdjust="spacingAndGlyphs" textLength="47" x="280" y="742.7324">DevOps</text><path d="M220,657.625 L230,657.625 C245,657.625 245,738.5781 260,738.5781 L270,738.5781 " fill="none" style="stroke: #A80036; stroke-width: 1.0;"/><path d="M102,468.7344 L112,468.7344 C127,468.7344 127,657.625 142,657.625 L152,657.625 " fill="none" style="stroke: #A80036; stroke-width: 1.0;"/><rect fill="#FEFECE" filter="url(#fcexx0ns8pj2s)" height="33.9688" rx="12.5" ry="12.5" style="stroke: #A80036; stroke-width: 1.5;" width="68" x="152" y="829.5313"/><text fill="#000000" font-family="sans-serif" font-size="12" lengthAdjust="spacingAndGlyphs" textLength="48" x="162" y="850.6699">组织架构</text><rect fill="#FEFECE" filter="url(#fcexx0ns8pj2s)" height="33.9688" rx="12.5" ry="12.5" style="stroke: #A80036; stroke-width: 1.5;" width="92" x="270" y="775.5625"/><text fill="#000000" font-family="sans-serif" font-size="12" lengthAdjust="spacingAndGlyphs" textLength="72" x="280" y="796.7012">研发运维隔离</text><path d="M220,846.5156 L230,846.5156 C245,846.5156 245,792.5469 260,792.5469 L270,792.5469 " fill="none" style="stroke: #A80036; stroke-width: 1.0;"/><rect fill="#FEFECE" filter="url(#fcexx0ns8pj2s)" height="33.9688" rx="12.5" ry="12.5" style="stroke: #A80036; stroke-width: 1.5;" width="152" x="270" y="829.5313"/><text fill="#000000" font-family="sans-serif" font-size="12" lengthAdjust="spacingAndGlyphs" textLength="132" x="280" y="850.6699">建立中台组衔接研发运维</text><path d="M220,846.5156 L230,846.5156 C245,846.5156 245,846.5156 260,846.5156 L270,846.5156 " fill="none" style="stroke: #A80036; stroke-width: 1.0;"/><rect fill="#FEFECE" filter="url(#fcexx0ns8pj2s)" height="33.9688" rx="12.5" ry="12.5" style="stroke: #A80036; stroke-width: 1.5;" width="176" x="270" y="883.5"/><text fill="#000000" font-family="sans-serif" font-size="12" lengthAdjust="spacingAndGlyphs" textLength="156" x="280" y="904.6387">建立架构委员会融合研发运维</text><path d="M220,846.5156 L230,846.5156 C245,846.5156 245,900.4844 260,900.4844 L270,900.4844 " fill="none" style="stroke: #A80036; stroke-width: 1.0;"/><path d="M102,468.7344 L112,468.7344 C127,468.7344 127,846.5156 142,846.5156 L152,846.5156 " fill="none" style="stroke: #A80036; stroke-width: 1.0;"/><!--
--></g></svg>