<svg xmlns="http://www.w3.org/2000/svg" xmlns:xlink="http://www.w3.org/1999/xlink" width="839" height="874" contentScriptType="application/ecmascript" contentStyleType="text/css" style="width:839px;height:874px" preserveAspectRatio="none" version="1.1" viewBox="0 0 839 874" zoomAndPan="magnify"><defs><filter id="f7cjhreb8gtup" width="300%" height="300%" x="-1" y="-1"><feGaussianBlur result="blurOut" stdDeviation="2"/><feColorMatrix in="blurOut" result="blurOut2" type="matrix" values="0 0 0 0 0 0 0 0 0 0 0 0 0 0 0 0 0 0 .4 0"/><feOffset dx="4" dy="4" in="blurOut2" result="blurOut3"/><feBlend in="SourceGraphic" in2="blurOut3" mode="normal"/></filter></defs><g><rect style="stroke:#a80036;stroke-width:1.5" width="44" height="33.969" x="10" y="424.766" fill="#FEFECE" filter="url(#f7cjhreb8gtup)" rx="12.5" ry="12.5"/><text x="20" y="445.904" fill="#000" font-family="sans-serif" font-size="12" lengthAdjust="spacingAndGlyphs" textLength="24">平台</text><rect style="stroke:#a80036;stroke-width:1.5" width="128" height="33.969" x="104" y="154.922" fill="#FEFECE" filter="url(#f7cjhreb8gtup)" rx="12.5" ry="12.5"/><text x="114" y="176.06" fill="#000" font-family="sans-serif" font-size="12" lengthAdjust="spacingAndGlyphs" textLength="108">平台型团队核心价值</text><rect style="stroke:#a80036;stroke-width:1.5" width="176" height="33.969" x="282" y="20" fill="#FEFECE" filter="url(#f7cjhreb8gtup)" rx="12.5" ry="12.5"/><text x="292" y="41.139" fill="#000" font-family="sans-serif" font-size="12" lengthAdjust="spacingAndGlyphs" textLength="156">1.对于重复的事情要做精做专</text><path fill="none" d="M232,171.9063 L242,171.9063 C257,171.9063 257,36.9844 272,36.9844 L282,36.9844" style="stroke:#a80036;stroke-width:1"/><rect style="stroke:#a80036;stroke-width:1.5" width="68" height="33.969" x="282" y="127.938" fill="#FEFECE" filter="url(#f7cjhreb8gtup)" rx="12.5" ry="12.5"/><text x="292" y="149.076" fill="#000" font-family="sans-serif" font-size="12" lengthAdjust="spacingAndGlyphs" textLength="48">2.统一化</text><rect style="stroke:#a80036;stroke-width:1.5" width="104" height="33.969" x="400" y="73.969" fill="#FEFECE" filter="url(#f7cjhreb8gtup)" rx="12.5" ry="12.5"/><text x="410" y="95.107" fill="#000" font-family="sans-serif" font-size="12" lengthAdjust="spacingAndGlyphs" textLength="84">可以推一些标准</text><path fill="none" d="M350,144.9219 L360,144.9219 C375,144.9219 375,90.9531 390,90.9531 L400,90.9531" style="stroke:#a80036;stroke-width:1"/><rect style="stroke:#a80036;stroke-width:1.5" width="140" height="33.969" x="400" y="127.938" fill="#FEFECE" filter="url(#f7cjhreb8gtup)" rx="12.5" ry="12.5"/><text x="410" y="149.076" fill="#000" font-family="sans-serif" font-size="12" lengthAdjust="spacingAndGlyphs" textLength="120">推一些数据管理的模式</text><path fill="none" d="M350,144.9219 L360,144.9219 C375,144.9219 375,144.9219 390,144.9219 L400,144.9219" style="stroke:#a80036;stroke-width:1"/><rect style="stroke:#a80036;stroke-width:1.5" width="152" height="33.969" x="400" y="181.906" fill="#FEFECE" filter="url(#f7cjhreb8gtup)" rx="12.5" ry="12.5"/><text x="410" y="203.045" fill="#000" font-family="sans-serif" font-size="12" lengthAdjust="spacingAndGlyphs" textLength="132">减少业务之间的对接成本</text><path fill="none" d="M350,144.9219 L360,144.9219 C375,144.9219 375,198.8906 390,198.8906 L400,198.8906" style="stroke:#a80036;stroke-width:1"/><path fill="none" d="M232,171.9063 L242,171.9063 C257,171.9063 257,144.9219 272,144.9219 L282,144.9219" style="stroke:#a80036;stroke-width:1"/><rect style="stroke:#a80036;stroke-width:1.5" width="147" height="33.969" x="282" y="262.859" fill="#FEFECE" filter="url(#f7cjhreb8gtup)" rx="12.5" ry="12.5"/><text x="292" y="283.998" fill="#000" font-family="sans-serif" font-size="12" lengthAdjust="spacingAndGlyphs" textLength="127">3.为业务整体效率负责🔥</text><rect style="stroke:#a80036;stroke-width:1.5" width="296" height="33.969" x="479" y="235.875" fill="#FEFECE" filter="url(#f7cjhreb8gtup)" rx="12.5" ry="12.5"/><text x="489" y="257.014" fill="#000" font-family="sans-serif" font-size="12" lengthAdjust="spacingAndGlyphs" textLength="276">包括开发效率、迭代效率、维护运维数据流程的效率</text><path fill="none" d="M429,279.8438 L439,279.8438 C454,279.8438 454,252.8594 469,252.8594 L479,252.8594" style="stroke:#a80036;stroke-width:1"/><rect style="stroke:#a80036;stroke-width:1.5" width="152" height="33.969" x="479" y="289.844" fill="#FEFECE" filter="url(#f7cjhreb8gtup)" rx="12.5" ry="12.5"/><text x="489" y="310.982" fill="#000" font-family="sans-serif" font-size="12" lengthAdjust="spacingAndGlyphs" textLength="132">还有整个资源利用的效率</text><path fill="none" d="M429,279.8438 L439,279.8438 C454,279.8438 454,306.8281 469,306.8281 L479,306.8281" style="stroke:#a80036;stroke-width:1"/><path fill="none" d="M232,171.9063 L242,171.9063 C257,171.9063 257,279.8438 272,279.8438 L282,279.8438" style="stroke:#a80036;stroke-width:1"/><path fill="none" d="M54,441.75 L64,441.75 C79,441.75 79,171.9063 94,171.9063 L104,171.9063" style="stroke:#a80036;stroke-width:1"/><rect style="stroke:#a80036;stroke-width:1.5" width="68" height="33.969" x="104" y="586.672" fill="#FEFECE" filter="url(#f7cjhreb8gtup)" rx="12.5" ry="12.5"/><text x="114" y="607.811" fill="#000" font-family="sans-serif" font-size="12" lengthAdjust="spacingAndGlyphs" textLength="48">好的平台</text><rect style="stroke:#a80036;stroke-width:1.5" width="104" height="33.969" x="222" y="343.813" fill="#FEFECE" filter="url(#f7cjhreb8gtup)" rx="12.5" ry="12.5"/><text x="232" y="364.951" fill="#000" font-family="sans-serif" font-size="12" lengthAdjust="spacingAndGlyphs" textLength="84">1.首先支持业务</text><rect style="stroke:#a80036;stroke-width:1.5" width="140" height="33.969" x="376" y="343.813" fill="#FEFECE" filter="url(#f7cjhreb8gtup)" rx="12.5" ry="12.5"/><text x="386" y="364.951" fill="#000" font-family="sans-serif" font-size="12" lengthAdjust="spacingAndGlyphs" textLength="120">没有业务平台没法发展</text><path fill="none" d="M326,360.7969 L336,360.7969 C351,360.7969 351,360.7969 366,360.7969 L376,360.7969" style="stroke:#a80036;stroke-width:1"/><path fill="none" d="M172,603.6563 L182,603.6563 C197,603.6563 197,360.7969 212,360.7969 L222,360.7969" style="stroke:#a80036;stroke-width:1"/><rect style="stroke:#a80036;stroke-width:1.5" width="248" height="33.969" x="222" y="478.734" fill="#FEFECE" filter="url(#f7cjhreb8gtup)" rx="12.5" ry="12.5"/><text x="232" y="499.873" fill="#000" font-family="sans-serif" font-size="12" lengthAdjust="spacingAndGlyphs" textLength="228">2.第二是与先进业务同行，辅助并沉淀技术</text><rect style="stroke:#a80036;stroke-width:1.5" width="176" height="33.969" x="520" y="397.781" fill="#FEFECE" filter="url(#f7cjhreb8gtup)" rx="12.5" ry="12.5"/><text x="530" y="418.92" fill="#000" font-family="sans-serif" font-size="12" lengthAdjust="spacingAndGlyphs" textLength="156">平台化的公司，有多个业务线</text><path fill="none" d="M470,495.7188 L480,495.7188 C495,495.7188 495,414.7656 510,414.7656 L520,414.7656" style="stroke:#a80036;stroke-width:1"/><rect style="stroke:#a80036;stroke-width:1.5" width="308" height="33.969" x="520" y="451.75" fill="#FEFECE" filter="url(#f7cjhreb8gtup)" rx="12.5" ry="12.5"/><text x="530" y="472.889" fill="#000" font-family="sans-serif" font-size="12" lengthAdjust="spacingAndGlyphs" textLength="288">各业务线已独立的情况下，必定有一些业务线是先行者</text><path fill="none" d="M470,495.7188 L480,495.7188 C495,495.7188 495,468.7344 510,468.7344 L520,468.7344" style="stroke:#a80036;stroke-width:1"/><rect style="stroke:#a80036;stroke-width:1.5" width="200" height="33.969" x="520" y="505.719" fill="#FEFECE" filter="url(#f7cjhreb8gtup)" rx="12.5" ry="12.5"/><text x="530" y="526.857" fill="#000" font-family="sans-serif" font-size="12" lengthAdjust="spacingAndGlyphs" textLength="180">他们有很强的开发能力、调研能力</text><path fill="none" d="M470,495.7188 L480,495.7188 C495,495.7188 495,522.7031 510,522.7031 L520,522.7031" style="stroke:#a80036;stroke-width:1"/><rect style="stroke:#a80036;stroke-width:1.5" width="212" height="33.969" x="520" y="559.688" fill="#FEFECE" filter="url(#f7cjhreb8gtup)" rx="12.5" ry="12.5"/><text x="530" y="580.826" fill="#000" font-family="sans-serif" font-size="12" lengthAdjust="spacingAndGlyphs" textLength="192">我们的目标是跟这些先行业务线同行</text><path fill="none" d="M470,495.7188 L480,495.7188 C495,495.7188 495,576.6719 510,576.6719 L520,576.6719" style="stroke:#a80036;stroke-width:1"/><path fill="none" d="M172,603.6563 L182,603.6563 C197,603.6563 197,495.7188 212,495.7188 L222,495.7188" style="stroke:#a80036;stroke-width:1"/><rect style="stroke:#a80036;stroke-width:1.5" width="236" height="33.969" x="222" y="721.594" fill="#FEFECE" filter="url(#f7cjhreb8gtup)" rx="12.5" ry="12.5"/><text x="232" y="742.732" fill="#000" font-family="sans-serif" font-size="12" lengthAdjust="spacingAndGlyphs" textLength="216">3.设立规范，用积累的技术支撑后发业务</text><rect style="stroke:#a80036;stroke-width:1.5" width="296" height="33.969" x="508" y="613.656" fill="#FEFECE" filter="url(#f7cjhreb8gtup)" rx="12.5" ry="12.5"/><text x="518" y="634.795" fill="#000" font-family="sans-serif" font-size="12" lengthAdjust="spacingAndGlyphs" textLength="276">与业务一起前进中，把经验、技术、方案、规范沉淀</text><path fill="none" d="M458,738.5781 L468,738.5781 C483,738.5781 483,630.6406 498,630.6406 L508,630.6406" style="stroke:#a80036;stroke-width:1"/><rect style="stroke:#a80036;stroke-width:1.5" width="176" height="33.969" x="508" y="667.625" fill="#FEFECE" filter="url(#f7cjhreb8gtup)" rx="12.5" ry="12.5"/><text x="518" y="688.764" fill="#000" font-family="sans-serif" font-size="12" lengthAdjust="spacingAndGlyphs" textLength="156">对发展慢的业务线，设置规范</text><path fill="none" d="M458,738.5781 L468,738.5781 C483,738.5781 483,684.6094 498,684.6094 L508,684.6094" style="stroke:#a80036;stroke-width:1"/><rect style="stroke:#a80036;stroke-width:1.5" width="236" height="33.969" x="508" y="721.594" fill="#FEFECE" filter="url(#f7cjhreb8gtup)" rx="12.5" ry="12.5"/><text x="518" y="742.732" fill="#000" font-family="sans-serif" font-size="12" lengthAdjust="spacingAndGlyphs" textLength="216">跟据先行业务线积累去支撑后续的业务线</text><path fill="none" d="M458,738.5781 L468,738.5781 C483,738.5781 483,738.5781 498,738.5781 L508,738.5781" style="stroke:#a80036;stroke-width:1"/><rect style="stroke:#a80036;stroke-width:1.5" width="176" height="33.969" x="508" y="775.563" fill="#FEFECE" filter="url(#f7cjhreb8gtup)" rx="12.5" ry="12.5"/><text x="518" y="796.701" fill="#000" font-family="sans-serif" font-size="12" lengthAdjust="spacingAndGlyphs" textLength="156">功能开发的时候也可以借助。</text><path fill="none" d="M458,738.5781 L468,738.5781 C483,738.5781 483,792.5469 498,792.5469 L508,792.5469" style="stroke:#a80036;stroke-width:1"/><rect style="stroke:#a80036;stroke-width:1.5" width="176" height="33.969" x="508" y="829.531" fill="#FEFECE" filter="url(#f7cjhreb8gtup)" rx="12.5" ry="12.5"/><text x="518" y="850.67" fill="#000" font-family="sans-serif" font-size="12" lengthAdjust="spacingAndGlyphs" textLength="156">保持平台团队对业务的理解。</text><path fill="none" d="M458,738.5781 L468,738.5781 C483,738.5781 483,846.5156 498,846.5156 L508,846.5156" style="stroke:#a80036;stroke-width:1"/><path fill="none" d="M172,603.6563 L182,603.6563 C197,603.6563 197,738.5781 212,738.5781 L222,738.5781" style="stroke:#a80036;stroke-width:1"/><path fill="none" d="M54,441.75 L64,441.75 C79,441.75 79,603.6563 94,603.6563 L104,603.6563" style="stroke:#a80036;stroke-width:1"/></g></svg>