<svg xmlns="http://www.w3.org/2000/svg" xmlns:xlink="http://www.w3.org/1999/xlink" width="1276" height="1387" contentScriptType="application/ecmascript" contentStyleType="text/css" style="width:1276px;height:1387px" preserveAspectRatio="none" version="1.1" viewBox="0 0 1276 1387" zoomAndPan="magnify"><defs><filter id="fe65s7cfj66my" width="300%" height="300%" x="-1" y="-1"><feGaussianBlur result="blurOut" stdDeviation="2"/><feColorMatrix in="blurOut" result="blurOut2" type="matrix" values="0 0 0 0 0 0 0 0 0 0 0 0 0 0 0 0 0 0 .4 0"/><feOffset dx="4" dy="4" in="blurOut2" result="blurOut3"/><feBlend in="SourceGraphic" in2="blurOut3" mode="normal"/></filter></defs><g><rect style="stroke:#a80036;stroke-width:1.5" width="68" height="33.969" x="10" y="681.117" fill="#FEFECE" filter="url(#fe65s7cfj66my)" rx="12.5" ry="12.5"/><text x="20" y="702.256" fill="#000" font-family="sans-serif" font-size="12" lengthAdjust="spacingAndGlyphs" textLength="48">设计思维</text><rect style="stroke:#a80036;stroke-width:1.5" width="44" height="33.969" x="128" y="262.859" fill="#FEFECE" filter="url(#fe65s7cfj66my)" rx="12.5" ry="12.5"/><text x="138" y="283.998" fill="#000" font-family="sans-serif" font-size="12" lengthAdjust="spacingAndGlyphs" textLength="24">背景</text><rect style="stroke:#a80036;stroke-width:1.5" width="49" height="33.969" x="222" y="127.938" fill="#FEFECE" filter="url(#fe65s7cfj66my)" rx="12.5" ry="12.5"/><text x="232" y="149.076" fill="#000" font-family="sans-serif" font-size="12" lengthAdjust="spacingAndGlyphs" textLength="29">IDEO</text><rect style="stroke:#a80036;stroke-width:1.5" width="277" height="33.969" x="321" y="20" fill="#FEFECE" filter="url(#fe65s7cfj66my)" rx="12.5" ry="12.5"/><text x="331" y="41.139" fill="#000" font-family="sans-serif" font-size="12" lengthAdjust="spacingAndGlyphs" textLength="257">IDEO是第一家将设计思维应用于商业问题的解决</text><path fill="none" d="M271,144.9219 L281,144.9219 C296,144.9219 296,36.9844 311,36.9844 L321,36.9844" style="stroke:#a80036;stroke-width:1"/><rect style="stroke:#a80036;stroke-width:1.5" width="182" height="33.969" x="321" y="154.922" fill="#FEFECE" filter="url(#fe65s7cfj66my)" rx="12.5" ry="12.5"/><text x="331" y="176.06" fill="#000" font-family="sans-serif" font-size="12" lengthAdjust="spacingAndGlyphs" textLength="162">IDEO的创始人，David Kelley</text><rect style="stroke:#a80036;stroke-width:1.5" width="339" height="33.969" x="553" y="73.969" fill="#FEFECE" filter="url(#fe65s7cfj66my)" rx="12.5" ry="12.5"/><text x="563" y="95.107" fill="#000" font-family="sans-serif" font-size="12" lengthAdjust="spacingAndGlyphs" textLength="319">在美国斯坦福大学创建了著名的D.School，斯坦福设计学院</text><path fill="none" d="M503,171.9063 L513,171.9063 C528,171.9063 528,90.9531 543,90.9531 L553,90.9531" style="stroke:#a80036;stroke-width:1"/><rect style="stroke:#a80036;stroke-width:1.5" width="219" height="33.969" x="553" y="181.906" fill="#FEFECE" filter="url(#fe65s7cfj66my)" rx="12.5" ry="12.5"/><text x="563" y="203.045" fill="#000" font-family="sans-serif" font-size="12" lengthAdjust="spacingAndGlyphs" textLength="199">D.School与其他设计学院间特别之处</text><rect style="stroke:#a80036;stroke-width:1.5" width="224" height="33.969" x="822" y="127.938" fill="#FEFECE" filter="url(#fe65s7cfj66my)" rx="12.5" ry="12.5"/><text x="832" y="149.076" fill="#000" font-family="sans-serif" font-size="12" lengthAdjust="spacingAndGlyphs" textLength="204">它在硅谷，与硅谷有着千丝万缕的联系</text><path fill="none" d="M772,198.8906 L782,198.8906 C797,198.8906 797,144.9219 812,144.9219 L822,144.9219" style="stroke:#a80036;stroke-width:1"/><rect style="stroke:#a80036;stroke-width:1.5" width="320" height="33.969" x="822" y="181.906" fill="#FEFECE" filter="url(#fe65s7cfj66my)" rx="12.5" ry="12.5"/><text x="832" y="203.045" fill="#000" font-family="sans-serif" font-size="12" lengthAdjust="spacingAndGlyphs" textLength="300">与斯坦福的商学院关系密切，商业模式和设计思维两手抓</text><path fill="none" d="M772,198.8906 L782,198.8906 C797,198.8906 797,198.8906 812,198.8906 L822,198.8906" style="stroke:#a80036;stroke-width:1"/><rect style="stroke:#a80036;stroke-width:1.5" width="443" height="33.969" x="822" y="235.875" fill="#FEFECE" filter="url(#fe65s7cfj66my)" rx="12.5" ry="12.5"/><text x="832" y="257.014" fill="#000" font-family="sans-serif" font-size="12" lengthAdjust="spacingAndGlyphs" textLength="423">有一套通俗易懂的理论根基作为行为准则，也就是我们常说的Design Thinking</text><path fill="none" d="M772,198.8906 L782,198.8906 C797,198.8906 797,252.8594 812,252.8594 L822,252.8594" style="stroke:#a80036;stroke-width:1"/><path fill="none" d="M503,171.9063 L513,171.9063 C528,171.9063 528,198.8906 543,198.8906 L553,198.8906" style="stroke:#a80036;stroke-width:1"/><path fill="none" d="M271,144.9219 L281,144.9219 C296,144.9219 296,171.9063 311,171.9063 L321,171.9063" style="stroke:#a80036;stroke-width:1"/><path fill="none" d="M172,279.8438 L182,279.8438 C197,279.8438 197,144.9219 212,144.9219 L222,144.9219" style="stroke:#a80036;stroke-width:1"/><rect style="stroke:#a80036;stroke-width:1.5" width="136" height="33.969" x="222" y="397.781" fill="#FEFECE" filter="url(#fe65s7cfj66my)" rx="12.5" ry="12.5"/><text x="232" y="418.92" fill="#000" font-family="sans-serif" font-size="12" lengthAdjust="spacingAndGlyphs" textLength="116">设计思维分成5大步骤</text><rect style="stroke:#a80036;stroke-width:1.5" width="134" height="33.969" x="408" y="289.844" fill="#FEFECE" filter="url(#fe65s7cfj66my)" rx="12.5" ry="12.5"/><text x="418" y="310.982" fill="#000" font-family="sans-serif" font-size="12" lengthAdjust="spacingAndGlyphs" textLength="114">Empathy同理心思考</text><path fill="none" d="M358,414.7656 L368,414.7656 C383,414.7656 383,306.8281 398,306.8281 L408,306.8281" style="stroke:#a80036;stroke-width:1"/><rect style="stroke:#a80036;stroke-width:1.5" width="108" height="33.969" x="408" y="343.813" fill="#FEFECE" filter="url(#fe65s7cfj66my)" rx="12.5" ry="12.5"/><text x="418" y="364.951" fill="#000" font-family="sans-serif" font-size="12" lengthAdjust="spacingAndGlyphs" textLength="88">Define需求定义</text><path fill="none" d="M358,414.7656 L368,414.7656 C383,414.7656 383,360.7969 398,360.7969 L408,360.7969" style="stroke:#a80036;stroke-width:1"/><rect style="stroke:#a80036;stroke-width:1.5" width="108" height="33.969" x="408" y="397.781" fill="#FEFECE" filter="url(#fe65s7cfj66my)" rx="12.5" ry="12.5"/><text x="418" y="418.92" fill="#000" font-family="sans-serif" font-size="12" lengthAdjust="spacingAndGlyphs" textLength="88">Ideate创意构思</text><path fill="none" d="M358,414.7656 L368,414.7656 C383,414.7656 383,414.7656 398,414.7656 L408,414.7656" style="stroke:#a80036;stroke-width:1"/><rect style="stroke:#a80036;stroke-width:1.5" width="129" height="33.969" x="408" y="451.75" fill="#FEFECE" filter="url(#fe65s7cfj66my)" rx="12.5" ry="12.5"/><text x="418" y="472.889" fill="#000" font-family="sans-serif" font-size="12" lengthAdjust="spacingAndGlyphs" textLength="109">Prototype原型实现</text><path fill="none" d="M358,414.7656 L368,414.7656 C383,414.7656 383,468.7344 398,468.7344 L408,468.7344" style="stroke:#a80036;stroke-width:1"/><rect style="stroke:#a80036;stroke-width:1.5" width="95" height="33.969" x="408" y="505.719" fill="#FEFECE" filter="url(#fe65s7cfj66my)" rx="12.5" ry="12.5"/><text x="418" y="526.857" fill="#000" font-family="sans-serif" font-size="12" lengthAdjust="spacingAndGlyphs" textLength="75">Test实际测试</text><path fill="none" d="M358,414.7656 L368,414.7656 C383,414.7656 383,522.7031 398,522.7031 L408,522.7031" style="stroke:#a80036;stroke-width:1"/><path fill="none" d="M172,279.8438 L182,279.8438 C197,279.8438 197,414.7656 212,414.7656 L222,414.7656" style="stroke:#a80036;stroke-width:1"/><path fill="none" d="M78,698.1016 L88,698.1016 C103,698.1016 103,279.8438 118,279.8438 L128,279.8438" style="stroke:#a80036;stroke-width:1"/><rect style="stroke:#a80036;stroke-width:1.5" width="44" height="33.969" x="128" y="586.672" fill="#FEFECE" filter="url(#fe65s7cfj66my)" rx="12.5" ry="12.5"/><text x="138" y="607.811" fill="#000" font-family="sans-serif" font-size="12" lengthAdjust="spacingAndGlyphs" textLength="24">核心</text><rect style="stroke:#a80036;stroke-width:1.5" width="248" height="33.969" x="222" y="559.688" fill="#FEFECE" filter="url(#fe65s7cfj66my)" rx="12.5" ry="12.5"/><text x="232" y="580.826" fill="#000" font-family="sans-serif" font-size="12" lengthAdjust="spacingAndGlyphs" textLength="228">设计思维并不是一个技能，也不是一个工具</text><path fill="none" d="M172,603.6563 L182,603.6563 C197,603.6563 197,576.6719 212,576.6719 L222,576.6719" style="stroke:#a80036;stroke-width:1"/><rect style="stroke:#a80036;stroke-width:1.5" width="332" height="33.969" x="222" y="613.656" fill="#FEFECE" filter="url(#fe65s7cfj66my)" rx="12.5" ry="12.5"/><text x="232" y="634.795" fill="#000" font-family="sans-serif" font-size="12" lengthAdjust="spacingAndGlyphs" textLength="312">而是一种思维方式，人们可以结合自身的特点与性质去应用</text><path fill="none" d="M172,603.6563 L182,603.6563 C197,603.6563 197,630.6406 212,630.6406 L222,630.6406" style="stroke:#a80036;stroke-width:1"/><path fill="none" d="M78,698.1016 L88,698.1016 C103,698.1016 103,603.6563 118,603.6563 L128,603.6563" style="stroke:#a80036;stroke-width:1"/><rect style="stroke:#a80036;stroke-width:1.5" width="136" height="33.969" x="128" y="667.625" fill="#FEFECE" filter="url(#fe65s7cfj66my)" rx="12.5" ry="12.5"/><text x="138" y="688.764" fill="#000" font-family="sans-serif" font-size="12" lengthAdjust="spacingAndGlyphs" textLength="116">第1步：移情／同理心</text><rect style="stroke:#a80036;stroke-width:1.5" width="260" height="33.969" x="314" y="667.625" fill="#FEFECE" filter="url(#fe65s7cfj66my)" rx="12.5" ry="12.5"/><text x="324" y="688.764" fill="#000" font-family="sans-serif" font-size="12" lengthAdjust="spacingAndGlyphs" textLength="240">移情就是对他人的情感或情绪感同身受的能力</text><path fill="none" d="M264,684.6094 L274,684.6094 C289,684.6094 289,684.6094 304,684.6094 L314,684.6094" style="stroke:#a80036;stroke-width:1"/><path fill="none" d="M78,698.1016 L88,698.1016 C103,698.1016 103,684.6094 118,684.6094 L128,684.6094" style="stroke:#a80036;stroke-width:1"/><rect style="stroke:#a80036;stroke-width:1.5" width="136" height="33.969" x="128" y="762.07" fill="#FEFECE" filter="url(#fe65s7cfj66my)" rx="12.5" ry="12.5"/><text x="138" y="783.209" fill="#000" font-family="sans-serif" font-size="12" lengthAdjust="spacingAndGlyphs" textLength="116">第2步：确定（问题）</text><rect style="stroke:#a80036;stroke-width:1.5" width="188" height="33.969" x="314" y="721.594" fill="#FEFECE" filter="url(#fe65s7cfj66my)" rx="12.5" ry="12.5"/><text x="324" y="742.732" fill="#000" font-family="sans-serif" font-size="12" lengthAdjust="spacingAndGlyphs" textLength="168">“以人为中心”的方式来定义问题</text><path fill="none" d="M264,779.0547 L274,779.0547 C289,779.0547 289,738.5781 304,738.5781 L314,738.5781" style="stroke:#a80036;stroke-width:1"/><rect style="stroke:#a80036;stroke-width:1.5" width="272" height="33.969" x="314" y="775.563" fill="#FEFECE" filter="url(#fe65s7cfj66my)" rx="12.5" ry="12.5"/><text x="324" y="796.701" fill="#000" font-family="sans-serif" font-size="12" lengthAdjust="spacingAndGlyphs" textLength="252">不要将问题定义为你自己的愿望或者公司的需要</text><rect style="stroke:#a80036;stroke-width:1.5" width="287" height="33.969" x="636" y="748.578" fill="#FEFECE" filter="url(#fe65s7cfj66my)" rx="12.5" ry="12.5"/><text x="646" y="769.717" fill="#000" font-family="sans-serif" font-size="12" lengthAdjust="spacingAndGlyphs" textLength="267">❌我们需要将年轻女孩的食品产品市场份额提高5％</text><path fill="none" d="M586,792.5469 L596,792.5469 C611,792.5469 611,765.5625 626,765.5625 L636,765.5625" style="stroke:#a80036;stroke-width:1"/><rect style="stroke:#a80036;stroke-width:1.5" width="327" height="33.969" x="636" y="802.547" fill="#FEFECE" filter="url(#fe65s7cfj66my)" rx="12.5" ry="12.5"/><text x="646" y="823.686" fill="#000" font-family="sans-serif" font-size="12" lengthAdjust="spacingAndGlyphs" textLength="307">✅十几岁的女孩需要吃营养食物才能茁壮成长，健康成长。</text><path fill="none" d="M586,792.5469 L596,792.5469 C611,792.5469 611,819.5313 626,819.5313 L636,819.5313" style="stroke:#a80036;stroke-width:1"/><path fill="none" d="M264,779.0547 L274,779.0547 C289,779.0547 289,792.5469 304,792.5469 L314,792.5469" style="stroke:#a80036;stroke-width:1"/><path fill="none" d="M78,698.1016 L88,698.1016 C103,698.1016 103,779.0547 118,779.0547 L128,779.0547" style="stroke:#a80036;stroke-width:1"/><rect style="stroke:#a80036;stroke-width:1.5" width="156" height="33.969" x="128" y="910.484" fill="#FEFECE" filter="url(#fe65s7cfj66my)" rx="12.5" ry="12.5"/><text x="138" y="931.623" fill="#000" font-family="sans-serif" font-size="12" lengthAdjust="spacingAndGlyphs" textLength="136">第3步：形成概念-Ideate</text><rect style="stroke:#a80036;stroke-width:1.5" width="344" height="33.969" x="334" y="856.516" fill="#FEFECE" filter="url(#fe65s7cfj66my)" rx="12.5" ry="12.5"/><text x="344" y="877.654" fill="#000" font-family="sans-serif" font-size="12" lengthAdjust="spacingAndGlyphs" textLength="324">重点不在于获得一个完美的想法，而是要想出尽可能多的想法</text><path fill="none" d="M284,927.4688 L294,927.4688 C309,927.4688 309,873.5 324,873.5 L334,873.5" style="stroke:#a80036;stroke-width:1"/><rect style="stroke:#a80036;stroke-width:1.5" width="68" height="33.969" x="334" y="937.469" fill="#FEFECE" filter="url(#fe65s7cfj66my)" rx="12.5" ry="12.5"/><text x="344" y="958.607" fill="#000" font-family="sans-serif" font-size="12" lengthAdjust="spacingAndGlyphs" textLength="48">创意技巧</text><rect style="stroke:#a80036;stroke-width:1.5" width="68" height="33.969" x="452" y="910.484" fill="#FEFECE" filter="url(#fe65s7cfj66my)" rx="12.5" ry="12.5"/><text x="462" y="931.623" fill="#000" font-family="sans-serif" font-size="12" lengthAdjust="spacingAndGlyphs" textLength="48">头脑风暴</text><path fill="none" d="M402,954.4531 L412,954.4531 C427,954.4531 427,927.4688 442,927.4688 L452,927.4688" style="stroke:#a80036;stroke-width:1"/><rect style="stroke:#a80036;stroke-width:1.5" width="90" height="33.969" x="452" y="964.453" fill="#FEFECE" filter="url(#fe65s7cfj66my)" rx="12.5" ry="12.5"/><text x="462" y="985.592" fill="#000" font-family="sans-serif" font-size="12" lengthAdjust="spacingAndGlyphs" textLength="70">SCAMPER法</text><path fill="none" d="M402,954.4531 L412,954.4531 C427,954.4531 427,981.4375 442,981.4375 L452,981.4375" style="stroke:#a80036;stroke-width:1"/><path fill="none" d="M284,927.4688 L294,927.4688 C309,927.4688 309,954.4531 324,954.4531 L334,954.4531" style="stroke:#a80036;stroke-width:1"/><path fill="none" d="M78,698.1016 L88,698.1016 C103,698.1016 103,927.4688 118,927.4688 L128,927.4688" style="stroke:#a80036;stroke-width:1"/><rect style="stroke:#a80036;stroke-width:1.5" width="197" height="33.969" x="128" y="1018.422" fill="#FEFECE" filter="url(#fe65s7cfj66my)" rx="12.5" ry="12.5"/><text x="138" y="1039.561" fill="#000" font-family="sans-serif" font-size="12" lengthAdjust="spacingAndGlyphs" textLength="177">第4步：制作原型——Prototype</text><rect style="stroke:#a80036;stroke-width:1.5" width="44" height="33.969" x="375" y="1018.422" fill="#FEFECE" filter="url(#fe65s7cfj66my)" rx="12.5" ry="12.5"/><text x="385" y="1039.561" fill="#000" font-family="sans-serif" font-size="12" lengthAdjust="spacingAndGlyphs" textLength="24">目的</text><rect style="stroke:#a80036;stroke-width:1.5" width="284" height="33.969" x="469" y="1018.422" fill="#FEFECE" filter="url(#fe65s7cfj66my)" rx="12.5" ry="12.5"/><text x="479" y="1039.561" fill="#000" font-family="sans-serif" font-size="12" lengthAdjust="spacingAndGlyphs" textLength="264">为前三个阶段发现的每个问题找出最佳解决方案。</text><path fill="none" d="M419,1035.4063 L429,1035.4063 C444,1035.4063 444,1035.4063 459,1035.4063 L469,1035.4063" style="stroke:#a80036;stroke-width:1"/><path fill="none" d="M325,1035.4063 L335,1035.4063 C350,1035.4063 350,1035.4063 365,1035.4063 L375,1035.4063" style="stroke:#a80036;stroke-width:1"/><path fill="none" d="M78,698.1016 L88,698.1016 C103,698.1016 103,1035.4063 118,1035.4063 L128,1035.4063" style="stroke:#a80036;stroke-width:1"/><rect style="stroke:#a80036;stroke-width:1.5" width="88" height="33.969" x="128" y="1126.359" fill="#FEFECE" filter="url(#fe65s7cfj66my)" rx="12.5" ry="12.5"/><text x="138" y="1147.498" fill="#000" font-family="sans-serif" font-size="12" lengthAdjust="spacingAndGlyphs" textLength="68">第5步：测试</text><rect style="stroke:#a80036;stroke-width:1.5" width="332" height="33.969" x="266" y="1072.391" fill="#FEFECE" filter="url(#fe65s7cfj66my)" rx="12.5" ry="12.5"/><text x="276" y="1093.529" fill="#000" font-family="sans-serif" font-size="12" lengthAdjust="spacingAndGlyphs" textLength="312">使用原型设计阶段确定的最佳解决方案，严格测试整个产品</text><path fill="none" d="M216,1143.3438 L226,1143.3438 C241,1143.3438 241,1089.375 256,1089.375 L266,1089.375" style="stroke:#a80036;stroke-width:1"/><rect style="stroke:#a80036;stroke-width:1.5" width="164" height="33.969" x="266" y="1153.344" fill="#FEFECE" filter="url(#fe65s7cfj66my)" rx="12.5" ry="12.5"/><text x="276" y="1174.482" fill="#000" font-family="sans-serif" font-size="12" lengthAdjust="spacingAndGlyphs" textLength="144">寻找实际用户测试你的原型</text><rect style="stroke:#a80036;stroke-width:1.5" width="212" height="33.969" x="480" y="1126.359" fill="#FEFECE" filter="url(#fe65s7cfj66my)" rx="12.5" ry="12.5"/><text x="490" y="1147.498" fill="#000" font-family="sans-serif" font-size="12" lengthAdjust="spacingAndGlyphs" textLength="192">如果人们不喜欢它，要敢于接受意见</text><path fill="none" d="M430,1170.3281 L440,1170.3281 C455,1170.3281 455,1143.3438 470,1143.3438 L480,1143.3438" style="stroke:#a80036;stroke-width:1"/><rect style="stroke:#a80036;stroke-width:1.5" width="344" height="33.969" x="480" y="1180.328" fill="#FEFECE" filter="url(#fe65s7cfj66my)" rx="12.5" ry="12.5"/><text x="490" y="1201.467" fill="#000" font-family="sans-serif" font-size="12" lengthAdjust="spacingAndGlyphs" textLength="324">关键是要了解哪些是有效的，哪些没有，所以任何反馈都很好</text><path fill="none" d="M430,1170.3281 L440,1170.3281 C455,1170.3281 455,1197.3125 470,1197.3125 L480,1197.3125" style="stroke:#a80036;stroke-width:1"/><path fill="none" d="M216,1143.3438 L226,1143.3438 C241,1143.3438 241,1170.3281 256,1170.3281 L266,1170.3281" style="stroke:#a80036;stroke-width:1"/><path fill="none" d="M78,698.1016 L88,698.1016 C103,698.1016 103,1143.3438 118,1143.3438 L128,1143.3438" style="stroke:#a80036;stroke-width:1"/><rect style="stroke:#a80036;stroke-width:1.5" width="184" height="33.969" x="128" y="1288.266" fill="#FEFECE" filter="url(#fe65s7cfj66my)" rx="12.5" ry="12.5"/><text x="138" y="1309.404" fill="#000" font-family="sans-serif" font-size="12" lengthAdjust="spacingAndGlyphs" textLength="164">第6步：重复以上步骤进行迭代</text><rect style="stroke:#a80036;stroke-width:1.5" width="140" height="33.969" x="362" y="1234.297" fill="#FEFECE" filter="url(#fe65s7cfj66my)" rx="12.5" ry="12.5"/><text x="372" y="1255.436" fill="#000" font-family="sans-serif" font-size="12" lengthAdjust="spacingAndGlyphs" textLength="120">设计思维的非线性本质</text><path fill="none" d="M312,1305.25 L322,1305.25 C337,1305.25 337,1251.2813 352,1251.2813 L362,1251.2813" style="stroke:#a80036;stroke-width:1"/><rect style="stroke:#a80036;stroke-width:1.5" width="260" height="33.969" x="362" y="1288.266" fill="#FEFECE" filter="url(#fe65s7cfj66my)" rx="12.5" ry="12.5"/><text x="372" y="1309.404" fill="#000" font-family="sans-serif" font-size="12" lengthAdjust="spacingAndGlyphs" textLength="240">设计思维不应被视为固定和不灵活的设计方法</text><path fill="none" d="M312,1305.25 L322,1305.25 C337,1305.25 337,1305.25 352,1305.25 L362,1305.25" style="stroke:#a80036;stroke-width:1"/><rect style="stroke:#a80036;stroke-width:1.5" width="212" height="33.969" x="362" y="1342.234" fill="#FEFECE" filter="url(#fe65s7cfj66my)" rx="12.5" ry="12.5"/><text x="372" y="1363.373" fill="#000" font-family="sans-serif" font-size="12" lengthAdjust="spacingAndGlyphs" textLength="192">后期获得的知识可以反馈到早期阶段</text><path fill="none" d="M312,1305.25 L322,1305.25 C337,1305.25 337,1359.2188 352,1359.2188 L362,1359.2188" style="stroke:#a80036;stroke-width:1"/><path fill="none" d="M78,698.1016 L88,698.1016 C103,698.1016 103,1305.25 118,1305.25 L128,1305.25" style="stroke:#a80036;stroke-width:1"/></g></svg>