<?xml version="1.0" encoding="UTF-8" standalone="no"?><svg xmlns="http://www.w3.org/2000/svg" xmlns:xlink="http://www.w3.org/1999/xlink" contentScriptType="application/ecmascript" contentStyleType="text/css" height="118px" preserveAspectRatio="none" style="width:565px;height:118px;" version="1.1" viewBox="0 0 565 118" width="565px" zoomAndPan="magnify"><defs><filter height="300%" id="fpkesyian334d" width="300%" x="-1" y="-1"><feGaussianBlur result="blurOut" stdDeviation="2.0"/><feColorMatrix in="blurOut" result="blurOut2" type="matrix" values="0 0 0 0 0 0 0 0 0 0 0 0 0 0 0 0 0 0 .4 0"/><feOffset dx="4.0" dy="4.0" in="blurOut2" result="blurOut3"/><feBlend in="SourceGraphic" in2="blurOut3" mode="normal"/></filter></defs><g><rect fill="#FEFECE" filter="url(#fpkesyian334d)" height="33.9688" rx="12.5" ry="12.5" style="stroke: #A80036; stroke-width: 1.5;" width="68" x="10" y="46.9844"/><text fill="#000000" font-family="sans-serif" font-size="12" lengthAdjust="spacingAndGlyphs" textLength="48" x="20" y="68.123">面试总结</text><rect fill="#FEFECE" filter="url(#fpkesyian334d)" height="33.9688" rx="12.5" ry="12.5" style="stroke: #A80036; stroke-width: 1.5;" width="92" x="128" y="20"/><text fill="#000000" font-family="sans-serif" font-size="12" lengthAdjust="spacingAndGlyphs" textLength="72" x="138" y="41.1387">常规面试内容</text><rect fill="#FEFECE" filter="url(#fpkesyian334d)" height="33.9688" rx="12.5" ry="12.5" style="stroke: #A80036; stroke-width: 1.5;" width="80" x="270" y="20"/><text fill="#000000" font-family="sans-serif" font-size="12" lengthAdjust="spacingAndGlyphs" textLength="60" x="280" y="41.1387">兴趣、爱好</text><path d="M220,36.9844 L230,36.9844 C245,36.9844 245,36.9844 260,36.9844 L270,36.9844 " fill="none" style="stroke: #A80036; stroke-width: 1.0;"/><path d="M78,63.9688 L88,63.9688 C103,63.9688 103,36.9844 118,36.9844 L128,36.9844 " fill="none" style="stroke: #A80036; stroke-width: 1.0;"/><rect fill="#FEFECE" filter="url(#fpkesyian334d)" height="33.9688" rx="12.5" ry="12.5" style="stroke: #A80036; stroke-width: 1.5;" width="56" x="128" y="73.9688"/><text fill="#000000" font-family="sans-serif" font-size="12" lengthAdjust="spacingAndGlyphs" textLength="36" x="138" y="95.1074">小技巧</text><rect fill="#FEFECE" filter="url(#fpkesyian334d)" height="33.9688" rx="12.5" ry="12.5" style="stroke: #A80036; stroke-width: 1.5;" width="320" x="234" y="73.9688"/><text fill="#000000" font-family="sans-serif" font-size="12" lengthAdjust="spacingAndGlyphs" textLength="300" x="244" y="95.1074">1.故意出一些模糊不清的题，用于测试他主动询问的能力</text><path d="M184,90.9531 L194,90.9531 C209,90.9531 209,90.9531 224,90.9531 L234,90.9531 " fill="none" style="stroke: #A80036; stroke-width: 1.0;"/><path d="M78,63.9688 L88,63.9688 C103,63.9688 103,90.9531 118,90.9531 L128,90.9531 " fill="none" style="stroke: #A80036; stroke-width: 1.0;"/><!--
--></g></svg>