<svg xmlns="http://www.w3.org/2000/svg" xmlns:xlink="http://www.w3.org/1999/xlink" width="1240" height="4031" contentScriptType="application/ecmascript" contentStyleType="text/css" style="width:1240px;height:4031px" preserveAspectRatio="none" version="1.1" viewBox="0 0 1240 4031" zoomAndPan="magnify"><defs><filter id="f1mugqfwkwwqdp" width="300%" height="300%" x="-1" y="-1"><feGaussianBlur result="blurOut" stdDeviation="2"/><feColorMatrix in="blurOut" result="blurOut2" type="matrix" values="0 0 0 0 0 0 0 0 0 0 0 0 0 0 0 0 0 0 .4 0"/><feOffset dx="4" dy="4" in="blurOut2" result="blurOut3"/><feBlend in="SourceGraphic" in2="blurOut3" mode="normal"/></filter></defs><g><rect style="stroke:#a80036;stroke-width:1.5" width="93" height="33.969" x="10" y="2003.352" fill="#FEFECE" filter="url(#f1mugqfwkwwqdp)" rx="12.5" ry="12.5"/><text x="20" y="2024.49" fill="#000" font-family="sans-serif" font-size="12" lengthAdjust="spacingAndGlyphs" textLength="73">ZTD学习套路</text><rect style="stroke:#a80036;stroke-width:1.5" width="80" height="33.969" x="153" y="2003.352" fill="#FEFECE" filter="url(#f1mugqfwkwwqdp)" rx="12.5" ry="12.5"/><text x="163" y="2024.49" fill="#000" font-family="sans-serif" font-size="12" lengthAdjust="spacingAndGlyphs" textLength="60">十个好习惯</text><rect style="stroke:#a80036;stroke-width:1.5" width="68" height="33.969" x="283" y="100.953" fill="#FEFECE" filter="url(#f1mugqfwkwwqdp)" rx="12.5" ry="12.5"/><text x="293" y="122.092" fill="#000" font-family="sans-serif" font-size="12" lengthAdjust="spacingAndGlyphs" textLength="48">一、收集</text><rect style="stroke:#a80036;stroke-width:1.5" width="116" height="33.969" x="401" y="20" fill="#FEFECE" filter="url(#f1mugqfwkwwqdp)" rx="12.5" ry="12.5"/><text x="411" y="41.139" fill="#000" font-family="sans-serif" font-size="12" lengthAdjust="spacingAndGlyphs" textLength="96">好习惯：全面收集</text><path fill="none" d="M351,117.9375 L361,117.9375 C376,117.9375 376,36.9844 391,36.9844 L401,36.9844" style="stroke:#a80036;stroke-width:1"/><rect style="stroke:#a80036;stroke-width:1.5" width="188" height="33.969" x="401" y="73.969" fill="#FEFECE" filter="url(#f1mugqfwkwwqdp)" rx="12.5" ry="12.5"/><text x="411" y="95.107" fill="#000" font-family="sans-serif" font-size="12" lengthAdjust="spacingAndGlyphs" textLength="168">尽快地把这些信息存入任务清单</text><path fill="none" d="M351,117.9375 L361,117.9375 C376,117.9375 376,90.9531 391,90.9531 L401,90.9531" style="stroke:#a80036;stroke-width:1"/><rect style="stroke:#a80036;stroke-width:1.5" width="80" height="33.969" x="401" y="127.938" fill="#FEFECE" filter="url(#f1mugqfwkwwqdp)" rx="12.5" ry="12.5"/><text x="411" y="149.076" fill="#000" font-family="sans-serif" font-size="12" lengthAdjust="spacingAndGlyphs" textLength="60">记得要简单</text><path fill="none" d="M351,117.9375 L361,117.9375 C376,117.9375 376,144.9219 391,144.9219 L401,144.9219" style="stroke:#a80036;stroke-width:1"/><rect style="stroke:#a80036;stroke-width:1.5" width="116" height="33.969" x="401" y="181.906" fill="#FEFECE" filter="url(#f1mugqfwkwwqdp)" rx="12.5" ry="12.5"/><text x="411" y="203.045" fill="#000" font-family="sans-serif" font-size="12" lengthAdjust="spacingAndGlyphs" textLength="96">每天查看你的列表</text><path fill="none" d="M351,117.9375 L361,117.9375 C376,117.9375 376,198.8906 391,198.8906 L401,198.8906" style="stroke:#a80036;stroke-width:1"/><path fill="none" d="M233,2020.3359 L243,2020.3359 C258,2020.3359 258,117.9375 273,117.9375 L283,117.9375" style="stroke:#a80036;stroke-width:1"/><rect style="stroke:#a80036;stroke-width:1.5" width="68" height="33.969" x="283" y="451.75" fill="#FEFECE" filter="url(#f1mugqfwkwwqdp)" rx="12.5" ry="12.5"/><text x="293" y="472.889" fill="#000" font-family="sans-serif" font-size="12" lengthAdjust="spacingAndGlyphs" textLength="48">二、处理</text><rect style="stroke:#a80036;stroke-width:1.5" width="308" height="33.969" x="401" y="235.875" fill="#FEFECE" filter="url(#f1mugqfwkwwqdp)" rx="12.5" ry="12.5"/><text x="411" y="257.014" fill="#000" font-family="sans-serif" font-size="12" lengthAdjust="spacingAndGlyphs" textLength="288">好习惯：快速地对信息作出决定，从而避免收件箱堆积</text><path fill="none" d="M351,468.7344 L361,468.7344 C376,468.7344 376,252.8594 391,252.8594 L401,252.8594" style="stroke:#a80036;stroke-width:1"/><rect style="stroke:#a80036;stroke-width:1.5" width="80" height="33.969" x="401" y="478.734" fill="#FEFECE" filter="url(#f1mugqfwkwwqdp)" rx="12.5" ry="12.5"/><text x="411" y="499.873" fill="#000" font-family="sans-serif" font-size="12" lengthAdjust="spacingAndGlyphs" textLength="60">处理方法：</text><rect style="stroke:#a80036;stroke-width:1.5" width="212" height="33.969" x="531" y="289.844" fill="#FEFECE" filter="url(#f1mugqfwkwwqdp)" rx="12.5" ry="12.5"/><text x="541" y="310.982" fill="#000" font-family="sans-serif" font-size="12" lengthAdjust="spacingAndGlyphs" textLength="192">1.从上往下处理信息，马上做出决定</text><path fill="none" d="M481,495.7188 L491,495.7188 C506,495.7188 506,306.8281 521,306.8281 L531,306.8281" style="stroke:#a80036;stroke-width:1"/><rect style="stroke:#a80036;stroke-width:1.5" width="212" height="33.969" x="531" y="343.813" fill="#FEFECE" filter="url(#f1mugqfwkwwqdp)" rx="12.5" ry="12.5"/><text x="541" y="364.951" fill="#000" font-family="sans-serif" font-size="12" lengthAdjust="spacingAndGlyphs" textLength="192">2.删除（总是保持这个为优先选择）</text><path fill="none" d="M481,495.7188 L491,495.7188 C506,495.7188 506,360.7969 521,360.7969 L531,360.7969" style="stroke:#a80036;stroke-width:1"/><rect style="stroke:#a80036;stroke-width:1.5" width="80" height="33.969" x="531" y="397.781" fill="#FEFECE" filter="url(#f1mugqfwkwwqdp)" rx="12.5" ry="12.5"/><text x="541" y="418.92" fill="#000" font-family="sans-serif" font-size="12" lengthAdjust="spacingAndGlyphs" textLength="60">3.委派他人</text><path fill="none" d="M481,495.7188 L491,495.7188 C506,495.7188 506,414.7656 521,414.7656 L531,414.7656" style="stroke:#a80036;stroke-width:1"/><rect style="stroke:#a80036;stroke-width:1.5" width="256" height="33.969" x="531" y="451.75" fill="#FEFECE" filter="url(#f1mugqfwkwwqdp)" rx="12.5" ry="12.5"/><text x="541" y="472.889" fill="#000" font-family="sans-serif" font-size="12" lengthAdjust="spacingAndGlyphs" textLength="236">4.立刻完成：2分钟内可以搞定的，迅速搞定</text><path fill="none" d="M481,495.7188 L491,495.7188 C506,495.7188 506,468.7344 521,468.7344 L531,468.7344" style="stroke:#a80036;stroke-width:1"/><rect style="stroke:#a80036;stroke-width:1.5" width="128" height="33.969" x="531" y="532.703" fill="#FEFECE" filter="url(#f1mugqfwkwwqdp)" rx="12.5" ry="12.5"/><text x="541" y="553.842" fill="#000" font-family="sans-serif" font-size="12" lengthAdjust="spacingAndGlyphs" textLength="108">5.等下在做的任务。</text><rect style="stroke:#a80036;stroke-width:1.5" width="200" height="33.969" x="709" y="505.719" fill="#FEFECE" filter="url(#f1mugqfwkwwqdp)" rx="12.5" ry="12.5"/><text x="719" y="526.857" fill="#000" font-family="sans-serif" font-size="12" lengthAdjust="spacingAndGlyphs" textLength="180">如果这件事需要的时间多过两分钟</text><path fill="none" d="M659,549.6875 L669,549.6875 C684,549.6875 684,522.7031 699,522.7031 L709,522.7031" style="stroke:#a80036;stroke-width:1"/><rect style="stroke:#a80036;stroke-width:1.5" width="284" height="33.969" x="709" y="559.688" fill="#FEFECE" filter="url(#f1mugqfwkwwqdp)" rx="12.5" ry="12.5"/><text x="719" y="580.826" fill="#000" font-family="sans-serif" font-size="12" lengthAdjust="spacingAndGlyphs" textLength="264">马上把它列入任务清单中，并且等下马上完成它；</text><path fill="none" d="M659,549.6875 L669,549.6875 C684,549.6875 684,576.6719 699,576.6719 L709,576.6719" style="stroke:#a80036;stroke-width:1"/><path fill="none" d="M481,495.7188 L491,495.7188 C506,495.7188 506,549.6875 521,549.6875 L531,549.6875" style="stroke:#a80036;stroke-width:1"/><rect style="stroke:#a80036;stroke-width:1.5" width="80" height="33.969" x="531" y="640.641" fill="#FEFECE" filter="url(#f1mugqfwkwwqdp)" rx="12.5" ry="12.5"/><text x="541" y="661.779" fill="#000" font-family="sans-serif" font-size="12" lengthAdjust="spacingAndGlyphs" textLength="60">6.制作档案</text><rect style="stroke:#a80036;stroke-width:1.5" width="224" height="33.969" x="661" y="613.656" fill="#FEFECE" filter="url(#f1mugqfwkwwqdp)" rx="12.5" ry="12.5"/><text x="671" y="634.795" fill="#000" font-family="sans-serif" font-size="12" lengthAdjust="spacingAndGlyphs" textLength="204">你需要额外的参考文件来完成某件事情</text><path fill="none" d="M611,657.625 L621,657.625 C636,657.625 636,630.6406 651,630.6406 L661,630.6406" style="stroke:#a80036;stroke-width:1"/><rect style="stroke:#a80036;stroke-width:1.5" width="152" height="33.969" x="661" y="667.625" fill="#FEFECE" filter="url(#f1mugqfwkwwqdp)" rx="12.5" ry="12.5"/><text x="671" y="688.764" fill="#000" font-family="sans-serif" font-size="12" lengthAdjust="spacingAndGlyphs" textLength="132">那赶快为它制作一个档案</text><path fill="none" d="M611,657.625 L621,657.625 C636,657.625 636,684.6094 651,684.6094 L661,684.6094" style="stroke:#a80036;stroke-width:1"/><path fill="none" d="M481,495.7188 L491,495.7188 C506,495.7188 506,657.625 521,657.625 L531,657.625" style="stroke:#a80036;stroke-width:1"/><path fill="none" d="M351,468.7344 L361,468.7344 C376,468.7344 376,495.7188 391,495.7188 L401,495.7188" style="stroke:#a80036;stroke-width:1"/><path fill="none" d="M233,2020.3359 L243,2020.3359 C258,2020.3359 258,468.7344 273,468.7344 L283,468.7344" style="stroke:#a80036;stroke-width:1"/><rect style="stroke:#a80036;stroke-width:1.5" width="68" height="33.969" x="283" y="1072.391" fill="#FEFECE" filter="url(#f1mugqfwkwwqdp)" rx="12.5" ry="12.5"/><text x="293" y="1093.529" fill="#000" font-family="sans-serif" font-size="12" lengthAdjust="spacingAndGlyphs" textLength="48">三、计划</text><rect style="stroke:#a80036;stroke-width:1.5" width="254" height="33.969" x="401" y="721.594" fill="#FEFECE" filter="url(#f1mugqfwkwwqdp)" rx="12.5" ry="12.5"/><text x="411" y="742.732" fill="#000" font-family="sans-serif" font-size="12" lengthAdjust="spacingAndGlyphs" textLength="234">好习惯：设定每天，每周的最重要的事(MIT)</text><path fill="none" d="M351,1089.375 L361,1089.375 C376,1089.375 376,738.5781 391,738.5781 L401,738.5781" style="stroke:#a80036;stroke-width:1"/><rect style="stroke:#a80036;stroke-width:1.5" width="237" height="33.969" x="401" y="775.563" fill="#FEFECE" filter="url(#f1mugqfwkwwqdp)" rx="12.5" ry="12.5"/><text x="411" y="796.701" fill="#000" font-family="sans-serif" font-size="12" lengthAdjust="spacingAndGlyphs" textLength="217">这是ZTD中最简单也是最重要的一个习惯</text><path fill="none" d="M351,1089.375 L361,1089.375 C376,1089.375 376,792.5469 391,792.5469 L401,792.5469" style="stroke:#a80036;stroke-width:1"/><rect style="stroke:#a80036;stroke-width:1.5" width="44" height="33.969" x="401" y="883.5" fill="#FEFECE" filter="url(#f1mugqfwkwwqdp)" rx="12.5" ry="12.5"/><text x="411" y="904.639" fill="#000" font-family="sans-serif" font-size="12" lengthAdjust="spacingAndGlyphs" textLength="24">方法</text><rect style="stroke:#a80036;stroke-width:1.5" width="388" height="33.969" x="495" y="829.531" fill="#FEFECE" filter="url(#f1mugqfwkwwqdp)" rx="12.5" ry="12.5"/><text x="505" y="850.67" fill="#000" font-family="sans-serif" font-size="12" lengthAdjust="spacingAndGlyphs" textLength="368">每周，列下你需要完成的重大事件（4-6件起步），把他们排进日程表</text><path fill="none" d="M445,900.4844 L455,900.4844 C470,900.4844 470,846.5156 485,846.5156 L495,846.5156" style="stroke:#a80036;stroke-width:1"/><rect style="stroke:#a80036;stroke-width:1.5" width="172" height="33.969" x="495" y="883.5" fill="#FEFECE" filter="url(#f1mugqfwkwwqdp)" rx="12.5" ry="12.5"/><text x="505" y="904.639" fill="#000" font-family="sans-serif" font-size="12" lengthAdjust="spacingAndGlyphs" textLength="152">每天，列出1-3个最重要的事</text><path fill="none" d="M445,900.4844 L455,900.4844 C470,900.4844 470,900.4844 485,900.4844 L495,900.4844" style="stroke:#a80036;stroke-width:1"/><rect style="stroke:#a80036;stroke-width:1.5" width="360" height="33.969" x="495" y="937.469" fill="#FEFECE" filter="url(#f1mugqfwkwwqdp)" rx="12.5" ry="12.5"/><text x="505" y="958.607" fill="#000" font-family="sans-serif" font-size="12" lengthAdjust="spacingAndGlyphs" textLength="340">一定要保证完成这些最重要的事,并且在周末时回顾是否已经完成</text><path fill="none" d="M445,900.4844 L455,900.4844 C470,900.4844 470,954.4531 485,954.4531 L495,954.4531" style="stroke:#a80036;stroke-width:1"/><path fill="none" d="M351,1089.375 L361,1089.375 C376,1089.375 376,900.4844 391,900.4844 L401,900.4844" style="stroke:#a80036;stroke-width:1"/><rect style="stroke:#a80036;stroke-width:1.5" width="44" height="33.969" x="401" y="1207.313" fill="#FEFECE" filter="url(#f1mugqfwkwwqdp)" rx="12.5" ry="12.5"/><text x="411" y="1228.451" fill="#000" font-family="sans-serif" font-size="12" lengthAdjust="spacingAndGlyphs" textLength="24">步骤</text><rect style="stroke:#a80036;stroke-width:1.5" width="409" height="33.969" x="495" y="991.438" fill="#FEFECE" filter="url(#f1mugqfwkwwqdp)" rx="12.5" ry="12.5"/><text x="505" y="1012.576" fill="#000" font-family="sans-serif" font-size="12" lengthAdjust="spacingAndGlyphs" textLength="389">1.重大事件(确保这些重大事件中包含至少一项与你年度目标有关的任务）</text><path fill="none" d="M445,1224.2969 L455,1224.2969 C470,1224.2969 470,1008.4219 485,1008.4219 L495,1008.4219" style="stroke:#a80036;stroke-width:1"/><rect style="stroke:#a80036;stroke-width:1.5" width="80" height="33.969" x="495" y="1126.359" fill="#FEFECE" filter="url(#f1mugqfwkwwqdp)" rx="12.5" ry="12.5"/><text x="505" y="1147.498" fill="#000" font-family="sans-serif" font-size="12" lengthAdjust="spacingAndGlyphs" textLength="60">2.安排日程</text><rect style="stroke:#a80036;stroke-width:1.5" width="108" height="33.969" x="625" y="1045.406" fill="#FEFECE" filter="url(#f1mugqfwkwwqdp)" rx="12.5" ry="12.5"/><text x="635" y="1066.545" fill="#000" font-family="sans-serif" font-size="12" lengthAdjust="spacingAndGlyphs" textLength="88">2.1每周放4-6个</text><path fill="none" d="M575,1143.3438 L585,1143.3438 C600,1143.3438 600,1062.3906 615,1062.3906 L625,1062.3906" style="stroke:#a80036;stroke-width:1"/><rect style="stroke:#a80036;stroke-width:1.5" width="108" height="33.969" x="625" y="1099.375" fill="#FEFECE" filter="url(#f1mugqfwkwwqdp)" rx="12.5" ry="12.5"/><text x="635" y="1120.514" fill="#000" font-family="sans-serif" font-size="12" lengthAdjust="spacingAndGlyphs" textLength="88">2.2每天放1-2个</text><path fill="none" d="M575,1143.3438 L585,1143.3438 C600,1143.3438 600,1116.3594 615,1116.3594 L625,1116.3594" style="stroke:#a80036;stroke-width:1"/><rect style="stroke:#a80036;stroke-width:1.5" width="228" height="33.969" x="625" y="1153.344" fill="#FEFECE" filter="url(#f1mugqfwkwwqdp)" rx="12.5" ry="12.5"/><text x="635" y="1174.482" fill="#000" font-family="sans-serif" font-size="12" lengthAdjust="spacingAndGlyphs" textLength="208">2.3至少分出1-2小时的时间去完成它们</text><path fill="none" d="M575,1143.3438 L585,1143.3438 C600,1143.3438 600,1170.3281 615,1170.3281 L625,1170.3281" style="stroke:#a80036;stroke-width:1"/><rect style="stroke:#a80036;stroke-width:1.5" width="184" height="33.969" x="625" y="1207.313" fill="#FEFECE" filter="url(#f1mugqfwkwwqdp)" rx="12.5" ry="12.5"/><text x="635" y="1228.451" fill="#000" font-family="sans-serif" font-size="12" lengthAdjust="spacingAndGlyphs" textLength="164">2.4尽量把时间安排得越早越好</text><path fill="none" d="M575,1143.3438 L585,1143.3438 C600,1143.3438 600,1224.2969 615,1224.2969 L625,1224.2969" style="stroke:#a80036;stroke-width:1"/><path fill="none" d="M445,1224.2969 L455,1224.2969 C470,1224.2969 470,1143.3438 485,1143.3438 L495,1143.3438" style="stroke:#a80036;stroke-width:1"/><rect style="stroke:#a80036;stroke-width:1.5" width="104" height="33.969" x="495" y="1261.281" fill="#FEFECE" filter="url(#f1mugqfwkwwqdp)" rx="12.5" ry="12.5"/><text x="505" y="1282.42" fill="#000" font-family="sans-serif" font-size="12" lengthAdjust="spacingAndGlyphs" textLength="84">3.最重要的任务</text><path fill="none" d="M445,1224.2969 L455,1224.2969 C470,1224.2969 470,1278.2656 485,1278.2656 L495,1278.2656" style="stroke:#a80036;stroke-width:1"/><rect style="stroke:#a80036;stroke-width:1.5" width="80" height="33.969" x="495" y="1342.234" fill="#FEFECE" filter="url(#f1mugqfwkwwqdp)" rx="12.5" ry="12.5"/><text x="505" y="1363.373" fill="#000" font-family="sans-serif" font-size="12" lengthAdjust="spacingAndGlyphs" textLength="60">4.完成它们</text><rect style="stroke:#a80036;stroke-width:1.5" width="604" height="33.969" x="625" y="1315.25" fill="#FEFECE" filter="url(#f1mugqfwkwwqdp)" rx="12.5" ry="12.5"/><text x="635" y="1336.389" fill="#000" font-family="sans-serif" font-size="12" lengthAdjust="spacingAndGlyphs" textLength="584">4.1每天早上做的第一件事就是完成第一件最重要的任务，远离干扰，把所有精力都放在任务上直到完成它为止</text><path fill="none" d="M575,1359.2188 L585,1359.2188 C600,1359.2188 600,1332.2344 615,1332.2344 L625,1332.2344" style="stroke:#a80036;stroke-width:1"/><rect style="stroke:#a80036;stroke-width:1.5" width="196" height="33.969" x="625" y="1369.219" fill="#FEFECE" filter="url(#f1mugqfwkwwqdp)" rx="12.5" ry="12.5"/><text x="635" y="1390.357" fill="#000" font-family="sans-serif" font-size="12" lengthAdjust="spacingAndGlyphs" textLength="176">4.2做完之后可以简单的奖赏自己</text><path fill="none" d="M575,1359.2188 L585,1359.2188 C600,1359.2188 600,1386.2031 615,1386.2031 L625,1386.2031" style="stroke:#a80036;stroke-width:1"/><path fill="none" d="M445,1224.2969 L455,1224.2969 C470,1224.2969 470,1359.2188 485,1359.2188 L495,1359.2188" style="stroke:#a80036;stroke-width:1"/><rect style="stroke:#a80036;stroke-width:1.5" width="272" height="33.969" x="495" y="1423.188" fill="#FEFECE" filter="url(#f1mugqfwkwwqdp)" rx="12.5" ry="12.5"/><text x="505" y="1444.326" fill="#000" font-family="sans-serif" font-size="12" lengthAdjust="spacingAndGlyphs" textLength="252">5.回顾（回顾你所完成的，顺便表扬自己一下）</text><path fill="none" d="M445,1224.2969 L455,1224.2969 C470,1224.2969 470,1440.1719 485,1440.1719 L495,1440.1719" style="stroke:#a80036;stroke-width:1"/><path fill="none" d="M351,1089.375 L361,1089.375 C376,1089.375 376,1224.2969 391,1224.2969 L401,1224.2969" style="stroke:#a80036;stroke-width:1"/><path fill="none" d="M233,2020.3359 L243,2020.3359 C258,2020.3359 258,1089.375 273,1089.375 L283,1089.375" style="stroke:#a80036;stroke-width:1"/><rect style="stroke:#a80036;stroke-width:1.5" width="68" height="33.969" x="283" y="1733.508" fill="#FEFECE" filter="url(#f1mugqfwkwwqdp)" rx="12.5" ry="12.5"/><text x="293" y="1754.647" fill="#000" font-family="sans-serif" font-size="12" lengthAdjust="spacingAndGlyphs" textLength="48">四、执行</text><rect style="stroke:#a80036;stroke-width:1.5" width="224" height="33.969" x="401" y="1477.156" fill="#FEFECE" filter="url(#f1mugqfwkwwqdp)" rx="12.5" ry="12.5"/><text x="411" y="1498.295" fill="#000" font-family="sans-serif" font-size="12" lengthAdjust="spacingAndGlyphs" textLength="204">好习惯：一心一意，每次只执行一件事</text><path fill="none" d="M351,1750.4922 L361,1750.4922 C376,1750.4922 376,1494.1406 391,1494.1406 L401,1494.1406" style="stroke:#a80036;stroke-width:1"/><rect style="stroke:#a80036;stroke-width:1.5" width="176" height="33.969" x="401" y="1531.125" fill="#FEFECE" filter="url(#f1mugqfwkwwqdp)" rx="12.5" ry="12.5"/><text x="411" y="1552.264" fill="#000" font-family="sans-serif" font-size="12" lengthAdjust="spacingAndGlyphs" textLength="156">执行是所有习惯中最最重要的</text><path fill="none" d="M351,1750.4922 L361,1750.4922 C376,1750.4922 376,1548.1094 391,1548.1094 L401,1548.1094" style="stroke:#a80036;stroke-width:1"/><rect style="stroke:#a80036;stroke-width:1.5" width="44" height="33.969" x="401" y="1787.477" fill="#FEFECE" filter="url(#f1mugqfwkwwqdp)" rx="12.5" ry="12.5"/><text x="411" y="1808.615" fill="#000" font-family="sans-serif" font-size="12" lengthAdjust="spacingAndGlyphs" textLength="24">步骤</text><rect style="stroke:#a80036;stroke-width:1.5" width="150" height="33.969" x="495" y="1639.063" fill="#FEFECE" filter="url(#f1mugqfwkwwqdp)" rx="12.5" ry="12.5"/><text x="505" y="1660.201" fill="#000" font-family="sans-serif" font-size="12" lengthAdjust="spacingAndGlyphs" textLength="130">1.重大事件(Big Rocks)</text><rect style="stroke:#a80036;stroke-width:1.5" width="80" height="33.969" x="695" y="1585.094" fill="#FEFECE" filter="url(#f1mugqfwkwwqdp)" rx="12.5" ry="12.5"/><text x="705" y="1606.232" fill="#000" font-family="sans-serif" font-size="12" lengthAdjust="spacingAndGlyphs" textLength="60">做出决定：</text><path fill="none" d="M645,1656.0469 L655,1656.0469 C670,1656.0469 670,1602.0781 685,1602.0781 L695,1602.0781" style="stroke:#a80036;stroke-width:1"/><rect style="stroke:#a80036;stroke-width:1.5" width="116" height="33.969" x="695" y="1639.063" fill="#FEFECE" filter="url(#f1mugqfwkwwqdp)" rx="12.5" ry="12.5"/><text x="705" y="1660.201" fill="#000" font-family="sans-serif" font-size="12" lengthAdjust="spacingAndGlyphs" textLength="96">是一次全部完成、</text><path fill="none" d="M645,1656.0469 L655,1656.0469 C670,1656.0469 670,1656.0469 685,1656.0469 L695,1656.0469" style="stroke:#a80036;stroke-width:1"/><rect style="stroke:#a80036;stroke-width:1.5" width="240" height="33.969" x="695" y="1693.031" fill="#FEFECE" filter="url(#f1mugqfwkwwqdp)" rx="12.5" ry="12.5"/><text x="705" y="1714.17" fill="#000" font-family="sans-serif" font-size="12" lengthAdjust="spacingAndGlyphs" textLength="220">还是现在抽出一段时间（30分钟）去做它</text><path fill="none" d="M645,1656.0469 L655,1656.0469 C670,1656.0469 670,1710.0156 685,1710.0156 L695,1710.0156" style="stroke:#a80036;stroke-width:1"/><path fill="none" d="M445,1804.4609 L455,1804.4609 C470,1804.4609 470,1656.0469 485,1656.0469 L495,1656.0469" style="stroke:#a80036;stroke-width:1"/><rect style="stroke:#a80036;stroke-width:1.5" width="92" height="33.969" x="495" y="1693.031" fill="#FEFECE" filter="url(#f1mugqfwkwwqdp)" rx="12.5" ry="12.5"/><text x="505" y="1714.17" fill="#000" font-family="sans-serif" font-size="12" lengthAdjust="spacingAndGlyphs" textLength="72">2.选择好环境</text><path fill="none" d="M445,1804.4609 L455,1804.4609 C470,1804.4609 470,1710.0156 485,1710.0156 L495,1710.0156" style="stroke:#a80036;stroke-width:1"/><rect style="stroke:#a80036;stroke-width:1.5" width="80" height="33.969" x="495" y="1747" fill="#FEFECE" filter="url(#f1mugqfwkwwqdp)" rx="12.5" ry="12.5"/><text x="505" y="1768.139" fill="#000" font-family="sans-serif" font-size="12" lengthAdjust="spacingAndGlyphs" textLength="60">3.记录时间</text><path fill="none" d="M445,1804.4609 L455,1804.4609 C470,1804.4609 470,1763.9844 485,1763.9844 L495,1763.9844" style="stroke:#a80036;stroke-width:1"/><rect style="stroke:#a80036;stroke-width:1.5" width="292" height="33.969" x="495" y="1800.969" fill="#FEFECE" filter="url(#f1mugqfwkwwqdp)" rx="12.5" ry="12.5"/><text x="505" y="1822.107" fill="#000" font-family="sans-serif" font-size="12" lengthAdjust="spacingAndGlyphs" textLength="272">4.避免干扰:新信息先收集到「收件箱」中,之后处理</text><path fill="none" d="M445,1804.4609 L455,1804.4609 C470,1804.4609 470,1817.9531 485,1817.9531 L495,1817.9531" style="stroke:#a80036;stroke-width:1"/><rect style="stroke:#a80036;stroke-width:1.5" width="116" height="33.969" x="495" y="1881.922" fill="#FEFECE" filter="url(#f1mugqfwkwwqdp)" rx="12.5" ry="12.5"/><text x="505" y="1903.061" fill="#000" font-family="sans-serif" font-size="12" lengthAdjust="spacingAndGlyphs" textLength="96">5.不可避免的中断</text><rect style="stroke:#a80036;stroke-width:1.5" width="184" height="33.969" x="661" y="1854.938" fill="#FEFECE" filter="url(#f1mugqfwkwwqdp)" rx="12.5" ry="12.5"/><text x="671" y="1876.076" fill="#000" font-family="sans-serif" font-size="12" lengthAdjust="spacingAndGlyphs" textLength="164">5.1把现在的任务进度记录下来</text><path fill="none" d="M611,1898.9063 L621,1898.9063 C636,1898.9063 636,1871.9219 651,1871.9219 L661,1871.9219" style="stroke:#a80036;stroke-width:1"/><rect style="stroke:#a80036;stroke-width:1.5" width="208" height="33.969" x="661" y="1908.906" fill="#FEFECE" filter="url(#f1mugqfwkwwqdp)" rx="12.5" ry="12.5"/><text x="671" y="1930.045" fill="#000" font-family="sans-serif" font-size="12" lengthAdjust="spacingAndGlyphs" textLength="188">5.2把所用的资料也都整理放到一旁</text><path fill="none" d="M611,1898.9063 L621,1898.9063 C636,1898.9063 636,1925.8906 651,1925.8906 L661,1925.8906" style="stroke:#a80036;stroke-width:1"/><path fill="none" d="M445,1804.4609 L455,1804.4609 C470,1804.4609 470,1898.9063 485,1898.9063 L495,1898.9063" style="stroke:#a80036;stroke-width:1"/><rect style="stroke:#a80036;stroke-width:1.5" width="80" height="33.969" x="495" y="1935.891" fill="#FEFECE" filter="url(#f1mugqfwkwwqdp)" rx="12.5" ry="12.5"/><text x="505" y="1957.029" fill="#000" font-family="sans-serif" font-size="12" lengthAdjust="spacingAndGlyphs" textLength="60">6.享受休息</text><path fill="none" d="M445,1804.4609 L455,1804.4609 C470,1804.4609 470,1952.875 485,1952.875 L495,1952.875" style="stroke:#a80036;stroke-width:1"/><rect style="stroke:#a80036;stroke-width:1.5" width="80" height="33.969" x="495" y="1989.859" fill="#FEFECE" filter="url(#f1mugqfwkwwqdp)" rx="12.5" ry="12.5"/><text x="505" y="2010.998" fill="#000" font-family="sans-serif" font-size="12" lengthAdjust="spacingAndGlyphs" textLength="60">7.表扬自己</text><path fill="none" d="M445,1804.4609 L455,1804.4609 C470,1804.4609 470,2006.8438 485,2006.8438 L495,2006.8438" style="stroke:#a80036;stroke-width:1"/><path fill="none" d="M351,1750.4922 L361,1750.4922 C376,1750.4922 376,1804.4609 391,1804.4609 L401,1804.4609" style="stroke:#a80036;stroke-width:1"/><path fill="none" d="M233,2020.3359 L243,2020.3359 C258,2020.3359 258,1750.4922 273,1750.4922 L283,1750.4922" style="stroke:#a80036;stroke-width:1"/><rect style="stroke:#a80036;stroke-width:1.5" width="104" height="33.969" x="283" y="2124.781" fill="#FEFECE" filter="url(#f1mugqfwkwwqdp)" rx="12.5" ry="12.5"/><text x="293" y="2145.92" fill="#000" font-family="sans-serif" font-size="12" lengthAdjust="spacingAndGlyphs" textLength="84">五、信任的系统</text><rect style="stroke:#a80036;stroke-width:1.5" width="176" height="33.969" x="437" y="2043.828" fill="#FEFECE" filter="url(#f1mugqfwkwwqdp)" rx="12.5" ry="12.5"/><text x="447" y="2064.967" fill="#000" font-family="sans-serif" font-size="12" lengthAdjust="spacingAndGlyphs" textLength="156">建立简单的列表，并每日查看</text><path fill="none" d="M387,2141.7656 L397,2141.7656 C412,2141.7656 412,2060.8125 427,2060.8125 L437,2060.8125" style="stroke:#a80036;stroke-width:1"/><rect style="stroke:#a80036;stroke-width:1.5" width="273" height="33.969" x="437" y="2097.797" fill="#FEFECE" filter="url(#f1mugqfwkwwqdp)" rx="12.5" ry="12.5"/><text x="447" y="2118.936" fill="#000" font-family="sans-serif" font-size="12" lengthAdjust="spacingAndGlyphs" textLength="253">ZTD（简单做）建议你尽可能的维持列表简单化</text><path fill="none" d="M387,2141.7656 L397,2141.7656 C412,2141.7656 412,2114.7813 427,2114.7813 L437,2114.7813" style="stroke:#a80036;stroke-width:1"/><rect style="stroke:#a80036;stroke-width:1.5" width="380" height="33.969" x="437" y="2151.766" fill="#FEFECE" filter="url(#f1mugqfwkwwqdp)" rx="12.5" ry="12.5"/><text x="447" y="2172.904" fill="#000" font-family="sans-serif" font-size="12" lengthAdjust="spacingAndGlyphs" textLength="360">不要增加复杂的系统，也不要持续尝试新工具，以免时间上的浪费。</text><path fill="none" d="M387,2141.7656 L397,2141.7656 C412,2141.7656 412,2168.75 427,2168.75 L437,2168.75" style="stroke:#a80036;stroke-width:1"/><rect style="stroke:#a80036;stroke-width:1.5" width="590" height="33.969" x="437" y="2205.734" fill="#FEFECE" filter="url(#f1mugqfwkwwqdp)" rx="12.5" ry="12.5"/><text x="447" y="2226.873" fill="#000" font-family="sans-serif" font-size="12" lengthAdjust="spacingAndGlyphs" textLength="570">尽可能的使用简单的清单方式，因为你注重的是如何执行的任务，而非玩弄你的 GTD 系统或者 GTD 工具。</text><path fill="none" d="M387,2141.7656 L397,2141.7656 C412,2141.7656 412,2222.7188 427,2222.7188 L437,2222.7188" style="stroke:#a80036;stroke-width:1"/><path fill="none" d="M233,2020.3359 L243,2020.3359 C258,2020.3359 258,2141.7656 273,2141.7656 L283,2141.7656" style="stroke:#a80036;stroke-width:1"/><rect style="stroke:#a80036;stroke-width:1.5" width="68" height="33.969" x="283" y="2367.641" fill="#FEFECE" filter="url(#f1mugqfwkwwqdp)" rx="12.5" ry="12.5"/><text x="293" y="2388.779" fill="#000" font-family="sans-serif" font-size="12" lengthAdjust="spacingAndGlyphs" textLength="48">六、管理</text><rect style="stroke:#a80036;stroke-width:1.5" width="152" height="33.969" x="401" y="2259.703" fill="#FEFECE" filter="url(#f1mugqfwkwwqdp)" rx="12.5" ry="12.5"/><text x="411" y="2280.842" fill="#000" font-family="sans-serif" font-size="12" lengthAdjust="spacingAndGlyphs" textLength="132">一个存储所有信息的地方</text><path fill="none" d="M351,2384.625 L361,2384.625 C376,2384.625 376,2276.6875 391,2276.6875 L401,2276.6875" style="stroke:#a80036;stroke-width:1"/><rect style="stroke:#a80036;stroke-width:1.5" width="224" height="33.969" x="401" y="2313.672" fill="#FEFECE" filter="url(#f1mugqfwkwwqdp)" rx="12.5" ry="12.5"/><text x="411" y="2334.811" fill="#000" font-family="sans-serif" font-size="12" lengthAdjust="spacingAndGlyphs" textLength="204">把所有接收的信息都放入你的收集箱中</text><path fill="none" d="M351,2384.625 L361,2384.625 C376,2384.625 376,2330.6563 391,2330.6563 L401,2330.6563" style="stroke:#a80036;stroke-width:1"/><rect style="stroke:#a80036;stroke-width:1.5" width="232" height="33.969" x="401" y="2367.641" fill="#FEFECE" filter="url(#f1mugqfwkwwqdp)" rx="12.5" ry="12.5"/><text x="411" y="2388.779" fill="#000" font-family="sans-serif" font-size="12" lengthAdjust="spacingAndGlyphs" textLength="212">处理你的收集箱， 执行任务， 完成任务</text><path fill="none" d="M351,2384.625 L361,2384.625 C376,2384.625 376,2384.625 391,2384.625 L401,2384.625" style="stroke:#a80036;stroke-width:1"/><rect style="stroke:#a80036;stroke-width:1.5" width="92" height="33.969" x="401" y="2448.594" fill="#FEFECE" filter="url(#f1mugqfwkwwqdp)" rx="12.5" ry="12.5"/><text x="411" y="2469.732" fill="#000" font-family="sans-serif" font-size="12" lengthAdjust="spacingAndGlyphs" textLength="72">在这个系统里</text><rect style="stroke:#a80036;stroke-width:1.5" width="248" height="33.969" x="543" y="2421.609" fill="#FEFECE" filter="url(#f1mugqfwkwwqdp)" rx="12.5" ry="12.5"/><text x="553" y="2442.748" fill="#000" font-family="sans-serif" font-size="12" lengthAdjust="spacingAndGlyphs" textLength="228">你永远都不应该有疑问自己下一步该做什么</text><path fill="none" d="M493,2465.5781 L503,2465.5781 C518,2465.5781 518,2438.5938 533,2438.5938 L543,2438.5938" style="stroke:#a80036;stroke-width:1"/><rect style="stroke:#a80036;stroke-width:1.5" width="272" height="33.969" x="543" y="2475.578" fill="#FEFECE" filter="url(#f1mugqfwkwwqdp)" rx="12.5" ry="12.5"/><text x="553" y="2496.717" fill="#000" font-family="sans-serif" font-size="12" lengthAdjust="spacingAndGlyphs" textLength="252">而且也使你更能专心注重于工作，也能避免拖延</text><path fill="none" d="M493,2465.5781 L503,2465.5781 C518,2465.5781 518,2492.5625 533,2492.5625 L543,2492.5625" style="stroke:#a80036;stroke-width:1"/><path fill="none" d="M351,2384.625 L361,2384.625 C376,2384.625 376,2465.5781 391,2465.5781 L401,2465.5781" style="stroke:#a80036;stroke-width:1"/><path fill="none" d="M233,2020.3359 L243,2020.3359 C258,2020.3359 258,2384.625 273,2384.625 L283,2384.625" style="stroke:#a80036;stroke-width:1"/><rect style="stroke:#a80036;stroke-width:1.5" width="68" height="33.969" x="283" y="2745.422" fill="#FEFECE" filter="url(#f1mugqfwkwwqdp)" rx="12.5" ry="12.5"/><text x="293" y="2766.561" fill="#000" font-family="sans-serif" font-size="12" lengthAdjust="spacingAndGlyphs" textLength="48">七、回顾</text><rect style="stroke:#a80036;stroke-width:1.5" width="200" height="33.969" x="401" y="2529.547" fill="#FEFECE" filter="url(#f1mugqfwkwwqdp)" rx="12.5" ry="12.5"/><text x="411" y="2550.686" fill="#000" font-family="sans-serif" font-size="12" lengthAdjust="spacingAndGlyphs" textLength="180">好习惯：每周回顾你的系统和目标</text><path fill="none" d="M351,2762.4063 L361,2762.4063 C376,2762.4063 376,2546.5313 391,2546.5313 L401,2546.5313" style="stroke:#a80036;stroke-width:1"/><rect style="stroke:#a80036;stroke-width:1.5" width="140" height="33.969" x="401" y="2637.484" fill="#FEFECE" filter="url(#f1mugqfwkwwqdp)" rx="12.5" ry="12.5"/><text x="411" y="2658.623" fill="#000" font-family="sans-serif" font-size="12" lengthAdjust="spacingAndGlyphs" textLength="120">在每周回顾中，你应该</text><rect style="stroke:#a80036;stroke-width:1.5" width="128" height="33.969" x="591" y="2583.516" fill="#FEFECE" filter="url(#f1mugqfwkwwqdp)" rx="12.5" ry="12.5"/><text x="601" y="2604.654" fill="#000" font-family="sans-serif" font-size="12" lengthAdjust="spacingAndGlyphs" textLength="108">对比自己的年度目标</text><path fill="none" d="M541,2654.4688 L551,2654.4688 C566,2654.4688 566,2600.5 581,2600.5 L591,2600.5" style="stroke:#a80036;stroke-width:1"/><rect style="stroke:#a80036;stroke-width:1.5" width="188" height="33.969" x="591" y="2637.484" fill="#FEFECE" filter="url(#f1mugqfwkwwqdp)" rx="12.5" ry="12.5"/><text x="601" y="2658.623" fill="#000" font-family="sans-serif" font-size="12" lengthAdjust="spacingAndGlyphs" textLength="168">回顾自己在过去一周取得的进步</text><path fill="none" d="M541,2654.4688 L551,2654.4688 C566,2654.4688 566,2654.4688 581,2654.4688 L591,2654.4688" style="stroke:#a80036;stroke-width:1"/><rect style="stroke:#a80036;stroke-width:1.5" width="140" height="33.969" x="591" y="2691.453" fill="#FEFECE" filter="url(#f1mugqfwkwwqdp)" rx="12.5" ry="12.5"/><text x="601" y="2712.592" fill="#000" font-family="sans-serif" font-size="12" lengthAdjust="spacingAndGlyphs" textLength="120">制定下一周的前进计划</text><path fill="none" d="M541,2654.4688 L551,2654.4688 C566,2654.4688 566,2708.4375 581,2708.4375 L591,2708.4375" style="stroke:#a80036;stroke-width:1"/><path fill="none" d="M351,2762.4063 L361,2762.4063 C376,2762.4063 376,2654.4688 391,2654.4688 L401,2654.4688" style="stroke:#a80036;stroke-width:1"/><rect style="stroke:#a80036;stroke-width:1.5" width="44" height="33.969" x="401" y="2853.359" fill="#FEFECE" filter="url(#f1mugqfwkwwqdp)" rx="12.5" ry="12.5"/><text x="411" y="2874.498" fill="#000" font-family="sans-serif" font-size="12" lengthAdjust="spacingAndGlyphs" textLength="24">步骤</text><rect style="stroke:#a80036;stroke-width:1.5" width="328" height="33.969" x="495" y="2745.422" fill="#FEFECE" filter="url(#f1mugqfwkwwqdp)" rx="12.5" ry="12.5"/><text x="505" y="2766.561" fill="#000" font-family="sans-serif" font-size="12" lengthAdjust="spacingAndGlyphs" textLength="308">1.回顾你的长期目标，中期目标和短期目标（大约5分钟）</text><path fill="none" d="M445,2870.3438 L455,2870.3438 C470,2870.3438 470,2762.4063 485,2762.4063 L495,2762.4063" style="stroke:#a80036;stroke-width:1"/><rect style="stroke:#a80036;stroke-width:1.5" width="204" height="33.969" x="495" y="2799.391" fill="#FEFECE" filter="url(#f1mugqfwkwwqdp)" rx="12.5" ry="12.5"/><text x="505" y="2820.529" fill="#000" font-family="sans-serif" font-size="12" lengthAdjust="spacingAndGlyphs" textLength="184">2.整理你的笔记（大概5-10分钟）</text><path fill="none" d="M445,2870.3438 L455,2870.3438 C470,2870.3438 470,2816.375 485,2816.375 L495,2816.375" style="stroke:#a80036;stroke-width:1"/><rect style="stroke:#a80036;stroke-width:1.5" width="220" height="33.969" x="495" y="2853.359" fill="#FEFECE" filter="url(#f1mugqfwkwwqdp)" rx="12.5" ry="12.5"/><text x="505" y="2874.498" fill="#000" font-family="sans-serif" font-size="12" lengthAdjust="spacingAndGlyphs" textLength="200">3.回顾上一周的日程表（大约5分钟）</text><path fill="none" d="M445,2870.3438 L455,2870.3438 C470,2870.3438 470,2870.3438 485,2870.3438 L495,2870.3438" style="stroke:#a80036;stroke-width:1"/><rect style="stroke:#a80036;stroke-width:1.5" width="384" height="33.969" x="495" y="2907.328" fill="#FEFECE" filter="url(#f1mugqfwkwwqdp)" rx="12.5" ry="12.5"/><text x="505" y="2928.467" fill="#000" font-family="sans-serif" font-size="12" lengthAdjust="spacingAndGlyphs" textLength="364">4.回顾任务清单:处理完成的，保证上面都是尚未完成的、最新的任务</text><path fill="none" d="M445,2870.3438 L455,2870.3438 C470,2870.3438 470,2924.3125 485,2924.3125 L495,2924.3125" style="stroke:#a80036;stroke-width:1"/><rect style="stroke:#a80036;stroke-width:1.5" width="248" height="33.969" x="495" y="2961.297" fill="#FEFECE" filter="url(#f1mugqfwkwwqdp)" rx="12.5" ry="12.5"/><text x="505" y="2982.436" fill="#000" font-family="sans-serif" font-size="12" lengthAdjust="spacingAndGlyphs" textLength="228">5.设定下周的短期目标和放置你的“大石块”</text><path fill="none" d="M445,2870.3438 L455,2870.3438 C470,2870.3438 470,2978.2813 485,2978.2813 L495,2978.2813" style="stroke:#a80036;stroke-width:1"/><path fill="none" d="M351,2762.4063 L361,2762.4063 C376,2762.4063 376,2870.3438 391,2870.3438 L401,2870.3438" style="stroke:#a80036;stroke-width:1"/><path fill="none" d="M233,2020.3359 L243,2020.3359 C258,2020.3359 258,2762.4063 273,2762.4063 L283,2762.4063" style="stroke:#a80036;stroke-width:1"/><rect style="stroke:#a80036;stroke-width:1.5" width="68" height="33.969" x="283" y="3123.203" fill="#FEFECE" filter="url(#f1mugqfwkwwqdp)" rx="12.5" ry="12.5"/><text x="293" y="3144.342" fill="#000" font-family="sans-serif" font-size="12" lengthAdjust="spacingAndGlyphs" textLength="48">八、简化</text><rect style="stroke:#a80036;stroke-width:1.5" width="308" height="33.969" x="401" y="3015.266" fill="#FEFECE" filter="url(#f1mugqfwkwwqdp)" rx="12.5" ry="12.5"/><text x="411" y="3036.404" fill="#000" font-family="sans-serif" font-size="12" lengthAdjust="spacingAndGlyphs" textLength="288">好习惯：简化——减少你的任务清单，只留下最必要的</text><path fill="none" d="M351,3140.1875 L361,3140.1875 C376,3140.1875 376,3032.25 391,3032.25 L401,3032.25" style="stroke:#a80036;stroke-width:1"/><rect style="stroke:#a80036;stroke-width:1.5" width="44" height="33.969" x="401" y="3150.188" fill="#FEFECE" filter="url(#f1mugqfwkwwqdp)" rx="12.5" ry="12.5"/><text x="411" y="3171.326" fill="#000" font-family="sans-serif" font-size="12" lengthAdjust="spacingAndGlyphs" textLength="24">步骤</text><rect style="stroke:#a80036;stroke-width:1.5" width="104" height="33.969" x="495" y="3069.234" fill="#FEFECE" filter="url(#f1mugqfwkwwqdp)" rx="12.5" ry="12.5"/><text x="505" y="3090.373" fill="#000" font-family="sans-serif" font-size="12" lengthAdjust="spacingAndGlyphs" textLength="84">1.清除，再清除</text><path fill="none" d="M445,3167.1719 L455,3167.1719 C470,3167.1719 470,3086.2188 485,3086.2188 L495,3086.2188" style="stroke:#a80036;stroke-width:1"/><rect style="stroke:#a80036;stroke-width:1.5" width="128" height="33.969" x="495" y="3123.203" fill="#FEFECE" filter="url(#f1mugqfwkwwqdp)" rx="12.5" ry="12.5"/><text x="505" y="3144.342" fill="#000" font-family="sans-serif" font-size="12" lengthAdjust="spacingAndGlyphs" textLength="108">2.什么才是最重要的</text><path fill="none" d="M445,3167.1719 L455,3167.1719 C470,3167.1719 470,3140.1875 485,3140.1875 L495,3140.1875" style="stroke:#a80036;stroke-width:1"/><rect style="stroke:#a80036;stroke-width:1.5" width="216" height="33.969" x="495" y="3177.172" fill="#FEFECE" filter="url(#f1mugqfwkwwqdp)" rx="12.5" ry="12.5"/><text x="505" y="3198.311" fill="#000" font-family="sans-serif" font-size="12" lengthAdjust="spacingAndGlyphs" textLength="196">3.每周回顾,清除那些掉不必要的任务</text><path fill="none" d="M445,3167.1719 L455,3167.1719 C470,3167.1719 470,3194.1563 485,3194.1563 L495,3194.1563" style="stroke:#a80036;stroke-width:1"/><rect style="stroke:#a80036;stroke-width:1.5" width="128" height="33.969" x="495" y="3231.141" fill="#FEFECE" filter="url(#f1mugqfwkwwqdp)" rx="12.5" ry="12.5"/><text x="505" y="3252.279" fill="#000" font-family="sans-serif" font-size="12" lengthAdjust="spacingAndGlyphs" textLength="108">4.把小事放在一起做</text><path fill="none" d="M445,3167.1719 L455,3167.1719 C470,3167.1719 470,3248.125 485,3248.125 L495,3248.125" style="stroke:#a80036;stroke-width:1"/><path fill="none" d="M351,3140.1875 L361,3140.1875 C376,3140.1875 376,3167.1719 391,3167.1719 L401,3167.1719" style="stroke:#a80036;stroke-width:1"/><path fill="none" d="M233,2020.3359 L243,2020.3359 C258,2020.3359 258,3140.1875 273,3140.1875 L283,3140.1875" style="stroke:#a80036;stroke-width:1"/><rect style="stroke:#a80036;stroke-width:1.5" width="68" height="33.969" x="283" y="3474" fill="#FEFECE" filter="url(#f1mugqfwkwwqdp)" rx="12.5" ry="12.5"/><text x="293" y="3495.139" fill="#000" font-family="sans-serif" font-size="12" lengthAdjust="spacingAndGlyphs" textLength="48">九、常规</text><rect style="stroke:#a80036;stroke-width:1.5" width="232" height="33.969" x="401" y="3285.109" fill="#FEFECE" filter="url(#f1mugqfwkwwqdp)" rx="12.5" ry="12.5"/><text x="411" y="3306.248" fill="#000" font-family="sans-serif" font-size="12" lengthAdjust="spacingAndGlyphs" textLength="212">好习惯：常规 —— 设定每周、每日例程</text><path fill="none" d="M351,3490.9844 L361,3490.9844 C376,3490.9844 376,3302.0938 391,3302.0938 L401,3302.0938" style="stroke:#a80036;stroke-width:1"/><rect style="stroke:#a80036;stroke-width:1.5" width="44" height="33.969" x="401" y="3500.984" fill="#FEFECE" filter="url(#f1mugqfwkwwqdp)" rx="12.5" ry="12.5"/><text x="411" y="3522.123" fill="#000" font-family="sans-serif" font-size="12" lengthAdjust="spacingAndGlyphs" textLength="24">步骤</text><rect style="stroke:#a80036;stroke-width:1.5" width="368" height="33.969" x="495" y="3339.078" fill="#FEFECE" filter="url(#f1mugqfwkwwqdp)" rx="12.5" ry="12.5"/><text x="505" y="3360.217" fill="#000" font-family="sans-serif" font-size="12" lengthAdjust="spacingAndGlyphs" textLength="348">1.挑出那些规律性、周期性必做的事情，整理成为每周、每日例程</text><path fill="none" d="M445,3517.9688 L455,3517.9688 C470,3517.9688 470,3356.0625 485,3356.0625 L495,3356.0625" style="stroke:#a80036;stroke-width:1"/><rect style="stroke:#a80036;stroke-width:1.5" width="80" height="33.969" x="495" y="3474" fill="#FEFECE" filter="url(#f1mugqfwkwwqdp)" rx="12.5" ry="12.5"/><text x="505" y="3495.139" fill="#000" font-family="sans-serif" font-size="12" lengthAdjust="spacingAndGlyphs" textLength="60">2.每日清单</text><rect style="stroke:#a80036;stroke-width:1.5" width="314" height="33.969" x="625" y="3393.047" fill="#FEFECE" filter="url(#f1mugqfwkwwqdp)" rx="12.5" ry="12.5"/><text x="635" y="3414.186" fill="#000" font-family="sans-serif" font-size="12" lengthAdjust="spacingAndGlyphs" textLength="294">2.1设定一份早上的例程(可以把在家的和在工作的分开)</text><path fill="none" d="M575,3490.9844 L585,3490.9844 C600,3490.9844 600,3410.0313 615,3410.0313 L625,3410.0313" style="stroke:#a80036;stroke-width:1"/><rect style="stroke:#a80036;stroke-width:1.5" width="314" height="33.969" x="625" y="3447.016" fill="#FEFECE" filter="url(#f1mugqfwkwwqdp)" rx="12.5" ry="12.5"/><text x="635" y="3468.154" fill="#000" font-family="sans-serif" font-size="12" lengthAdjust="spacingAndGlyphs" textLength="294">2.2一份一天结束之际的例程(工作结束的和一天结束的)</text><path fill="none" d="M575,3490.9844 L585,3490.9844 C600,3490.9844 600,3464 615,3464 L625,3464" style="stroke:#a80036;stroke-width:1"/><rect style="stroke:#a80036;stroke-width:1.5" width="184" height="33.969" x="625" y="3500.984" fill="#FEFECE" filter="url(#f1mugqfwkwwqdp)" rx="12.5" ry="12.5"/><text x="635" y="3522.123" fill="#000" font-family="sans-serif" font-size="12" lengthAdjust="spacingAndGlyphs" textLength="164">2.3一份要完成的最重要的任务</text><path fill="none" d="M575,3490.9844 L585,3490.9844 C600,3490.9844 600,3517.9688 615,3517.9688 L625,3517.9688" style="stroke:#a80036;stroke-width:1"/><rect style="stroke:#a80036;stroke-width:1.5" width="124" height="33.969" x="625" y="3554.953" fill="#FEFECE" filter="url(#f1mugqfwkwwqdp)" rx="12.5" ry="12.5"/><text x="635" y="3576.092" fill="#000" font-family="sans-serif" font-size="12" lengthAdjust="spacingAndGlyphs" textLength="104">2.4清空你的收件箱</text><path fill="none" d="M575,3490.9844 L585,3490.9844 C600,3490.9844 600,3571.9375 615,3571.9375 L625,3571.9375" style="stroke:#a80036;stroke-width:1"/><path fill="none" d="M445,3517.9688 L455,3517.9688 C470,3517.9688 470,3490.9844 485,3490.9844 L495,3490.9844" style="stroke:#a80036;stroke-width:1"/><rect style="stroke:#a80036;stroke-width:1.5" width="224" height="33.969" x="495" y="3635.906" fill="#FEFECE" filter="url(#f1mugqfwkwwqdp)" rx="12.5" ry="12.5"/><text x="505" y="3657.045" fill="#000" font-family="sans-serif" font-size="12" lengthAdjust="spacingAndGlyphs" textLength="204">3.每周清单（每周你会做几次的事情）</text><rect style="stroke:#a80036;stroke-width:1.5" width="88" height="33.969" x="769" y="3608.922" fill="#FEFECE" filter="url(#f1mugqfwkwwqdp)" rx="12.5" ry="12.5"/><text x="779" y="3630.061" fill="#000" font-family="sans-serif" font-size="12" lengthAdjust="spacingAndGlyphs" textLength="68">3.1每周回顾</text><path fill="none" d="M719,3652.8906 L729,3652.8906 C744,3652.8906 744,3625.9063 759,3625.9063 L769,3625.9063" style="stroke:#a80036;stroke-width:1"/><rect style="stroke:#a80036;stroke-width:1.5" width="64" height="33.969" x="769" y="3662.891" fill="#FEFECE" filter="url(#f1mugqfwkwwqdp)" rx="12.5" ry="12.5"/><text x="779" y="3684.029" fill="#000" font-family="sans-serif" font-size="12" lengthAdjust="spacingAndGlyphs" textLength="44">3.2游玩</text><path fill="none" d="M719,3652.8906 L729,3652.8906 C744,3652.8906 744,3679.875 759,3679.875 L769,3679.875" style="stroke:#a80036;stroke-width:1"/><path fill="none" d="M445,3517.9688 L455,3517.9688 C470,3517.9688 470,3652.8906 485,3652.8906 L495,3652.8906" style="stroke:#a80036;stroke-width:1"/><path fill="none" d="M351,3490.9844 L361,3490.9844 C376,3490.9844 376,3517.9688 391,3517.9688 L401,3517.9688" style="stroke:#a80036;stroke-width:1"/><path fill="none" d="M233,2020.3359 L243,2020.3359 C258,2020.3359 258,3490.9844 273,3490.9844 L283,3490.9844" style="stroke:#a80036;stroke-width:1"/><rect style="stroke:#a80036;stroke-width:1.5" width="68" height="33.969" x="283" y="3851.781" fill="#FEFECE" filter="url(#f1mugqfwkwwqdp)" rx="12.5" ry="12.5"/><text x="293" y="3872.92" fill="#000" font-family="sans-serif" font-size="12" lengthAdjust="spacingAndGlyphs" textLength="48">十、激情</text><rect style="stroke:#a80036;stroke-width:1.5" width="232" height="33.969" x="401" y="3716.859" fill="#FEFECE" filter="url(#f1mugqfwkwwqdp)" rx="12.5" ry="12.5"/><text x="411" y="3737.998" fill="#000" font-family="sans-serif" font-size="12" lengthAdjust="spacingAndGlyphs" textLength="212">好习惯：激情 —— 做你充满梦想的事情</text><path fill="none" d="M351,3868.7656 L361,3868.7656 C376,3868.7656 376,3733.8438 391,3733.8438 L401,3733.8438" style="stroke:#a80036;stroke-width:1"/><rect style="stroke:#a80036;stroke-width:1.5" width="144" height="33.969" x="401" y="3878.766" fill="#FEFECE" filter="url(#f1mugqfwkwwqdp)" rx="12.5" ry="12.5"/><text x="411" y="3899.904" fill="#000" font-family="sans-serif" font-size="12" lengthAdjust="spacingAndGlyphs" textLength="124">想想自己到底想做什么:</text><rect style="stroke:#a80036;stroke-width:1.5" width="56" height="33.969" x="595" y="3770.828" fill="#FEFECE" filter="url(#f1mugqfwkwwqdp)" rx="12.5" ry="12.5"/><text x="605" y="3791.967" fill="#000" font-family="sans-serif" font-size="12" lengthAdjust="spacingAndGlyphs" textLength="36">1.调查</text><path fill="none" d="M545,3895.75 L555,3895.75 C570,3895.75 570,3787.8125 585,3787.8125 L595,3787.8125" style="stroke:#a80036;stroke-width:1"/><rect style="stroke:#a80036;stroke-width:1.5" width="92" height="33.969" x="595" y="3824.797" fill="#FEFECE" filter="url(#f1mugqfwkwwqdp)" rx="12.5" ry="12.5"/><text x="605" y="3845.936" fill="#000" font-family="sans-serif" font-size="12" lengthAdjust="spacingAndGlyphs" textLength="72">2.找出绊脚石</text><path fill="none" d="M545,3895.75 L555,3895.75 C570,3895.75 570,3841.7813 585,3841.7813 L595,3841.7813" style="stroke:#a80036;stroke-width:1"/><rect style="stroke:#a80036;stroke-width:1.5" width="80" height="33.969" x="595" y="3878.766" fill="#FEFECE" filter="url(#f1mugqfwkwwqdp)" rx="12.5" ry="12.5"/><text x="605" y="3899.904" fill="#000" font-family="sans-serif" font-size="12" lengthAdjust="spacingAndGlyphs" textLength="60">3.设定计划</text><path fill="none" d="M545,3895.75 L555,3895.75 C570,3895.75 570,3895.75 585,3895.75 L595,3895.75" style="stroke:#a80036;stroke-width:1"/><rect style="stroke:#a80036;stroke-width:1.5" width="80" height="33.969" x="595" y="3932.734" fill="#FEFECE" filter="url(#f1mugqfwkwwqdp)" rx="12.5" ry="12.5"/><text x="605" y="3953.873" fill="#000" font-family="sans-serif" font-size="12" lengthAdjust="spacingAndGlyphs" textLength="60">4.开始行动</text><path fill="none" d="M545,3895.75 L555,3895.75 C570,3895.75 570,3949.7188 585,3949.7188 L595,3949.7188" style="stroke:#a80036;stroke-width:1"/><rect style="stroke:#a80036;stroke-width:1.5" width="80" height="33.969" x="595" y="3986.703" fill="#FEFECE" filter="url(#f1mugqfwkwwqdp)" rx="12.5" ry="12.5"/><text x="605" y="4007.842" fill="#000" font-family="sans-serif" font-size="12" lengthAdjust="spacingAndGlyphs" textLength="60">5.坚持不懈</text><path fill="none" d="M545,3895.75 L555,3895.75 C570,3895.75 570,4003.6875 585,4003.6875 L595,4003.6875" style="stroke:#a80036;stroke-width:1"/><path fill="none" d="M351,3868.7656 L361,3868.7656 C376,3868.7656 376,3895.75 391,3895.75 L401,3895.75" style="stroke:#a80036;stroke-width:1"/><path fill="none" d="M233,2020.3359 L243,2020.3359 C258,2020.3359 258,3868.7656 273,3868.7656 L283,3868.7656" style="stroke:#a80036;stroke-width:1"/><path fill="none" d="M103,2020.3359 L113,2020.3359 C128,2020.3359 128,2020.3359 143,2020.3359 L153,2020.3359" style="stroke:#a80036;stroke-width:1"/></g></svg>