<?xml version="1.0" encoding="UTF-8" standalone="no"?><svg xmlns="http://www.w3.org/2000/svg" xmlns:xlink="http://www.w3.org/1999/xlink" contentScriptType="application/ecmascript" contentStyleType="text/css" height="982px" preserveAspectRatio="none" style="width:755px;height:982px;" version="1.1" viewBox="0 0 755 982" width="755px" zoomAndPan="magnify"><defs><filter height="300%" id="f1sodsiv5847jk" width="300%" x="-1" y="-1"><feGaussianBlur result="blurOut" stdDeviation="2.0"/><feColorMatrix in="blurOut" result="blurOut2" type="matrix" values="0 0 0 0 0 0 0 0 0 0 0 0 0 0 0 0 0 0 .4 0"/><feOffset dx="4.0" dy="4.0" in="blurOut2" result="blurOut3"/><feBlend in="SourceGraphic" in2="blurOut3" mode="normal"/></filter></defs><g><rect fill="#FEFECE" filter="url(#f1sodsiv5847jk)" height="33.9688" rx="12.5" ry="12.5" style="stroke: #A80036; stroke-width: 1.5;" width="116" x="10" y="478.7344"/><text fill="#000000" font-family="sans-serif" font-size="12" lengthAdjust="spacingAndGlyphs" textLength="96" x="20" y="499.873">为什么阅读源码？</text><rect fill="#FEFECE" filter="url(#f1sodsiv5847jk)" height="33.9688" rx="12.5" ry="12.5" style="stroke: #A80036; stroke-width: 1.5;" width="140" x="176" y="181.9063"/><text fill="#000000" font-family="sans-serif" font-size="12" lengthAdjust="spacingAndGlyphs" textLength="120" x="186" y="203.0449">写代码和写作进行类比</text><rect fill="#FEFECE" filter="url(#f1sodsiv5847jk)" height="33.9688" rx="12.5" ry="12.5" style="stroke: #A80036; stroke-width: 1.5;" width="80" x="366" y="73.9688"/><text fill="#000000" font-family="sans-serif" font-size="12" lengthAdjust="spacingAndGlyphs" textLength="60" x="376" y="95.1074">写作的过程</text><rect fill="#FEFECE" filter="url(#f1sodsiv5847jk)" height="33.9688" rx="12.5" ry="12.5" style="stroke: #A80036; stroke-width: 1.5;" width="92" x="496" y="20"/><text fill="#000000" font-family="sans-serif" font-size="12" lengthAdjust="spacingAndGlyphs" textLength="72" x="506" y="41.1387">大量基础阅读</text><path d="M446,90.9531 L456,90.9531 C471,90.9531 471,36.9844 486,36.9844 L496,36.9844 " fill="none" style="stroke: #A80036; stroke-width: 1.0;"/><rect fill="#FEFECE" filter="url(#f1sodsiv5847jk)" height="33.9688" rx="12.5" ry="12.5" style="stroke: #A80036; stroke-width: 1.5;" width="188" x="496" y="73.9688"/><text fill="#000000" font-family="sans-serif" font-size="12" lengthAdjust="spacingAndGlyphs" textLength="168" x="506" y="95.1074">阅读各种不同层次的名家的作品</text><path d="M446,90.9531 L456,90.9531 C471,90.9531 471,90.9531 486,90.9531 L496,90.9531 " fill="none" style="stroke: #A80036; stroke-width: 1.0;"/><rect fill="#FEFECE" filter="url(#f1sodsiv5847jk)" height="33.9688" rx="12.5" ry="12.5" style="stroke: #A80036; stroke-width: 1.5;" width="128" x="496" y="127.9375"/><text fill="#000000" font-family="sans-serif" font-size="12" lengthAdjust="spacingAndGlyphs" textLength="108" x="506" y="149.0762">各种各样的写作训练</text><path d="M446,90.9531 L456,90.9531 C471,90.9531 471,144.9219 486,144.9219 L496,144.9219 " fill="none" style="stroke: #A80036; stroke-width: 1.0;"/><path d="M316,198.8906 L326,198.8906 C341,198.8906 341,90.9531 356,90.9531 L366,90.9531 " fill="none" style="stroke: #A80036; stroke-width: 1.0;"/><rect fill="#FEFECE" filter="url(#f1sodsiv5847jk)" height="33.9688" rx="12.5" ry="12.5" style="stroke: #A80036; stroke-width: 1.5;" width="68" x="366" y="262.8594"/><text fill="#000000" font-family="sans-serif" font-size="12" lengthAdjust="spacingAndGlyphs" textLength="48" x="376" y="283.998">语文学习</text><rect fill="#FEFECE" filter="url(#f1sodsiv5847jk)" height="33.9688" rx="12.5" ry="12.5" style="stroke: #A80036; stroke-width: 1.5;" width="212" x="484" y="181.9063"/><text fill="#000000" font-family="sans-serif" font-size="12" lengthAdjust="spacingAndGlyphs" textLength="192" x="494" y="203.0449">单课本我们要读十二册，数百篇文章</text><path d="M434,279.8438 L444,279.8438 C459,279.8438 459,198.8906 474,198.8906 L484,198.8906 " fill="none" style="stroke: #A80036; stroke-width: 1.0;"/><rect fill="#FEFECE" filter="url(#f1sodsiv5847jk)" height="33.9688" rx="12.5" ry="12.5" style="stroke: #A80036; stroke-width: 1.5;" width="188" x="484" y="235.875"/><text fill="#000000" font-family="sans-serif" font-size="12" lengthAdjust="spacingAndGlyphs" textLength="168" x="494" y="257.0137">这些是精读的（有些还要背诵）</text><path d="M434,279.8438 L444,279.8438 C459,279.8438 459,252.8594 474,252.8594 L484,252.8594 " fill="none" style="stroke: #A80036; stroke-width: 1.0;"/><rect fill="#FEFECE" filter="url(#f1sodsiv5847jk)" height="33.9688" rx="12.5" ry="12.5" style="stroke: #A80036; stroke-width: 1.5;" width="260" x="484" y="289.8438"/><text fill="#000000" font-family="sans-serif" font-size="12" lengthAdjust="spacingAndGlyphs" textLength="240" x="494" y="310.9824">需要总结中心思想，段落大意，归纳论点论据</text><path d="M434,279.8438 L444,279.8438 C459,279.8438 459,306.8281 474,306.8281 L484,306.8281 " fill="none" style="stroke: #A80036; stroke-width: 1.0;"/><rect fill="#FEFECE" filter="url(#f1sodsiv5847jk)" height="33.9688" rx="12.5" ry="12.5" style="stroke: #A80036; stroke-width: 1.5;" width="200" x="484" y="343.8125"/><text fill="#000000" font-family="sans-serif" font-size="12" lengthAdjust="spacingAndGlyphs" textLength="180" x="494" y="364.9512">最终模仿那些文章写出自己的文章</text><path d="M434,279.8438 L444,279.8438 C459,279.8438 459,360.7969 474,360.7969 L484,360.7969 " fill="none" style="stroke: #A80036; stroke-width: 1.0;"/><path d="M316,198.8906 L326,198.8906 C341,198.8906 341,279.8438 356,279.8438 L366,279.8438 " fill="none" style="stroke: #A80036; stroke-width: 1.0;"/><path d="M126,495.7188 L136,495.7188 C151,495.7188 151,198.8906 166,198.8906 L176,198.8906 " fill="none" style="stroke: #A80036; stroke-width: 1.0;"/><rect fill="#FEFECE" filter="url(#f1sodsiv5847jk)" height="33.9688" rx="12.5" ry="12.5" style="stroke: #A80036; stroke-width: 1.5;" width="80" x="176" y="586.6719"/><text fill="#000000" font-family="sans-serif" font-size="12" lengthAdjust="spacingAndGlyphs" textLength="60" x="186" y="607.8105">读书的功用</text><rect fill="#FEFECE" filter="url(#f1sodsiv5847jk)" height="33.9688" rx="12.5" ry="12.5" style="stroke: #A80036; stroke-width: 1.5;" width="175" x="306" y="397.7813"/><text fill="#000000" font-family="sans-serif" font-size="12" lengthAdjust="spacingAndGlyphs" textLength="155" x="316" y="418.9199">1.累积素材（information）</text><rect fill="#FEFECE" filter="url(#f1sodsiv5847jk)" height="33.9688" rx="12.5" ry="12.5" style="stroke: #A80036; stroke-width: 1.5;" width="104" x="531" y="397.7813"/><text fill="#000000" font-family="sans-serif" font-size="12" lengthAdjust="spacingAndGlyphs" textLength="84" x="541" y="418.9199">累积素材是基础</text><path d="M481,414.7656 L491,414.7656 C506,414.7656 506,414.7656 521,414.7656 L531,414.7656 " fill="none" style="stroke: #A80036; stroke-width: 1.0;"/><path d="M256,603.6563 L266,603.6563 C281,603.6563 281,414.7656 296,414.7656 L306,414.7656 " fill="none" style="stroke: #A80036; stroke-width: 1.0;"/><rect fill="#FEFECE" filter="url(#f1sodsiv5847jk)" height="33.9688" rx="12.5" ry="12.5" style="stroke: #A80036; stroke-width: 1.5;" width="80" x="306" y="478.7344"/><text fill="#000000" font-family="sans-serif" font-size="12" lengthAdjust="spacingAndGlyphs" textLength="60" x="316" y="499.873">2.开拓思路</text><rect fill="#FEFECE" filter="url(#f1sodsiv5847jk)" height="33.9688" rx="12.5" ry="12.5" style="stroke: #A80036; stroke-width: 1.5;" width="200" x="436" y="451.75"/><text fill="#000000" font-family="sans-serif" font-size="12" lengthAdjust="spacingAndGlyphs" textLength="180" x="446" y="472.8887">启发出来的思路将这些素材串成线</text><path d="M386,495.7188 L396,495.7188 C411,495.7188 411,468.7344 426,468.7344 L436,468.7344 " fill="none" style="stroke: #A80036; stroke-width: 1.0;"/><rect fill="#FEFECE" filter="url(#f1sodsiv5847jk)" height="33.9688" rx="12.5" ry="12.5" style="stroke: #A80036; stroke-width: 1.5;" width="195" x="436" y="505.7188"/><text fill="#000000" font-family="sans-serif" font-size="12" lengthAdjust="spacingAndGlyphs" textLength="175" x="446" y="526.8574">这就形成了知识（knowledge）</text><path d="M386,495.7188 L396,495.7188 C411,495.7188 411,522.7031 426,522.7031 L436,522.7031 " fill="none" style="stroke: #A80036; stroke-width: 1.0;"/><path d="M256,603.6563 L266,603.6563 C281,603.6563 281,495.7188 296,495.7188 L306,495.7188 " fill="none" style="stroke: #A80036; stroke-width: 1.0;"/><rect fill="#FEFECE" filter="url(#f1sodsiv5847jk)" height="33.9688" rx="12.5" ry="12.5" style="stroke: #A80036; stroke-width: 1.5;" width="56" x="306" y="586.6719"/><text fill="#000000" font-family="sans-serif" font-size="12" lengthAdjust="spacingAndGlyphs" textLength="36" x="316" y="607.8105">3.智慧</text><rect fill="#FEFECE" filter="url(#f1sodsiv5847jk)" height="33.9688" rx="12.5" ry="12.5" style="stroke: #A80036; stroke-width: 1.5;" width="260" x="412" y="559.6875"/><text fill="#000000" font-family="sans-serif" font-size="12" lengthAdjust="spacingAndGlyphs" textLength="240" x="422" y="580.8262">读得越多，越勤于思考的人，知识也就越丰富</text><path d="M362,603.6563 L372,603.6563 C387,603.6563 387,576.6719 402,576.6719 L412,576.6719 " fill="none" style="stroke: #A80036; stroke-width: 1.0;"/><rect fill="#FEFECE" filter="url(#f1sodsiv5847jk)" height="33.9688" rx="12.5" ry="12.5" style="stroke: #A80036; stroke-width: 1.5;" width="148" x="412" y="613.6563"/><text fill="#000000" font-family="sans-serif" font-size="12" lengthAdjust="spacingAndGlyphs" textLength="128" x="422" y="634.7949">知识的融会贯通=&gt;智慧</text><path d="M362,603.6563 L372,603.6563 C387,603.6563 387,630.6406 402,630.6406 L412,630.6406 " fill="none" style="stroke: #A80036; stroke-width: 1.0;"/><path d="M256,603.6563 L266,603.6563 C281,603.6563 281,603.6563 296,603.6563 L306,603.6563 " fill="none" style="stroke: #A80036; stroke-width: 1.0;"/><rect fill="#FEFECE" filter="url(#f1sodsiv5847jk)" height="33.9688" rx="12.5" ry="12.5" style="stroke: #A80036; stroke-width: 1.5;" width="56" x="306" y="721.5938"/><text fill="#000000" font-family="sans-serif" font-size="12" lengthAdjust="spacingAndGlyphs" textLength="36" x="316" y="742.7324">4.总结</text><rect fill="#FEFECE" filter="url(#f1sodsiv5847jk)" height="33.9688" rx="12.5" ry="12.5" style="stroke: #A80036; stroke-width: 1.5;" width="248" x="412" y="667.625"/><text fill="#000000" font-family="sans-serif" font-size="12" lengthAdjust="spacingAndGlyphs" textLength="228" x="422" y="688.7637">information -&gt; knowledge -&gt; wisdom</text><path d="M362,738.5781 L372,738.5781 C387,738.5781 387,684.6094 402,684.6094 L412,684.6094 " fill="none" style="stroke: #A80036; stroke-width: 1.0;"/><rect fill="#FEFECE" filter="url(#f1sodsiv5847jk)" height="33.9688" rx="12.5" ry="12.5" style="stroke: #A80036; stroke-width: 1.5;" width="212" x="412" y="721.5938"/><text fill="#000000" font-family="sans-serif" font-size="12" lengthAdjust="spacingAndGlyphs" textLength="192" x="422" y="742.7324">是个长期的累积，并非一朝一夕之功</text><path d="M362,738.5781 L372,738.5781 C387,738.5781 387,738.5781 402,738.5781 L412,738.5781 " fill="none" style="stroke: #A80036; stroke-width: 1.0;"/><rect fill="#FEFECE" filter="url(#f1sodsiv5847jk)" height="33.9688" rx="12.5" ry="12.5" style="stroke: #A80036; stroke-width: 1.5;" width="296" x="412" y="775.5625"/><text fill="#000000" font-family="sans-serif" font-size="12" lengthAdjust="spacingAndGlyphs" textLength="276" x="422" y="796.7012">阅读名家的优秀的代码最终是形成自己写代码的思路</text><path d="M362,738.5781 L372,738.5781 C387,738.5781 387,792.5469 402,792.5469 L412,792.5469 " fill="none" style="stroke: #A80036; stroke-width: 1.0;"/><path d="M256,603.6563 L266,603.6563 C281,603.6563 281,738.5781 296,738.5781 L306,738.5781 " fill="none" style="stroke: #A80036; stroke-width: 1.0;"/><path d="M126,495.7188 L136,495.7188 C151,495.7188 151,603.6563 166,603.6563 L176,603.6563 " fill="none" style="stroke: #A80036; stroke-width: 1.0;"/><rect fill="#FEFECE" filter="url(#f1sodsiv5847jk)" height="33.9688" rx="12.5" ry="12.5" style="stroke: #A80036; stroke-width: 1.5;" width="152" x="176" y="883.5"/><text fill="#000000" font-family="sans-serif" font-size="12" lengthAdjust="spacingAndGlyphs" textLength="132" x="186" y="904.6387">忽略大量阅读代码的害处</text><rect fill="#FEFECE" filter="url(#f1sodsiv5847jk)" height="33.9688" rx="12.5" ry="12.5" style="stroke: #A80036; stroke-width: 1.5;" width="320" x="378" y="829.5313"/><text fill="#000000" font-family="sans-serif" font-size="12" lengthAdjust="spacingAndGlyphs" textLength="300" x="388" y="850.6699">1.写代码的基础是不牢靠的，打怪升级的过程也是最慢的</text><path d="M328,900.4844 L338,900.4844 C353,900.4844 353,846.5156 368,846.5156 L378,846.5156 " fill="none" style="stroke: #A80036; stroke-width: 1.0;"/><rect fill="#FEFECE" filter="url(#f1sodsiv5847jk)" height="33.9688" rx="12.5" ry="12.5" style="stroke: #A80036; stroke-width: 1.5;" width="299" x="378" y="883.5"/><text fill="#000000" font-family="sans-serif" font-size="12" lengthAdjust="spacingAndGlyphs" textLength="279" x="388" y="904.6387">2.很容易养成 stackoverflow driven 的写代码习惯</text><path d="M328,900.4844 L338,900.4844 C353,900.4844 353,900.4844 368,900.4844 L378,900.4844 " fill="none" style="stroke: #A80036; stroke-width: 1.0;"/><rect fill="#FEFECE" filter="url(#f1sodsiv5847jk)" height="33.9688" rx="12.5" ry="12.5" style="stroke: #A80036; stroke-width: 1.5;" width="332" x="378" y="937.4688"/><text fill="#000000" font-family="sans-serif" font-size="12" lengthAdjust="spacingAndGlyphs" textLength="312" x="388" y="958.6074">3.你周围最强的那个工程师的开发水平的上限就是你的上限</text><path d="M328,900.4844 L338,900.4844 C353,900.4844 353,954.4531 368,954.4531 L378,954.4531 " fill="none" style="stroke: #A80036; stroke-width: 1.0;"/><path d="M126,495.7188 L136,495.7188 C151,495.7188 151,900.4844 166,900.4844 L176,900.4844 " fill="none" style="stroke: #A80036; stroke-width: 1.0;"/><!--
--></g></svg>