<svg xmlns="http://www.w3.org/2000/svg" xmlns:xlink="http://www.w3.org/1999/xlink" width="758" height="766" contentScriptType="application/ecmascript" contentStyleType="text/css" style="width:758px;height:766px" preserveAspectRatio="none" version="1.1" viewBox="0 0 758 766" zoomAndPan="magnify"><defs><filter id="fu9auhrv4ser2" width="300%" height="300%" x="-1" y="-1"><feGaussianBlur result="blurOut" stdDeviation="2"/><feColorMatrix in="blurOut" result="blurOut2" type="matrix" values="0 0 0 0 0 0 0 0 0 0 0 0 0 0 0 0 0 0 .4 0"/><feOffset dx="4" dy="4" in="blurOut2" result="blurOut3"/><feBlend in="SourceGraphic" in2="blurOut3" mode="normal"/></filter></defs><g><rect style="stroke:#a80036;stroke-width:1.5" width="92" height="33.969" x="10" y="370.797" fill="#FEFECE" filter="url(#fu9auhrv4ser2)" rx="12.5" ry="12.5"/><text x="20" y="391.935" fill="#000" font-family="sans-serif" font-size="12" lengthAdjust="spacingAndGlyphs" textLength="72">容器基本概念</text><rect style="stroke:#a80036;stroke-width:1.5" width="78" height="33.969" x="152" y="289.844" fill="#FEFECE" filter="url(#fu9auhrv4ser2)" rx="12.5" ry="12.5"/><text x="162" y="310.982" fill="#000" font-family="sans-serif" font-size="12" lengthAdjust="spacingAndGlyphs" textLength="58">容器&amp;镜像</text><rect style="stroke:#a80036;stroke-width:1.5" width="68" height="33.969" x="280" y="154.922" fill="#FEFECE" filter="url(#fu9auhrv4ser2)" rx="12.5" ry="12.5"/><text x="290" y="176.06" fill="#000" font-family="sans-serif" font-size="12" lengthAdjust="spacingAndGlyphs" textLength="48">容器定义</text><rect style="stroke:#a80036;stroke-width:1.5" width="68" height="33.969" x="398" y="46.984" fill="#FEFECE" filter="url(#fu9auhrv4ser2)" rx="12.5" ry="12.5"/><text x="408" y="68.123" fill="#000" font-family="sans-serif" font-size="12" lengthAdjust="spacingAndGlyphs" textLength="48">视图隔离</text><rect style="stroke:#a80036;stroke-width:1.5" width="104" height="33.969" x="516" y="20" fill="#FEFECE" filter="url(#fu9auhrv4ser2)" rx="12.5" ry="12.5"/><text x="526" y="41.139" fill="#000" font-family="sans-serif" font-size="12" lengthAdjust="spacingAndGlyphs" textLength="84">能看见部分进程</text><path fill="none" d="M466,63.9688 L476,63.9688 C491,63.9688 491,36.9844 506,36.9844 L516,36.9844" style="stroke:#a80036;stroke-width:1"/><rect style="stroke:#a80036;stroke-width:1.5" width="80" height="33.969" x="516" y="73.969" fill="#FEFECE" filter="url(#fu9auhrv4ser2)" rx="12.5" ry="12.5"/><text x="526" y="95.107" fill="#000" font-family="sans-serif" font-size="12" lengthAdjust="spacingAndGlyphs" textLength="60">独立主机名</text><path fill="none" d="M466,63.9688 L476,63.9688 C491,63.9688 491,90.9531 506,90.9531 L516,90.9531" style="stroke:#a80036;stroke-width:1"/><path fill="none" d="M348,171.9063 L358,171.9063 C373,171.9063 373,63.9688 388,63.9688 L398,63.9688" style="stroke:#a80036;stroke-width:1"/><rect style="stroke:#a80036;stroke-width:1.5" width="80" height="33.969" x="398" y="154.922" fill="#FEFECE" filter="url(#fu9auhrv4ser2)" rx="12.5" ry="12.5"/><text x="408" y="176.06" fill="#000" font-family="sans-serif" font-size="12" lengthAdjust="spacingAndGlyphs" textLength="60">资源可限制</text><rect style="stroke:#a80036;stroke-width:1.5" width="104" height="33.969" x="528" y="127.938" fill="#FEFECE" filter="url(#fu9auhrv4ser2)" rx="12.5" ry="12.5"/><text x="538" y="149.076" fill="#000" font-family="sans-serif" font-size="12" lengthAdjust="spacingAndGlyphs" textLength="84">控制资源使用率</text><path fill="none" d="M478,171.9063 L488,171.9063 C503,171.9063 503,144.9219 518,144.9219 L528,144.9219" style="stroke:#a80036;stroke-width:1"/><rect style="stroke:#a80036;stroke-width:1.5" width="165" height="33.969" x="528" y="181.906" fill="#FEFECE" filter="url(#fu9auhrv4ser2)" rx="12.5" ry="12.5"/><text x="538" y="203.045" fill="#000" font-family="sans-serif" font-size="12" lengthAdjust="spacingAndGlyphs" textLength="145">如内存大小、CPU使用个数</text><path fill="none" d="M478,171.9063 L488,171.9063 C503,171.9063 503,198.8906 518,198.8906 L528,198.8906" style="stroke:#a80036;stroke-width:1"/><path fill="none" d="M348,171.9063 L358,171.9063 C373,171.9063 373,171.9063 388,171.9063 L398,171.9063" style="stroke:#a80036;stroke-width:1"/><rect style="stroke:#a80036;stroke-width:1.5" width="92" height="33.969" x="398" y="235.875" fill="#FEFECE" filter="url(#fu9auhrv4ser2)" rx="12.5" ry="12.5"/><text x="408" y="257.014" fill="#000" font-family="sans-serif" font-size="12" lengthAdjust="spacingAndGlyphs" textLength="72">独立文件系统</text><path fill="none" d="M348,171.9063 L358,171.9063 C373,171.9063 373,252.8594 388,252.8594 L398,252.8594" style="stroke:#a80036;stroke-width:1"/><rect style="stroke:#a80036;stroke-width:1.5" width="80" height="33.969" x="398" y="289.844" fill="#FEFECE" filter="url(#fu9auhrv4ser2)" rx="12.5" ry="12.5"/><text x="408" y="310.982" fill="#000" font-family="sans-serif" font-size="12" lengthAdjust="spacingAndGlyphs" textLength="60">的进程集合</text><path fill="none" d="M348,171.9063 L358,171.9063 C373,171.9063 373,306.8281 388,306.8281 L398,306.8281" style="stroke:#a80036;stroke-width:1"/><path fill="none" d="M230,306.8281 L240,306.8281 C255,306.8281 255,171.9063 270,171.9063 L280,171.9063" style="stroke:#a80036;stroke-width:1"/><rect style="stroke:#a80036;stroke-width:1.5" width="92" height="33.969" x="280" y="451.75" fill="#FEFECE" filter="url(#fu9auhrv4ser2)" rx="12.5" ry="12.5"/><text x="290" y="472.889" fill="#000" font-family="sans-serif" font-size="12" lengthAdjust="spacingAndGlyphs" textLength="72">容器镜像定义</text><rect style="stroke:#a80036;stroke-width:1.5" width="188" height="33.969" x="422" y="343.813" fill="#FEFECE" filter="url(#fu9auhrv4ser2)" rx="12.5" ry="12.5"/><text x="432" y="364.951" fill="#000" font-family="sans-serif" font-size="12" lengthAdjust="spacingAndGlyphs" textLength="168">运行容器所需的所有文件的集合</text><path fill="none" d="M372,468.7344 L382,468.7344 C397,468.7344 397,360.7969 412,360.7969 L422,360.7969" style="stroke:#a80036;stroke-width:1"/><rect style="stroke:#a80036;stroke-width:1.5" width="194" height="33.969" x="422" y="397.781" fill="#FEFECE" filter="url(#fu9auhrv4ser2)" rx="12.5" ry="12.5"/><text x="432" y="418.92" fill="#000" font-family="sans-serif" font-size="12" lengthAdjust="spacingAndGlyphs" textLength="174">Dockerfile-描述镜像的构建步骤</text><path fill="none" d="M372,468.7344 L382,468.7344 C397,468.7344 397,414.7656 412,414.7656 L422,414.7656" style="stroke:#a80036;stroke-width:1"/><rect style="stroke:#a80036;stroke-width:1.5" width="87" height="33.969" x="422" y="505.719" fill="#FEFECE" filter="url(#fu9auhrv4ser2)" rx="12.5" ry="12.5"/><text x="432" y="526.857" fill="#000" font-family="sans-serif" font-size="12" lengthAdjust="spacingAndGlyphs" textLength="67">changeset</text><rect style="stroke:#a80036;stroke-width:1.5" width="188" height="33.969" x="559" y="451.75" fill="#FEFECE" filter="url(#fu9auhrv4ser2)" rx="12.5" ry="12.5"/><text x="569" y="472.889" fill="#000" font-family="sans-serif" font-size="12" lengthAdjust="spacingAndGlyphs" textLength="168">构建步骤产生出文件系统的变化</text><path fill="none" d="M509,522.7031 L519,522.7031 C534,522.7031 534,468.7344 549,468.7344 L559,468.7344" style="stroke:#a80036;stroke-width:1"/><rect style="stroke:#a80036;stroke-width:1.5" width="132" height="33.969" x="559" y="505.719" fill="#FEFECE" filter="url(#fu9auhrv4ser2)" rx="12.5" ry="12.5"/><text x="569" y="526.857" fill="#000" font-family="sans-serif" font-size="12" lengthAdjust="spacingAndGlyphs" textLength="112">类似disk snapshot</text><path fill="none" d="M509,522.7031 L519,522.7031 C534,522.7031 534,522.7031 549,522.7031 L559,522.7031" style="stroke:#a80036;stroke-width:1"/><rect style="stroke:#a80036;stroke-width:1.5" width="176" height="33.969" x="559" y="559.688" fill="#FEFECE" filter="url(#fu9auhrv4ser2)" rx="12.5" ry="12.5"/><text x="569" y="580.826" fill="#000" font-family="sans-serif" font-size="12" lengthAdjust="spacingAndGlyphs" textLength="156">提高分发效率，减小磁盘压力</text><path fill="none" d="M509,522.7031 L519,522.7031 C534,522.7031 534,576.6719 549,576.6719 L559,576.6719" style="stroke:#a80036;stroke-width:1"/><path fill="none" d="M372,468.7344 L382,468.7344 C397,468.7344 397,522.7031 412,522.7031 L422,522.7031" style="stroke:#a80036;stroke-width:1"/><path fill="none" d="M230,306.8281 L240,306.8281 C255,306.8281 255,468.7344 270,468.7344 L280,468.7344" style="stroke:#a80036;stroke-width:1"/><path fill="none" d="M102,387.7813 L112,387.7813 C127,387.7813 127,306.8281 142,306.8281 L152,306.8281" style="stroke:#a80036;stroke-width:1"/><rect style="stroke:#a80036;stroke-width:1.5" width="104" height="33.969" x="152" y="613.656" fill="#FEFECE" filter="url(#fu9auhrv4ser2)" rx="12.5" ry="12.5"/><text x="162" y="634.795" fill="#000" font-family="sans-serif" font-size="12" lengthAdjust="spacingAndGlyphs" textLength="84">容器的生命周期</text><path fill="none" d="M102,387.7813 L112,387.7813 C127,387.7813 127,630.6406 142,630.6406 L152,630.6406" style="stroke:#a80036;stroke-width:1"/><rect style="stroke:#a80036;stroke-width:1.5" width="104" height="33.969" x="152" y="667.625" fill="#FEFECE" filter="url(#fu9auhrv4ser2)" rx="12.5" ry="12.5"/><text x="162" y="688.764" fill="#000" font-family="sans-serif" font-size="12" lengthAdjust="spacingAndGlyphs" textLength="84">容器项目的架构</text><path fill="none" d="M102,387.7813 L112,387.7813 C127,387.7813 127,684.6094 142,684.6094 L152,684.6094" style="stroke:#a80036;stroke-width:1"/><rect style="stroke:#a80036;stroke-width:1.5" width="83" height="33.969" x="152" y="721.594" fill="#FEFECE" filter="url(#fu9auhrv4ser2)" rx="12.5" ry="12.5"/><text x="162" y="742.732" fill="#000" font-family="sans-serif" font-size="12" lengthAdjust="spacingAndGlyphs" textLength="63">容器 vs VM</text><path fill="none" d="M102,387.7813 L112,387.7813 C127,387.7813 127,738.5781 142,738.5781 L152,738.5781" style="stroke:#a80036;stroke-width:1"/></g></svg>