<svg xmlns="http://www.w3.org/2000/svg" xmlns:xlink="http://www.w3.org/1999/xlink" width="865" height="1522" contentScriptType="application/ecmascript" contentStyleType="text/css" style="width:865px;height:1522px" preserveAspectRatio="none" version="1.1" viewBox="0 0 865 1522" zoomAndPan="magnify"><defs><filter id="f1dbgfbxw4bqu7" width="300%" height="300%" x="-1" y="-1"><feGaussianBlur result="blurOut" stdDeviation="2"/><feColorMatrix in="blurOut" result="blurOut2" type="matrix" values="0 0 0 0 0 0 0 0 0 0 0 0 0 0 0 0 0 0 .4 0"/><feOffset dx="4" dy="4" in="blurOut2" result="blurOut3"/><feBlend in="SourceGraphic" in2="blurOut3" mode="normal"/></filter></defs><g><rect style="stroke:#a80036;stroke-width:1.5" width="56" height="33.969" x="10" y="748.578" fill="#FEFECE" filter="url(#f1dbgfbxw4bqu7)" rx="12.5" ry="12.5"/><text x="20" y="769.717" fill="#000" font-family="sans-serif" font-size="12" lengthAdjust="spacingAndGlyphs" textLength="36">架构图</text><rect style="stroke:#a80036;stroke-width:1.5" width="44" height="33.969" x="116" y="127.938" fill="#FEFECE" filter="url(#f1dbgfbxw4bqu7)" rx="12.5" ry="12.5"/><text x="126" y="149.076" fill="#000" font-family="sans-serif" font-size="12" lengthAdjust="spacingAndGlyphs" textLength="24">定义</text><rect style="stroke:#a80036;stroke-width:1.5" width="212" height="33.969" x="210" y="20" fill="#FEFECE" filter="url(#f1dbgfbxw4bqu7)" rx="12.5" ry="12.5"/><text x="220" y="41.139" fill="#000" font-family="sans-serif" font-size="12" lengthAdjust="spacingAndGlyphs" textLength="192">为了抽象地表示软件系统的整体轮廓</text><path fill="none" d="M160,144.9219 L170,144.9219 C185,144.9219 185,36.9844 200,36.9844 L210,36.9844" style="stroke:#a80036;stroke-width:1"/><rect style="stroke:#a80036;stroke-width:1.5" width="224" height="33.969" x="210" y="73.969" fill="#FEFECE" filter="url(#f1dbgfbxw4bqu7)" rx="12.5" ry="12.5"/><text x="220" y="95.107" fill="#000" font-family="sans-serif" font-size="12" lengthAdjust="spacingAndGlyphs" textLength="204">和各个组件之间的相互关系和约束边界</text><path fill="none" d="M160,144.9219 L170,144.9219 C185,144.9219 185,90.9531 200,90.9531 L210,90.9531" style="stroke:#a80036;stroke-width:1"/><rect style="stroke:#a80036;stroke-width:1.5" width="152" height="33.969" x="210" y="127.938" fill="#FEFECE" filter="url(#f1dbgfbxw4bqu7)" rx="12.5" ry="12.5"/><text x="220" y="149.076" fill="#000" font-family="sans-serif" font-size="12" lengthAdjust="spacingAndGlyphs" textLength="132">以及软件系统的物理部署</text><path fill="none" d="M160,144.9219 L170,144.9219 C185,144.9219 185,144.9219 200,144.9219 L210,144.9219" style="stroke:#a80036;stroke-width:1"/><rect style="stroke:#a80036;stroke-width:1.5" width="140" height="33.969" x="210" y="181.906" fill="#FEFECE" filter="url(#f1dbgfbxw4bqu7)" rx="12.5" ry="12.5"/><text x="220" y="203.045" fill="#000" font-family="sans-serif" font-size="12" lengthAdjust="spacingAndGlyphs" textLength="120">和软件系统的演进方向</text><path fill="none" d="M160,144.9219 L170,144.9219 C185,144.9219 185,198.8906 200,198.8906 L210,198.8906" style="stroke:#a80036;stroke-width:1"/><rect style="stroke:#a80036;stroke-width:1.5" width="80" height="33.969" x="210" y="235.875" fill="#FEFECE" filter="url(#f1dbgfbxw4bqu7)" rx="12.5" ry="12.5"/><text x="220" y="257.014" fill="#000" font-family="sans-serif" font-size="12" lengthAdjust="spacingAndGlyphs" textLength="60">的整体视图</text><path fill="none" d="M160,144.9219 L170,144.9219 C185,144.9219 185,252.8594 200,252.8594 L210,252.8594" style="stroke:#a80036;stroke-width:1"/><path fill="none" d="M66,765.5625 L76,765.5625 C91,765.5625 91,144.9219 106,144.9219 L116,144.9219" style="stroke:#a80036;stroke-width:1"/><rect style="stroke:#a80036;stroke-width:1.5" width="92" height="33.969" x="116" y="343.813" fill="#FEFECE" filter="url(#f1dbgfbxw4bqu7)" rx="12.5" ry="12.5"/><text x="126" y="364.951" fill="#000" font-family="sans-serif" font-size="12" lengthAdjust="spacingAndGlyphs" textLength="72">架构图的作用</text><rect style="stroke:#a80036;stroke-width:1.5" width="92" height="33.969" x="258" y="289.844" fill="#FEFECE" filter="url(#f1dbgfbxw4bqu7)" rx="12.5" ry="12.5"/><text x="268" y="310.982" fill="#000" font-family="sans-serif" font-size="12" lengthAdjust="spacingAndGlyphs" textLength="72">解决沟通障碍</text><path fill="none" d="M208,360.7969 L218,360.7969 C233,360.7969 233,306.8281 248,306.8281 L258,306.8281" style="stroke:#a80036;stroke-width:1"/><rect style="stroke:#a80036;stroke-width:1.5" width="68" height="33.969" x="258" y="343.813" fill="#FEFECE" filter="url(#f1dbgfbxw4bqu7)" rx="12.5" ry="12.5"/><text x="268" y="364.951" fill="#000" font-family="sans-serif" font-size="12" lengthAdjust="spacingAndGlyphs" textLength="48">达成共识</text><path fill="none" d="M208,360.7969 L218,360.7969 C233,360.7969 233,360.7969 248,360.7969 L258,360.7969" style="stroke:#a80036;stroke-width:1"/><rect style="stroke:#a80036;stroke-width:1.5" width="68" height="33.969" x="258" y="397.781" fill="#FEFECE" filter="url(#f1dbgfbxw4bqu7)" rx="12.5" ry="12.5"/><text x="268" y="418.92" fill="#000" font-family="sans-serif" font-size="12" lengthAdjust="spacingAndGlyphs" textLength="48">减少歧义</text><path fill="none" d="M208,360.7969 L218,360.7969 C233,360.7969 233,414.7656 248,414.7656 L258,414.7656" style="stroke:#a80036;stroke-width:1"/><path fill="none" d="M66,765.5625 L76,765.5625 C91,765.5625 91,360.7969 106,360.7969 L116,360.7969" style="stroke:#a80036;stroke-width:1"/><rect style="stroke:#a80036;stroke-width:1.5" width="80" height="33.969" x="116" y="802.547" fill="#FEFECE" filter="url(#f1dbgfbxw4bqu7)" rx="12.5" ry="12.5"/><text x="126" y="823.686" fill="#000" font-family="sans-serif" font-size="12" lengthAdjust="spacingAndGlyphs" textLength="60">架构图分类</text><rect style="stroke:#a80036;stroke-width:1.5" width="147" height="33.969" x="246" y="505.719" fill="#FEFECE" filter="url(#f1dbgfbxw4bqu7)" rx="12.5" ry="12.5"/><text x="256" y="526.857" fill="#000" font-family="sans-serif" font-size="12" lengthAdjust="spacingAndGlyphs" textLength="127">Scene View: 场景视图</text><rect style="stroke:#a80036;stroke-width:1.5" width="140" height="33.969" x="443" y="451.75" fill="#FEFECE" filter="url(#f1dbgfbxw4bqu7)" rx="12.5" ry="12.5"/><text x="453" y="472.889" fill="#000" font-family="sans-serif" font-size="12" lengthAdjust="spacingAndGlyphs" textLength="120">通常由『用例图』表示</text><path fill="none" d="M393,522.7031 L403,522.7031 C418,522.7031 418,468.7344 433,468.7344 L443,468.7344" style="stroke:#a80036;stroke-width:1"/><rect style="stroke:#a80036;stroke-width:1.5" width="248" height="33.969" x="443" y="505.719" fill="#FEFECE" filter="url(#f1dbgfbxw4bqu7)" rx="12.5" ry="12.5"/><text x="453" y="526.857" fill="#000" font-family="sans-serif" font-size="12" lengthAdjust="spacingAndGlyphs" textLength="228">用于描述系统的参与者与功能用例间的关系</text><path fill="none" d="M393,522.7031 L403,522.7031 C418,522.7031 418,522.7031 433,522.7031 L443,522.7031" style="stroke:#a80036;stroke-width:1"/><rect style="stroke:#a80036;stroke-width:1.5" width="188" height="33.969" x="443" y="559.688" fill="#FEFECE" filter="url(#f1dbgfbxw4bqu7)" rx="12.5" ry="12.5"/><text x="453" y="580.826" fill="#000" font-family="sans-serif" font-size="12" lengthAdjust="spacingAndGlyphs" textLength="168">反映系统的最终需求和交互设计</text><path fill="none" d="M393,522.7031 L403,522.7031 C418,522.7031 418,576.6719 433,576.6719 L443,576.6719" style="stroke:#a80036;stroke-width:1"/><path fill="none" d="M196,819.5313 L206,819.5313 C221,819.5313 221,522.7031 236,522.7031 L246,522.7031" style="stroke:#a80036;stroke-width:1"/><rect style="stroke:#a80036;stroke-width:1.5" width="140" height="33.969" x="246" y="667.625" fill="#FEFECE" filter="url(#f1dbgfbxw4bqu7)" rx="12.5" ry="12.5"/><text x="256" y="688.764" fill="#000" font-family="sans-serif" font-size="12" lengthAdjust="spacingAndGlyphs" textLength="120">Logic View: 逻辑视图</text><rect style="stroke:#a80036;stroke-width:1.5" width="236" height="33.969" x="436" y="613.656" fill="#FEFECE" filter="url(#f1dbgfbxw4bqu7)" rx="12.5" ry="12.5"/><text x="446" y="634.795" fill="#000" font-family="sans-serif" font-size="12" lengthAdjust="spacingAndGlyphs" textLength="216">用于描述系统软件功能拆解后的组件关系</text><path fill="none" d="M386,684.6094 L396,684.6094 C411,684.6094 411,630.6406 426,630.6406 L436,630.6406" style="stroke:#a80036;stroke-width:1"/><rect style="stroke:#a80036;stroke-width:1.5" width="332" height="33.969" x="436" y="667.625" fill="#FEFECE" filter="url(#f1dbgfbxw4bqu7)" rx="12.5" ry="12.5"/><text x="446" y="688.764" fill="#000" font-family="sans-serif" font-size="12" lengthAdjust="spacingAndGlyphs" textLength="312">组件约束和边界，反映系统整体组成与系统如何构建的过程</text><path fill="none" d="M386,684.6094 L396,684.6094 C411,684.6094 411,684.6094 426,684.6094 L436,684.6094" style="stroke:#a80036;stroke-width:1"/><rect style="stroke:#a80036;stroke-width:1.5" width="249" height="33.969" x="436" y="721.594" fill="#FEFECE" filter="url(#f1dbgfbxw4bqu7)" rx="12.5" ry="12.5"/><text x="446" y="742.732" fill="#000" font-family="sans-serif" font-size="12" lengthAdjust="spacingAndGlyphs" textLength="229">通常由UML的『组件图』和『类图』来表示</text><path fill="none" d="M386,684.6094 L396,684.6094 C411,684.6094 411,738.5781 426,738.5781 L436,738.5781" style="stroke:#a80036;stroke-width:1"/><path fill="none" d="M196,819.5313 L206,819.5313 C221,819.5313 221,684.6094 236,684.6094 L246,684.6094" style="stroke:#a80036;stroke-width:1"/><rect style="stroke:#a80036;stroke-width:1.5" width="158" height="33.969" x="246" y="829.531" fill="#FEFECE" filter="url(#f1dbgfbxw4bqu7)" rx="12.5" ry="12.5"/><text x="256" y="850.67" fill="#000" font-family="sans-serif" font-size="12" lengthAdjust="spacingAndGlyphs" textLength="138">Physical View: 物理视图</text><rect style="stroke:#a80036;stroke-width:1.5" width="236" height="33.969" x="454" y="775.563" fill="#FEFECE" filter="url(#f1dbgfbxw4bqu7)" rx="12.5" ry="12.5"/><text x="464" y="796.701" fill="#000" font-family="sans-serif" font-size="12" lengthAdjust="spacingAndGlyphs" textLength="216">用于描述系统软件到物理硬件的映射关系</text><path fill="none" d="M404,846.5156 L414,846.5156 C429,846.5156 429,792.5469 444,792.5469 L454,792.5469" style="stroke:#a80036;stroke-width:1"/><rect style="stroke:#a80036;stroke-width:1.5" width="308" height="33.969" x="454" y="829.531" fill="#FEFECE" filter="url(#f1dbgfbxw4bqu7)" rx="12.5" ry="12.5"/><text x="464" y="850.67" fill="#000" font-family="sans-serif" font-size="12" lengthAdjust="spacingAndGlyphs" textLength="288">反映出系统的组件是如何部署到一组可计算机器节点上</text><path fill="none" d="M404,846.5156 L414,846.5156 C429,846.5156 429,846.5156 444,846.5156 L454,846.5156" style="stroke:#a80036;stroke-width:1"/><rect style="stroke:#a80036;stroke-width:1.5" width="200" height="33.969" x="454" y="883.5" fill="#FEFECE" filter="url(#f1dbgfbxw4bqu7)" rx="12.5" ry="12.5"/><text x="464" y="904.639" fill="#000" font-family="sans-serif" font-size="12" lengthAdjust="spacingAndGlyphs" textLength="180">用于指导软件系统的部署实施过程</text><path fill="none" d="M404,846.5156 L414,846.5156 C429,846.5156 429,900.4844 444,900.4844 L454,900.4844" style="stroke:#a80036;stroke-width:1"/><path fill="none" d="M196,819.5313 L206,819.5313 C221,819.5313 221,846.5156 236,846.5156 L246,846.5156" style="stroke:#a80036;stroke-width:1"/><rect style="stroke:#a80036;stroke-width:1.5" width="228" height="33.969" x="246" y="991.438" fill="#FEFECE" filter="url(#f1dbgfbxw4bqu7)" rx="12.5" ry="12.5"/><text x="256" y="1012.576" fill="#000" font-family="sans-serif" font-size="12" lengthAdjust="spacingAndGlyphs" textLength="208">Workflow/Process Flow: 处理流程图</text><rect style="stroke:#a80036;stroke-width:1.5" width="224" height="33.969" x="524" y="937.469" fill="#FEFECE" filter="url(#f1dbgfbxw4bqu7)" rx="12.5" ry="12.5"/><text x="534" y="958.607" fill="#000" font-family="sans-serif" font-size="12" lengthAdjust="spacingAndGlyphs" textLength="204">用于描述系统软件组件之间的通信时序</text><path fill="none" d="M474,1008.4219 L484,1008.4219 C499,1008.4219 499,954.4531 514,954.4531 L524,954.4531" style="stroke:#a80036;stroke-width:1"/><rect style="stroke:#a80036;stroke-width:1.5" width="284" height="33.969" x="524" y="991.438" fill="#FEFECE" filter="url(#f1dbgfbxw4bqu7)" rx="12.5" ry="12.5"/><text x="534" y="1012.576" fill="#000" font-family="sans-serif" font-size="12" lengthAdjust="spacingAndGlyphs" textLength="264">数据的输入输出，反映系统的功能流程与数据流程</text><path fill="none" d="M474,1008.4219 L484,1008.4219 C499,1008.4219 499,1008.4219 514,1008.4219 L524,1008.4219" style="stroke:#a80036;stroke-width:1"/><rect style="stroke:#a80036;stroke-width:1.5" width="212" height="33.969" x="524" y="1045.406" fill="#FEFECE" filter="url(#f1dbgfbxw4bqu7)" rx="12.5" ry="12.5"/><text x="534" y="1066.545" fill="#000" font-family="sans-serif" font-size="12" lengthAdjust="spacingAndGlyphs" textLength="192">通常由『时序图』和『流程图』表示</text><path fill="none" d="M474,1008.4219 L484,1008.4219 C499,1008.4219 499,1062.3906 514,1062.3906 L524,1062.3906" style="stroke:#a80036;stroke-width:1"/><path fill="none" d="M196,819.5313 L206,819.5313 C221,819.5313 221,1008.4219 236,1008.4219 L246,1008.4219" style="stroke:#a80036;stroke-width:1"/><rect style="stroke:#a80036;stroke-width:1.5" width="202" height="33.969" x="246" y="1045.406" fill="#FEFECE" filter="url(#f1dbgfbxw4bqu7)" rx="12.5" ry="12.5"/><text x="256" y="1066.545" fill="#000" font-family="sans-serif" font-size="12" lengthAdjust="spacingAndGlyphs" textLength="182">Network Structure: 网络拓卜图</text><path fill="none" d="M196,819.5313 L206,819.5313 C221,819.5313 221,1062.3906 236,1062.3906 L246,1062.3906" style="stroke:#a80036;stroke-width:1"/><rect style="stroke:#a80036;stroke-width:1.5" width="202" height="33.969" x="246" y="1126.359" fill="#FEFECE" filter="url(#f1dbgfbxw4bqu7)" rx="12.5" ry="12.5"/><text x="256" y="1147.498" fill="#000" font-family="sans-serif" font-size="12" lengthAdjust="spacingAndGlyphs" textLength="182">Development Diagram: 开发图</text><rect style="stroke:#a80036;stroke-width:1.5" width="356" height="33.969" x="498" y="1099.375" fill="#FEFECE" filter="url(#f1dbgfbxw4bqu7)" rx="12.5" ry="12.5"/><text x="508" y="1120.514" fill="#000" font-family="sans-serif" font-size="12" lengthAdjust="spacingAndGlyphs" textLength="336">用于描述系统的模块划分和组成，以及细化到内部包的组成设计</text><path fill="none" d="M448,1143.3438 L458,1143.3438 C473,1143.3438 473,1116.3594 488,1116.3594 L498,1116.3594" style="stroke:#a80036;stroke-width:1"/><rect style="stroke:#a80036;stroke-width:1.5" width="236" height="33.969" x="498" y="1153.344" fill="#FEFECE" filter="url(#f1dbgfbxw4bqu7)" rx="12.5" ry="12.5"/><text x="508" y="1174.482" fill="#000" font-family="sans-serif" font-size="12" lengthAdjust="spacingAndGlyphs" textLength="216">服务于开发人员，反映系统开发实施过程</text><path fill="none" d="M448,1143.3438 L458,1143.3438 C473,1143.3438 473,1170.3281 488,1170.3281 L498,1170.3281" style="stroke:#a80036;stroke-width:1"/><path fill="none" d="M196,819.5313 L206,819.5313 C221,819.5313 221,1143.3438 236,1143.3438 L246,1143.3438" style="stroke:#a80036;stroke-width:1"/><path fill="none" d="M66,765.5625 L76,765.5625 C91,765.5625 91,819.5313 106,819.5313 L116,819.5313" style="stroke:#a80036;stroke-width:1"/><rect style="stroke:#a80036;stroke-width:1.5" width="80" height="33.969" x="116" y="1342.234" fill="#FEFECE" filter="url(#f1dbgfbxw4bqu7)" rx="12.5" ry="12.5"/><text x="126" y="1363.373" fill="#000" font-family="sans-serif" font-size="12" lengthAdjust="spacingAndGlyphs" textLength="60">好的架构图</text><rect style="stroke:#a80036;stroke-width:1.5" width="92" height="33.969" x="246" y="1234.297" fill="#FEFECE" filter="url(#f1dbgfbxw4bqu7)" rx="12.5" ry="12.5"/><text x="256" y="1255.436" fill="#000" font-family="sans-serif" font-size="12" lengthAdjust="spacingAndGlyphs" textLength="72">画架构图之前</text><rect style="stroke:#a80036;stroke-width:1.5" width="140" height="33.969" x="388" y="1207.313" fill="#FEFECE" filter="url(#f1dbgfbxw4bqu7)" rx="12.5" ry="12.5"/><text x="398" y="1228.451" fill="#000" font-family="sans-serif" font-size="12" lengthAdjust="spacingAndGlyphs" textLength="120">首先应该要明确其受众</text><path fill="none" d="M338,1251.2813 L348,1251.2813 C363,1251.2813 363,1224.2969 378,1224.2969 L388,1224.2969" style="stroke:#a80036;stroke-width:1"/><rect style="stroke:#a80036;stroke-width:1.5" width="188" height="33.969" x="388" y="1261.281" fill="#FEFECE" filter="url(#f1dbgfbxw4bqu7)" rx="12.5" ry="12.5"/><text x="398" y="1282.42" fill="#000" font-family="sans-serif" font-size="12" lengthAdjust="spacingAndGlyphs" textLength="168">再想清楚要给他们传递什么信息</text><path fill="none" d="M338,1251.2813 L348,1251.2813 C363,1251.2813 363,1278.2656 378,1278.2656 L388,1278.2656" style="stroke:#a80036;stroke-width:1"/><path fill="none" d="M196,1359.2188 L206,1359.2188 C221,1359.2188 221,1251.2813 236,1251.2813 L246,1251.2813" style="stroke:#a80036;stroke-width:1"/><rect style="stroke:#a80036;stroke-width:1.5" width="44" height="33.969" x="246" y="1369.219" fill="#FEFECE" filter="url(#f1dbgfbxw4bqu7)" rx="12.5" ry="12.5"/><text x="256" y="1390.357" fill="#000" font-family="sans-serif" font-size="12" lengthAdjust="spacingAndGlyphs" textLength="24">方法</text><rect style="stroke:#a80036;stroke-width:1.5" width="128" height="33.969" x="340" y="1315.25" fill="#FEFECE" filter="url(#f1dbgfbxw4bqu7)" rx="12.5" ry="12.5"/><text x="350" y="1336.389" fill="#000" font-family="sans-serif" font-size="12" lengthAdjust="spacingAndGlyphs" textLength="108">应该根据受众的不同</text><path fill="none" d="M290,1386.2031 L300,1386.2031 C315,1386.2031 315,1332.2344 330,1332.2344 L340,1332.2344" style="stroke:#a80036;stroke-width:1"/><rect style="stroke:#a80036;stroke-width:1.5" width="116" height="33.969" x="340" y="1369.219" fill="#FEFECE" filter="url(#f1dbgfbxw4bqu7)" rx="12.5" ry="12.5"/><text x="350" y="1390.357" fill="#000" font-family="sans-serif" font-size="12" lengthAdjust="spacingAndGlyphs" textLength="96">传递的信息的不同</text><path fill="none" d="M290,1386.2031 L300,1386.2031 C315,1386.2031 315,1386.2031 330,1386.2031 L340,1386.2031" style="stroke:#a80036;stroke-width:1"/><rect style="stroke:#a80036;stroke-width:1.5" width="128" height="33.969" x="340" y="1423.188" fill="#FEFECE" filter="url(#f1dbgfbxw4bqu7)" rx="12.5" ry="12.5"/><text x="350" y="1444.326" fill="#000" font-family="sans-serif" font-size="12" lengthAdjust="spacingAndGlyphs" textLength="108">用图准确地表达出来</text><path fill="none" d="M290,1386.2031 L300,1386.2031 C315,1386.2031 315,1440.1719 330,1440.1719 L340,1440.1719" style="stroke:#a80036;stroke-width:1"/><path fill="none" d="M196,1359.2188 L206,1359.2188 C221,1359.2188 221,1386.2031 236,1386.2031 L246,1386.2031" style="stroke:#a80036;stroke-width:1"/><rect style="stroke:#a80036;stroke-width:1.5" width="116" height="33.969" x="246" y="1477.156" fill="#FEFECE" filter="url(#f1dbgfbxw4bqu7)" rx="12.5" ry="12.5"/><text x="256" y="1498.295" fill="#000" font-family="sans-serif" font-size="12" lengthAdjust="spacingAndGlyphs" textLength="96">好不好的直接标准</text><rect style="stroke:#a80036;stroke-width:1.5" width="212" height="33.969" x="412" y="1477.156" fill="#FEFECE" filter="url(#f1dbgfbxw4bqu7)" rx="12.5" ry="12.5"/><text x="422" y="1498.295" fill="#000" font-family="sans-serif" font-size="12" lengthAdjust="spacingAndGlyphs" textLength="192">受众有没有准确接收到想传递的信息</text><path fill="none" d="M362,1494.1406 L372,1494.1406 C387,1494.1406 387,1494.1406 402,1494.1406 L412,1494.1406" style="stroke:#a80036;stroke-width:1"/><path fill="none" d="M196,1359.2188 L206,1359.2188 C221,1359.2188 221,1494.1406 236,1494.1406 L246,1494.1406" style="stroke:#a80036;stroke-width:1"/><path fill="none" d="M66,765.5625 L76,765.5625 C91,765.5625 91,1359.2188 106,1359.2188 L116,1359.2188" style="stroke:#a80036;stroke-width:1"/></g></svg>