<svg xmlns="http://www.w3.org/2000/svg" xmlns:xlink="http://www.w3.org/1999/xlink" width="825" height="766" contentScriptType="application/ecmascript" contentStyleType="text/css" style="width:825px;height:766px" preserveAspectRatio="none" version="1.1" viewBox="0 0 825 766" zoomAndPan="magnify"><defs><filter id="f1qqzswqzccdcn" width="300%" height="300%" x="-1" y="-1"><feGaussianBlur result="blurOut" stdDeviation="2"/><feColorMatrix in="blurOut" result="blurOut2" type="matrix" values="0 0 0 0 0 0 0 0 0 0 0 0 0 0 0 0 0 0 .4 0"/><feOffset dx="4" dy="4" in="blurOut2" result="blurOut3"/><feBlend in="SourceGraphic" in2="blurOut3" mode="normal"/></filter></defs><g><rect style="stroke:#a80036;stroke-width:1.5" width="68" height="33.969" x="10" y="370.797" fill="#FEFECE" filter="url(#f1qqzswqzccdcn)" rx="12.5" ry="12.5"/><text x="20" y="391.935" fill="#000" font-family="sans-serif" font-size="12" lengthAdjust="spacingAndGlyphs" textLength="48">编译原理</text><rect style="stroke:#a80036;stroke-width:1.5" width="56" height="33.969" x="128" y="127.938" fill="#FEFECE" filter="url(#f1qqzswqzccdcn)" rx="12.5" ry="12.5"/><text x="138" y="149.076" fill="#000" font-family="sans-serif" font-size="12" lengthAdjust="spacingAndGlyphs" textLength="36">编译器</text><rect style="stroke:#a80036;stroke-width:1.5" width="44" height="33.969" x="234" y="100.953" fill="#FEFECE" filter="url(#f1qqzswqzccdcn)" rx="12.5" ry="12.5"/><text x="244" y="122.092" fill="#000" font-family="sans-serif" font-size="12" lengthAdjust="spacingAndGlyphs" textLength="24">前端</text><rect style="stroke:#a80036;stroke-width:1.5" width="68" height="33.969" x="328" y="20" fill="#FEFECE" filter="url(#f1qqzswqzccdcn)" rx="12.5" ry="12.5"/><text x="338" y="41.139" fill="#000" font-family="sans-serif" font-size="12" lengthAdjust="spacingAndGlyphs" textLength="48">词法分析</text><path fill="none" d="M278,117.9375 L288,117.9375 C303,117.9375 303,36.9844 318,36.9844 L328,36.9844" style="stroke:#a80036;stroke-width:1"/><rect style="stroke:#a80036;stroke-width:1.5" width="68" height="33.969" x="328" y="73.969" fill="#FEFECE" filter="url(#f1qqzswqzccdcn)" rx="12.5" ry="12.5"/><text x="338" y="95.107" fill="#000" font-family="sans-serif" font-size="12" lengthAdjust="spacingAndGlyphs" textLength="48">语法分析</text><path fill="none" d="M278,117.9375 L288,117.9375 C303,117.9375 303,90.9531 318,90.9531 L328,90.9531" style="stroke:#a80036;stroke-width:1"/><rect style="stroke:#a80036;stroke-width:1.5" width="68" height="33.969" x="328" y="127.938" fill="#FEFECE" filter="url(#f1qqzswqzccdcn)" rx="12.5" ry="12.5"/><text x="338" y="149.076" fill="#000" font-family="sans-serif" font-size="12" lengthAdjust="spacingAndGlyphs" textLength="48">类型检查</text><path fill="none" d="M278,117.9375 L288,117.9375 C303,117.9375 303,144.9219 318,144.9219 L328,144.9219" style="stroke:#a80036;stroke-width:1"/><rect style="stroke:#a80036;stroke-width:1.5" width="92" height="33.969" x="328" y="181.906" fill="#FEFECE" filter="url(#f1qqzswqzccdcn)" rx="12.5" ry="12.5"/><text x="338" y="203.045" fill="#000" font-family="sans-serif" font-size="12" lengthAdjust="spacingAndGlyphs" textLength="72">中间代码生成</text><path fill="none" d="M278,117.9375 L288,117.9375 C303,117.9375 303,198.8906 318,198.8906 L328,198.8906" style="stroke:#a80036;stroke-width:1"/><path fill="none" d="M184,144.9219 L194,144.9219 C209,144.9219 209,117.9375 224,117.9375 L234,117.9375" style="stroke:#a80036;stroke-width:1"/><rect style="stroke:#a80036;stroke-width:1.5" width="44" height="33.969" x="234" y="235.875" fill="#FEFECE" filter="url(#f1qqzswqzccdcn)" rx="12.5" ry="12.5"/><text x="244" y="257.014" fill="#000" font-family="sans-serif" font-size="12" lengthAdjust="spacingAndGlyphs" textLength="24">后端</text><rect style="stroke:#a80036;stroke-width:1.5" width="140" height="33.969" x="328" y="235.875" fill="#FEFECE" filter="url(#f1qqzswqzccdcn)" rx="12.5" ry="12.5"/><text x="338" y="257.014" fill="#000" font-family="sans-serif" font-size="12" lengthAdjust="spacingAndGlyphs" textLength="120">目标代码的生成和优化</text><rect style="stroke:#a80036;stroke-width:1.5" width="296" height="33.969" x="518" y="235.875" fill="#FEFECE" filter="url(#f1qqzswqzccdcn)" rx="12.5" ry="12.5"/><text x="528" y="257.014" fill="#000" font-family="sans-serif" font-size="12" lengthAdjust="spacingAndGlyphs" textLength="276">将中间代码翻译成目标机器能够运行的二进制机器码</text><path fill="none" d="M468,252.8594 L478,252.8594 C493,252.8594 493,252.8594 508,252.8594 L518,252.8594" style="stroke:#a80036;stroke-width:1"/><path fill="none" d="M278,252.8594 L288,252.8594 C303,252.8594 303,252.8594 318,252.8594 L328,252.8594" style="stroke:#a80036;stroke-width:1"/><path fill="none" d="M184,144.9219 L194,144.9219 C209,144.9219 209,252.8594 224,252.8594 L234,252.8594" style="stroke:#a80036;stroke-width:1"/><path fill="none" d="M78,387.7813 L88,387.7813 C103,387.7813 103,144.9219 118,144.9219 L128,144.9219" style="stroke:#a80036;stroke-width:1"/><rect style="stroke:#a80036;stroke-width:1.5" width="56" height="33.969" x="128" y="316.828" fill="#FEFECE" filter="url(#f1qqzswqzccdcn)" rx="12.5" ry="12.5"/><text x="138" y="337.967" fill="#000" font-family="sans-serif" font-size="12" lengthAdjust="spacingAndGlyphs" textLength="36">指令集</text><rect style="stroke:#a80036;stroke-width:1.5" width="167" height="33.969" x="234" y="289.844" fill="#FEFECE" filter="url(#f1qqzswqzccdcn)" rx="12.5" ry="12.5"/><text x="244" y="310.982" fill="#000" font-family="sans-serif" font-size="12" lengthAdjust="spacingAndGlyphs" textLength="147">复杂指令集计算机（CISC）</text><rect style="stroke:#a80036;stroke-width:1.5" width="248" height="33.969" x="451" y="289.844" fill="#FEFECE" filter="url(#f1qqzswqzccdcn)" rx="12.5" ry="12.5"/><text x="461" y="310.982" fill="#000" font-family="sans-serif" font-size="12" lengthAdjust="spacingAndGlyphs" textLength="228">通过增加指令的数量减少需要执行的指令数</text><path fill="none" d="M401,306.8281 L411,306.8281 C426,306.8281 426,306.8281 441,306.8281 L451,306.8281" style="stroke:#a80036;stroke-width:1"/><path fill="none" d="M184,333.8125 L194,333.8125 C209,333.8125 209,306.8281 224,306.8281 L234,306.8281" style="stroke:#a80036;stroke-width:1"/><rect style="stroke:#a80036;stroke-width:1.5" width="167" height="33.969" x="234" y="343.813" fill="#FEFECE" filter="url(#f1qqzswqzccdcn)" rx="12.5" ry="12.5"/><text x="244" y="364.951" fill="#000" font-family="sans-serif" font-size="12" lengthAdjust="spacingAndGlyphs" textLength="147">精简指令集计算机（RISC）</text><rect style="stroke:#a80036;stroke-width:1.5" width="212" height="33.969" x="451" y="343.813" fill="#FEFECE" filter="url(#f1qqzswqzccdcn)" rx="12.5" ry="12.5"/><text x="461" y="364.951" fill="#000" font-family="sans-serif" font-size="12" lengthAdjust="spacingAndGlyphs" textLength="192">使用更少的指令完成目标的计算任务</text><path fill="none" d="M401,360.7969 L411,360.7969 C426,360.7969 426,360.7969 441,360.7969 L451,360.7969" style="stroke:#a80036;stroke-width:1"/><path fill="none" d="M184,333.8125 L194,333.8125 C209,333.8125 209,360.7969 224,360.7969 L234,360.7969" style="stroke:#a80036;stroke-width:1"/><path fill="none" d="M78,387.7813 L88,387.7813 C103,387.7813 103,333.8125 118,333.8125 L128,333.8125" style="stroke:#a80036;stroke-width:1"/><rect style="stroke:#a80036;stroke-width:1.5" width="43" height="33.969" x="128" y="424.766" fill="#FEFECE" filter="url(#f1qqzswqzccdcn)" rx="12.5" ry="12.5"/><text x="138" y="445.904" fill="#000" font-family="sans-serif" font-size="12" lengthAdjust="spacingAndGlyphs" textLength="23">AST</text><rect style="stroke:#a80036;stroke-width:1.5" width="217" height="33.969" x="221" y="397.781" fill="#FEFECE" filter="url(#f1qqzswqzccdcn)" rx="12.5" ry="12.5"/><text x="231" y="418.92" fill="#000" font-family="sans-serif" font-size="12" lengthAdjust="spacingAndGlyphs" textLength="197">Abstract syntax tree(抽象语法树)</text><path fill="none" d="M171,441.75 L181,441.75 C196,441.75 196,414.7656 211,414.7656 L221,414.7656" style="stroke:#a80036;stroke-width:1"/><rect style="stroke:#a80036;stroke-width:1.5" width="151" height="33.969" x="221" y="451.75" fill="#FEFECE" filter="url(#f1qqzswqzccdcn)" rx="12.5" ry="12.5"/><text x="231" y="472.889" fill="#000" font-family="sans-serif" font-size="12" lengthAdjust="spacingAndGlyphs" textLength="131">Concrete syntax tree</text><path fill="none" d="M171,441.75 L181,441.75 C196,441.75 196,468.7344 211,468.7344 L221,468.7344" style="stroke:#a80036;stroke-width:1"/><path fill="none" d="M78,387.7813 L88,387.7813 C103,387.7813 103,441.75 118,441.75 L128,441.75" style="stroke:#a80036;stroke-width:1"/><rect style="stroke:#a80036;stroke-width:1.5" width="44" height="33.969" x="128" y="586.672" fill="#FEFECE" filter="url(#f1qqzswqzccdcn)" rx="12.5" ry="12.5"/><text x="138" y="607.811" fill="#000" font-family="sans-serif" font-size="12" lengthAdjust="spacingAndGlyphs" textLength="24">SSA</text><rect style="stroke:#a80036;stroke-width:1.5" width="245" height="33.969" x="222" y="505.719" fill="#FEFECE" filter="url(#f1qqzswqzccdcn)" rx="12.5" ry="12.5"/><text x="232" y="526.857" fill="#000" font-family="sans-serif" font-size="12" lengthAdjust="spacingAndGlyphs" textLength="225">Static Single Assignment(静态单赋值)</text><path fill="none" d="M172,603.6563 L182,603.6563 C197,603.6563 197,522.7031 212,522.7031 L222,522.7031" style="stroke:#a80036;stroke-width:1"/><rect style="stroke:#a80036;stroke-width:1.5" width="332" height="33.969" x="222" y="559.688" fill="#FEFECE" filter="url(#f1qqzswqzccdcn)" rx="12.5" ry="12.5"/><text x="232" y="580.826" fill="#000" font-family="sans-serif" font-size="12" lengthAdjust="spacingAndGlyphs" textLength="312">主要作用是对代码进行优化，所以它是编译器后端的一部分</text><path fill="none" d="M172,603.6563 L182,603.6563 C197,603.6563 197,576.6719 212,576.6719 L222,576.6719" style="stroke:#a80036;stroke-width:1"/><rect style="stroke:#a80036;stroke-width:1.5" width="304" height="33.969" x="222" y="613.656" fill="#FEFECE" filter="url(#f1qqzswqzccdcn)" rx="12.5" ry="12.5"/><text x="232" y="634.795" fill="#000" font-family="sans-serif" font-size="12" lengthAdjust="spacingAndGlyphs" textLength="284">代码编译领域除了 SSA 还有很多中间代码的优化方法</text><path fill="none" d="M172,603.6563 L182,603.6563 C197,603.6563 197,630.6406 212,630.6406 L222,630.6406" style="stroke:#a80036;stroke-width:1"/><rect style="stroke:#a80036;stroke-width:1.5" width="320" height="33.969" x="222" y="667.625" fill="#FEFECE" filter="url(#f1qqzswqzccdcn)" rx="12.5" ry="12.5"/><text x="232" y="688.764" fill="#000" font-family="sans-serif" font-size="12" lengthAdjust="spacingAndGlyphs" textLength="300">编译器生成代码的优化也是一个非常古老并且复杂的领域</text><path fill="none" d="M172,603.6563 L182,603.6563 C197,603.6563 197,684.6094 212,684.6094 L222,684.6094" style="stroke:#a80036;stroke-width:1"/><path fill="none" d="M78,387.7813 L88,387.7813 C103,387.7813 103,603.6563 118,603.6563 L128,603.6563" style="stroke:#a80036;stroke-width:1"/><rect style="stroke:#a80036;stroke-width:1.5" width="44" height="33.969" x="128" y="721.594" fill="#FEFECE" filter="url(#f1qqzswqzccdcn)" rx="12.5" ry="12.5"/><text x="138" y="742.732" fill="#000" font-family="sans-serif" font-size="12" lengthAdjust="spacingAndGlyphs" textLength="24">参考</text><rect style="stroke:#a80036;stroke-width:1.5" width="200" height="33.969" x="222" y="721.594" fill="#FEFECE" filter="url(#f1qqzswqzccdcn)" rx="12.5" ry="12.5"/><text x="232" y="742.732" fill="#000" font-family="sans-serif" font-size="12" lengthAdjust="spacingAndGlyphs" textLength="180">https://draveness.me/golang</text><path fill="none" d="M172,738.5781 L182,738.5781 C197,738.5781 197,738.5781 212,738.5781 L222,738.5781" style="stroke:#a80036;stroke-width:1"/><path fill="none" d="M78,387.7813 L88,387.7813 C103,387.7813 103,738.5781 118,738.5781 L128,738.5781" style="stroke:#a80036;stroke-width:1"/></g></svg>