<?xml version="1.0" encoding="UTF-8" standalone="no"?><svg xmlns="http://www.w3.org/2000/svg" xmlns:xlink="http://www.w3.org/1999/xlink" contentScriptType="application/ecmascript" contentStyleType="text/css" height="2736px" preserveAspectRatio="none" style="width:1054px;height:2736px;" version="1.1" viewBox="0 0 1054 2736" width="1054px" zoomAndPan="magnify"><defs><filter height="300%" id="f1wg29bvz2sz5f" width="300%" x="-1" y="-1"><feGaussianBlur result="blurOut" stdDeviation="2.0"/><feColorMatrix in="blurOut" result="blurOut2" type="matrix" values="0 0 0 0 0 0 0 0 0 0 0 0 0 0 0 0 0 0 .4 0"/><feOffset dx="4.0" dy="4.0" in="blurOut2" result="blurOut3"/><feBlend in="SourceGraphic" in2="blurOut3" mode="normal"/></filter></defs><g><rect fill="#FEFECE" filter="url(#f1wg29bvz2sz5f)" height="33.9688" rx="12.5" ry="12.5" style="stroke: #A80036; stroke-width: 1.5;" width="116" x="10" y="1355.7266"/><text fill="#000000" font-family="sans-serif" font-size="12" lengthAdjust="spacingAndGlyphs" textLength="96" x="20" y="1376.8652">如何高效阅读源码</text><rect fill="#FEFECE" filter="url(#f1wg29bvz2sz5f)" height="33.9688" rx="12.5" ry="12.5" style="stroke: #A80036; stroke-width: 1.5;" width="92" x="176" y="316.8281"/><text fill="#000000" font-family="sans-serif" font-size="12" lengthAdjust="spacingAndGlyphs" textLength="72" x="186" y="337.9668">如何对待开源</text><rect fill="#FEFECE" filter="url(#f1wg29bvz2sz5f)" height="33.9688" rx="12.5" ry="12.5" style="stroke: #A80036; stroke-width: 1.5;" width="140" x="318" y="127.9375"/><text fill="#000000" font-family="sans-serif" font-size="12" lengthAdjust="spacingAndGlyphs" textLength="120" x="328" y="149.0762">1.需要树立正确的观念</text><rect fill="#FEFECE" filter="url(#f1wg29bvz2sz5f)" height="33.9688" rx="12.5" ry="12.5" style="stroke: #A80036; stroke-width: 1.5;" width="308" x="508" y="20"/><text fill="#000000" font-family="sans-serif" font-size="12" lengthAdjust="spacingAndGlyphs" textLength="288" x="518" y="41.1387">不管你是什么身份，都可以从开源项目中学到很多东西</text><path d="M458,144.9219 L468,144.9219 C483,144.9219 483,36.9844 498,36.9844 L508,36.9844 " fill="none" style="stroke: #A80036; stroke-width: 1.0;"/><rect fill="#FEFECE" filter="url(#f1wg29bvz2sz5f)" height="33.9688" rx="12.5" ry="12.5" style="stroke: #A80036; stroke-width: 1.5;" width="174" x="508" y="154.9219"/><text fill="#000000" font-family="sans-serif" font-size="12" lengthAdjust="spacingAndGlyphs" textLength="154" x="518" y="176.0605">实例:理解 Redis 的网络模型</text><rect fill="#FEFECE" filter="url(#f1wg29bvz2sz5f)" height="33.9688" rx="12.5" ry="12.5" style="stroke: #A80036; stroke-width: 1.5;" width="170" x="732" y="73.9688"/><text fill="#000000" font-family="sans-serif" font-size="12" lengthAdjust="spacingAndGlyphs" textLength="150" x="742" y="95.1074">不需要成为 Redis 的开发者</text><path d="M682,171.9063 L692,171.9063 C707,171.9063 707,90.9531 722,90.9531 L732,90.9531 " fill="none" style="stroke: #A80036; stroke-width: 1.0;"/><rect fill="#FEFECE" filter="url(#f1wg29bvz2sz5f)" height="33.9688" rx="12.5" ry="12.5" style="stroke: #A80036; stroke-width: 1.5;" width="154" x="732" y="127.9375"/><text fill="#000000" font-family="sans-serif" font-size="12" lengthAdjust="spacingAndGlyphs" textLength="134" x="742" y="149.0762">不需要一定要用到 Redis</text><path d="M682,171.9063 L692,171.9063 C707,171.9063 707,144.9219 722,144.9219 L732,144.9219 " fill="none" style="stroke: #A80036; stroke-width: 1.0;"/><rect fill="#FEFECE" filter="url(#f1wg29bvz2sz5f)" height="33.9688" rx="12.5" ry="12.5" style="stroke: #A80036; stroke-width: 1.5;" width="176" x="732" y="181.9063"/><text fill="#000000" font-family="sans-serif" font-size="12" lengthAdjust="spacingAndGlyphs" textLength="156" x="742" y="203.0449">只要具备一定的网络编程基础</text><path d="M682,171.9063 L692,171.9063 C707,171.9063 707,198.8906 722,198.8906 L732,198.8906 " fill="none" style="stroke: #A80036; stroke-width: 1.0;"/><rect fill="#FEFECE" filter="url(#f1wg29bvz2sz5f)" height="33.9688" rx="12.5" ry="12.5" style="stroke: #A80036; stroke-width: 1.5;" width="311" x="732" y="235.875"/><text fill="#000000" font-family="sans-serif" font-size="12" lengthAdjust="spacingAndGlyphs" textLength="291" x="742" y="257.0137">都可阅读源码学习 Redis 这种单进程的 Reactor 模型</text><path d="M682,171.9063 L692,171.9063 C707,171.9063 707,252.8594 722,252.8594 L732,252.8594 " fill="none" style="stroke: #A80036; stroke-width: 1.0;"/><path d="M458,144.9219 L468,144.9219 C483,144.9219 483,171.9063 498,171.9063 L508,171.9063 " fill="none" style="stroke: #A80036; stroke-width: 1.0;"/><path d="M268,333.8125 L278,333.8125 C293,333.8125 293,144.9219 308,144.9219 L318,144.9219 " fill="none" style="stroke: #A80036; stroke-width: 1.0;"/><rect fill="#FEFECE" filter="url(#f1wg29bvz2sz5f)" height="33.9688" rx="12.5" ry="12.5" style="stroke: #A80036; stroke-width: 1.5;" width="176" x="318" y="343.8125"/><text fill="#000000" font-family="sans-serif" font-size="12" lengthAdjust="spacingAndGlyphs" textLength="156" x="328" y="364.9512">2.不要只盯着数据结构和算法</text><rect fill="#FEFECE" filter="url(#f1wg29bvz2sz5f)" height="33.9688" rx="12.5" ry="12.5" style="stroke: #A80036; stroke-width: 1.5;" width="260" x="544" y="289.8438"/><text fill="#000000" font-family="sans-serif" font-size="12" lengthAdjust="spacingAndGlyphs" textLength="240" x="554" y="310.9824">这两点在学习开源项目的时候并没有那么重要</text><path d="M494,360.7969 L504,360.7969 C519,360.7969 519,306.8281 534,306.8281 L544,306.8281 " fill="none" style="stroke: #A80036; stroke-width: 1.0;"/><rect fill="#FEFECE" filter="url(#f1wg29bvz2sz5f)" height="33.9688" rx="12.5" ry="12.5" style="stroke: #A80036; stroke-width: 1.5;" width="222" x="544" y="370.7969"/><text fill="#000000" font-family="sans-serif" font-size="12" lengthAdjust="spacingAndGlyphs" textLength="202" x="554" y="391.9355">实例: Nginx 使用红黑树来管理定时器</text><rect fill="#FEFECE" filter="url(#f1wg29bvz2sz5f)" height="33.9688" rx="12.5" ry="12.5" style="stroke: #A80036; stroke-width: 1.5;" width="200" x="816" y="343.8125"/><text fill="#000000" font-family="sans-serif" font-size="12" lengthAdjust="spacingAndGlyphs" textLength="180" x="826" y="364.9512">对大部分人，只要知道这点就够了</text><path d="M766,387.7813 L776,387.7813 C791,387.7813 791,360.7969 806,360.7969 L816,360.7969 " fill="none" style="stroke: #A80036; stroke-width: 1.0;"/><rect fill="#FEFECE" filter="url(#f1wg29bvz2sz5f)" height="33.9688" rx="12.5" ry="12.5" style="stroke: #A80036; stroke-width: 1.5;" width="218" x="816" y="397.7813"/><text fill="#000000" font-family="sans-serif" font-size="12" lengthAdjust="spacingAndGlyphs" textLength="198" x="826" y="418.9199">无需去研究 Nginx 实现红黑树的源码</text><path d="M766,387.7813 L776,387.7813 C791,387.7813 791,414.7656 806,414.7656 L816,414.7656 " fill="none" style="stroke: #A80036; stroke-width: 1.0;"/><path d="M494,360.7969 L504,360.7969 C519,360.7969 519,387.7813 534,387.7813 L544,387.7813 " fill="none" style="stroke: #A80036; stroke-width: 1.0;"/><path d="M268,333.8125 L278,333.8125 C293,333.8125 293,360.7969 308,360.7969 L318,360.7969 " fill="none" style="stroke: #A80036; stroke-width: 1.0;"/><rect fill="#FEFECE" filter="url(#f1wg29bvz2sz5f)" height="33.9688" rx="12.5" ry="12.5" style="stroke: #A80036; stroke-width: 1.5;" width="164" x="318" y="532.7031"/><text fill="#000000" font-family="sans-serif" font-size="12" lengthAdjust="spacingAndGlyphs" textLength="144" x="328" y="553.8418">3.采取自顶向下的学习方法</text><rect fill="#FEFECE" filter="url(#f1wg29bvz2sz5f)" height="33.9688" rx="12.5" ry="12.5" style="stroke: #A80036; stroke-width: 1.5;" width="188" x="532" y="451.75"/><text fill="#000000" font-family="sans-serif" font-size="12" lengthAdjust="spacingAndGlyphs" textLength="168" x="542" y="472.8887">源码不是第一步，而是最后一步</text><path d="M482,549.6875 L492,549.6875 C507,549.6875 507,468.7344 522,468.7344 L532,468.7344 " fill="none" style="stroke: #A80036; stroke-width: 1.0;"/><rect fill="#FEFECE" filter="url(#f1wg29bvz2sz5f)" height="33.9688" rx="12.5" ry="12.5" style="stroke: #A80036; stroke-width: 1.5;" width="152" x="532" y="505.7188"/><text fill="#000000" font-family="sans-serif" font-size="12" lengthAdjust="spacingAndGlyphs" textLength="132" x="542" y="526.8574">不要一上来就去看源码，</text><path d="M482,549.6875 L492,549.6875 C507,549.6875 507,522.7031 522,522.7031 L532,522.7031 " fill="none" style="stroke: #A80036; stroke-width: 1.0;"/><rect fill="#FEFECE" filter="url(#f1wg29bvz2sz5f)" height="33.9688" rx="12.5" ry="12.5" style="stroke: #A80036; stroke-width: 1.5;" width="332" x="532" y="559.6875"/><text fill="#000000" font-family="sans-serif" font-size="12" lengthAdjust="spacingAndGlyphs" textLength="312" x="542" y="580.8262">而是要基本掌握了功能、原理、关键设计之后再去看源码，</text><path d="M482,549.6875 L492,549.6875 C507,549.6875 507,576.6719 522,576.6719 L532,576.6719 " fill="none" style="stroke: #A80036; stroke-width: 1.0;"/><rect fill="#FEFECE" filter="url(#f1wg29bvz2sz5f)" height="33.9688" rx="12.5" ry="12.5" style="stroke: #A80036; stroke-width: 1.5;" width="404" x="532" y="613.6563"/><text fill="#000000" font-family="sans-serif" font-size="12" lengthAdjust="spacingAndGlyphs" textLength="384" x="542" y="634.7949">看源码的主要目的是为了学习其代码的写作方式，以及关键技术的实现。</text><path d="M482,549.6875 L492,549.6875 C507,549.6875 507,630.6406 522,630.6406 L532,630.6406 " fill="none" style="stroke: #A80036; stroke-width: 1.0;"/><path d="M268,333.8125 L278,333.8125 C293,333.8125 293,549.6875 308,549.6875 L318,549.6875 " fill="none" style="stroke: #A80036; stroke-width: 1.0;"/><path d="M126,1372.7109 L136,1372.7109 C151,1372.7109 151,333.8125 166,333.8125 L176,333.8125 " fill="none" style="stroke: #A80036; stroke-width: 1.0;"/><rect fill="#FEFECE" filter="url(#f1wg29bvz2sz5f)" height="33.9688" rx="12.5" ry="12.5" style="stroke: #A80036; stroke-width: 1.5;" width="88" x="176" y="721.5938"/><text fill="#000000" font-family="sans-serif" font-size="12" lengthAdjust="spacingAndGlyphs" textLength="68" x="186" y="742.7324">第一步: 安装</text><rect fill="#FEFECE" filter="url(#f1wg29bvz2sz5f)" height="33.9688" rx="12.5" ry="12.5" style="stroke: #A80036; stroke-width: 1.5;" width="308" x="314" y="667.625"/><text fill="#000000" font-family="sans-serif" font-size="12" lengthAdjust="spacingAndGlyphs" textLength="288" x="324" y="688.7637">了解依赖组件，而依赖的组件是系统设计和实现的基础</text><path d="M264,738.5781 L274,738.5781 C289,738.5781 289,684.6094 304,684.6094 L314,684.6094 " fill="none" style="stroke: #A80036; stroke-width: 1.0;"/><rect fill="#FEFECE" filter="url(#f1wg29bvz2sz5f)" height="33.9688" rx="12.5" ry="12.5" style="stroke: #A80036; stroke-width: 1.5;" width="272" x="314" y="721.5938"/><text fill="#000000" font-family="sans-serif" font-size="12" lengthAdjust="spacingAndGlyphs" textLength="252" x="324" y="742.7324">安装目录也能够提供一些使用和运行的基本信息</text><path d="M264,738.5781 L274,738.5781 C289,738.5781 289,738.5781 304,738.5781 L314,738.5781 " fill="none" style="stroke: #A80036; stroke-width: 1.0;"/><rect fill="#FEFECE" filter="url(#f1wg29bvz2sz5f)" height="33.9688" rx="12.5" ry="12.5" style="stroke: #A80036; stroke-width: 1.5;" width="200" x="314" y="775.5625"/><text fill="#000000" font-family="sans-serif" font-size="12" lengthAdjust="spacingAndGlyphs" textLength="180" x="324" y="796.7012">系统提供了哪些工具方便我们使用</text><path d="M264,738.5781 L274,738.5781 C289,738.5781 289,792.5469 304,792.5469 L314,792.5469 " fill="none" style="stroke: #A80036; stroke-width: 1.0;"/><path d="M126,1372.7109 L136,1372.7109 C151,1372.7109 151,738.5781 166,738.5781 L176,738.5781 " fill="none" style="stroke: #A80036; stroke-width: 1.0;"/><rect fill="#FEFECE" filter="url(#f1wg29bvz2sz5f)" height="33.9688" rx="12.5" ry="12.5" style="stroke: #A80036; stroke-width: 1.5;" width="92" x="176" y="937.4688"/><text fill="#000000" font-family="sans-serif" font-size="12" lengthAdjust="spacingAndGlyphs" textLength="72" x="186" y="958.6074">第二步：运行</text><rect fill="#FEFECE" filter="url(#f1wg29bvz2sz5f)" height="33.9688" rx="12.5" ry="12.5" style="stroke: #A80036; stroke-width: 1.5;" width="236" x="318" y="856.5156"/><text fill="#000000" font-family="sans-serif" font-size="12" lengthAdjust="spacingAndGlyphs" textLength="216" x="328" y="877.6543">两个地方要特别关注：命令行和配置文件</text><rect fill="#FEFECE" filter="url(#f1wg29bvz2sz5f)" height="33.9688" rx="12.5" ry="12.5" style="stroke: #A80036; stroke-width: 1.5;" width="224" x="604" y="829.5313"/><text fill="#000000" font-family="sans-serif" font-size="12" lengthAdjust="spacingAndGlyphs" textLength="204" x="614" y="850.6699">系统具备哪些能力和系统将会如何运行</text><path d="M554,873.5 L564,873.5 C579,873.5 579,846.5156 594,846.5156 L604,846.5156 " fill="none" style="stroke: #A80036; stroke-width: 1.0;"/><rect fill="#FEFECE" filter="url(#f1wg29bvz2sz5f)" height="33.9688" rx="12.5" ry="12.5" style="stroke: #A80036; stroke-width: 1.5;" width="320" x="604" y="883.5"/><text fill="#000000" font-family="sans-serif" font-size="12" lengthAdjust="spacingAndGlyphs" textLength="300" x="614" y="904.6387">这些信息是我们窥视系统内部运行机制和原理的一扇窗口</text><path d="M554,873.5 L564,873.5 C579,873.5 579,900.4844 594,900.4844 L604,900.4844 " fill="none" style="stroke: #A80036; stroke-width: 1.0;"/><path d="M268,954.4531 L278,954.4531 C293,954.4531 293,873.5 308,873.5 L318,873.5 " fill="none" style="stroke: #A80036; stroke-width: 1.0;"/><rect fill="#FEFECE" filter="url(#f1wg29bvz2sz5f)" height="33.9688" rx="12.5" ry="12.5" style="stroke: #A80036; stroke-width: 1.5;" width="116" x="318" y="991.4375"/><text fill="#000000" font-family="sans-serif" font-size="12" lengthAdjust="spacingAndGlyphs" textLength="96" x="328" y="1012.5762">令行参数和配置项</text><rect fill="#FEFECE" filter="url(#f1wg29bvz2sz5f)" height="33.9688" rx="12.5" ry="12.5" style="stroke: #A80036; stroke-width: 1.5;" width="320" x="484" y="937.4688"/><text fill="#000000" font-family="sans-serif" font-size="12" lengthAdjust="spacingAndGlyphs" textLength="300" x="494" y="958.6074">将每个命令行参数和配置项的作用和原理都全部掌握清楚</text><path d="M434,1008.4219 L444,1008.4219 C459,1008.4219 459,954.4531 474,954.4531 L484,954.4531 " fill="none" style="stroke: #A80036; stroke-width: 1.0;"/><rect fill="#FEFECE" filter="url(#f1wg29bvz2sz5f)" height="33.9688" rx="12.5" ry="12.5" style="stroke: #A80036; stroke-width: 1.5;" width="188" x="484" y="991.4375"/><text fill="#000000" font-family="sans-serif" font-size="12" lengthAdjust="spacingAndGlyphs" textLength="168" x="494" y="1012.5762">包括配置项的原理、作用、影响</text><path d="M434,1008.4219 L444,1008.4219 C459,1008.4219 459,1008.4219 474,1008.4219 L484,1008.4219 " fill="none" style="stroke: #A80036; stroke-width: 1.0;"/><rect fill="#FEFECE" filter="url(#f1wg29bvz2sz5f)" height="33.9688" rx="12.5" ry="12.5" style="stroke: #A80036; stroke-width: 1.5;" width="260" x="484" y="1045.4063"/><text fill="#000000" font-family="sans-serif" font-size="12" lengthAdjust="spacingAndGlyphs" textLength="240" x="494" y="1066.5449">尝试去修改配置项然后看看系统会有什么变化</text><path d="M434,1008.4219 L444,1008.4219 C459,1008.4219 459,1062.3906 474,1062.3906 L484,1062.3906 " fill="none" style="stroke: #A80036; stroke-width: 1.0;"/><path d="M268,954.4531 L278,954.4531 C293,954.4531 293,1008.4219 308,1008.4219 L318,1008.4219 " fill="none" style="stroke: #A80036; stroke-width: 1.0;"/><path d="M126,1372.7109 L136,1372.7109 C151,1372.7109 151,954.4531 166,954.4531 L176,954.4531 " fill="none" style="stroke: #A80036; stroke-width: 1.0;"/><rect fill="#FEFECE" filter="url(#f1wg29bvz2sz5f)" height="33.9688" rx="12.5" ry="12.5" style="stroke: #A80036; stroke-width: 1.5;" width="116" x="176" y="1355.7266"/><text fill="#000000" font-family="sans-serif" font-size="12" lengthAdjust="spacingAndGlyphs" textLength="96" x="186" y="1376.8652">第三步：原理研究</text><rect fill="#FEFECE" filter="url(#f1wg29bvz2sz5f)" height="33.9688" rx="12.5" ry="12.5" style="stroke: #A80036; stroke-width: 1.5;" width="152" x="342" y="1099.375"/><text fill="#000000" font-family="sans-serif" font-size="12" lengthAdjust="spacingAndGlyphs" textLength="132" x="352" y="1120.5137">关键就是“系统性”三个字</text><path d="M292,1372.7109 L302,1372.7109 C317,1372.7109 317,1116.3594 332,1116.3594 L342,1116.3594 " fill="none" style="stroke: #A80036; stroke-width: 1.0;"/><rect fill="#FEFECE" filter="url(#f1wg29bvz2sz5f)" height="33.9688" rx="12.5" ry="12.5" style="stroke: #A80036; stroke-width: 1.5;" width="152" x="342" y="1153.3438"/><text fill="#000000" font-family="sans-serif" font-size="12" lengthAdjust="spacingAndGlyphs" textLength="132" x="352" y="1174.4824">关键特性的基本实现原理</text><rect fill="#FEFECE" filter="url(#f1wg29bvz2sz5f)" height="33.9688" rx="12.5" ry="12.5" style="stroke: #A80036; stroke-width: 1.5;" width="246" x="544" y="1126.3594"/><text fill="#000000" font-family="sans-serif" font-size="12" lengthAdjust="spacingAndGlyphs" textLength="226" x="554" y="1147.498">这个开源项目的「关键特性」是什么(卖点)</text><path d="M494,1170.3281 L504,1170.3281 C519,1170.3281 519,1143.3438 534,1143.3438 L544,1143.3438 " fill="none" style="stroke: #A80036; stroke-width: 1.0;"/><rect fill="#FEFECE" filter="url(#f1wg29bvz2sz5f)" height="33.9688" rx="12.5" ry="12.5" style="stroke: #A80036; stroke-width: 1.5;" width="236" x="544" y="1180.3281"/><text fill="#000000" font-family="sans-serif" font-size="12" lengthAdjust="spacingAndGlyphs" textLength="216" x="554" y="1201.4668">常见的有高性能、高可用、可扩展等特性</text><path d="M494,1170.3281 L504,1170.3281 C519,1170.3281 519,1197.3125 534,1197.3125 L544,1197.3125 " fill="none" style="stroke: #A80036; stroke-width: 1.0;"/><path d="M292,1372.7109 L302,1372.7109 C317,1372.7109 317,1170.3281 332,1170.3281 L342,1170.3281 " fill="none" style="stroke: #A80036; stroke-width: 1.0;"/><rect fill="#FEFECE" filter="url(#f1wg29bvz2sz5f)" height="33.9688" rx="12.5" ry="12.5" style="stroke: #A80036; stroke-width: 1.5;" width="104" x="342" y="1342.2344"/><text fill="#000000" font-family="sans-serif" font-size="12" lengthAdjust="spacingAndGlyphs" textLength="84" x="352" y="1363.373">优缺点对比分析</text><rect fill="#FEFECE" filter="url(#f1wg29bvz2sz5f)" height="33.9688" rx="12.5" ry="12.5" style="stroke: #A80036; stroke-width: 1.5;" width="44" x="496" y="1261.2813"/><text fill="#000000" font-family="sans-serif" font-size="12" lengthAdjust="spacingAndGlyphs" textLength="24" x="506" y="1282.4199">意义</text><rect fill="#FEFECE" filter="url(#f1wg29bvz2sz5f)" height="33.9688" rx="12.5" ry="12.5" style="stroke: #A80036; stroke-width: 1.5;" width="332" x="590" y="1234.2969"/><text fill="#000000" font-family="sans-serif" font-size="12" lengthAdjust="spacingAndGlyphs" textLength="312" x="600" y="1255.4355">只有清楚掌握技术方案的优缺点后才算真正的掌握这门技术</text><path d="M540,1278.2656 L550,1278.2656 C565,1278.2656 565,1251.2813 580,1251.2813 L590,1251.2813 " fill="none" style="stroke: #A80036; stroke-width: 1.0;"/><rect fill="#FEFECE" filter="url(#f1wg29bvz2sz5f)" height="33.9688" rx="12.5" ry="12.5" style="stroke: #A80036; stroke-width: 1.5;" width="380" x="590" y="1288.2656"/><text fill="#000000" font-family="sans-serif" font-size="12" lengthAdjust="spacingAndGlyphs" textLength="360" x="600" y="1309.4043">只有掌握了技术方案的优缺点后才能在架构设计的时做出合理的选择</text><path d="M540,1278.2656 L550,1278.2656 C565,1278.2656 565,1305.25 580,1305.25 L590,1305.25 " fill="none" style="stroke: #A80036; stroke-width: 1.0;"/><path d="M446,1359.2188 L456,1359.2188 C471,1359.2188 471,1278.2656 486,1278.2656 L496,1278.2656 " fill="none" style="stroke: #A80036; stroke-width: 1.0;"/><rect fill="#FEFECE" filter="url(#f1wg29bvz2sz5f)" height="33.9688" rx="12.5" ry="12.5" style="stroke: #A80036; stroke-width: 1.5;" width="96" x="496" y="1396.2031"/><text fill="#000000" font-family="sans-serif" font-size="12" lengthAdjust="spacingAndGlyphs" textLength="76" x="506" y="1417.3418">方法:对比分析</text><rect fill="#FEFECE" filter="url(#f1wg29bvz2sz5f)" height="33.9688" rx="12.5" ry="12.5" style="stroke: #A80036; stroke-width: 1.5;" width="164" x="642" y="1342.2344"/><text fill="#000000" font-family="sans-serif" font-size="12" lengthAdjust="spacingAndGlyphs" textLength="144" x="652" y="1363.373">将两个类似的系统进行对比</text><path d="M592,1413.1875 L602,1413.1875 C617,1413.1875 617,1359.2188 632,1359.2188 L642,1359.2188 " fill="none" style="stroke: #A80036; stroke-width: 1.0;"/><rect fill="#FEFECE" filter="url(#f1wg29bvz2sz5f)" height="33.9688" rx="12.5" ry="12.5" style="stroke: #A80036; stroke-width: 1.5;" width="308" x="642" y="1396.2031"/><text fill="#000000" font-family="sans-serif" font-size="12" lengthAdjust="spacingAndGlyphs" textLength="288" x="652" y="1417.3418">看看它们的实现差异，以及不同的实现优缺点都是什么</text><path d="M592,1413.1875 L602,1413.1875 C617,1413.1875 617,1413.1875 632,1413.1875 L642,1413.1875 " fill="none" style="stroke: #A80036; stroke-width: 1.0;"/><rect fill="#FEFECE" filter="url(#f1wg29bvz2sz5f)" height="33.9688" rx="12.5" ry="12.5" style="stroke: #A80036; stroke-width: 1.5;" width="217" x="642" y="1450.1719"/><text fill="#000000" font-family="sans-serif" font-size="12" lengthAdjust="spacingAndGlyphs" textLength="197" x="652" y="1471.3105">典型的对比有 Memcache 和 Redis</text><path d="M592,1413.1875 L602,1413.1875 C617,1413.1875 617,1467.1563 632,1467.1563 L642,1467.1563 " fill="none" style="stroke: #A80036; stroke-width: 1.0;"/><path d="M446,1359.2188 L456,1359.2188 C471,1359.2188 471,1413.1875 486,1413.1875 L496,1413.1875 " fill="none" style="stroke: #A80036; stroke-width: 1.0;"/><path d="M292,1372.7109 L302,1372.7109 C317,1372.7109 317,1359.2188 332,1359.2188 L342,1359.2188 " fill="none" style="stroke: #A80036; stroke-width: 1.0;"/><rect fill="#FEFECE" filter="url(#f1wg29bvz2sz5f)" height="33.9688" rx="12.5" ry="12.5" style="stroke: #A80036; stroke-width: 1.5;" width="104" x="342" y="1558.1094"/><text fill="#000000" font-family="sans-serif" font-size="12" lengthAdjust="spacingAndGlyphs" textLength="84" x="352" y="1579.248">原理研究的手段</text><rect fill="#FEFECE" filter="url(#f1wg29bvz2sz5f)" height="33.9688" rx="12.5" ry="12.5" style="stroke: #A80036; stroke-width: 1.5;" width="128" x="496" y="1504.1406"/><text fill="#000000" font-family="sans-serif" font-size="12" lengthAdjust="spacingAndGlyphs" textLength="108" x="506" y="1525.2793">通读项目的设计文档</text><path d="M446,1575.0938 L456,1575.0938 C471,1575.0938 471,1521.125 486,1521.125 L496,1521.125 " fill="none" style="stroke: #A80036; stroke-width: 1.0;"/><rect fill="#FEFECE" filter="url(#f1wg29bvz2sz5f)" height="33.9688" rx="12.5" ry="12.5" style="stroke: #A80036; stroke-width: 1.5;" width="152" x="496" y="1558.1094"/><text fill="#000000" font-family="sans-serif" font-size="12" lengthAdjust="spacingAndGlyphs" textLength="132" x="506" y="1579.248">阅读网上已有的分析文档</text><path d="M446,1575.0938 L456,1575.0938 C471,1575.0938 471,1575.0938 486,1575.0938 L496,1575.0938 " fill="none" style="stroke: #A80036; stroke-width: 1.0;"/><rect fill="#FEFECE" filter="url(#f1wg29bvz2sz5f)" height="33.9688" rx="12.5" ry="12.5" style="stroke: #A80036; stroke-width: 1.5;" width="84" x="496" y="1612.0781"/><text fill="#000000" font-family="sans-serif" font-size="12" lengthAdjust="spacingAndGlyphs" textLength="64" x="506" y="1633.2168">Demo 验证</text><path d="M446,1575.0938 L456,1575.0938 C471,1575.0938 471,1629.0625 486,1629.0625 L496,1629.0625 " fill="none" style="stroke: #A80036; stroke-width: 1.0;"/><path d="M292,1372.7109 L302,1372.7109 C317,1372.7109 317,1575.0938 332,1575.0938 L342,1575.0938 " fill="none" style="stroke: #A80036; stroke-width: 1.0;"/><path d="M126,1372.7109 L136,1372.7109 C151,1372.7109 151,1372.7109 166,1372.7109 L176,1372.7109 " fill="none" style="stroke: #A80036; stroke-width: 1.0;"/><rect fill="#FEFECE" filter="url(#f1wg29bvz2sz5f)" height="33.9688" rx="12.5" ry="12.5" style="stroke: #A80036; stroke-width: 1.5;" width="92" x="176" y="1854.9375"/><text fill="#000000" font-family="sans-serif" font-size="12" lengthAdjust="spacingAndGlyphs" textLength="72" x="186" y="1876.0762">第四步：测试</text><rect fill="#FEFECE" filter="url(#f1wg29bvz2sz5f)" height="33.9688" rx="12.5" ry="12.5" style="stroke: #A80036; stroke-width: 1.5;" width="44" x="318" y="1720.0156"/><text fill="#000000" font-family="sans-serif" font-size="12" lengthAdjust="spacingAndGlyphs" textLength="24" x="328" y="1741.1543">意义</text><rect fill="#FEFECE" filter="url(#f1wg29bvz2sz5f)" height="33.9688" rx="12.5" ry="12.5" style="stroke: #A80036; stroke-width: 1.5;" width="224" x="412" y="1666.0469"/><text fill="#000000" font-family="sans-serif" font-size="12" lengthAdjust="spacingAndGlyphs" textLength="204" x="422" y="1687.1855">只是自己学习和研究可以只看网上结论</text><path d="M362,1737 L372,1737 C387,1737 387,1683.0313 402,1683.0313 L412,1683.0313 " fill="none" style="stroke: #A80036; stroke-width: 1.0;"/><rect fill="#FEFECE" filter="url(#f1wg29bvz2sz5f)" height="33.9688" rx="12.5" ry="12.5" style="stroke: #A80036; stroke-width: 1.5;" width="320" x="412" y="1720.0156"/><text fill="#000000" font-family="sans-serif" font-size="12" lengthAdjust="spacingAndGlyphs" textLength="300" x="422" y="1741.1543">准备在实际项目中使用某个开源项目的话，必须进行测试</text><path d="M362,1737 L372,1737 C387,1737 387,1737 402,1737 L412,1737 " fill="none" style="stroke: #A80036; stroke-width: 1.0;"/><rect fill="#FEFECE" filter="url(#f1wg29bvz2sz5f)" height="33.9688" rx="12.5" ry="12.5" style="stroke: #A80036; stroke-width: 1.5;" width="320" x="412" y="1773.9844"/><text fill="#000000" font-family="sans-serif" font-size="12" lengthAdjust="spacingAndGlyphs" textLength="300" x="422" y="1795.123">因为网上搜的测试结果，不一定与自己的业务场景很契合</text><path d="M362,1737 L372,1737 C387,1737 387,1790.9688 402,1790.9688 L412,1790.9688 " fill="none" style="stroke: #A80036; stroke-width: 1.0;"/><path d="M268,1871.9219 L278,1871.9219 C293,1871.9219 293,1737 308,1737 L318,1737 " fill="none" style="stroke: #A80036; stroke-width: 1.0;"/><rect fill="#FEFECE" filter="url(#f1wg29bvz2sz5f)" height="33.9688" rx="12.5" ry="12.5" style="stroke: #A80036; stroke-width: 1.5;" width="44" x="318" y="1935.8906"/><text fill="#000000" font-family="sans-serif" font-size="12" lengthAdjust="spacingAndGlyphs" textLength="24" x="328" y="1957.0293">注意</text><rect fill="#FEFECE" filter="url(#f1wg29bvz2sz5f)" height="33.9688" rx="12.5" ry="12.5" style="stroke: #A80036; stroke-width: 1.5;" width="332" x="412" y="1827.9531"/><text fill="#000000" font-family="sans-serif" font-size="12" lengthAdjust="spacingAndGlyphs" textLength="312" x="422" y="1849.0918">测试一定要在原理研究之后做，不能安装完成立马就测试！</text><path d="M362,1952.875 L372,1952.875 C387,1952.875 387,1844.9375 402,1844.9375 L412,1844.9375 " fill="none" style="stroke: #A80036; stroke-width: 1.0;"/><rect fill="#FEFECE" filter="url(#f1wg29bvz2sz5f)" height="33.9688" rx="12.5" ry="12.5" style="stroke: #A80036; stroke-width: 1.5;" width="368" x="412" y="1881.9219"/><text fill="#000000" font-family="sans-serif" font-size="12" lengthAdjust="spacingAndGlyphs" textLength="348" x="422" y="1903.0605">原因在于如果对系统不熟悉，很可能出现命令行、配置参数没用对</text><path d="M362,1952.875 L372,1952.875 C387,1952.875 387,1898.9063 402,1898.9063 L412,1898.9063 " fill="none" style="stroke: #A80036; stroke-width: 1.0;"/><rect fill="#FEFECE" filter="url(#f1wg29bvz2sz5f)" height="33.9688" rx="12.5" ry="12.5" style="stroke: #A80036; stroke-width: 1.5;" width="152" x="412" y="1935.8906"/><text fill="#000000" font-family="sans-serif" font-size="12" lengthAdjust="spacingAndGlyphs" textLength="132" x="422" y="1957.0293">或者运行模式选择不对，</text><path d="M362,1952.875 L372,1952.875 C387,1952.875 387,1952.875 402,1952.875 L412,1952.875 " fill="none" style="stroke: #A80036; stroke-width: 1.0;"/><rect fill="#FEFECE" filter="url(#f1wg29bvz2sz5f)" height="33.9688" rx="12.5" ry="12.5" style="stroke: #A80036; stroke-width: 1.5;" width="392" x="412" y="1989.8594"/><text fill="#000000" font-family="sans-serif" font-size="12" lengthAdjust="spacingAndGlyphs" textLength="372" x="422" y="2010.998">导致没有根据业务的特点搭建正确的环境、没有设计合理的测试用例，</text><path d="M362,1952.875 L372,1952.875 C387,1952.875 387,2006.8438 402,2006.8438 L412,2006.8438 " fill="none" style="stroke: #A80036; stroke-width: 1.0;"/><rect fill="#FEFECE" filter="url(#f1wg29bvz2sz5f)" height="33.9688" rx="12.5" ry="12.5" style="stroke: #A80036; stroke-width: 1.5;" width="332" x="412" y="2043.8281"/><text fill="#000000" font-family="sans-serif" font-size="12" lengthAdjust="spacingAndGlyphs" textLength="312" x="422" y="2064.9668">从而使得最终的测试结果得出了错误结论，误导了设计决策</text><path d="M362,1952.875 L372,1952.875 C387,1952.875 387,2060.8125 402,2060.8125 L412,2060.8125 " fill="none" style="stroke: #A80036; stroke-width: 1.0;"/><path d="M268,1871.9219 L278,1871.9219 C293,1871.9219 293,1952.875 308,1952.875 L318,1952.875 " fill="none" style="stroke: #A80036; stroke-width: 1.0;"/><path d="M126,1372.7109 L136,1372.7109 C151,1372.7109 151,1871.9219 166,1871.9219 L176,1871.9219 " fill="none" style="stroke: #A80036; stroke-width: 1.0;"/><rect fill="#FEFECE" filter="url(#f1wg29bvz2sz5f)" height="33.9688" rx="12.5" ry="12.5" style="stroke: #A80036; stroke-width: 1.5;" width="116" x="176" y="2232.7188"/><text fill="#000000" font-family="sans-serif" font-size="12" lengthAdjust="spacingAndGlyphs" textLength="96" x="186" y="2253.8574">第五步：源码研究</text><rect fill="#FEFECE" filter="url(#f1wg29bvz2sz5f)" height="33.9688" rx="12.5" ry="12.5" style="stroke: #A80036; stroke-width: 1.5;" width="44" x="342" y="2124.7813"/><text fill="#000000" font-family="sans-serif" font-size="12" lengthAdjust="spacingAndGlyphs" textLength="24" x="352" y="2145.9199">建议</text><rect fill="#FEFECE" filter="url(#f1wg29bvz2sz5f)" height="33.9688" rx="12.5" ry="12.5" style="stroke: #A80036; stroke-width: 1.5;" width="200" x="436" y="2097.7969"/><text fill="#000000" font-family="sans-serif" font-size="12" lengthAdjust="spacingAndGlyphs" textLength="180" x="446" y="2118.9355">通常情况下，不建议通读所有源码</text><path d="M386,2141.7656 L396,2141.7656 C411,2141.7656 411,2114.7813 426,2114.7813 L436,2114.7813 " fill="none" style="stroke: #A80036; stroke-width: 1.0;"/><rect fill="#FEFECE" filter="url(#f1wg29bvz2sz5f)" height="33.9688" rx="12.5" ry="12.5" style="stroke: #A80036; stroke-width: 1.5;" width="233" x="436" y="2151.7656"/><text fill="#000000" font-family="sans-serif" font-size="12" lengthAdjust="spacingAndGlyphs" textLength="213" x="446" y="2172.9043">尤其是 MySQL、Nginx 这种规模的项目</text><path d="M386,2141.7656 L396,2141.7656 C411,2141.7656 411,2168.75 426,2168.75 L436,2168.75 " fill="none" style="stroke: #A80036; stroke-width: 1.0;"/><path d="M292,2249.7031 L302,2249.7031 C317,2249.7031 317,2141.7656 332,2141.7656 L342,2141.7656 " fill="none" style="stroke: #A80036; stroke-width: 1.0;"/><rect fill="#FEFECE" filter="url(#f1wg29bvz2sz5f)" height="33.9688" rx="12.5" ry="12.5" style="stroke: #A80036; stroke-width: 1.5;" width="80" x="342" y="2286.6875"/><text fill="#000000" font-family="sans-serif" font-size="12" lengthAdjust="spacingAndGlyphs" textLength="60" x="352" y="2307.8262">Demo调用</text><rect fill="#FEFECE" filter="url(#f1wg29bvz2sz5f)" height="33.9688" rx="12.5" ry="12.5" style="stroke: #A80036; stroke-width: 1.5;" width="200" x="472" y="2205.7344"/><text fill="#000000" font-family="sans-serif" font-size="12" lengthAdjust="spacingAndGlyphs" textLength="180" x="482" y="2226.873">对于一些基础库，除了阅读源码外</text><path d="M422,2303.6719 L432,2303.6719 C447,2303.6719 447,2222.7188 462,2222.7188 L472,2222.7188 " fill="none" style="stroke: #A80036; stroke-width: 1.0;"/><rect fill="#FEFECE" filter="url(#f1wg29bvz2sz5f)" height="33.9688" rx="12.5" ry="12.5" style="stroke: #A80036; stroke-width: 1.5;" width="316" x="472" y="2259.7031"/><text fill="#000000" font-family="sans-serif" font-size="12" lengthAdjust="spacingAndGlyphs" textLength="296" x="482" y="2280.8418">还可以自己写个 Demo 调用基础库完成一些简单的功能</text><path d="M422,2303.6719 L432,2303.6719 C447,2303.6719 447,2276.6875 462,2276.6875 L472,2276.6875 " fill="none" style="stroke: #A80036; stroke-width: 1.0;"/><rect fill="#FEFECE" filter="url(#f1wg29bvz2sz5f)" height="33.9688" rx="12.5" ry="12.5" style="stroke: #A80036; stroke-width: 1.5;" width="308" x="472" y="2313.6719"/><text fill="#000000" font-family="sans-serif" font-size="12" lengthAdjust="spacingAndGlyphs" textLength="288" x="482" y="2334.8105">然后调试来通过调用栈来理解基础库的处理逻辑和过程</text><path d="M422,2303.6719 L432,2303.6719 C447,2303.6719 447,2330.6563 462,2330.6563 L472,2330.6563 " fill="none" style="stroke: #A80036; stroke-width: 1.0;"/><rect fill="#FEFECE" filter="url(#f1wg29bvz2sz5f)" height="33.9688" rx="12.5" ry="12.5" style="stroke: #A80036; stroke-width: 1.5;" width="224" x="472" y="2367.6406"/><text fill="#000000" font-family="sans-serif" font-size="12" lengthAdjust="spacingAndGlyphs" textLength="204" x="482" y="2388.7793">这比单纯看代码去理解逻辑要高效一些</text><path d="M422,2303.6719 L432,2303.6719 C447,2303.6719 447,2384.625 462,2384.625 L472,2384.625 " fill="none" style="stroke: #A80036; stroke-width: 1.0;"/><path d="M292,2249.7031 L302,2249.7031 C317,2249.7031 317,2303.6719 332,2303.6719 L342,2303.6719 " fill="none" style="stroke: #A80036; stroke-width: 1.0;"/><path d="M126,1372.7109 L136,1372.7109 C151,1372.7109 151,2249.7031 166,2249.7031 L176,2249.7031 " fill="none" style="stroke: #A80036; stroke-width: 1.0;"/><rect fill="#FEFECE" filter="url(#f1wg29bvz2sz5f)" height="33.9688" rx="12.5" ry="12.5" style="stroke: #A80036; stroke-width: 1.5;" width="68" x="176" y="2556.5313"/><text fill="#000000" font-family="sans-serif" font-size="12" lengthAdjust="spacingAndGlyphs" textLength="48" x="186" y="2577.6699">时间分配</text><rect fill="#FEFECE" filter="url(#f1wg29bvz2sz5f)" height="33.9688" rx="12.5" ry="12.5" style="stroke: #A80036; stroke-width: 1.5;" width="80" x="294" y="2475.5781"/><text fill="#000000" font-family="sans-serif" font-size="12" lengthAdjust="spacingAndGlyphs" textLength="60" x="304" y="2496.7168">时间不够用</text><rect fill="#FEFECE" filter="url(#f1wg29bvz2sz5f)" height="33.9688" rx="12.5" ry="12.5" style="stroke: #A80036; stroke-width: 1.5;" width="132" x="424" y="2421.6094"/><text fill="#000000" font-family="sans-serif" font-size="12" lengthAdjust="spacingAndGlyphs" textLength="112" x="434" y="2442.748">前 3 个步骤必不可少</text><path d="M374,2492.5625 L384,2492.5625 C399,2492.5625 399,2438.5938 414,2438.5938 L424,2438.5938 " fill="none" style="stroke: #A80036; stroke-width: 1.0;"/><rect fill="#FEFECE" filter="url(#f1wg29bvz2sz5f)" height="33.9688" rx="12.5" ry="12.5" style="stroke: #A80036; stroke-width: 1.5;" width="248" x="424" y="2475.5781"/><text fill="#000000" font-family="sans-serif" font-size="12" lengthAdjust="spacingAndGlyphs" textLength="228" x="434" y="2496.7168">第四步可在准备采用开源项目的时候才实施</text><path d="M374,2492.5625 L384,2492.5625 C399,2492.5625 399,2492.5625 414,2492.5625 L424,2492.5625 " fill="none" style="stroke: #A80036; stroke-width: 1.0;"/><rect fill="#FEFECE" filter="url(#f1wg29bvz2sz5f)" height="33.9688" rx="12.5" ry="12.5" style="stroke: #A80036; stroke-width: 1.5;" width="152" x="424" y="2529.5469"/><text fill="#000000" font-family="sans-serif" font-size="12" lengthAdjust="spacingAndGlyphs" textLength="132" x="434" y="2550.6855">第五步可以自己灵活安排</text><path d="M374,2492.5625 L384,2492.5625 C399,2492.5625 399,2546.5313 414,2546.5313 L424,2546.5313 " fill="none" style="stroke: #A80036; stroke-width: 1.0;"/><path d="M244,2573.5156 L254,2573.5156 C269,2573.5156 269,2492.5625 284,2492.5625 L294,2492.5625 " fill="none" style="stroke: #A80036; stroke-width: 1.0;"/><rect fill="#FEFECE" filter="url(#f1wg29bvz2sz5f)" height="33.9688" rx="12.5" ry="12.5" style="stroke: #A80036; stroke-width: 1.5;" width="44" x="294" y="2637.4844"/><text fill="#000000" font-family="sans-serif" font-size="12" lengthAdjust="spacingAndGlyphs" textLength="24" x="304" y="2658.623">技巧</text><rect fill="#FEFECE" filter="url(#f1wg29bvz2sz5f)" height="33.9688" rx="12.5" ry="12.5" style="stroke: #A80036; stroke-width: 1.5;" width="260" x="388" y="2583.5156"/><text fill="#000000" font-family="sans-serif" font-size="12" lengthAdjust="spacingAndGlyphs" textLength="240" x="398" y="2604.6543">与其蜻蜓点水每个开源项目都去简单了解一下</text><path d="M338,2654.4688 L348,2654.4688 C363,2654.4688 363,2600.5 378,2600.5 L388,2600.5 " fill="none" style="stroke: #A80036; stroke-width: 1.0;"/><rect fill="#FEFECE" filter="url(#f1wg29bvz2sz5f)" height="33.9688" rx="12.5" ry="12.5" style="stroke: #A80036; stroke-width: 1.5;" width="224" x="388" y="2637.4844"/><text fill="#000000" font-family="sans-serif" font-size="12" lengthAdjust="spacingAndGlyphs" textLength="204" x="398" y="2658.623">不如集中精力将一个开源项目研究通透</text><path d="M338,2654.4688 L348,2654.4688 C363,2654.4688 363,2654.4688 378,2654.4688 L388,2654.4688 " fill="none" style="stroke: #A80036; stroke-width: 1.0;"/><rect fill="#FEFECE" filter="url(#f1wg29bvz2sz5f)" height="33.9688" rx="12.5" ry="12.5" style="stroke: #A80036; stroke-width: 1.5;" width="404" x="388" y="2691.4531"/><text fill="#000000" font-family="sans-serif" font-size="12" lengthAdjust="spacingAndGlyphs" textLength="384" x="398" y="2712.5918">就算是每个季度只学习一个开源项目，积累几年后这个数量也是很客观的</text><path d="M338,2654.4688 L348,2654.4688 C363,2654.4688 363,2708.4375 378,2708.4375 L388,2708.4375 " fill="none" style="stroke: #A80036; stroke-width: 1.0;"/><path d="M244,2573.5156 L254,2573.5156 C269,2573.5156 269,2654.4688 284,2654.4688 L294,2654.4688 " fill="none" style="stroke: #A80036; stroke-width: 1.0;"/><path d="M126,1372.7109 L136,1372.7109 C151,1372.7109 151,2573.5156 166,2573.5156 L176,2573.5156 " fill="none" style="stroke: #A80036; stroke-width: 1.0;"/><!--
--></g></svg>