<svg xmlns="http://www.w3.org/2000/svg" xmlns:xlink="http://www.w3.org/1999/xlink" width="469" height="280" contentScriptType="application/ecmascript" contentStyleType="text/css" style="width:469px;height:280px" preserveAspectRatio="none" version="1.1" viewBox="0 0 469 280" zoomAndPan="magnify"><defs><filter id="fj0ra4nz0j4mv" width="300%" height="300%" x="-1" y="-1"><feGaussianBlur result="blurOut" stdDeviation="2"/><feColorMatrix in="blurOut" result="blurOut2" type="matrix" values="0 0 0 0 0 0 0 0 0 0 0 0 0 0 0 0 0 0 .4 0"/><feOffset dx="4" dy="4" in="blurOut2" result="blurOut3"/><feBlend in="SourceGraphic" in2="blurOut3" mode="normal"/></filter></defs><g><rect style="stroke:#a80036;stroke-width:1.5" width="44" height="33.969" x="10" y="127.938" fill="#FEFECE" filter="url(#fj0ra4nz0j4mv)" rx="12.5" ry="12.5"/><text x="20" y="149.076" fill="#000" font-family="sans-serif" font-size="12" lengthAdjust="spacingAndGlyphs" textLength="24">简理</text><rect style="stroke:#a80036;stroke-width:1.5" width="44" height="33.969" x="104" y="20" fill="#FEFECE" filter="url(#fj0ra4nz0j4mv)" rx="12.5" ry="12.5"/><text x="114" y="41.139" fill="#000" font-family="sans-serif" font-size="12" lengthAdjust="spacingAndGlyphs" textLength="24">智者</text><rect style="stroke:#a80036;stroke-width:1.5" width="260" height="33.969" x="198" y="20" fill="#FEFECE" filter="url(#fj0ra4nz0j4mv)" rx="12.5" ry="12.5"/><text x="208" y="41.139" fill="#000" font-family="sans-serif" font-size="12" lengthAdjust="spacingAndGlyphs" textLength="240">规则对智者来说是指导，对愚蠢者来说是遵从</text><path fill="none" d="M148,36.9844 L158,36.9844 C173,36.9844 173,36.9844 188,36.9844 L198,36.9844" style="stroke:#a80036;stroke-width:1"/><path fill="none" d="M54,144.9219 L64,144.9219 C79,144.9219 79,36.9844 94,36.9844 L104,36.9844" style="stroke:#a80036;stroke-width:1"/><rect style="stroke:#a80036;stroke-width:1.5" width="44" height="33.969" x="104" y="154.922" fill="#FEFECE" filter="url(#fj0ra4nz0j4mv)" rx="12.5" ry="12.5"/><text x="114" y="176.06" fill="#000" font-family="sans-serif" font-size="12" lengthAdjust="spacingAndGlyphs" textLength="24">原则</text><rect style="stroke:#a80036;stroke-width:1.5" width="108" height="33.969" x="198" y="73.969" fill="#FEFECE" filter="url(#fj0ra4nz0j4mv)" rx="12.5" ry="12.5"/><text x="208" y="95.107" fill="#000" font-family="sans-serif" font-size="12" lengthAdjust="spacingAndGlyphs" textLength="88">原则不超过10个</text><path fill="none" d="M148,171.9063 L158,171.9063 C173,171.9063 173,90.9531 188,90.9531 L198,90.9531" style="stroke:#a80036;stroke-width:1"/><rect style="stroke:#a80036;stroke-width:1.5" width="128" height="33.969" x="198" y="127.938" fill="#FEFECE" filter="url(#fj0ra4nz0j4mv)" rx="12.5" ry="12.5"/><text x="208" y="149.076" fill="#000" font-family="sans-serif" font-size="12" lengthAdjust="spacingAndGlyphs" textLength="108">能够写在一个海报上</text><path fill="none" d="M148,171.9063 L158,171.9063 C173,171.9063 173,144.9219 188,144.9219 L198,144.9219" style="stroke:#a80036;stroke-width:1"/><rect style="stroke:#a80036;stroke-width:1.5" width="104" height="33.969" x="198" y="181.906" fill="#FEFECE" filter="url(#fj0ra4nz0j4mv)" rx="12.5" ry="12.5"/><text x="208" y="203.045" fill="#000" font-family="sans-serif" font-size="12" lengthAdjust="spacingAndGlyphs" textLength="84">不然大家记不住</text><path fill="none" d="M148,171.9063 L158,171.9063 C173,171.9063 173,198.8906 188,198.8906 L198,198.8906" style="stroke:#a80036;stroke-width:1"/><rect style="stroke:#a80036;stroke-width:1.5" width="164" height="33.969" x="198" y="235.875" fill="#FEFECE" filter="url(#fj0ra4nz0j4mv)" rx="12.5" ry="12.5"/><text x="208" y="257.014" fill="#000" font-family="sans-serif" font-size="12" lengthAdjust="spacingAndGlyphs" textLength="144">原则越多，越易重叠和冲突</text><path fill="none" d="M148,171.9063 L158,171.9063 C173,171.9063 173,252.8594 188,252.8594 L198,252.8594" style="stroke:#a80036;stroke-width:1"/><path fill="none" d="M54,144.9219 L64,144.9219 C79,144.9219 79,171.9063 94,171.9063 L104,171.9063" style="stroke:#a80036;stroke-width:1"/></g></svg>