<svg xmlns="http://www.w3.org/2000/svg" xmlns:xlink="http://www.w3.org/1999/xlink" width="773" height="1360" contentScriptType="application/ecmascript" contentStyleType="text/css" style="width:773px;height:1360px" preserveAspectRatio="none" version="1.1" viewBox="0 0 773 1360" zoomAndPan="magnify"><defs><filter id="f12tyq7lng4sjz" width="300%" height="300%" x="-1" y="-1"><feGaussianBlur result="blurOut" stdDeviation="2"/><feColorMatrix in="blurOut" result="blurOut2" type="matrix" values="0 0 0 0 0 0 0 0 0 0 0 0 0 0 0 0 0 0 .4 0"/><feOffset dx="4" dy="4" in="blurOut2" result="blurOut3"/><feBlend in="SourceGraphic" in2="blurOut3" mode="normal"/></filter></defs><g><rect style="stroke:#a80036;stroke-width:1.5" width="68" height="33.969" x="10" y="667.625" fill="#FEFECE" filter="url(#f12tyq7lng4sjz)" rx="12.5" ry="12.5"/><text x="20" y="688.764" fill="#000" font-family="sans-serif" font-size="12" lengthAdjust="spacingAndGlyphs" textLength="48">数据分析</text><rect style="stroke:#a80036;stroke-width:1.5" width="44" height="33.969" x="128" y="73.969" fill="#FEFECE" filter="url(#f12tyq7lng4sjz)" rx="12.5" ry="12.5"/><text x="138" y="95.107" fill="#000" font-family="sans-serif" font-size="12" lengthAdjust="spacingAndGlyphs" textLength="24">步骤</text><rect style="stroke:#a80036;stroke-width:1.5" width="68" height="33.969" x="222" y="20" fill="#FEFECE" filter="url(#f12tyq7lng4sjz)" rx="12.5" ry="12.5"/><text x="232" y="41.139" fill="#000" font-family="sans-serif" font-size="12" lengthAdjust="spacingAndGlyphs" textLength="48">数据收集</text><path fill="none" d="M172,90.9531 L182,90.9531 C197,90.9531 197,36.9844 212,36.9844 L222,36.9844" style="stroke:#a80036;stroke-width:1"/><rect style="stroke:#a80036;stroke-width:1.5" width="152" height="33.969" x="222" y="73.969" fill="#FEFECE" filter="url(#f12tyq7lng4sjz)" rx="12.5" ry="12.5"/><text x="232" y="95.107" fill="#000" font-family="sans-serif" font-size="12" lengthAdjust="spacingAndGlyphs" textLength="132">处理，清洗，建模，分析</text><path fill="none" d="M172,90.9531 L182,90.9531 C197,90.9531 197,90.9531 212,90.9531 L222,90.9531" style="stroke:#a80036;stroke-width:1"/><rect style="stroke:#a80036;stroke-width:1.5" width="56" height="33.969" x="222" y="127.938" fill="#FEFECE" filter="url(#f12tyq7lng4sjz)" rx="12.5" ry="12.5"/><text x="232" y="149.076" fill="#000" font-family="sans-serif" font-size="12" lengthAdjust="spacingAndGlyphs" textLength="36">可视化</text><path fill="none" d="M172,90.9531 L182,90.9531 C197,90.9531 197,144.9219 212,144.9219 L222,144.9219" style="stroke:#a80036;stroke-width:1"/><path fill="none" d="M78,684.6094 L88,684.6094 C103,684.6094 103,90.9531 118,90.9531 L128,90.9531" style="stroke:#a80036;stroke-width:1"/><rect style="stroke:#a80036;stroke-width:1.5" width="44" height="33.969" x="128" y="478.734" fill="#FEFECE" filter="url(#f12tyq7lng4sjz)" rx="12.5" ry="12.5"/><text x="138" y="499.873" fill="#000" font-family="sans-serif" font-size="12" lengthAdjust="spacingAndGlyphs" textLength="24">类型</text><rect style="stroke:#a80036;stroke-width:1.5" width="80" height="33.969" x="222" y="208.891" fill="#FEFECE" filter="url(#f12tyq7lng4sjz)" rx="12.5" ry="12.5"/><text x="232" y="230.029" fill="#000" font-family="sans-serif" font-size="12" lengthAdjust="spacingAndGlyphs" textLength="60">响应型分析</text><rect style="stroke:#a80036;stroke-width:1.5" width="56" height="33.969" x="352" y="181.906" fill="#FEFECE" filter="url(#f12tyq7lng4sjz)" rx="12.5" ry="12.5"/><text x="362" y="203.045" fill="#000" font-family="sans-serif" font-size="12" lengthAdjust="spacingAndGlyphs" textLength="36">最基础</text><path fill="none" d="M302,225.875 L312,225.875 C327,225.875 327,198.8906 342,198.8906 L352,198.8906" style="stroke:#a80036;stroke-width:1"/><rect style="stroke:#a80036;stroke-width:1.5" width="200" height="33.969" x="352" y="235.875" fill="#FEFECE" filter="url(#f12tyq7lng4sjz)" rx="12.5" ry="12.5"/><text x="362" y="257.014" fill="#000" font-family="sans-serif" font-size="12" lengthAdjust="spacingAndGlyphs" textLength="180">基本上是按照商业需求出商业报表</text><path fill="none" d="M302,225.875 L312,225.875 C327,225.875 327,252.8594 342,252.8594 L352,252.8594" style="stroke:#a80036;stroke-width:1"/><path fill="none" d="M172,495.7188 L182,495.7188 C197,495.7188 197,225.875 212,225.875 L222,225.875" style="stroke:#a80036;stroke-width:1"/><rect style="stroke:#a80036;stroke-width:1.5" width="80" height="33.969" x="222" y="343.813" fill="#FEFECE" filter="url(#f12tyq7lng4sjz)" rx="12.5" ry="12.5"/><text x="232" y="364.951" fill="#000" font-family="sans-serif" font-size="12" lengthAdjust="spacingAndGlyphs" textLength="60">诊断型分析</text><rect style="stroke:#a80036;stroke-width:1.5" width="140" height="33.969" x="352" y="289.844" fill="#FEFECE" filter="url(#f12tyq7lng4sjz)" rx="12.5" ry="12.5"/><text x="362" y="310.982" fill="#000" font-family="sans-serif" font-size="12" lengthAdjust="spacingAndGlyphs" textLength="120">当你有了很多数据以后</text><path fill="none" d="M302,360.7969 L312,360.7969 C327,360.7969 327,306.8281 342,306.8281 L352,306.8281" style="stroke:#a80036;stroke-width:1"/><rect style="stroke:#a80036;stroke-width:1.5" width="164" height="33.969" x="352" y="343.813" fill="#FEFECE" filter="url(#f12tyq7lng4sjz)" rx="12.5" ry="12.5"/><text x="362" y="364.951" fill="#000" font-family="sans-serif" font-size="12" lengthAdjust="spacingAndGlyphs" textLength="144">从数据里面挖掘出一些问题</text><path fill="none" d="M302,360.7969 L312,360.7969 C327,360.7969 327,360.7969 342,360.7969 L352,360.7969" style="stroke:#a80036;stroke-width:1"/><rect style="stroke:#a80036;stroke-width:1.5" width="320" height="33.969" x="352" y="397.781" fill="#FEFECE" filter="url(#f12tyq7lng4sjz)" rx="12.5" ry="12.5"/><text x="362" y="418.92" fill="#000" font-family="sans-serif" font-size="12" lengthAdjust="spacingAndGlyphs" textLength="300">或通过数据去解释这些问题，像一些竞品分析、趋势分析</text><path fill="none" d="M302,360.7969 L312,360.7969 C327,360.7969 327,414.7656 342,414.7656 L352,414.7656" style="stroke:#a80036;stroke-width:1"/><path fill="none" d="M172,495.7188 L182,495.7188 C197,495.7188 197,360.7969 212,360.7969 L222,360.7969" style="stroke:#a80036;stroke-width:1"/><rect style="stroke:#a80036;stroke-width:1.5" width="68" height="33.969" x="222" y="505.719" fill="#FEFECE" filter="url(#f12tyq7lng4sjz)" rx="12.5" ry="12.5"/><text x="232" y="526.857" fill="#000" font-family="sans-serif" font-size="12" lengthAdjust="spacingAndGlyphs" textLength="48">战略分析</text><rect style="stroke:#a80036;stroke-width:1.5" width="236" height="33.969" x="340" y="451.75" fill="#FEFECE" filter="url(#f12tyq7lng4sjz)" rx="12.5" ry="12.5"/><text x="350" y="472.889" fill="#000" font-family="sans-serif" font-size="12" lengthAdjust="spacingAndGlyphs" textLength="216">需要建个模型，然后用数据去得出结论，</text><path fill="none" d="M290,522.7031 L300,522.7031 C315,522.7031 315,468.7344 330,468.7344 L340,468.7344" style="stroke:#a80036;stroke-width:1"/><rect style="stroke:#a80036;stroke-width:1.5" width="200" height="33.969" x="340" y="505.719" fill="#FEFECE" filter="url(#f12tyq7lng4sjz)" rx="12.5" ry="12.5"/><text x="350" y="526.857" fill="#000" font-family="sans-serif" font-size="12" lengthAdjust="spacingAndGlyphs" textLength="180">很多咨询公司就提供这种战略分析</text><path fill="none" d="M290,522.7031 L300,522.7031 C315,522.7031 315,522.7031 330,522.7031 L340,522.7031" style="stroke:#a80036;stroke-width:1"/><rect style="stroke:#a80036;stroke-width:1.5" width="212" height="33.969" x="340" y="559.688" fill="#FEFECE" filter="url(#f12tyq7lng4sjz)" rx="12.5" ry="12.5"/><text x="350" y="580.826" fill="#000" font-family="sans-serif" font-size="12" lengthAdjust="spacingAndGlyphs" textLength="192">像麦肯锡、贝恩等主要做这层次分析</text><path fill="none" d="M290,522.7031 L300,522.7031 C315,522.7031 315,576.6719 330,576.6719 L340,576.6719" style="stroke:#a80036;stroke-width:1"/><path fill="none" d="M172,495.7188 L182,495.7188 C197,495.7188 197,522.7031 212,522.7031 L222,522.7031" style="stroke:#a80036;stroke-width:1"/><rect style="stroke:#a80036;stroke-width:1.5" width="80" height="33.969" x="222" y="694.609" fill="#FEFECE" filter="url(#f12tyq7lng4sjz)" rx="12.5" ry="12.5"/><text x="232" y="715.748" fill="#000" font-family="sans-serif" font-size="12" lengthAdjust="spacingAndGlyphs" textLength="60">预测型分析</text><rect style="stroke:#a80036;stroke-width:1.5" width="44" height="33.969" x="352" y="613.656" fill="#FEFECE" filter="url(#f12tyq7lng4sjz)" rx="12.5" ry="12.5"/><text x="362" y="634.795" fill="#000" font-family="sans-serif" font-size="12" lengthAdjust="spacingAndGlyphs" textLength="24">最难</text><path fill="none" d="M302,711.5938 L312,711.5938 C327,711.5938 327,630.6406 342,630.6406 L352,630.6406" style="stroke:#a80036;stroke-width:1"/><rect style="stroke:#a80036;stroke-width:1.5" width="68" height="33.969" x="352" y="667.625" fill="#FEFECE" filter="url(#f12tyq7lng4sjz)" rx="12.5" ry="12.5"/><text x="362" y="688.764" fill="#000" font-family="sans-serif" font-size="12" lengthAdjust="spacingAndGlyphs" textLength="48">要建好模</text><path fill="none" d="M302,711.5938 L312,711.5938 C327,711.5938 327,684.6094 342,684.6094 L352,684.6094" style="stroke:#a80036;stroke-width:1"/><rect style="stroke:#a80036;stroke-width:1.5" width="116" height="33.969" x="352" y="721.594" fill="#FEFECE" filter="url(#f12tyq7lng4sjz)" rx="12.5" ry="12.5"/><text x="362" y="742.732" fill="#000" font-family="sans-serif" font-size="12" lengthAdjust="spacingAndGlyphs" textLength="96">还要想到底怎么做</text><path fill="none" d="M302,711.5938 L312,711.5938 C327,711.5938 327,738.5781 342,738.5781 L352,738.5781" style="stroke:#a80036;stroke-width:1"/><rect style="stroke:#a80036;stroke-width:1.5" width="212" height="33.969" x="352" y="775.563" fill="#FEFECE" filter="url(#f12tyq7lng4sjz)" rx="12.5" ry="12.5"/><text x="362" y="796.701" fill="#000" font-family="sans-serif" font-size="12" lengthAdjust="spacingAndGlyphs" textLength="192">采用什么样的行动，给出真正的建议</text><path fill="none" d="M302,711.5938 L312,711.5938 C327,711.5938 327,792.5469 342,792.5469 L352,792.5469" style="stroke:#a80036;stroke-width:1"/><path fill="none" d="M172,495.7188 L182,495.7188 C197,495.7188 197,711.5938 212,711.5938 L222,711.5938" style="stroke:#a80036;stroke-width:1"/><path fill="none" d="M78,684.6094 L88,684.6094 C103,684.6094 103,495.7188 118,495.7188 L128,495.7188" style="stroke:#a80036;stroke-width:1"/><rect style="stroke:#a80036;stroke-width:1.5" width="68" height="33.969" x="128" y="1072.391" fill="#FEFECE" filter="url(#f12tyq7lng4sjz)" rx="12.5" ry="12.5"/><text x="138" y="1093.529" fill="#000" font-family="sans-serif" font-size="12" lengthAdjust="spacingAndGlyphs" textLength="48">实时分析</text><rect style="stroke:#a80036;stroke-width:1.5" width="68" height="33.969" x="246" y="991.438" fill="#FEFECE" filter="url(#f12tyq7lng4sjz)" rx="12.5" ry="12.5"/><text x="256" y="1012.576" fill="#000" font-family="sans-serif" font-size="12" lengthAdjust="spacingAndGlyphs" textLength="48">开源软件</text><rect style="stroke:#a80036;stroke-width:1.5" width="61" height="33.969" x="364" y="910.484" fill="#FEFECE" filter="url(#f12tyq7lng4sjz)" rx="12.5" ry="12.5"/><text x="374" y="931.623" fill="#000" font-family="sans-serif" font-size="12" lengthAdjust="spacingAndGlyphs" textLength="41">MOLAP</text><rect style="stroke:#a80036;stroke-width:1.5" width="116" height="33.969" x="475" y="829.531" fill="#FEFECE" filter="url(#f12tyq7lng4sjz)" rx="12.5" ry="12.5"/><text x="485" y="850.67" fill="#000" font-family="sans-serif" font-size="12" lengthAdjust="spacingAndGlyphs" textLength="96">原生的支持多维的</text><path fill="none" d="M425,927.4688 L435,927.4688 C450,927.4688 450,846.5156 465,846.5156 L475,846.5156" style="stroke:#a80036;stroke-width:1"/><rect style="stroke:#a80036;stroke-width:1.5" width="272" height="33.969" x="475" y="883.5" fill="#FEFECE" filter="url(#f12tyq7lng4sjz)" rx="12.5" ry="12.5"/><text x="485" y="904.639" fill="#000" font-family="sans-serif" font-size="12" lengthAdjust="spacingAndGlyphs" textLength="252">设计之初就是想把数据结构变成一个多维数据库</text><path fill="none" d="M425,927.4688 L435,927.4688 C450,927.4688 450,900.4844 465,900.4844 L475,900.4844" style="stroke:#a80036;stroke-width:1"/><rect style="stroke:#a80036;stroke-width:1.5" width="152" height="33.969" x="475" y="937.469" fill="#FEFECE" filter="url(#f12tyq7lng4sjz)" rx="12.5" ry="12.5"/><text x="485" y="958.607" fill="#000" font-family="sans-serif" font-size="12" lengthAdjust="spacingAndGlyphs" textLength="132">这样查询起来既快又方便</text><path fill="none" d="M425,927.4688 L435,927.4688 C450,927.4688 450,954.4531 465,954.4531 L475,954.4531" style="stroke:#a80036;stroke-width:1"/><rect style="stroke:#a80036;stroke-width:1.5" width="233" height="33.969" x="475" y="991.438" fill="#FEFECE" filter="url(#f12tyq7lng4sjz)" rx="12.5" ry="12.5"/><text x="485" y="1012.576" fill="#000" font-family="sans-serif" font-size="12" lengthAdjust="spacingAndGlyphs" textLength="213">Druid，Pinot，Kylin和ElasticSearch</text><path fill="none" d="M425,927.4688 L435,927.4688 C450,927.4688 450,1008.4219 465,1008.4219 L475,1008.4219" style="stroke:#a80036;stroke-width:1"/><path fill="none" d="M314,1008.4219 L324,1008.4219 C339,1008.4219 339,927.4688 354,927.4688 L364,927.4688" style="stroke:#a80036;stroke-width:1"/><rect style="stroke:#a80036;stroke-width:1.5" width="59" height="33.969" x="364" y="1099.375" fill="#FEFECE" filter="url(#f12tyq7lng4sjz)" rx="12.5" ry="12.5"/><text x="374" y="1120.514" fill="#000" font-family="sans-serif" font-size="12" lengthAdjust="spacingAndGlyphs" textLength="39">ROLAP</text><rect style="stroke:#a80036;stroke-width:1.5" width="224" height="33.969" x="473" y="1045.406" fill="#FEFECE" filter="url(#f12tyq7lng4sjz)" rx="12.5" ry="12.5"/><text x="483" y="1066.545" fill="#000" font-family="sans-serif" font-size="12" lengthAdjust="spacingAndGlyphs" textLength="204">通过关系型数据库去模拟这种多维查询</text><path fill="none" d="M423,1116.3594 L433,1116.3594 C448,1116.3594 448,1062.3906 463,1062.3906 L473,1062.3906" style="stroke:#a80036;stroke-width:1"/><rect style="stroke:#a80036;stroke-width:1.5" width="248" height="33.969" x="473" y="1099.375" fill="#FEFECE" filter="url(#f12tyq7lng4sjz)" rx="12.5" ry="12.5"/><text x="483" y="1120.514" fill="#000" font-family="sans-serif" font-size="12" lengthAdjust="spacingAndGlyphs" textLength="228">企图用传统关系型数据库去构建多维数据库</text><path fill="none" d="M423,1116.3594 L433,1116.3594 C448,1116.3594 448,1116.3594 463,1116.3594 L473,1116.3594" style="stroke:#a80036;stroke-width:1"/><rect style="stroke:#a80036;stroke-width:1.5" width="289" height="33.969" x="473" y="1153.344" fill="#FEFECE" filter="url(#f12tyq7lng4sjz)" rx="12.5" ry="12.5"/><text x="483" y="1174.482" fill="#000" font-family="sans-serif" font-size="12" lengthAdjust="spacingAndGlyphs" textLength="269">因为像MySQL、Hive这种传统数据库是非常方便的</text><path fill="none" d="M423,1116.3594 L433,1116.3594 C448,1116.3594 448,1170.3281 463,1170.3281 L473,1170.3281" style="stroke:#a80036;stroke-width:1"/><path fill="none" d="M314,1008.4219 L324,1008.4219 C339,1008.4219 339,1116.3594 354,1116.3594 L364,1116.3594" style="stroke:#a80036;stroke-width:1"/><path fill="none" d="M196,1089.375 L206,1089.375 C221,1089.375 221,1008.4219 236,1008.4219 L246,1008.4219" style="stroke:#a80036;stroke-width:1"/><rect style="stroke:#a80036;stroke-width:1.5" width="68" height="33.969" x="246" y="1261.281" fill="#FEFECE" filter="url(#f12tyq7lng4sjz)" rx="12.5" ry="12.5"/><text x="256" y="1282.42" fill="#000" font-family="sans-serif" font-size="12" lengthAdjust="spacingAndGlyphs" textLength="48">商业软件</text><rect style="stroke:#a80036;stroke-width:1.5" width="100" height="33.969" x="364" y="1207.313" fill="#FEFECE" filter="url(#f12tyq7lng4sjz)" rx="12.5" ry="12.5"/><text x="374" y="1228.451" fill="#000" font-family="sans-serif" font-size="12" lengthAdjust="spacingAndGlyphs" textLength="80">惠普的Vertica</text><path fill="none" d="M314,1278.2656 L324,1278.2656 C339,1278.2656 339,1224.2969 354,1224.2969 L364,1224.2969" style="stroke:#a80036;stroke-width:1"/><rect style="stroke:#a80036;stroke-width:1.5" width="96" height="33.969" x="364" y="1261.281" fill="#FEFECE" filter="url(#f12tyq7lng4sjz)" rx="12.5" ry="12.5"/><text x="374" y="1282.42" fill="#000" font-family="sans-serif" font-size="12" lengthAdjust="spacingAndGlyphs" textLength="76">一个是Oracle</text><path fill="none" d="M314,1278.2656 L324,1278.2656 C339,1278.2656 339,1278.2656 354,1278.2656 L364,1278.2656" style="stroke:#a80036;stroke-width:1"/><rect style="stroke:#a80036;stroke-width:1.5" width="77" height="33.969" x="364" y="1315.25" fill="#FEFECE" filter="url(#f12tyq7lng4sjz)" rx="12.5" ry="12.5"/><text x="374" y="1336.389" fill="#000" font-family="sans-serif" font-size="12" lengthAdjust="spacingAndGlyphs" textLength="57">Teradata</text><path fill="none" d="M314,1278.2656 L324,1278.2656 C339,1278.2656 339,1332.2344 354,1332.2344 L364,1332.2344" style="stroke:#a80036;stroke-width:1"/><path fill="none" d="M196,1089.375 L206,1089.375 C221,1089.375 221,1278.2656 236,1278.2656 L246,1278.2656" style="stroke:#a80036;stroke-width:1"/><path fill="none" d="M78,684.6094 L88,684.6094 C103,684.6094 103,1089.375 118,1089.375 L128,1089.375" style="stroke:#a80036;stroke-width:1"/></g></svg>