<?xml version="1.0" encoding="UTF-8" standalone="no"?><svg xmlns="http://www.w3.org/2000/svg" xmlns:xlink="http://www.w3.org/1999/xlink" contentScriptType="application/ecmascript" contentStyleType="text/css" height="1522px" preserveAspectRatio="none" style="width:865px;height:1522px;" version="1.1" viewBox="0 0 865 1522" width="865px" zoomAndPan="magnify"><defs><filter height="300%" id="f1dbgfbxw4bqu7" width="300%" x="-1" y="-1"><feGaussianBlur result="blurOut" stdDeviation="2.0"/><feColorMatrix in="blurOut" result="blurOut2" type="matrix" values="0 0 0 0 0 0 0 0 0 0 0 0 0 0 0 0 0 0 .4 0"/><feOffset dx="4.0" dy="4.0" in="blurOut2" result="blurOut3"/><feBlend in="SourceGraphic" in2="blurOut3" mode="normal"/></filter></defs><g><rect fill="#FEFECE" filter="url(#f1dbgfbxw4bqu7)" height="33.9688" rx="12.5" ry="12.5" style="stroke: #A80036; stroke-width: 1.5;" width="56" x="10" y="748.5781"/><text fill="#000000" font-family="sans-serif" font-size="12" lengthAdjust="spacingAndGlyphs" textLength="36" x="20" y="769.7168">架构图</text><rect fill="#FEFECE" filter="url(#f1dbgfbxw4bqu7)" height="33.9688" rx="12.5" ry="12.5" style="stroke: #A80036; stroke-width: 1.5;" width="44" x="116" y="127.9375"/><text fill="#000000" font-family="sans-serif" font-size="12" lengthAdjust="spacingAndGlyphs" textLength="24" x="126" y="149.0762">定义</text><rect fill="#FEFECE" filter="url(#f1dbgfbxw4bqu7)" height="33.9688" rx="12.5" ry="12.5" style="stroke: #A80036; stroke-width: 1.5;" width="212" x="210" y="20"/><text fill="#000000" font-family="sans-serif" font-size="12" lengthAdjust="spacingAndGlyphs" textLength="192" x="220" y="41.1387">为了抽象地表示软件系统的整体轮廓</text><path d="M160,144.9219 L170,144.9219 C185,144.9219 185,36.9844 200,36.9844 L210,36.9844 " fill="none" style="stroke: #A80036; stroke-width: 1.0;"/><rect fill="#FEFECE" filter="url(#f1dbgfbxw4bqu7)" height="33.9688" rx="12.5" ry="12.5" style="stroke: #A80036; stroke-width: 1.5;" width="224" x="210" y="73.9688"/><text fill="#000000" font-family="sans-serif" font-size="12" lengthAdjust="spacingAndGlyphs" textLength="204" x="220" y="95.1074">和各个组件之间的相互关系和约束边界</text><path d="M160,144.9219 L170,144.9219 C185,144.9219 185,90.9531 200,90.9531 L210,90.9531 " fill="none" style="stroke: #A80036; stroke-width: 1.0;"/><rect fill="#FEFECE" filter="url(#f1dbgfbxw4bqu7)" height="33.9688" rx="12.5" ry="12.5" style="stroke: #A80036; stroke-width: 1.5;" width="152" x="210" y="127.9375"/><text fill="#000000" font-family="sans-serif" font-size="12" lengthAdjust="spacingAndGlyphs" textLength="132" x="220" y="149.0762">以及软件系统的物理部署</text><path d="M160,144.9219 L170,144.9219 C185,144.9219 185,144.9219 200,144.9219 L210,144.9219 " fill="none" style="stroke: #A80036; stroke-width: 1.0;"/><rect fill="#FEFECE" filter="url(#f1dbgfbxw4bqu7)" height="33.9688" rx="12.5" ry="12.5" style="stroke: #A80036; stroke-width: 1.5;" width="140" x="210" y="181.9063"/><text fill="#000000" font-family="sans-serif" font-size="12" lengthAdjust="spacingAndGlyphs" textLength="120" x="220" y="203.0449">和软件系统的演进方向</text><path d="M160,144.9219 L170,144.9219 C185,144.9219 185,198.8906 200,198.8906 L210,198.8906 " fill="none" style="stroke: #A80036; stroke-width: 1.0;"/><rect fill="#FEFECE" filter="url(#f1dbgfbxw4bqu7)" height="33.9688" rx="12.5" ry="12.5" style="stroke: #A80036; stroke-width: 1.5;" width="80" x="210" y="235.875"/><text fill="#000000" font-family="sans-serif" font-size="12" lengthAdjust="spacingAndGlyphs" textLength="60" x="220" y="257.0137">的整体视图</text><path d="M160,144.9219 L170,144.9219 C185,144.9219 185,252.8594 200,252.8594 L210,252.8594 " fill="none" style="stroke: #A80036; stroke-width: 1.0;"/><path d="M66,765.5625 L76,765.5625 C91,765.5625 91,144.9219 106,144.9219 L116,144.9219 " fill="none" style="stroke: #A80036; stroke-width: 1.0;"/><rect fill="#FEFECE" filter="url(#f1dbgfbxw4bqu7)" height="33.9688" rx="12.5" ry="12.5" style="stroke: #A80036; stroke-width: 1.5;" width="92" x="116" y="343.8125"/><text fill="#000000" font-family="sans-serif" font-size="12" lengthAdjust="spacingAndGlyphs" textLength="72" x="126" y="364.9512">架构图的作用</text><rect fill="#FEFECE" filter="url(#f1dbgfbxw4bqu7)" height="33.9688" rx="12.5" ry="12.5" style="stroke: #A80036; stroke-width: 1.5;" width="92" x="258" y="289.8438"/><text fill="#000000" font-family="sans-serif" font-size="12" lengthAdjust="spacingAndGlyphs" textLength="72" x="268" y="310.9824">解决沟通障碍</text><path d="M208,360.7969 L218,360.7969 C233,360.7969 233,306.8281 248,306.8281 L258,306.8281 " fill="none" style="stroke: #A80036; stroke-width: 1.0;"/><rect fill="#FEFECE" filter="url(#f1dbgfbxw4bqu7)" height="33.9688" rx="12.5" ry="12.5" style="stroke: #A80036; stroke-width: 1.5;" width="68" x="258" y="343.8125"/><text fill="#000000" font-family="sans-serif" font-size="12" lengthAdjust="spacingAndGlyphs" textLength="48" x="268" y="364.9512">达成共识</text><path d="M208,360.7969 L218,360.7969 C233,360.7969 233,360.7969 248,360.7969 L258,360.7969 " fill="none" style="stroke: #A80036; stroke-width: 1.0;"/><rect fill="#FEFECE" filter="url(#f1dbgfbxw4bqu7)" height="33.9688" rx="12.5" ry="12.5" style="stroke: #A80036; stroke-width: 1.5;" width="68" x="258" y="397.7813"/><text fill="#000000" font-family="sans-serif" font-size="12" lengthAdjust="spacingAndGlyphs" textLength="48" x="268" y="418.9199">减少歧义</text><path d="M208,360.7969 L218,360.7969 C233,360.7969 233,414.7656 248,414.7656 L258,414.7656 " fill="none" style="stroke: #A80036; stroke-width: 1.0;"/><path d="M66,765.5625 L76,765.5625 C91,765.5625 91,360.7969 106,360.7969 L116,360.7969 " fill="none" style="stroke: #A80036; stroke-width: 1.0;"/><rect fill="#FEFECE" filter="url(#f1dbgfbxw4bqu7)" height="33.9688" rx="12.5" ry="12.5" style="stroke: #A80036; stroke-width: 1.5;" width="80" x="116" y="802.5469"/><text fill="#000000" font-family="sans-serif" font-size="12" lengthAdjust="spacingAndGlyphs" textLength="60" x="126" y="823.6855">架构图分类</text><rect fill="#FEFECE" filter="url(#f1dbgfbxw4bqu7)" height="33.9688" rx="12.5" ry="12.5" style="stroke: #A80036; stroke-width: 1.5;" width="147" x="246" y="505.7188"/><text fill="#000000" font-family="sans-serif" font-size="12" lengthAdjust="spacingAndGlyphs" textLength="127" x="256" y="526.8574">Scene View: 场景视图</text><rect fill="#FEFECE" filter="url(#f1dbgfbxw4bqu7)" height="33.9688" rx="12.5" ry="12.5" style="stroke: #A80036; stroke-width: 1.5;" width="140" x="443" y="451.75"/><text fill="#000000" font-family="sans-serif" font-size="12" lengthAdjust="spacingAndGlyphs" textLength="120" x="453" y="472.8887">通常由『用例图』表示</text><path d="M393,522.7031 L403,522.7031 C418,522.7031 418,468.7344 433,468.7344 L443,468.7344 " fill="none" style="stroke: #A80036; stroke-width: 1.0;"/><rect fill="#FEFECE" filter="url(#f1dbgfbxw4bqu7)" height="33.9688" rx="12.5" ry="12.5" style="stroke: #A80036; stroke-width: 1.5;" width="248" x="443" y="505.7188"/><text fill="#000000" font-family="sans-serif" font-size="12" lengthAdjust="spacingAndGlyphs" textLength="228" x="453" y="526.8574">用于描述系统的参与者与功能用例间的关系</text><path d="M393,522.7031 L403,522.7031 C418,522.7031 418,522.7031 433,522.7031 L443,522.7031 " fill="none" style="stroke: #A80036; stroke-width: 1.0;"/><rect fill="#FEFECE" filter="url(#f1dbgfbxw4bqu7)" height="33.9688" rx="12.5" ry="12.5" style="stroke: #A80036; stroke-width: 1.5;" width="188" x="443" y="559.6875"/><text fill="#000000" font-family="sans-serif" font-size="12" lengthAdjust="spacingAndGlyphs" textLength="168" x="453" y="580.8262">反映系统的最终需求和交互设计</text><path d="M393,522.7031 L403,522.7031 C418,522.7031 418,576.6719 433,576.6719 L443,576.6719 " fill="none" style="stroke: #A80036; stroke-width: 1.0;"/><path d="M196,819.5313 L206,819.5313 C221,819.5313 221,522.7031 236,522.7031 L246,522.7031 " fill="none" style="stroke: #A80036; stroke-width: 1.0;"/><rect fill="#FEFECE" filter="url(#f1dbgfbxw4bqu7)" height="33.9688" rx="12.5" ry="12.5" style="stroke: #A80036; stroke-width: 1.5;" width="140" x="246" y="667.625"/><text fill="#000000" font-family="sans-serif" font-size="12" lengthAdjust="spacingAndGlyphs" textLength="120" x="256" y="688.7637">Logic View: 逻辑视图</text><rect fill="#FEFECE" filter="url(#f1dbgfbxw4bqu7)" height="33.9688" rx="12.5" ry="12.5" style="stroke: #A80036; stroke-width: 1.5;" width="236" x="436" y="613.6563"/><text fill="#000000" font-family="sans-serif" font-size="12" lengthAdjust="spacingAndGlyphs" textLength="216" x="446" y="634.7949">用于描述系统软件功能拆解后的组件关系</text><path d="M386,684.6094 L396,684.6094 C411,684.6094 411,630.6406 426,630.6406 L436,630.6406 " fill="none" style="stroke: #A80036; stroke-width: 1.0;"/><rect fill="#FEFECE" filter="url(#f1dbgfbxw4bqu7)" height="33.9688" rx="12.5" ry="12.5" style="stroke: #A80036; stroke-width: 1.5;" width="332" x="436" y="667.625"/><text fill="#000000" font-family="sans-serif" font-size="12" lengthAdjust="spacingAndGlyphs" textLength="312" x="446" y="688.7637">组件约束和边界，反映系统整体组成与系统如何构建的过程</text><path d="M386,684.6094 L396,684.6094 C411,684.6094 411,684.6094 426,684.6094 L436,684.6094 " fill="none" style="stroke: #A80036; stroke-width: 1.0;"/><rect fill="#FEFECE" filter="url(#f1dbgfbxw4bqu7)" height="33.9688" rx="12.5" ry="12.5" style="stroke: #A80036; stroke-width: 1.5;" width="249" x="436" y="721.5938"/><text fill="#000000" font-family="sans-serif" font-size="12" lengthAdjust="spacingAndGlyphs" textLength="229" x="446" y="742.7324">通常由UML的『组件图』和『类图』来表示</text><path d="M386,684.6094 L396,684.6094 C411,684.6094 411,738.5781 426,738.5781 L436,738.5781 " fill="none" style="stroke: #A80036; stroke-width: 1.0;"/><path d="M196,819.5313 L206,819.5313 C221,819.5313 221,684.6094 236,684.6094 L246,684.6094 " fill="none" style="stroke: #A80036; stroke-width: 1.0;"/><rect fill="#FEFECE" filter="url(#f1dbgfbxw4bqu7)" height="33.9688" rx="12.5" ry="12.5" style="stroke: #A80036; stroke-width: 1.5;" width="158" x="246" y="829.5313"/><text fill="#000000" font-family="sans-serif" font-size="12" lengthAdjust="spacingAndGlyphs" textLength="138" x="256" y="850.6699">Physical View: 物理视图</text><rect fill="#FEFECE" filter="url(#f1dbgfbxw4bqu7)" height="33.9688" rx="12.5" ry="12.5" style="stroke: #A80036; stroke-width: 1.5;" width="236" x="454" y="775.5625"/><text fill="#000000" font-family="sans-serif" font-size="12" lengthAdjust="spacingAndGlyphs" textLength="216" x="464" y="796.7012">用于描述系统软件到物理硬件的映射关系</text><path d="M404,846.5156 L414,846.5156 C429,846.5156 429,792.5469 444,792.5469 L454,792.5469 " fill="none" style="stroke: #A80036; stroke-width: 1.0;"/><rect fill="#FEFECE" filter="url(#f1dbgfbxw4bqu7)" height="33.9688" rx="12.5" ry="12.5" style="stroke: #A80036; stroke-width: 1.5;" width="308" x="454" y="829.5313"/><text fill="#000000" font-family="sans-serif" font-size="12" lengthAdjust="spacingAndGlyphs" textLength="288" x="464" y="850.6699">反映出系统的组件是如何部署到一组可计算机器节点上</text><path d="M404,846.5156 L414,846.5156 C429,846.5156 429,846.5156 444,846.5156 L454,846.5156 " fill="none" style="stroke: #A80036; stroke-width: 1.0;"/><rect fill="#FEFECE" filter="url(#f1dbgfbxw4bqu7)" height="33.9688" rx="12.5" ry="12.5" style="stroke: #A80036; stroke-width: 1.5;" width="200" x="454" y="883.5"/><text fill="#000000" font-family="sans-serif" font-size="12" lengthAdjust="spacingAndGlyphs" textLength="180" x="464" y="904.6387">用于指导软件系统的部署实施过程</text><path d="M404,846.5156 L414,846.5156 C429,846.5156 429,900.4844 444,900.4844 L454,900.4844 " fill="none" style="stroke: #A80036; stroke-width: 1.0;"/><path d="M196,819.5313 L206,819.5313 C221,819.5313 221,846.5156 236,846.5156 L246,846.5156 " fill="none" style="stroke: #A80036; stroke-width: 1.0;"/><rect fill="#FEFECE" filter="url(#f1dbgfbxw4bqu7)" height="33.9688" rx="12.5" ry="12.5" style="stroke: #A80036; stroke-width: 1.5;" width="228" x="246" y="991.4375"/><text fill="#000000" font-family="sans-serif" font-size="12" lengthAdjust="spacingAndGlyphs" textLength="208" x="256" y="1012.5762">Workflow/Process Flow: 处理流程图</text><rect fill="#FEFECE" filter="url(#f1dbgfbxw4bqu7)" height="33.9688" rx="12.5" ry="12.5" style="stroke: #A80036; stroke-width: 1.5;" width="224" x="524" y="937.4688"/><text fill="#000000" font-family="sans-serif" font-size="12" lengthAdjust="spacingAndGlyphs" textLength="204" x="534" y="958.6074">用于描述系统软件组件之间的通信时序</text><path d="M474,1008.4219 L484,1008.4219 C499,1008.4219 499,954.4531 514,954.4531 L524,954.4531 " fill="none" style="stroke: #A80036; stroke-width: 1.0;"/><rect fill="#FEFECE" filter="url(#f1dbgfbxw4bqu7)" height="33.9688" rx="12.5" ry="12.5" style="stroke: #A80036; stroke-width: 1.5;" width="284" x="524" y="991.4375"/><text fill="#000000" font-family="sans-serif" font-size="12" lengthAdjust="spacingAndGlyphs" textLength="264" x="534" y="1012.5762">数据的输入输出，反映系统的功能流程与数据流程</text><path d="M474,1008.4219 L484,1008.4219 C499,1008.4219 499,1008.4219 514,1008.4219 L524,1008.4219 " fill="none" style="stroke: #A80036; stroke-width: 1.0;"/><rect fill="#FEFECE" filter="url(#f1dbgfbxw4bqu7)" height="33.9688" rx="12.5" ry="12.5" style="stroke: #A80036; stroke-width: 1.5;" width="212" x="524" y="1045.4063"/><text fill="#000000" font-family="sans-serif" font-size="12" lengthAdjust="spacingAndGlyphs" textLength="192" x="534" y="1066.5449">通常由『时序图』和『流程图』表示</text><path d="M474,1008.4219 L484,1008.4219 C499,1008.4219 499,1062.3906 514,1062.3906 L524,1062.3906 " fill="none" style="stroke: #A80036; stroke-width: 1.0;"/><path d="M196,819.5313 L206,819.5313 C221,819.5313 221,1008.4219 236,1008.4219 L246,1008.4219 " fill="none" style="stroke: #A80036; stroke-width: 1.0;"/><rect fill="#FEFECE" filter="url(#f1dbgfbxw4bqu7)" height="33.9688" rx="12.5" ry="12.5" style="stroke: #A80036; stroke-width: 1.5;" width="202" x="246" y="1045.4063"/><text fill="#000000" font-family="sans-serif" font-size="12" lengthAdjust="spacingAndGlyphs" textLength="182" x="256" y="1066.5449">Network Structure: 网络拓卜图</text><path d="M196,819.5313 L206,819.5313 C221,819.5313 221,1062.3906 236,1062.3906 L246,1062.3906 " fill="none" style="stroke: #A80036; stroke-width: 1.0;"/><rect fill="#FEFECE" filter="url(#f1dbgfbxw4bqu7)" height="33.9688" rx="12.5" ry="12.5" style="stroke: #A80036; stroke-width: 1.5;" width="202" x="246" y="1126.3594"/><text fill="#000000" font-family="sans-serif" font-size="12" lengthAdjust="spacingAndGlyphs" textLength="182" x="256" y="1147.498">Development Diagram: 开发图</text><rect fill="#FEFECE" filter="url(#f1dbgfbxw4bqu7)" height="33.9688" rx="12.5" ry="12.5" style="stroke: #A80036; stroke-width: 1.5;" width="356" x="498" y="1099.375"/><text fill="#000000" font-family="sans-serif" font-size="12" lengthAdjust="spacingAndGlyphs" textLength="336" x="508" y="1120.5137">用于描述系统的模块划分和组成，以及细化到内部包的组成设计</text><path d="M448,1143.3438 L458,1143.3438 C473,1143.3438 473,1116.3594 488,1116.3594 L498,1116.3594 " fill="none" style="stroke: #A80036; stroke-width: 1.0;"/><rect fill="#FEFECE" filter="url(#f1dbgfbxw4bqu7)" height="33.9688" rx="12.5" ry="12.5" style="stroke: #A80036; stroke-width: 1.5;" width="236" x="498" y="1153.3438"/><text fill="#000000" font-family="sans-serif" font-size="12" lengthAdjust="spacingAndGlyphs" textLength="216" x="508" y="1174.4824">服务于开发人员，反映系统开发实施过程</text><path d="M448,1143.3438 L458,1143.3438 C473,1143.3438 473,1170.3281 488,1170.3281 L498,1170.3281 " fill="none" style="stroke: #A80036; stroke-width: 1.0;"/><path d="M196,819.5313 L206,819.5313 C221,819.5313 221,1143.3438 236,1143.3438 L246,1143.3438 " fill="none" style="stroke: #A80036; stroke-width: 1.0;"/><path d="M66,765.5625 L76,765.5625 C91,765.5625 91,819.5313 106,819.5313 L116,819.5313 " fill="none" style="stroke: #A80036; stroke-width: 1.0;"/><rect fill="#FEFECE" filter="url(#f1dbgfbxw4bqu7)" height="33.9688" rx="12.5" ry="12.5" style="stroke: #A80036; stroke-width: 1.5;" width="80" x="116" y="1342.2344"/><text fill="#000000" font-family="sans-serif" font-size="12" lengthAdjust="spacingAndGlyphs" textLength="60" x="126" y="1363.373">好的架构图</text><rect fill="#FEFECE" filter="url(#f1dbgfbxw4bqu7)" height="33.9688" rx="12.5" ry="12.5" style="stroke: #A80036; stroke-width: 1.5;" width="92" x="246" y="1234.2969"/><text fill="#000000" font-family="sans-serif" font-size="12" lengthAdjust="spacingAndGlyphs" textLength="72" x="256" y="1255.4355">画架构图之前</text><rect fill="#FEFECE" filter="url(#f1dbgfbxw4bqu7)" height="33.9688" rx="12.5" ry="12.5" style="stroke: #A80036; stroke-width: 1.5;" width="140" x="388" y="1207.3125"/><text fill="#000000" font-family="sans-serif" font-size="12" lengthAdjust="spacingAndGlyphs" textLength="120" x="398" y="1228.4512">首先应该要明确其受众</text><path d="M338,1251.2813 L348,1251.2813 C363,1251.2813 363,1224.2969 378,1224.2969 L388,1224.2969 " fill="none" style="stroke: #A80036; stroke-width: 1.0;"/><rect fill="#FEFECE" filter="url(#f1dbgfbxw4bqu7)" height="33.9688" rx="12.5" ry="12.5" style="stroke: #A80036; stroke-width: 1.5;" width="188" x="388" y="1261.2813"/><text fill="#000000" font-family="sans-serif" font-size="12" lengthAdjust="spacingAndGlyphs" textLength="168" x="398" y="1282.4199">再想清楚要给他们传递什么信息</text><path d="M338,1251.2813 L348,1251.2813 C363,1251.2813 363,1278.2656 378,1278.2656 L388,1278.2656 " fill="none" style="stroke: #A80036; stroke-width: 1.0;"/><path d="M196,1359.2188 L206,1359.2188 C221,1359.2188 221,1251.2813 236,1251.2813 L246,1251.2813 " fill="none" style="stroke: #A80036; stroke-width: 1.0;"/><rect fill="#FEFECE" filter="url(#f1dbgfbxw4bqu7)" height="33.9688" rx="12.5" ry="12.5" style="stroke: #A80036; stroke-width: 1.5;" width="44" x="246" y="1369.2188"/><text fill="#000000" font-family="sans-serif" font-size="12" lengthAdjust="spacingAndGlyphs" textLength="24" x="256" y="1390.3574">方法</text><rect fill="#FEFECE" filter="url(#f1dbgfbxw4bqu7)" height="33.9688" rx="12.5" ry="12.5" style="stroke: #A80036; stroke-width: 1.5;" width="128" x="340" y="1315.25"/><text fill="#000000" font-family="sans-serif" font-size="12" lengthAdjust="spacingAndGlyphs" textLength="108" x="350" y="1336.3887">应该根据受众的不同</text><path d="M290,1386.2031 L300,1386.2031 C315,1386.2031 315,1332.2344 330,1332.2344 L340,1332.2344 " fill="none" style="stroke: #A80036; stroke-width: 1.0;"/><rect fill="#FEFECE" filter="url(#f1dbgfbxw4bqu7)" height="33.9688" rx="12.5" ry="12.5" style="stroke: #A80036; stroke-width: 1.5;" width="116" x="340" y="1369.2188"/><text fill="#000000" font-family="sans-serif" font-size="12" lengthAdjust="spacingAndGlyphs" textLength="96" x="350" y="1390.3574">传递的信息的不同</text><path d="M290,1386.2031 L300,1386.2031 C315,1386.2031 315,1386.2031 330,1386.2031 L340,1386.2031 " fill="none" style="stroke: #A80036; stroke-width: 1.0;"/><rect fill="#FEFECE" filter="url(#f1dbgfbxw4bqu7)" height="33.9688" rx="12.5" ry="12.5" style="stroke: #A80036; stroke-width: 1.5;" width="128" x="340" y="1423.1875"/><text fill="#000000" font-family="sans-serif" font-size="12" lengthAdjust="spacingAndGlyphs" textLength="108" x="350" y="1444.3262">用图准确地表达出来</text><path d="M290,1386.2031 L300,1386.2031 C315,1386.2031 315,1440.1719 330,1440.1719 L340,1440.1719 " fill="none" style="stroke: #A80036; stroke-width: 1.0;"/><path d="M196,1359.2188 L206,1359.2188 C221,1359.2188 221,1386.2031 236,1386.2031 L246,1386.2031 " fill="none" style="stroke: #A80036; stroke-width: 1.0;"/><rect fill="#FEFECE" filter="url(#f1dbgfbxw4bqu7)" height="33.9688" rx="12.5" ry="12.5" style="stroke: #A80036; stroke-width: 1.5;" width="116" x="246" y="1477.1563"/><text fill="#000000" font-family="sans-serif" font-size="12" lengthAdjust="spacingAndGlyphs" textLength="96" x="256" y="1498.2949">好不好的直接标准</text><rect fill="#FEFECE" filter="url(#f1dbgfbxw4bqu7)" height="33.9688" rx="12.5" ry="12.5" style="stroke: #A80036; stroke-width: 1.5;" width="212" x="412" y="1477.1563"/><text fill="#000000" font-family="sans-serif" font-size="12" lengthAdjust="spacingAndGlyphs" textLength="192" x="422" y="1498.2949">受众有没有准确接收到想传递的信息</text><path d="M362,1494.1406 L372,1494.1406 C387,1494.1406 387,1494.1406 402,1494.1406 L412,1494.1406 " fill="none" style="stroke: #A80036; stroke-width: 1.0;"/><path d="M196,1359.2188 L206,1359.2188 C221,1359.2188 221,1494.1406 236,1494.1406 L246,1494.1406 " fill="none" style="stroke: #A80036; stroke-width: 1.0;"/><path d="M66,765.5625 L76,765.5625 C91,765.5625 91,1359.2188 106,1359.2188 L116,1359.2188 " fill="none" style="stroke: #A80036; stroke-width: 1.0;"/><!--
--></g></svg>