<svg xmlns="http://www.w3.org/2000/svg" xmlns:xlink="http://www.w3.org/1999/xlink" width="459" height="712" contentScriptType="application/ecmascript" contentStyleType="text/css" style="width:459px;height:712px" preserveAspectRatio="none" version="1.1" viewBox="0 0 459 712" zoomAndPan="magnify"><defs><filter id="ftpniyjfs15ha" width="300%" height="300%" x="-1" y="-1"><feGaussianBlur result="blurOut" stdDeviation="2"/><feColorMatrix in="blurOut" result="blurOut2" type="matrix" values="0 0 0 0 0 0 0 0 0 0 0 0 0 0 0 0 0 0 .4 0"/><feOffset dx="4" dy="4" in="blurOut2" result="blurOut3"/><feBlend in="SourceGraphic" in2="blurOut3" mode="normal"/></filter></defs><g><rect style="stroke:#a80036;stroke-width:1.5" width="68" height="33.969" x="10" y="343.813" fill="#FEFECE" filter="url(#ftpniyjfs15ha)" rx="12.5" ry="12.5"/><text x="20" y="364.951" fill="#000" font-family="sans-serif" font-size="12" lengthAdjust="spacingAndGlyphs" textLength="48">如何写作</text><rect style="stroke:#a80036;stroke-width:1.5" width="52" height="33.969" x="128" y="343.813" fill="#FEFECE" filter="url(#ftpniyjfs15ha)" rx="12.5" ry="12.5"/><text x="138" y="364.951" fill="#000" font-family="sans-serif" font-size="12" lengthAdjust="spacingAndGlyphs" textLength="32">实例1</text><rect style="stroke:#a80036;stroke-width:1.5" width="44" height="33.969" x="230" y="20" fill="#FEFECE" filter="url(#ftpniyjfs15ha)" rx="12.5" ry="12.5"/><text x="240" y="41.139" fill="#000" font-family="sans-serif" font-size="12" lengthAdjust="spacingAndGlyphs" textLength="24">技巧</text><rect style="stroke:#a80036;stroke-width:1.5" width="68" height="33.969" x="324" y="20" fill="#FEFECE" filter="url(#ftpniyjfs15ha)" rx="12.5" ry="12.5"/><text x="334" y="41.139" fill="#000" font-family="sans-serif" font-size="12" lengthAdjust="spacingAndGlyphs" textLength="48">先说后写</text><path fill="none" d="M274,36.9844 L284,36.9844 C299,36.9844 299,36.9844 314,36.9844 L324,36.9844" style="stroke:#a80036;stroke-width:1"/><path fill="none" d="M180,360.7969 L190,360.7969 C205,360.7969 205,36.9844 220,36.9844 L230,36.9844" style="stroke:#a80036;stroke-width:1"/><rect style="stroke:#a80036;stroke-width:1.5" width="44" height="33.969" x="230" y="100.953" fill="#FEFECE" filter="url(#ftpniyjfs15ha)" rx="12.5" ry="12.5"/><text x="240" y="122.092" fill="#000" font-family="sans-serif" font-size="12" lengthAdjust="spacingAndGlyphs" textLength="24">选题</text><rect style="stroke:#a80036;stroke-width:1.5" width="68" height="33.969" x="324" y="73.969" fill="#FEFECE" filter="url(#ftpniyjfs15ha)" rx="12.5" ry="12.5"/><text x="334" y="95.107" fill="#000" font-family="sans-serif" font-size="12" lengthAdjust="spacingAndGlyphs" textLength="48">热点事件</text><path fill="none" d="M274,117.9375 L284,117.9375 C299,117.9375 299,90.9531 314,90.9531 L324,90.9531" style="stroke:#a80036;stroke-width:1"/><rect style="stroke:#a80036;stroke-width:1.5" width="68" height="33.969" x="324" y="127.938" fill="#FEFECE" filter="url(#ftpniyjfs15ha)" rx="12.5" ry="12.5"/><text x="334" y="149.076" fill="#000" font-family="sans-serif" font-size="12" lengthAdjust="spacingAndGlyphs" textLength="48">常规痛点</text><path fill="none" d="M274,117.9375 L284,117.9375 C299,117.9375 299,144.9219 314,144.9219 L324,144.9219" style="stroke:#a80036;stroke-width:1"/><path fill="none" d="M180,360.7969 L190,360.7969 C205,360.7969 205,117.9375 220,117.9375 L230,117.9375" style="stroke:#a80036;stroke-width:1"/><rect style="stroke:#a80036;stroke-width:1.5" width="56" height="33.969" x="230" y="235.875" fill="#FEFECE" filter="url(#ftpniyjfs15ha)" rx="12.5" ry="12.5"/><text x="240" y="257.014" fill="#000" font-family="sans-serif" font-size="12" lengthAdjust="spacingAndGlyphs" textLength="36">列目标</text><rect style="stroke:#a80036;stroke-width:1.5" width="44" height="33.969" x="336" y="181.906" fill="#FEFECE" filter="url(#ftpniyjfs15ha)" rx="12.5" ry="12.5"/><text x="346" y="203.045" fill="#000" font-family="sans-serif" font-size="12" lengthAdjust="spacingAndGlyphs" textLength="24">受众</text><path fill="none" d="M286,252.8594 L296,252.8594 C311,252.8594 311,198.8906 326,198.8906 L336,198.8906" style="stroke:#a80036;stroke-width:1"/><rect style="stroke:#a80036;stroke-width:1.5" width="44" height="33.969" x="336" y="235.875" fill="#FEFECE" filter="url(#ftpniyjfs15ha)" rx="12.5" ry="12.5"/><text x="346" y="257.014" fill="#000" font-family="sans-serif" font-size="12" lengthAdjust="spacingAndGlyphs" textLength="24">目的</text><path fill="none" d="M286,252.8594 L296,252.8594 C311,252.8594 311,252.8594 326,252.8594 L336,252.8594" style="stroke:#a80036;stroke-width:1"/><rect style="stroke:#a80036;stroke-width:1.5" width="80" height="33.969" x="336" y="289.844" fill="#FEFECE" filter="url(#ftpniyjfs15ha)" rx="12.5" ry="12.5"/><text x="346" y="310.982" fill="#000" font-family="sans-serif" font-size="12" lengthAdjust="spacingAndGlyphs" textLength="60">训练的目标</text><path fill="none" d="M286,252.8594 L296,252.8594 C311,252.8594 311,306.8281 326,306.8281 L336,306.8281" style="stroke:#a80036;stroke-width:1"/><path fill="none" d="M180,360.7969 L190,360.7969 C205,360.7969 205,252.8594 220,252.8594 L230,252.8594" style="stroke:#a80036;stroke-width:1"/><rect style="stroke:#a80036;stroke-width:1.5" width="44" height="33.969" x="230" y="343.813" fill="#FEFECE" filter="url(#ftpniyjfs15ha)" rx="12.5" ry="12.5"/><text x="240" y="364.951" fill="#000" font-family="sans-serif" font-size="12" lengthAdjust="spacingAndGlyphs" textLength="24">提纲</text><rect style="stroke:#a80036;stroke-width:1.5" width="68" height="33.969" x="324" y="343.813" fill="#FEFECE" filter="url(#ftpniyjfs15ha)" rx="12.5" ry="12.5"/><text x="334" y="364.951" fill="#000" font-family="sans-serif" font-size="12" lengthAdjust="spacingAndGlyphs" textLength="48">思维导图</text><path fill="none" d="M274,360.7969 L284,360.7969 C299,360.7969 299,360.7969 314,360.7969 L324,360.7969" style="stroke:#a80036;stroke-width:1"/><path fill="none" d="M180,360.7969 L190,360.7969 C205,360.7969 205,360.7969 220,360.7969 L230,360.7969" style="stroke:#a80036;stroke-width:1"/><rect style="stroke:#a80036;stroke-width:1.5" width="80" height="33.969" x="230" y="397.781" fill="#FEFECE" filter="url(#ftpniyjfs15ha)" rx="12.5" ry="12.5"/><text x="240" y="418.92" fill="#000" font-family="sans-serif" font-size="12" lengthAdjust="spacingAndGlyphs" textLength="60">一口气写完</text><rect style="stroke:#a80036;stroke-width:1.5" width="88" height="33.969" x="360" y="397.781" fill="#FEFECE" filter="url(#ftpniyjfs15ha)" rx="12.5" ry="12.5"/><text x="370" y="418.92" fill="#000" font-family="sans-serif" font-size="12" lengthAdjust="spacingAndGlyphs" textLength="68">语音迭代3遍</text><path fill="none" d="M310,414.7656 L320,414.7656 C335,414.7656 335,414.7656 350,414.7656 L360,414.7656" style="stroke:#a80036;stroke-width:1"/><path fill="none" d="M180,360.7969 L190,360.7969 C205,360.7969 205,414.7656 220,414.7656 L230,414.7656" style="stroke:#a80036;stroke-width:1"/><rect style="stroke:#a80036;stroke-width:1.5" width="44" height="33.969" x="230" y="559.688" fill="#FEFECE" filter="url(#ftpniyjfs15ha)" rx="12.5" ry="12.5"/><text x="240" y="580.826" fill="#000" font-family="sans-serif" font-size="12" lengthAdjust="spacingAndGlyphs" textLength="24">其他</text><rect style="stroke:#a80036;stroke-width:1.5" width="44" height="33.969" x="324" y="451.75" fill="#FEFECE" filter="url(#ftpniyjfs15ha)" rx="12.5" ry="12.5"/><text x="334" y="472.889" fill="#000" font-family="sans-serif" font-size="12" lengthAdjust="spacingAndGlyphs" textLength="24">排版</text><path fill="none" d="M274,576.6719 L284,576.6719 C299,576.6719 299,468.7344 314,468.7344 L324,468.7344" style="stroke:#a80036;stroke-width:1"/><rect style="stroke:#a80036;stroke-width:1.5" width="80" height="33.969" x="324" y="505.719" fill="#FEFECE" filter="url(#ftpniyjfs15ha)" rx="12.5" ry="12.5"/><text x="334" y="526.857" fill="#000" font-family="sans-serif" font-size="12" lengthAdjust="spacingAndGlyphs" textLength="60">检查错别字</text><path fill="none" d="M274,576.6719 L284,576.6719 C299,576.6719 299,522.7031 314,522.7031 L324,522.7031" style="stroke:#a80036;stroke-width:1"/><rect style="stroke:#a80036;stroke-width:1.5" width="68" height="33.969" x="324" y="559.688" fill="#FEFECE" filter="url(#ftpniyjfs15ha)" rx="12.5" ry="12.5"/><text x="334" y="580.826" fill="#000" font-family="sans-serif" font-size="12" lengthAdjust="spacingAndGlyphs" textLength="48">长句变短</text><path fill="none" d="M274,576.6719 L284,576.6719 C299,576.6719 299,576.6719 314,576.6719 L324,576.6719" style="stroke:#a80036;stroke-width:1"/><rect style="stroke:#a80036;stroke-width:1.5" width="44" height="33.969" x="324" y="613.656" fill="#FEFECE" filter="url(#ftpniyjfs15ha)" rx="12.5" ry="12.5"/><text x="334" y="634.795" fill="#000" font-family="sans-serif" font-size="12" lengthAdjust="spacingAndGlyphs" textLength="24">润色</text><path fill="none" d="M274,576.6719 L284,576.6719 C299,576.6719 299,630.6406 314,630.6406 L324,630.6406" style="stroke:#a80036;stroke-width:1"/><rect style="stroke:#a80036;stroke-width:1.5" width="44" height="33.969" x="324" y="667.625" fill="#FEFECE" filter="url(#ftpniyjfs15ha)" rx="12.5" ry="12.5"/><text x="334" y="688.764" fill="#000" font-family="sans-serif" font-size="12" lengthAdjust="spacingAndGlyphs" textLength="24">配图</text><path fill="none" d="M274,576.6719 L284,576.6719 C299,576.6719 299,684.6094 314,684.6094 L324,684.6094" style="stroke:#a80036;stroke-width:1"/><path fill="none" d="M180,360.7969 L190,360.7969 C205,360.7969 205,576.6719 220,576.6719 L230,576.6719" style="stroke:#a80036;stroke-width:1"/><path fill="none" d="M78,360.7969 L88,360.7969 C103,360.7969 103,360.7969 118,360.7969 L128,360.7969" style="stroke:#a80036;stroke-width:1"/></g></svg>