<?xml version="1.0" encoding="UTF-8" standalone="no"?><svg xmlns="http://www.w3.org/2000/svg" xmlns:xlink="http://www.w3.org/1999/xlink" contentScriptType="application/ecmascript" contentStyleType="text/css" height="766px" preserveAspectRatio="none" style="width:825px;height:766px;" version="1.1" viewBox="0 0 825 766" width="825px" zoomAndPan="magnify"><defs><filter height="300%" id="f1qqzswqzccdcn" width="300%" x="-1" y="-1"><feGaussianBlur result="blurOut" stdDeviation="2.0"/><feColorMatrix in="blurOut" result="blurOut2" type="matrix" values="0 0 0 0 0 0 0 0 0 0 0 0 0 0 0 0 0 0 .4 0"/><feOffset dx="4.0" dy="4.0" in="blurOut2" result="blurOut3"/><feBlend in="SourceGraphic" in2="blurOut3" mode="normal"/></filter></defs><g><rect fill="#FEFECE" filter="url(#f1qqzswqzccdcn)" height="33.9688" rx="12.5" ry="12.5" style="stroke: #A80036; stroke-width: 1.5;" width="68" x="10" y="370.7969"/><text fill="#000000" font-family="sans-serif" font-size="12" lengthAdjust="spacingAndGlyphs" textLength="48" x="20" y="391.9355">编译原理</text><rect fill="#FEFECE" filter="url(#f1qqzswqzccdcn)" height="33.9688" rx="12.5" ry="12.5" style="stroke: #A80036; stroke-width: 1.5;" width="56" x="128" y="127.9375"/><text fill="#000000" font-family="sans-serif" font-size="12" lengthAdjust="spacingAndGlyphs" textLength="36" x="138" y="149.0762">编译器</text><rect fill="#FEFECE" filter="url(#f1qqzswqzccdcn)" height="33.9688" rx="12.5" ry="12.5" style="stroke: #A80036; stroke-width: 1.5;" width="44" x="234" y="100.9531"/><text fill="#000000" font-family="sans-serif" font-size="12" lengthAdjust="spacingAndGlyphs" textLength="24" x="244" y="122.0918">前端</text><rect fill="#FEFECE" filter="url(#f1qqzswqzccdcn)" height="33.9688" rx="12.5" ry="12.5" style="stroke: #A80036; stroke-width: 1.5;" width="68" x="328" y="20"/><text fill="#000000" font-family="sans-serif" font-size="12" lengthAdjust="spacingAndGlyphs" textLength="48" x="338" y="41.1387">词法分析</text><path d="M278,117.9375 L288,117.9375 C303,117.9375 303,36.9844 318,36.9844 L328,36.9844 " fill="none" style="stroke: #A80036; stroke-width: 1.0;"/><rect fill="#FEFECE" filter="url(#f1qqzswqzccdcn)" height="33.9688" rx="12.5" ry="12.5" style="stroke: #A80036; stroke-width: 1.5;" width="68" x="328" y="73.9688"/><text fill="#000000" font-family="sans-serif" font-size="12" lengthAdjust="spacingAndGlyphs" textLength="48" x="338" y="95.1074">语法分析</text><path d="M278,117.9375 L288,117.9375 C303,117.9375 303,90.9531 318,90.9531 L328,90.9531 " fill="none" style="stroke: #A80036; stroke-width: 1.0;"/><rect fill="#FEFECE" filter="url(#f1qqzswqzccdcn)" height="33.9688" rx="12.5" ry="12.5" style="stroke: #A80036; stroke-width: 1.5;" width="68" x="328" y="127.9375"/><text fill="#000000" font-family="sans-serif" font-size="12" lengthAdjust="spacingAndGlyphs" textLength="48" x="338" y="149.0762">类型检查</text><path d="M278,117.9375 L288,117.9375 C303,117.9375 303,144.9219 318,144.9219 L328,144.9219 " fill="none" style="stroke: #A80036; stroke-width: 1.0;"/><rect fill="#FEFECE" filter="url(#f1qqzswqzccdcn)" height="33.9688" rx="12.5" ry="12.5" style="stroke: #A80036; stroke-width: 1.5;" width="92" x="328" y="181.9063"/><text fill="#000000" font-family="sans-serif" font-size="12" lengthAdjust="spacingAndGlyphs" textLength="72" x="338" y="203.0449">中间代码生成</text><path d="M278,117.9375 L288,117.9375 C303,117.9375 303,198.8906 318,198.8906 L328,198.8906 " fill="none" style="stroke: #A80036; stroke-width: 1.0;"/><path d="M184,144.9219 L194,144.9219 C209,144.9219 209,117.9375 224,117.9375 L234,117.9375 " fill="none" style="stroke: #A80036; stroke-width: 1.0;"/><rect fill="#FEFECE" filter="url(#f1qqzswqzccdcn)" height="33.9688" rx="12.5" ry="12.5" style="stroke: #A80036; stroke-width: 1.5;" width="44" x="234" y="235.875"/><text fill="#000000" font-family="sans-serif" font-size="12" lengthAdjust="spacingAndGlyphs" textLength="24" x="244" y="257.0137">后端</text><rect fill="#FEFECE" filter="url(#f1qqzswqzccdcn)" height="33.9688" rx="12.5" ry="12.5" style="stroke: #A80036; stroke-width: 1.5;" width="140" x="328" y="235.875"/><text fill="#000000" font-family="sans-serif" font-size="12" lengthAdjust="spacingAndGlyphs" textLength="120" x="338" y="257.0137">目标代码的生成和优化</text><rect fill="#FEFECE" filter="url(#f1qqzswqzccdcn)" height="33.9688" rx="12.5" ry="12.5" style="stroke: #A80036; stroke-width: 1.5;" width="296" x="518" y="235.875"/><text fill="#000000" font-family="sans-serif" font-size="12" lengthAdjust="spacingAndGlyphs" textLength="276" x="528" y="257.0137">将中间代码翻译成目标机器能够运行的二进制机器码</text><path d="M468,252.8594 L478,252.8594 C493,252.8594 493,252.8594 508,252.8594 L518,252.8594 " fill="none" style="stroke: #A80036; stroke-width: 1.0;"/><path d="M278,252.8594 L288,252.8594 C303,252.8594 303,252.8594 318,252.8594 L328,252.8594 " fill="none" style="stroke: #A80036; stroke-width: 1.0;"/><path d="M184,144.9219 L194,144.9219 C209,144.9219 209,252.8594 224,252.8594 L234,252.8594 " fill="none" style="stroke: #A80036; stroke-width: 1.0;"/><path d="M78,387.7813 L88,387.7813 C103,387.7813 103,144.9219 118,144.9219 L128,144.9219 " fill="none" style="stroke: #A80036; stroke-width: 1.0;"/><rect fill="#FEFECE" filter="url(#f1qqzswqzccdcn)" height="33.9688" rx="12.5" ry="12.5" style="stroke: #A80036; stroke-width: 1.5;" width="56" x="128" y="316.8281"/><text fill="#000000" font-family="sans-serif" font-size="12" lengthAdjust="spacingAndGlyphs" textLength="36" x="138" y="337.9668">指令集</text><rect fill="#FEFECE" filter="url(#f1qqzswqzccdcn)" height="33.9688" rx="12.5" ry="12.5" style="stroke: #A80036; stroke-width: 1.5;" width="167" x="234" y="289.8438"/><text fill="#000000" font-family="sans-serif" font-size="12" lengthAdjust="spacingAndGlyphs" textLength="147" x="244" y="310.9824">复杂指令集计算机（CISC）</text><rect fill="#FEFECE" filter="url(#f1qqzswqzccdcn)" height="33.9688" rx="12.5" ry="12.5" style="stroke: #A80036; stroke-width: 1.5;" width="248" x="451" y="289.8438"/><text fill="#000000" font-family="sans-serif" font-size="12" lengthAdjust="spacingAndGlyphs" textLength="228" x="461" y="310.9824">通过增加指令的数量减少需要执行的指令数</text><path d="M401,306.8281 L411,306.8281 C426,306.8281 426,306.8281 441,306.8281 L451,306.8281 " fill="none" style="stroke: #A80036; stroke-width: 1.0;"/><path d="M184,333.8125 L194,333.8125 C209,333.8125 209,306.8281 224,306.8281 L234,306.8281 " fill="none" style="stroke: #A80036; stroke-width: 1.0;"/><rect fill="#FEFECE" filter="url(#f1qqzswqzccdcn)" height="33.9688" rx="12.5" ry="12.5" style="stroke: #A80036; stroke-width: 1.5;" width="167" x="234" y="343.8125"/><text fill="#000000" font-family="sans-serif" font-size="12" lengthAdjust="spacingAndGlyphs" textLength="147" x="244" y="364.9512">精简指令集计算机（RISC）</text><rect fill="#FEFECE" filter="url(#f1qqzswqzccdcn)" height="33.9688" rx="12.5" ry="12.5" style="stroke: #A80036; stroke-width: 1.5;" width="212" x="451" y="343.8125"/><text fill="#000000" font-family="sans-serif" font-size="12" lengthAdjust="spacingAndGlyphs" textLength="192" x="461" y="364.9512">使用更少的指令完成目标的计算任务</text><path d="M401,360.7969 L411,360.7969 C426,360.7969 426,360.7969 441,360.7969 L451,360.7969 " fill="none" style="stroke: #A80036; stroke-width: 1.0;"/><path d="M184,333.8125 L194,333.8125 C209,333.8125 209,360.7969 224,360.7969 L234,360.7969 " fill="none" style="stroke: #A80036; stroke-width: 1.0;"/><path d="M78,387.7813 L88,387.7813 C103,387.7813 103,333.8125 118,333.8125 L128,333.8125 " fill="none" style="stroke: #A80036; stroke-width: 1.0;"/><rect fill="#FEFECE" filter="url(#f1qqzswqzccdcn)" height="33.9688" rx="12.5" ry="12.5" style="stroke: #A80036; stroke-width: 1.5;" width="43" x="128" y="424.7656"/><text fill="#000000" font-family="sans-serif" font-size="12" lengthAdjust="spacingAndGlyphs" textLength="23" x="138" y="445.9043">AST</text><rect fill="#FEFECE" filter="url(#f1qqzswqzccdcn)" height="33.9688" rx="12.5" ry="12.5" style="stroke: #A80036; stroke-width: 1.5;" width="217" x="221" y="397.7813"/><text fill="#000000" font-family="sans-serif" font-size="12" lengthAdjust="spacingAndGlyphs" textLength="197" x="231" y="418.9199">Abstract syntax tree(抽象语法树)</text><path d="M171,441.75 L181,441.75 C196,441.75 196,414.7656 211,414.7656 L221,414.7656 " fill="none" style="stroke: #A80036; stroke-width: 1.0;"/><rect fill="#FEFECE" filter="url(#f1qqzswqzccdcn)" height="33.9688" rx="12.5" ry="12.5" style="stroke: #A80036; stroke-width: 1.5;" width="151" x="221" y="451.75"/><text fill="#000000" font-family="sans-serif" font-size="12" lengthAdjust="spacingAndGlyphs" textLength="131" x="231" y="472.8887">Concrete syntax tree</text><path d="M171,441.75 L181,441.75 C196,441.75 196,468.7344 211,468.7344 L221,468.7344 " fill="none" style="stroke: #A80036; stroke-width: 1.0;"/><path d="M78,387.7813 L88,387.7813 C103,387.7813 103,441.75 118,441.75 L128,441.75 " fill="none" style="stroke: #A80036; stroke-width: 1.0;"/><rect fill="#FEFECE" filter="url(#f1qqzswqzccdcn)" height="33.9688" rx="12.5" ry="12.5" style="stroke: #A80036; stroke-width: 1.5;" width="44" x="128" y="586.6719"/><text fill="#000000" font-family="sans-serif" font-size="12" lengthAdjust="spacingAndGlyphs" textLength="24" x="138" y="607.8105">SSA</text><rect fill="#FEFECE" filter="url(#f1qqzswqzccdcn)" height="33.9688" rx="12.5" ry="12.5" style="stroke: #A80036; stroke-width: 1.5;" width="245" x="222" y="505.7188"/><text fill="#000000" font-family="sans-serif" font-size="12" lengthAdjust="spacingAndGlyphs" textLength="225" x="232" y="526.8574">Static Single Assignment(静态单赋值)</text><path d="M172,603.6563 L182,603.6563 C197,603.6563 197,522.7031 212,522.7031 L222,522.7031 " fill="none" style="stroke: #A80036; stroke-width: 1.0;"/><rect fill="#FEFECE" filter="url(#f1qqzswqzccdcn)" height="33.9688" rx="12.5" ry="12.5" style="stroke: #A80036; stroke-width: 1.5;" width="332" x="222" y="559.6875"/><text fill="#000000" font-family="sans-serif" font-size="12" lengthAdjust="spacingAndGlyphs" textLength="312" x="232" y="580.8262">主要作用是对代码进行优化，所以它是编译器后端的一部分</text><path d="M172,603.6563 L182,603.6563 C197,603.6563 197,576.6719 212,576.6719 L222,576.6719 " fill="none" style="stroke: #A80036; stroke-width: 1.0;"/><rect fill="#FEFECE" filter="url(#f1qqzswqzccdcn)" height="33.9688" rx="12.5" ry="12.5" style="stroke: #A80036; stroke-width: 1.5;" width="304" x="222" y="613.6563"/><text fill="#000000" font-family="sans-serif" font-size="12" lengthAdjust="spacingAndGlyphs" textLength="284" x="232" y="634.7949">代码编译领域除了 SSA 还有很多中间代码的优化方法</text><path d="M172,603.6563 L182,603.6563 C197,603.6563 197,630.6406 212,630.6406 L222,630.6406 " fill="none" style="stroke: #A80036; stroke-width: 1.0;"/><rect fill="#FEFECE" filter="url(#f1qqzswqzccdcn)" height="33.9688" rx="12.5" ry="12.5" style="stroke: #A80036; stroke-width: 1.5;" width="320" x="222" y="667.625"/><text fill="#000000" font-family="sans-serif" font-size="12" lengthAdjust="spacingAndGlyphs" textLength="300" x="232" y="688.7637">编译器生成代码的优化也是一个非常古老并且复杂的领域</text><path d="M172,603.6563 L182,603.6563 C197,603.6563 197,684.6094 212,684.6094 L222,684.6094 " fill="none" style="stroke: #A80036; stroke-width: 1.0;"/><path d="M78,387.7813 L88,387.7813 C103,387.7813 103,603.6563 118,603.6563 L128,603.6563 " fill="none" style="stroke: #A80036; stroke-width: 1.0;"/><rect fill="#FEFECE" filter="url(#f1qqzswqzccdcn)" height="33.9688" rx="12.5" ry="12.5" style="stroke: #A80036; stroke-width: 1.5;" width="44" x="128" y="721.5938"/><text fill="#000000" font-family="sans-serif" font-size="12" lengthAdjust="spacingAndGlyphs" textLength="24" x="138" y="742.7324">参考</text><rect fill="#FEFECE" filter="url(#f1qqzswqzccdcn)" height="33.9688" rx="12.5" ry="12.5" style="stroke: #A80036; stroke-width: 1.5;" width="200" x="222" y="721.5938"/><text fill="#000000" font-family="sans-serif" font-size="12" lengthAdjust="spacingAndGlyphs" textLength="180" x="232" y="742.7324">https://draveness.me/golang</text><path d="M172,738.5781 L182,738.5781 C197,738.5781 197,738.5781 212,738.5781 L222,738.5781 " fill="none" style="stroke: #A80036; stroke-width: 1.0;"/><path d="M78,387.7813 L88,387.7813 C103,387.7813 103,738.5781 118,738.5781 L128,738.5781 " fill="none" style="stroke: #A80036; stroke-width: 1.0;"/><!--
--></g></svg>