<svg xmlns="http://www.w3.org/2000/svg" xmlns:xlink="http://www.w3.org/1999/xlink" width="977" height="2007" contentScriptType="application/ecmascript" contentStyleType="text/css" style="width:977px;height:2007px" preserveAspectRatio="none" version="1.1" viewBox="0 0 977 2007" zoomAndPan="magnify"><defs><filter id="f1oc5c9gkiy1ax" width="300%" height="300%" x="-1" y="-1"><feGaussianBlur result="blurOut" stdDeviation="2"/><feColorMatrix in="blurOut" result="blurOut2" type="matrix" values="0 0 0 0 0 0 0 0 0 0 0 0 0 0 0 0 0 0 .4 0"/><feOffset dx="4" dy="4" in="blurOut2" result="blurOut3"/><feBlend in="SourceGraphic" in2="blurOut3" mode="normal"/></filter></defs><g><rect style="stroke:#a80036;stroke-width:1.5" width="100" height="33.969" x="10" y="991.438" fill="#FEFECE" filter="url(#f1oc5c9gkiy1ax)" rx="12.5" ry="12.5"/><text x="20" y="1012.576" fill="#000" font-family="sans-serif" font-size="12" lengthAdjust="spacingAndGlyphs" textLength="80">关于招聘-caoz</text><rect style="stroke:#a80036;stroke-width:1.5" width="68" height="33.969" x="160" y="127.938" fill="#FEFECE" filter="url(#f1oc5c9gkiy1ax)" rx="12.5" ry="12.5"/><text x="170" y="149.076" fill="#000" font-family="sans-serif" font-size="12" lengthAdjust="spacingAndGlyphs" textLength="48">初阶职位</text><rect style="stroke:#a80036;stroke-width:1.5" width="224" height="33.969" x="278" y="20" fill="#FEFECE" filter="url(#f1oc5c9gkiy1ax)" rx="12.5" ry="12.5"/><text x="288" y="41.139" fill="#000" font-family="sans-serif" font-size="12" lengthAdjust="spacingAndGlyphs" textLength="204">最关键是的培养机制，而不是招聘方式</text><path fill="none" d="M228,144.9219 L238,144.9219 C253,144.9219 253,36.9844 268,36.9844 L278,36.9844" style="stroke:#a80036;stroke-width:1"/><rect style="stroke:#a80036;stroke-width:1.5" width="68" height="33.969" x="278" y="154.922" fill="#FEFECE" filter="url(#f1oc5c9gkiy1ax)" rx="12.5" ry="12.5"/><text x="288" y="176.06" fill="#000" font-family="sans-serif" font-size="12" lengthAdjust="spacingAndGlyphs" textLength="48">培养机制</text><rect style="stroke:#a80036;stroke-width:1.5" width="140" height="33.969" x="396" y="73.969" fill="#FEFECE" filter="url(#f1oc5c9gkiy1ax)" rx="12.5" ry="12.5"/><text x="406" y="95.107" fill="#000" font-family="sans-serif" font-size="12" lengthAdjust="spacingAndGlyphs" textLength="120">并不是手把手教就是好</text><path fill="none" d="M346,171.9063 L356,171.9063 C371,171.9063 371,90.9531 386,90.9531 L396,90.9531" style="stroke:#a80036;stroke-width:1"/><rect style="stroke:#a80036;stroke-width:1.5" width="68" height="33.969" x="396" y="127.938" fill="#FEFECE" filter="url(#f1oc5c9gkiy1ax)" rx="12.5" ry="12.5"/><text x="406" y="149.076" fill="#000" font-family="sans-serif" font-size="12" lengthAdjust="spacingAndGlyphs" textLength="48">1.敢放手</text><path fill="none" d="M346,171.9063 L356,171.9063 C371,171.9063 371,144.9219 386,144.9219 L396,144.9219" style="stroke:#a80036;stroke-width:1"/><rect style="stroke:#a80036;stroke-width:1.5" width="80" height="33.969" x="396" y="181.906" fill="#FEFECE" filter="url(#f1oc5c9gkiy1ax)" rx="12.5" ry="12.5"/><text x="406" y="203.045" fill="#000" font-family="sans-serif" font-size="12" lengthAdjust="spacingAndGlyphs" textLength="60">2.允许犯错</text><path fill="none" d="M346,171.9063 L356,171.9063 C371,171.9063 371,198.8906 386,198.8906 L396,198.8906" style="stroke:#a80036;stroke-width:1"/><rect style="stroke:#a80036;stroke-width:1.5" width="188" height="33.969" x="396" y="235.875" fill="#FEFECE" filter="url(#f1oc5c9gkiy1ax)" rx="12.5" ry="12.5"/><text x="406" y="257.014" fill="#000" font-family="sans-serif" font-size="12" lengthAdjust="spacingAndGlyphs" textLength="168">3.做好总结（犯错后要有提升）</text><path fill="none" d="M346,171.9063 L356,171.9063 C371,171.9063 371,252.8594 386,252.8594 L396,252.8594" style="stroke:#a80036;stroke-width:1"/><path fill="none" d="M228,144.9219 L238,144.9219 C253,144.9219 253,171.9063 268,171.9063 L278,171.9063" style="stroke:#a80036;stroke-width:1"/><path fill="none" d="M110,1008.4219 L120,1008.4219 C135,1008.4219 135,144.9219 150,144.9219 L160,144.9219" style="stroke:#a80036;stroke-width:1"/><rect style="stroke:#a80036;stroke-width:1.5" width="68" height="33.969" x="160" y="370.797" fill="#FEFECE" filter="url(#f1oc5c9gkiy1ax)" rx="12.5" ry="12.5"/><text x="170" y="391.935" fill="#000" font-family="sans-serif" font-size="12" lengthAdjust="spacingAndGlyphs" textLength="48">高阶职位</text><rect style="stroke:#a80036;stroke-width:1.5" width="44" height="33.969" x="278" y="316.828" fill="#FEFECE" filter="url(#f1oc5c9gkiy1ax)" rx="12.5" ry="12.5"/><text x="288" y="337.967" fill="#000" font-family="sans-serif" font-size="12" lengthAdjust="spacingAndGlyphs" textLength="24">方法</text><rect style="stroke:#a80036;stroke-width:1.5" width="224" height="33.969" x="372" y="289.844" fill="#FEFECE" filter="url(#f1oc5c9gkiy1ax)" rx="12.5" ry="12.5"/><text x="382" y="310.982" fill="#000" font-family="sans-serif" font-size="12" lengthAdjust="spacingAndGlyphs" textLength="204">用正确的题目考核，是非常有效的方法</text><path fill="none" d="M322,333.8125 L332,333.8125 C347,333.8125 347,306.8281 362,306.8281 L372,306.8281" style="stroke:#a80036;stroke-width:1"/><rect style="stroke:#a80036;stroke-width:1.5" width="116" height="33.969" x="372" y="343.813" fill="#FEFECE" filter="url(#f1oc5c9gkiy1ax)" rx="12.5" ry="12.5"/><text x="382" y="364.951" fill="#000" font-family="sans-serif" font-size="12" lengthAdjust="spacingAndGlyphs" textLength="96">甚至不用当面面试</text><path fill="none" d="M322,333.8125 L332,333.8125 C347,333.8125 347,360.7969 362,360.7969 L372,360.7969" style="stroke:#a80036;stroke-width:1"/><path fill="none" d="M228,387.7813 L238,387.7813 C253,387.7813 253,333.8125 268,333.8125 L278,333.8125" style="stroke:#a80036;stroke-width:1"/><rect style="stroke:#a80036;stroke-width:1.5" width="80" height="33.969" x="278" y="424.766" fill="#FEFECE" filter="url(#f1oc5c9gkiy1ax)" rx="12.5" ry="12.5"/><text x="288" y="445.904" fill="#000" font-family="sans-serif" font-size="12" lengthAdjust="spacingAndGlyphs" textLength="60">面试的作用</text><rect style="stroke:#a80036;stroke-width:1.5" width="212" height="33.969" x="408" y="397.781" fill="#FEFECE" filter="url(#f1oc5c9gkiy1ax)" rx="12.5" ry="12.5"/><text x="418" y="418.92" fill="#000" font-family="sans-serif" font-size="12" lengthAdjust="spacingAndGlyphs" textLength="192">1.观察这人的价值观和个人目标诉求</text><path fill="none" d="M358,441.75 L368,441.75 C383,441.75 383,414.7656 398,414.7656 L408,414.7656" style="stroke:#a80036;stroke-width:1"/><rect style="stroke:#a80036;stroke-width:1.5" width="188" height="33.969" x="408" y="451.75" fill="#FEFECE" filter="url(#f1oc5c9gkiy1ax)" rx="12.5" ry="12.5"/><text x="418" y="472.889" fill="#000" font-family="sans-serif" font-size="12" lengthAdjust="spacingAndGlyphs" textLength="168">2.判断是否真的是自己完成题目</text><path fill="none" d="M358,441.75 L368,441.75 C383,441.75 383,468.7344 398,468.7344 L408,468.7344" style="stroke:#a80036;stroke-width:1"/><path fill="none" d="M228,387.7813 L238,387.7813 C253,387.7813 253,441.75 268,441.75 L278,441.75" style="stroke:#a80036;stroke-width:1"/><path fill="none" d="M110,1008.4219 L120,1008.4219 C135,1008.4219 135,387.7813 150,387.7813 L160,387.7813" style="stroke:#a80036;stroke-width:1"/><rect style="stroke:#a80036;stroke-width:1.5" width="80" height="33.969" x="160" y="910.484" fill="#FEFECE" filter="url(#f1oc5c9gkiy1ax)" rx="12.5" ry="12.5"/><text x="170" y="931.623" fill="#000" font-family="sans-serif" font-size="12" lengthAdjust="spacingAndGlyphs" textLength="60">正确的题目</text><rect style="stroke:#a80036;stroke-width:1.5" width="68" height="33.969" x="290" y="586.672" fill="#FEFECE" filter="url(#f1oc5c9gkiy1ax)" rx="12.5" ry="12.5"/><text x="300" y="607.811" fill="#000" font-family="sans-serif" font-size="12" lengthAdjust="spacingAndGlyphs" textLength="48">1.算法题</text><path fill="none" d="M240,927.4688 L250,927.4688 C265,927.4688 265,603.6563 280,603.6563 L290,603.6563" style="stroke:#a80036;stroke-width:1"/><rect style="stroke:#a80036;stroke-width:1.5" width="92" height="33.969" x="290" y="640.641" fill="#FEFECE" filter="url(#f1oc5c9gkiy1ax)" rx="12.5" ry="12.5"/><text x="300" y="661.779" fill="#000" font-family="sans-serif" font-size="12" lengthAdjust="spacingAndGlyphs" textLength="72">2.技术算法题</text><rect style="stroke:#a80036;stroke-width:1.5" width="128" height="33.969" x="432" y="505.719" fill="#FEFECE" filter="url(#f1oc5c9gkiy1ax)" rx="12.5" ry="12.5"/><text x="442" y="526.857" fill="#000" font-family="sans-serif" font-size="12" lengthAdjust="spacingAndGlyphs" textLength="108">互联网的屏蔽词处理</text><path fill="none" d="M382,657.625 L392,657.625 C407,657.625 407,522.7031 422,522.7031 L432,522.7031" style="stroke:#a80036;stroke-width:1"/><rect style="stroke:#a80036;stroke-width:1.5" width="44" height="33.969" x="432" y="586.672" fill="#FEFECE" filter="url(#f1oc5c9gkiy1ax)" rx="12.5" ry="12.5"/><text x="442" y="607.811" fill="#000" font-family="sans-serif" font-size="12" lengthAdjust="spacingAndGlyphs" textLength="24">题目</text><rect style="stroke:#a80036;stroke-width:1.5" width="236" height="33.969" x="526" y="559.688" fill="#FEFECE" filter="url(#f1oc5c9gkiy1ax)" rx="12.5" ry="12.5"/><text x="536" y="580.826" fill="#000" font-family="sans-serif" font-size="12" lengthAdjust="spacingAndGlyphs" textLength="216">一个屏蔽词库，里面有几万条屏蔽词信息</text><path fill="none" d="M476,603.6563 L486,603.6563 C501,603.6563 501,576.6719 516,576.6719 L526,576.6719" style="stroke:#a80036;stroke-width:1"/><rect style="stroke:#a80036;stroke-width:1.5" width="224" height="33.969" x="526" y="613.656" fill="#FEFECE" filter="url(#f1oc5c9gkiy1ax)" rx="12.5" ry="12.5"/><text x="536" y="634.795" fill="#000" font-family="sans-serif" font-size="12" lengthAdjust="spacingAndGlyphs" textLength="204">一个火爆的社区，每天有上百万篇文章</text><path fill="none" d="M476,603.6563 L486,603.6563 C501,603.6563 501,630.6406 516,630.6406 L526,630.6406" style="stroke:#a80036;stroke-width:1"/><path fill="none" d="M382,657.625 L392,657.625 C407,657.625 407,603.6563 422,603.6563 L432,603.6563" style="stroke:#a80036;stroke-width:1"/><rect style="stroke:#a80036;stroke-width:1.5" width="44" height="33.969" x="432" y="721.594" fill="#FEFECE" filter="url(#f1oc5c9gkiy1ax)" rx="12.5" ry="12.5"/><text x="442" y="742.732" fill="#000" font-family="sans-serif" font-size="12" lengthAdjust="spacingAndGlyphs" textLength="24">要求</text><rect style="stroke:#a80036;stroke-width:1.5" width="248" height="33.969" x="526" y="667.625" fill="#FEFECE" filter="url(#f1oc5c9gkiy1ax)" rx="12.5" ry="12.5"/><text x="536" y="688.764" fill="#000" font-family="sans-serif" font-size="12" lengthAdjust="spacingAndGlyphs" textLength="228">要求每篇文章都能快速通过屏蔽词库去检索</text><path fill="none" d="M476,738.5781 L486,738.5781 C501,738.5781 501,684.6094 516,684.6094 L526,684.6094" style="stroke:#a80036;stroke-width:1"/><rect style="stroke:#a80036;stroke-width:1.5" width="236" height="33.969" x="526" y="721.594" fill="#FEFECE" filter="url(#f1oc5c9gkiy1ax)" rx="12.5" ry="12.5"/><text x="536" y="742.732" fill="#000" font-family="sans-serif" font-size="12" lengthAdjust="spacingAndGlyphs" textLength="216">要求服务器可以支撑尽可能多的处理请求</text><path fill="none" d="M476,738.5781 L486,738.5781 C501,738.5781 501,738.5781 516,738.5781 L526,738.5781" style="stroke:#a80036;stroke-width:1"/><rect style="stroke:#a80036;stroke-width:1.5" width="188" height="33.969" x="526" y="775.563" fill="#FEFECE" filter="url(#f1oc5c9gkiy1ax)" rx="12.5" ry="12.5"/><text x="536" y="796.701" fill="#000" font-family="sans-serif" font-size="12" lengthAdjust="spacingAndGlyphs" textLength="168">设计一个屏蔽词过滤的算法逻辑</text><path fill="none" d="M476,738.5781 L486,738.5781 C501,738.5781 501,792.5469 516,792.5469 L526,792.5469" style="stroke:#a80036;stroke-width:1"/><path fill="none" d="M382,657.625 L392,657.625 C407,657.625 407,738.5781 422,738.5781 L432,738.5781" style="stroke:#a80036;stroke-width:1"/><path fill="none" d="M240,927.4688 L250,927.4688 C265,927.4688 265,657.625 280,657.625 L290,657.625" style="stroke:#a80036;stroke-width:1"/><rect style="stroke:#a80036;stroke-width:1.5" width="104" height="33.969" x="290" y="856.516" fill="#FEFECE" filter="url(#f1oc5c9gkiy1ax)" rx="12.5" ry="12.5"/><text x="300" y="877.654" fill="#000" font-family="sans-serif" font-size="12" lengthAdjust="spacingAndGlyphs" textLength="84">3.技术非算法题</text><rect style="stroke:#a80036;stroke-width:1.5" width="152" height="33.969" x="444" y="829.531" fill="#FEFECE" filter="url(#f1oc5c9gkiy1ax)" rx="12.5" ry="12.5"/><text x="454" y="850.67" fill="#000" font-family="sans-serif" font-size="12" lengthAdjust="spacingAndGlyphs" textLength="132">玩家反馈说游戏现在很卡</text><path fill="none" d="M394,873.5 L404,873.5 C419,873.5 419,846.5156 434,846.5156 L444,846.5156" style="stroke:#a80036;stroke-width:1"/><rect style="stroke:#a80036;stroke-width:1.5" width="260" height="33.969" x="444" y="883.5" fill="#FEFECE" filter="url(#f1oc5c9gkiy1ax)" rx="12.5" ry="12.5"/><text x="454" y="904.639" fill="#000" font-family="sans-serif" font-size="12" lengthAdjust="spacingAndGlyphs" textLength="240">如何有效快速的确认原因，请给出分析的逻辑</text><path fill="none" d="M394,873.5 L404,873.5 C419,873.5 419,900.4844 434,900.4844 L444,900.4844" style="stroke:#a80036;stroke-width:1"/><path fill="none" d="M240,927.4688 L250,927.4688 C265,927.4688 265,873.5 280,873.5 L290,873.5" style="stroke:#a80036;stroke-width:1"/><rect style="stroke:#a80036;stroke-width:1.5" width="128" height="33.969" x="290" y="1072.391" fill="#FEFECE" filter="url(#f1oc5c9gkiy1ax)" rx="12.5" ry="12.5"/><text x="300" y="1093.529" fill="#000" font-family="sans-serif" font-size="12" lengthAdjust="spacingAndGlyphs" textLength="108">4.非技术、游戏运营</text><rect style="stroke:#a80036;stroke-width:1.5" width="44" height="33.969" x="468" y="991.438" fill="#FEFECE" filter="url(#f1oc5c9gkiy1ax)" rx="12.5" ry="12.5"/><text x="478" y="1012.576" fill="#000" font-family="sans-serif" font-size="12" lengthAdjust="spacingAndGlyphs" textLength="24">数据</text><rect style="stroke:#a80036;stroke-width:1.5" width="128" height="33.969" x="562" y="937.469" fill="#FEFECE" filter="url(#f1oc5c9gkiy1ax)" rx="12.5" ry="12.5"/><text x="572" y="958.607" fill="#000" font-family="sans-serif" font-size="12" lengthAdjust="spacingAndGlyphs" textLength="108">运营指标，xx日留存</text><path fill="none" d="M512,1008.4219 L522,1008.4219 C537,1008.4219 537,954.4531 552,954.4531 L562,954.4531" style="stroke:#a80036;stroke-width:1"/><rect style="stroke:#a80036;stroke-width:1.5" width="134" height="33.969" x="562" y="991.438" fill="#FEFECE" filter="url(#f1oc5c9gkiy1ax)" rx="12.5" ry="12.5"/><text x="572" y="1012.576" fill="#000" font-family="sans-serif" font-size="12" lengthAdjust="spacingAndGlyphs" textLength="114">新玩家x日平均付费率</text><path fill="none" d="M512,1008.4219 L522,1008.4219 C537,1008.4219 537,1008.4219 552,1008.4219 L562,1008.4219" style="stroke:#a80036;stroke-width:1"/><rect style="stroke:#a80036;stroke-width:1.5" width="284" height="33.969" x="562" y="1045.406" fill="#FEFECE" filter="url(#f1oc5c9gkiy1ax)" rx="12.5" ry="12.5"/><text x="572" y="1066.545" fill="#000" font-family="sans-serif" font-size="12" lengthAdjust="spacingAndGlyphs" textLength="264">基本玩家画像，年龄分布，学历分布，地区分布等</text><path fill="none" d="M512,1008.4219 L522,1008.4219 C537,1008.4219 537,1062.3906 552,1062.3906 L562,1062.3906" style="stroke:#a80036;stroke-width:1"/><path fill="none" d="M418,1089.375 L428,1089.375 C443,1089.375 443,1008.4219 458,1008.4219 L468,1008.4219" style="stroke:#a80036;stroke-width:1"/><rect style="stroke:#a80036;stroke-width:1.5" width="44" height="33.969" x="468" y="1153.344" fill="#FEFECE" filter="url(#f1oc5c9gkiy1ax)" rx="12.5" ry="12.5"/><text x="478" y="1174.482" fill="#000" font-family="sans-serif" font-size="12" lengthAdjust="spacingAndGlyphs" textLength="24">提问</text><rect style="stroke:#a80036;stroke-width:1.5" width="236" height="33.969" x="562" y="1099.375" fill="#FEFECE" filter="url(#f1oc5c9gkiy1ax)" rx="12.5" ry="12.5"/><text x="572" y="1120.514" fill="#000" font-family="sans-serif" font-size="12" lengthAdjust="spacingAndGlyphs" textLength="216">这个游戏应该如何推广，在哪些渠道推广</text><path fill="none" d="M512,1170.3281 L522,1170.3281 C537,1170.3281 537,1116.3594 552,1116.3594 L562,1116.3594" style="stroke:#a80036;stroke-width:1"/><rect style="stroke:#a80036;stroke-width:1.5" width="404" height="33.969" x="562" y="1153.344" fill="#FEFECE" filter="url(#f1oc5c9gkiy1ax)" rx="12.5" ry="12.5"/><text x="572" y="1174.482" fill="#000" font-family="sans-serif" font-size="12" lengthAdjust="spacingAndGlyphs" textLength="384">广告投放的价格策略如何标定，对这个游戏产品收入的整体判断是怎样的</text><path fill="none" d="M512,1170.3281 L522,1170.3281 C537,1170.3281 537,1170.3281 552,1170.3281 L562,1170.3281" style="stroke:#a80036;stroke-width:1"/><rect style="stroke:#a80036;stroke-width:1.5" width="272" height="33.969" x="562" y="1207.313" fill="#FEFECE" filter="url(#f1oc5c9gkiy1ax)" rx="12.5" ry="12.5"/><text x="572" y="1228.451" fill="#000" font-family="sans-serif" font-size="12" lengthAdjust="spacingAndGlyphs" textLength="252">以及你认为还需要哪些数据才能给出更好的评估</text><path fill="none" d="M512,1170.3281 L522,1170.3281 C537,1170.3281 537,1224.2969 552,1224.2969 L562,1224.2969" style="stroke:#a80036;stroke-width:1"/><path fill="none" d="M418,1089.375 L428,1089.375 C443,1089.375 443,1170.3281 458,1170.3281 L468,1170.3281" style="stroke:#a80036;stroke-width:1"/><path fill="none" d="M240,927.4688 L250,927.4688 C265,927.4688 265,1089.375 280,1089.375 L290,1089.375" style="stroke:#a80036;stroke-width:1"/><rect style="stroke:#a80036;stroke-width:1.5" width="140" height="33.969" x="290" y="1288.266" fill="#FEFECE" filter="url(#f1oc5c9gkiy1ax)" rx="12.5" ry="12.5"/><text x="300" y="1309.404" fill="#000" font-family="sans-serif" font-size="12" lengthAdjust="spacingAndGlyphs" textLength="120">5.社区运营或社区策略</text><rect style="stroke:#a80036;stroke-width:1.5" width="284" height="33.969" x="480" y="1261.281" fill="#FEFECE" filter="url(#f1oc5c9gkiy1ax)" rx="12.5" ry="12.5"/><text x="490" y="1282.42" fill="#000" font-family="sans-serif" font-size="12" lengthAdjust="spacingAndGlyphs" textLength="264">知乎社区，很多大号做营销，还有刷赞刷粉的很多</text><path fill="none" d="M430,1305.25 L440,1305.25 C455,1305.25 455,1278.2656 470,1278.2656 L480,1278.2656" style="stroke:#a80036;stroke-width:1"/><rect style="stroke:#a80036;stroke-width:1.5" width="212" height="33.969" x="480" y="1315.25" fill="#FEFECE" filter="url(#f1oc5c9gkiy1ax)" rx="12.5" ry="12.5"/><text x="490" y="1336.389" fill="#000" font-family="sans-serif" font-size="12" lengthAdjust="spacingAndGlyphs" textLength="192">给出你对这些事情的认识和处理策略</text><path fill="none" d="M430,1305.25 L440,1305.25 C455,1305.25 455,1332.2344 470,1332.2344 L480,1332.2344" style="stroke:#a80036;stroke-width:1"/><path fill="none" d="M240,927.4688 L250,927.4688 C265,927.4688 265,1305.25 280,1305.25 L290,1305.25" style="stroke:#a80036;stroke-width:1"/><path fill="none" d="M110,1008.4219 L120,1008.4219 C135,1008.4219 135,927.4688 150,927.4688 L160,927.4688" style="stroke:#a80036;stroke-width:1"/><rect style="stroke:#a80036;stroke-width:1.5" width="68" height="33.969" x="160" y="1666.047" fill="#FEFECE" filter="url(#f1oc5c9gkiy1ax)" rx="12.5" ry="12.5"/><text x="170" y="1687.186" fill="#000" font-family="sans-serif" font-size="12" lengthAdjust="spacingAndGlyphs" textLength="48">面试总结</text><rect style="stroke:#a80036;stroke-width:1.5" width="104" height="33.969" x="278" y="1369.219" fill="#FEFECE" filter="url(#f1oc5c9gkiy1ax)" rx="12.5" ry="12.5"/><text x="288" y="1390.357" fill="#000" font-family="sans-serif" font-size="12" lengthAdjust="spacingAndGlyphs" textLength="84">1.评估面试成本</text><rect style="stroke:#a80036;stroke-width:1.5" width="176" height="33.969" x="432" y="1369.219" fill="#FEFECE" filter="url(#f1oc5c9gkiy1ax)" rx="12.5" ry="12.5"/><text x="442" y="1390.357" fill="#000" font-family="sans-serif" font-size="12" lengthAdjust="spacingAndGlyphs" textLength="156">特别是占用业务人员时间成本</text><path fill="none" d="M382,1386.2031 L392,1386.2031 C407,1386.2031 407,1386.2031 422,1386.2031 L432,1386.2031" style="stroke:#a80036;stroke-width:1"/><path fill="none" d="M228,1683.0313 L238,1683.0313 C253,1683.0313 253,1386.2031 268,1386.2031 L278,1386.2031" style="stroke:#a80036;stroke-width:1"/><rect style="stroke:#a80036;stroke-width:1.5" width="104" height="33.969" x="278" y="1450.172" fill="#FEFECE" filter="url(#f1oc5c9gkiy1ax)" rx="12.5" ry="12.5"/><text x="288" y="1471.311" fill="#000" font-family="sans-serif" font-size="12" lengthAdjust="spacingAndGlyphs" textLength="84">2.评估面试效率</text><rect style="stroke:#a80036;stroke-width:1.5" width="236" height="33.969" x="432" y="1423.188" fill="#FEFECE" filter="url(#f1oc5c9gkiy1ax)" rx="12.5" ry="12.5"/><text x="442" y="1444.326" fill="#000" font-family="sans-serif" font-size="12" lengthAdjust="spacingAndGlyphs" textLength="216">面试官平均多少时间可以招聘到合格人才</text><path fill="none" d="M382,1467.1563 L392,1467.1563 C407,1467.1563 407,1440.1719 422,1440.1719 L432,1440.1719" style="stroke:#a80036;stroke-width:1"/><rect style="stroke:#a80036;stroke-width:1.5" width="320" height="33.969" x="432" y="1477.156" fill="#FEFECE" filter="url(#f1oc5c9gkiy1ax)" rx="12.5" ry="12.5"/><text x="442" y="1498.295" fill="#000" font-family="sans-serif" font-size="12" lengthAdjust="spacingAndGlyphs" textLength="300">每个面试官的招聘结果，平均流失多少，平均表现如何？</text><path fill="none" d="M382,1467.1563 L392,1467.1563 C407,1467.1563 407,1494.1406 422,1494.1406 L432,1494.1406" style="stroke:#a80036;stroke-width:1"/><path fill="none" d="M228,1683.0313 L238,1683.0313 C253,1683.0313 253,1467.1563 268,1467.1563 L278,1467.1563" style="stroke:#a80036;stroke-width:1"/><rect style="stroke:#a80036;stroke-width:1.5" width="188" height="33.969" x="278" y="1747" fill="#FEFECE" filter="url(#f1oc5c9gkiy1ax)" rx="12.5" ry="12.5"/><text x="288" y="1768.139" fill="#000" font-family="sans-serif" font-size="12" lengthAdjust="spacingAndGlyphs" textLength="168">3.组织面试官的经验与教训分享</text><rect style="stroke:#a80036;stroke-width:1.5" width="380" height="33.969" x="516" y="1531.125" fill="#FEFECE" filter="url(#f1oc5c9gkiy1ax)" rx="12.5" ry="12.5"/><text x="526" y="1552.264" fill="#000" font-family="sans-serif" font-size="12" lengthAdjust="spacingAndGlyphs" textLength="360">行成知识库，方便新的管理人员，骨干人员快速掌握面试技巧和能力</text><path fill="none" d="M466,1763.9844 L476,1763.9844 C491,1763.9844 491,1548.1094 506,1548.1094 L516,1548.1094" style="stroke:#a80036;stroke-width:1"/><rect style="stroke:#a80036;stroke-width:1.5" width="44" height="33.969" x="516" y="1639.063" fill="#FEFECE" filter="url(#f1oc5c9gkiy1ax)" rx="12.5" ry="12.5"/><text x="526" y="1660.201" fill="#000" font-family="sans-serif" font-size="12" lengthAdjust="spacingAndGlyphs" textLength="24">经验</text><rect style="stroke:#a80036;stroke-width:1.5" width="164" height="33.969" x="610" y="1585.094" fill="#FEFECE" filter="url(#f1oc5c9gkiy1ax)" rx="12.5" ry="12.5"/><text x="620" y="1606.232" fill="#000" font-family="sans-serif" font-size="12" lengthAdjust="spacingAndGlyphs" textLength="144">优秀的人才是怎么招进来的</text><path fill="none" d="M560,1656.0469 L570,1656.0469 C585,1656.0469 585,1602.0781 600,1602.0781 L610,1602.0781" style="stroke:#a80036;stroke-width:1"/><rect style="stroke:#a80036;stroke-width:1.5" width="200" height="33.969" x="610" y="1639.063" fill="#FEFECE" filter="url(#f1oc5c9gkiy1ax)" rx="12.5" ry="12.5"/><text x="620" y="1660.201" fill="#000" font-family="sans-serif" font-size="12" lengthAdjust="spacingAndGlyphs" textLength="180">哪些素质在面试的时候可以看出来</text><path fill="none" d="M560,1656.0469 L570,1656.0469 C585,1656.0469 585,1656.0469 600,1656.0469 L610,1656.0469" style="stroke:#a80036;stroke-width:1"/><rect style="stroke:#a80036;stroke-width:1.5" width="116" height="33.969" x="610" y="1693.031" fill="#FEFECE" filter="url(#f1oc5c9gkiy1ax)" rx="12.5" ry="12.5"/><text x="620" y="1714.17" fill="#000" font-family="sans-serif" font-size="12" lengthAdjust="spacingAndGlyphs" textLength="96">具有怎样的共性；</text><path fill="none" d="M560,1656.0469 L570,1656.0469 C585,1656.0469 585,1710.0156 600,1710.0156 L610,1710.0156" style="stroke:#a80036;stroke-width:1"/><path fill="none" d="M466,1763.9844 L476,1763.9844 C491,1763.9844 491,1656.0469 506,1656.0469 L516,1656.0469" style="stroke:#a80036;stroke-width:1"/><rect style="stroke:#a80036;stroke-width:1.5" width="44" height="33.969" x="516" y="1800.969" fill="#FEFECE" filter="url(#f1oc5c9gkiy1ax)" rx="12.5" ry="12.5"/><text x="526" y="1822.107" fill="#000" font-family="sans-serif" font-size="12" lengthAdjust="spacingAndGlyphs" textLength="24">教训</text><rect style="stroke:#a80036;stroke-width:1.5" width="236" height="33.969" x="610" y="1747" fill="#FEFECE" filter="url(#f1oc5c9gkiy1ax)" rx="12.5" ry="12.5"/><text x="620" y="1768.139" fill="#000" font-family="sans-serif" font-size="12" lengthAdjust="spacingAndGlyphs" textLength="216">不合格，或者不稳定的人是怎么招进来的</text><path fill="none" d="M560,1817.9531 L570,1817.9531 C585,1817.9531 585,1763.9844 600,1763.9844 L610,1763.9844" style="stroke:#a80036;stroke-width:1"/><rect style="stroke:#a80036;stroke-width:1.5" width="272" height="33.969" x="610" y="1800.969" fill="#FEFECE" filter="url(#f1oc5c9gkiy1ax)" rx="12.5" ry="12.5"/><text x="620" y="1822.107" fill="#000" font-family="sans-serif" font-size="12" lengthAdjust="spacingAndGlyphs" textLength="252">哪些特征是面试的时候可以看出来但没有看出来</text><path fill="none" d="M560,1817.9531 L570,1817.9531 C585,1817.9531 585,1817.9531 600,1817.9531 L610,1817.9531" style="stroke:#a80036;stroke-width:1"/><rect style="stroke:#a80036;stroke-width:1.5" width="164" height="33.969" x="610" y="1854.938" fill="#FEFECE" filter="url(#f1oc5c9gkiy1ax)" rx="12.5" ry="12.5"/><text x="620" y="1876.076" fill="#000" font-family="sans-serif" font-size="12" lengthAdjust="spacingAndGlyphs" textLength="144">或者看出来但没有当回事的</text><path fill="none" d="M560,1817.9531 L570,1817.9531 C585,1817.9531 585,1871.9219 600,1871.9219 L610,1871.9219" style="stroke:#a80036;stroke-width:1"/><path fill="none" d="M466,1763.9844 L476,1763.9844 C491,1763.9844 491,1817.9531 506,1817.9531 L516,1817.9531" style="stroke:#a80036;stroke-width:1"/><rect style="stroke:#a80036;stroke-width:1.5" width="44" height="33.969" x="516" y="1935.891" fill="#FEFECE" filter="url(#f1oc5c9gkiy1ax)" rx="12.5" ry="12.5"/><text x="526" y="1957.029" fill="#000" font-family="sans-serif" font-size="12" lengthAdjust="spacingAndGlyphs" textLength="24">总结</text><rect style="stroke:#a80036;stroke-width:1.5" width="229" height="33.969" x="610" y="1908.906" fill="#FEFECE" filter="url(#f1oc5c9gkiy1ax)" rx="12.5" ry="12.5"/><text x="620" y="1930.045" fill="#000" font-family="sans-serif" font-size="12" lengthAdjust="spacingAndGlyphs" textLength="209">是否存在心仪的人才拒绝了offer的情况</text><path fill="none" d="M560,1952.875 L570,1952.875 C585,1952.875 585,1925.8906 600,1925.8906 L610,1925.8906" style="stroke:#a80036;stroke-width:1"/><rect style="stroke:#a80036;stroke-width:1.5" width="104" height="33.969" x="610" y="1962.875" fill="#FEFECE" filter="url(#f1oc5c9gkiy1ax)" rx="12.5" ry="12.5"/><text x="620" y="1984.014" fill="#000" font-family="sans-serif" font-size="12" lengthAdjust="spacingAndGlyphs" textLength="84">以及为什么拒绝</text><path fill="none" d="M560,1952.875 L570,1952.875 C585,1952.875 585,1979.8594 600,1979.8594 L610,1979.8594" style="stroke:#a80036;stroke-width:1"/><path fill="none" d="M466,1763.9844 L476,1763.9844 C491,1763.9844 491,1952.875 506,1952.875 L516,1952.875" style="stroke:#a80036;stroke-width:1"/><path fill="none" d="M228,1683.0313 L238,1683.0313 C253,1683.0313 253,1763.9844 268,1763.9844 L278,1763.9844" style="stroke:#a80036;stroke-width:1"/><path fill="none" d="M110,1008.4219 L120,1008.4219 C135,1008.4219 135,1683.0313 150,1683.0313 L160,1683.0313" style="stroke:#a80036;stroke-width:1"/></g></svg>