<svg xmlns="http://www.w3.org/2000/svg" xmlns:xlink="http://www.w3.org/1999/xlink" width="879" height="2385" contentScriptType="application/ecmascript" contentStyleType="text/css" style="width:879px;height:2385px" preserveAspectRatio="none" version="1.1" viewBox="0 0 879 2385" zoomAndPan="magnify"><defs><filter id="frvnd781bvucx" width="300%" height="300%" x="-1" y="-1"><feGaussianBlur result="blurOut" stdDeviation="2"/><feColorMatrix in="blurOut" result="blurOut2" type="matrix" values="0 0 0 0 0 0 0 0 0 0 0 0 0 0 0 0 0 0 .4 0"/><feOffset dx="4" dy="4" in="blurOut2" result="blurOut3"/><feBlend in="SourceGraphic" in2="blurOut3" mode="normal"/></filter></defs><g><rect style="stroke:#a80036;stroke-width:1.5" width="44" height="33.969" x="10" y="1180.328" fill="#FEFECE" filter="url(#frvnd781bvucx)" rx="12.5" ry="12.5"/><text x="20" y="1201.467" fill="#000" font-family="sans-serif" font-size="12" lengthAdjust="spacingAndGlyphs" textLength="24">起点</text><rect style="stroke:#a80036;stroke-width:1.5" width="104" height="33.969" x="104" y="181.906" fill="#FEFECE" filter="url(#frvnd781bvucx)" rx="12.5" ry="12.5"/><text x="114" y="203.045" fill="#000" font-family="sans-serif" font-size="12" lengthAdjust="spacingAndGlyphs" textLength="84">云原生发展历程</text><rect style="stroke:#a80036;stroke-width:1.5" width="302" height="33.969" x="258" y="20" fill="#FEFECE" filter="url(#frvnd781bvucx)" rx="12.5" ry="12.5"/><text x="268" y="41.139" fill="#000" font-family="sans-serif" font-size="12" lengthAdjust="spacingAndGlyphs" textLength="282">2004-2007, Google大规模使用容器(cgroup)技术</text><path fill="none" d="M208,198.8906 L218,198.8906 C233,198.8906 233,36.9844 248,36.9844 L258,36.9844" style="stroke:#a80036;stroke-width:1"/><rect style="stroke:#a80036;stroke-width:1.5" width="215" height="33.969" x="258" y="73.969" fill="#FEFECE" filter="url(#frvnd781bvucx)" rx="12.5" ry="12.5"/><text x="268" y="95.107" fill="#000" font-family="sans-serif" font-size="12" lengthAdjust="spacingAndGlyphs" textLength="195">2008.01, cgroup合并到Linux主干</text><path fill="none" d="M208,198.8906 L218,198.8906 C233,198.8906 233,90.9531 248,90.9531 L258,90.9531" style="stroke:#a80036;stroke-width:1"/><rect style="stroke:#a80036;stroke-width:1.5" width="172" height="33.969" x="258" y="127.938" fill="#FEFECE" filter="url(#frvnd781bvucx)" rx="12.5" ry="12.5"/><text x="268" y="149.076" fill="#000" font-family="sans-serif" font-size="12" lengthAdjust="spacingAndGlyphs" textLength="152">2013.03, Docker正式发布</text><path fill="none" d="M208,198.8906 L218,198.8906 C233,198.8906 233,144.9219 248,144.9219 L258,144.9219" style="stroke:#a80036;stroke-width:1"/><rect style="stroke:#a80036;stroke-width:1.5" width="200" height="33.969" x="258" y="181.906" fill="#FEFECE" filter="url(#frvnd781bvucx)" rx="12.5" ry="12.5"/><text x="268" y="203.045" fill="#000" font-family="sans-serif" font-size="12" lengthAdjust="spacingAndGlyphs" textLength="180">2014.06, Kubernetes正式发布</text><path fill="none" d="M208,198.8906 L218,198.8906 C233,198.8906 233,198.8906 248,198.8906 L258,198.8906" style="stroke:#a80036;stroke-width:1"/><rect style="stroke:#a80036;stroke-width:1.5" width="222" height="33.969" x="258" y="235.875" fill="#FEFECE" filter="url(#frvnd781bvucx)" rx="12.5" ry="12.5"/><text x="268" y="257.014" fill="#000" font-family="sans-serif" font-size="12" lengthAdjust="spacingAndGlyphs" textLength="202">2015.07, CNCF成立(22个创始成员)</text><path fill="none" d="M208,198.8906 L218,198.8906 C233,198.8906 233,252.8594 248,252.8594 L258,252.8594" style="stroke:#a80036;stroke-width:1"/><rect style="stroke:#a80036;stroke-width:1.5" width="200" height="33.969" x="258" y="289.844" fill="#FEFECE" filter="url(#frvnd781bvucx)" rx="12.5" ry="12.5"/><text x="268" y="310.982" fill="#000" font-family="sans-serif" font-size="12" lengthAdjust="spacingAndGlyphs" textLength="180">2017.07, 14个项目, 170个成员</text><path fill="none" d="M208,198.8906 L218,198.8906 C233,198.8906 233,306.8281 248,306.8281 L258,306.8281" style="stroke:#a80036;stroke-width:1"/><rect style="stroke:#a80036;stroke-width:1.5" width="232" height="33.969" x="258" y="343.813" fill="#FEFECE" filter="url(#frvnd781bvucx)" rx="12.5" ry="12.5"/><text x="268" y="364.951" fill="#000" font-family="sans-serif" font-size="12" lengthAdjust="spacingAndGlyphs" textLength="212">2018.07, 19(+11)个项目,195个成员</text><path fill="none" d="M208,198.8906 L218,198.8906 C233,198.8906 233,360.7969 248,360.7969 L258,360.7969" style="stroke:#a80036;stroke-width:1"/><path fill="none" d="M54,1197.3125 L64,1197.3125 C79,1197.3125 79,198.8906 94,198.8906 L104,198.8906" style="stroke:#a80036;stroke-width:1"/><rect style="stroke:#a80036;stroke-width:1.5" width="68" height="33.969" x="104" y="478.734" fill="#FEFECE" filter="url(#frvnd781bvucx)" rx="12.5" ry="12.5"/><text x="114" y="499.873" fill="#000" font-family="sans-serif" font-size="12" lengthAdjust="spacingAndGlyphs" textLength="48">关键节点</text><rect style="stroke:#a80036;stroke-width:1.5" width="152" height="33.969" x="222" y="397.781" fill="#FEFECE" filter="url(#frvnd781bvucx)" rx="12.5" ry="12.5"/><text x="232" y="418.92" fill="#000" font-family="sans-serif" font-size="12" lengthAdjust="spacingAndGlyphs" textLength="132">2013, Docker项目发布</text><path fill="none" d="M172,495.7188 L182,495.7188 C197,495.7188 197,414.7656 212,414.7656 L222,414.7656" style="stroke:#a80036;stroke-width:1"/><rect style="stroke:#a80036;stroke-width:1.5" width="180" height="33.969" x="222" y="451.75" fill="#FEFECE" filter="url(#frvnd781bvucx)" rx="12.5" ry="12.5"/><text x="232" y="472.889" fill="#000" font-family="sans-serif" font-size="12" lengthAdjust="spacingAndGlyphs" textLength="160">2014, Kubernetes正式发布</text><path fill="none" d="M172,495.7188 L182,495.7188 C197,495.7188 197,468.7344 212,468.7344 L222,468.7344" style="stroke:#a80036;stroke-width:1"/><rect style="stroke:#a80036;stroke-width:1.5" width="192" height="33.969" x="222" y="505.719" fill="#FEFECE" filter="url(#frvnd781bvucx)" rx="12.5" ry="12.5"/><text x="232" y="526.857" fill="#000" font-family="sans-serif" font-size="12" lengthAdjust="spacingAndGlyphs" textLength="172">2015-2016, 容器编排三国争霸</text><path fill="none" d="M172,495.7188 L182,495.7188 C197,495.7188 197,522.7031 212,522.7031 L222,522.7031" style="stroke:#a80036;stroke-width:1"/><rect style="stroke:#a80036;stroke-width:1.5" width="204" height="33.969" x="222" y="559.688" fill="#FEFECE" filter="url(#frvnd781bvucx)" rx="12.5" ry="12.5"/><text x="232" y="580.826" fill="#000" font-family="sans-serif" font-size="12" lengthAdjust="spacingAndGlyphs" textLength="184">2017, Kubernetes成为编排标准</text><path fill="none" d="M172,495.7188 L182,495.7188 C197,495.7188 197,576.6719 212,576.6719 L222,576.6719" style="stroke:#a80036;stroke-width:1"/><path fill="none" d="M54,1197.3125 L64,1197.3125 C79,1197.3125 79,495.7188 94,495.7188 L104,495.7188" style="stroke:#a80036;stroke-width:1"/><rect style="stroke:#a80036;stroke-width:1.5" width="68" height="33.969" x="104" y="991.438" fill="#FEFECE" filter="url(#frvnd781bvucx)" rx="12.5" ry="12.5"/><text x="114" y="1012.576" fill="#000" font-family="sans-serif" font-size="12" lengthAdjust="spacingAndGlyphs" textLength="48">课程简介</text><rect style="stroke:#a80036;stroke-width:1.5" width="44" height="33.969" x="222" y="721.594" fill="#FEFECE" filter="url(#frvnd781bvucx)" rx="12.5" ry="12.5"/><text x="232" y="742.732" fill="#000" font-family="sans-serif" font-size="12" lengthAdjust="spacingAndGlyphs" textLength="24">基础</text><rect style="stroke:#a80036;stroke-width:1.5" width="102" height="33.969" x="316" y="613.656" fill="#FEFECE" filter="url(#frvnd781bvucx)" rx="12.5" ry="12.5"/><text x="326" y="634.795" fill="#000" font-family="sans-serif" font-size="12" lengthAdjust="spacingAndGlyphs" textLength="82">应用编排&amp;管理</text><path fill="none" d="M266,738.5781 L276,738.5781 C291,738.5781 291,630.6406 306,630.6406 L316,630.6406" style="stroke:#a80036;stroke-width:1"/><rect style="stroke:#a80036;stroke-width:1.5" width="92" height="33.969" x="316" y="667.625" fill="#FEFECE" filter="url(#frvnd781bvucx)" rx="12.5" ry="12.5"/><text x="326" y="688.764" fill="#000" font-family="sans-serif" font-size="12" lengthAdjust="spacingAndGlyphs" textLength="72">应用配置管理</text><path fill="none" d="M266,738.5781 L276,738.5781 C291,738.5781 291,684.6094 306,684.6094 L316,684.6094" style="stroke:#a80036;stroke-width:1"/><rect style="stroke:#a80036;stroke-width:1.5" width="162" height="33.969" x="316" y="721.594" fill="#FEFECE" filter="url(#frvnd781bvucx)" rx="12.5" ry="12.5"/><text x="326" y="742.732" fill="#000" font-family="sans-serif" font-size="12" lengthAdjust="spacingAndGlyphs" textLength="142">应用存储&amp;可持久化存储卷</text><path fill="none" d="M266,738.5781 L276,738.5781 C291,738.5781 291,738.5781 306,738.5781 L316,738.5781" style="stroke:#a80036;stroke-width:1"/><rect style="stroke:#a80036;stroke-width:1.5" width="126" height="33.969" x="316" y="775.563" fill="#FEFECE" filter="url(#frvnd781bvucx)" rx="12.5" ry="12.5"/><text x="326" y="796.701" fill="#000" font-family="sans-serif" font-size="12" lengthAdjust="spacingAndGlyphs" textLength="106">应用监控&amp;可观测性</text><path fill="none" d="M266,738.5781 L276,738.5781 C291,738.5781 291,792.5469 306,792.5469 L316,792.5469" style="stroke:#a80036;stroke-width:1"/><rect style="stroke:#a80036;stroke-width:1.5" width="102" height="33.969" x="316" y="829.531" fill="#FEFECE" filter="url(#frvnd781bvucx)" rx="12.5" ry="12.5"/><text x="326" y="850.67" fill="#000" font-family="sans-serif" font-size="12" lengthAdjust="spacingAndGlyphs" textLength="82">应用服务&amp;网络</text><path fill="none" d="M266,738.5781 L276,738.5781 C291,738.5781 291,846.5156 306,846.5156 L316,846.5156" style="stroke:#a80036;stroke-width:1"/><path fill="none" d="M172,1008.4219 L182,1008.4219 C197,1008.4219 197,738.5781 212,738.5781 L222,738.5781" style="stroke:#a80036;stroke-width:1"/><rect style="stroke:#a80036;stroke-width:1.5" width="44" height="33.969" x="222" y="1126.359" fill="#FEFECE" filter="url(#frvnd781bvucx)" rx="12.5" ry="12.5"/><text x="232" y="1147.498" fill="#000" font-family="sans-serif" font-size="12" lengthAdjust="spacingAndGlyphs" textLength="24">进阶</text><rect style="stroke:#a80036;stroke-width:1.5" width="96" height="33.969" x="316" y="883.5" fill="#FEFECE" filter="url(#frvnd781bvucx)" rx="12.5" ry="12.5"/><text x="326" y="904.639" fill="#000" font-family="sans-serif" font-size="12" lengthAdjust="spacingAndGlyphs" textLength="76">深入理解etcd</text><path fill="none" d="M266,1143.3438 L276,1143.3438 C291,1143.3438 291,900.4844 306,900.4844 L316,900.4844" style="stroke:#a80036;stroke-width:1"/><rect style="stroke:#a80036;stroke-width:1.5" width="102" height="33.969" x="316" y="937.469" fill="#FEFECE" filter="url(#frvnd781bvucx)" rx="12.5" ry="12.5"/><text x="326" y="958.607" fill="#000" font-family="sans-serif" font-size="12" lengthAdjust="spacingAndGlyphs" textLength="82">调试&amp;资源管理</text><path fill="none" d="M266,1143.3438 L276,1143.3438 C291,1143.3438 291,954.4531 306,954.4531 L316,954.4531" style="stroke:#a80036;stroke-width:1"/><rect style="stroke:#a80036;stroke-width:1.5" width="115" height="33.969" x="316" y="991.438" fill="#FEFECE" filter="url(#frvnd781bvucx)" rx="12.5" ry="12.5"/><text x="326" y="1012.576" fill="#000" font-family="sans-serif" font-size="12" lengthAdjust="spacingAndGlyphs" textLength="95">CPU&amp;硬件加速器</text><path fill="none" d="M266,1143.3438 L276,1143.3438 C291,1143.3438 291,1008.4219 306,1008.4219 L316,1008.4219" style="stroke:#a80036;stroke-width:1"/><rect style="stroke:#a80036;stroke-width:1.5" width="87" height="33.969" x="316" y="1045.406" fill="#FEFECE" filter="url(#frvnd781bvucx)" rx="12.5" ry="12.5"/><text x="326" y="1066.545" fill="#000" font-family="sans-serif" font-size="12" lengthAdjust="spacingAndGlyphs" textLength="67">API编程范式</text><path fill="none" d="M266,1143.3438 L276,1143.3438 C291,1143.3438 291,1062.3906 306,1062.3906 L316,1062.3906" style="stroke:#a80036;stroke-width:1"/><rect style="stroke:#a80036;stroke-width:1.5" width="90" height="33.969" x="316" y="1099.375" fill="#FEFECE" filter="url(#frvnd781bvucx)" rx="12.5" ry="12.5"/><text x="326" y="1120.514" fill="#000" font-family="sans-serif" font-size="12" lengthAdjust="spacingAndGlyphs" textLength="70">k8s网络模型</text><path fill="none" d="M266,1143.3438 L276,1143.3438 C291,1143.3438 291,1116.3594 306,1116.3594 L316,1116.3594" style="stroke:#a80036;stroke-width:1"/><rect style="stroke:#a80036;stroke-width:1.5" width="118" height="33.969" x="316" y="1153.344" fill="#FEFECE" filter="url(#frvnd781bvucx)" rx="12.5" ry="12.5"/><text x="326" y="1174.482" fill="#000" font-family="sans-serif" font-size="12" lengthAdjust="spacingAndGlyphs" textLength="98">CNI&amp;CNI网络插件</text><path fill="none" d="M266,1143.3438 L276,1143.3438 C291,1143.3438 291,1170.3281 306,1170.3281 L316,1170.3281" style="stroke:#a80036;stroke-width:1"/><rect style="stroke:#a80036;stroke-width:1.5" width="126" height="33.969" x="316" y="1207.313" fill="#FEFECE" filter="url(#frvnd781bvucx)" rx="12.5" ry="12.5"/><text x="326" y="1228.451" fill="#000" font-family="sans-serif" font-size="12" lengthAdjust="spacingAndGlyphs" textLength="106">集群安装配置&amp;验证</text><path fill="none" d="M266,1143.3438 L276,1143.3438 C291,1143.3438 291,1224.2969 306,1224.2969 L316,1224.2969" style="stroke:#a80036;stroke-width:1"/><rect style="stroke:#a80036;stroke-width:1.5" width="102" height="33.969" x="316" y="1261.281" fill="#FEFECE" filter="url(#frvnd781bvucx)" rx="12.5" ry="12.5"/><text x="326" y="1282.42" fill="#000" font-family="sans-serif" font-size="12" lengthAdjust="spacingAndGlyphs" textLength="82">容器&amp;集群安全</text><path fill="none" d="M266,1143.3438 L276,1143.3438 C291,1143.3438 291,1278.2656 306,1278.2656 L316,1278.2656" style="stroke:#a80036;stroke-width:1"/><rect style="stroke:#a80036;stroke-width:1.5" width="97" height="33.969" x="316" y="1315.25" fill="#FEFECE" filter="url(#frvnd781bvucx)" rx="12.5" ry="12.5"/><text x="326" y="1336.389" fill="#000" font-family="sans-serif" font-size="12" lengthAdjust="spacingAndGlyphs" textLength="77">CRI&amp;安全容器</text><path fill="none" d="M266,1143.3438 L276,1143.3438 C291,1143.3438 291,1332.2344 306,1332.2344 L316,1332.2344" style="stroke:#a80036;stroke-width:1"/><rect style="stroke:#a80036;stroke-width:1.5" width="92" height="33.969" x="316" y="1369.219" fill="#FEFECE" filter="url(#frvnd781bvucx)" rx="12.5" ry="12.5"/><text x="326" y="1390.357" fill="#000" font-family="sans-serif" font-size="12" lengthAdjust="spacingAndGlyphs" textLength="72">多容器运行时</text><path fill="none" d="M266,1143.3438 L276,1143.3438 C291,1143.3438 291,1386.2031 306,1386.2031 L316,1386.2031" style="stroke:#a80036;stroke-width:1"/><path fill="none" d="M172,1008.4219 L182,1008.4219 C197,1008.4219 197,1143.3438 212,1143.3438 L222,1143.3438" style="stroke:#a80036;stroke-width:1"/><path fill="none" d="M54,1197.3125 L64,1197.3125 C79,1197.3125 79,1008.4219 94,1008.4219 L104,1008.4219" style="stroke:#a80036;stroke-width:1"/><rect style="stroke:#a80036;stroke-width:1.5" width="138" height="33.969" x="104" y="1881.922" fill="#FEFECE" filter="url(#frvnd781bvucx)" rx="12.5" ry="12.5"/><text x="114" y="1903.061" fill="#000" font-family="sans-serif" font-size="12" lengthAdjust="spacingAndGlyphs" textLength="118">云原生定义&amp;技术要点</text><rect style="stroke:#a80036;stroke-width:1.5" width="44" height="33.969" x="292" y="1477.156" fill="#FEFECE" filter="url(#frvnd781bvucx)" rx="12.5" ry="12.5"/><text x="302" y="1498.295" fill="#000" font-family="sans-serif" font-size="12" lengthAdjust="spacingAndGlyphs" textLength="24">定义</text><rect style="stroke:#a80036;stroke-width:1.5" width="44" height="33.969" x="386" y="1423.188" fill="#FEFECE" filter="url(#frvnd781bvucx)" rx="12.5" ry="12.5"/><text x="396" y="1444.326" fill="#000" font-family="sans-serif" font-size="12" lengthAdjust="spacingAndGlyphs" textLength="24">敏捷</text><path fill="none" d="M336,1494.1406 L346,1494.1406 C361,1494.1406 361,1440.1719 376,1440.1719 L386,1440.1719" style="stroke:#a80036;stroke-width:1"/><rect style="stroke:#a80036;stroke-width:1.5" width="102" height="33.969" x="386" y="1477.156" fill="#FEFECE" filter="url(#frvnd781bvucx)" rx="12.5" ry="12.5"/><text x="396" y="1498.295" fill="#000" font-family="sans-serif" font-size="12" lengthAdjust="spacingAndGlyphs" textLength="82">可扩展&amp;可复制</text><path fill="none" d="M336,1494.1406 L346,1494.1406 C361,1494.1406 361,1494.1406 376,1494.1406 L386,1494.1406" style="stroke:#a80036;stroke-width:1"/><rect style="stroke:#a80036;stroke-width:1.5" width="208" height="33.969" x="386" y="1531.125" fill="#FEFECE" filter="url(#frvnd781bvucx)" rx="12.5" ry="12.5"/><text x="396" y="1552.264" fill="#000" font-family="sans-serif" font-size="12" lengthAdjust="spacingAndGlyphs" textLength="188">愿景: 软件「生在云上、长在云上」</text><path fill="none" d="M336,1494.1406 L346,1494.1406 C361,1494.1406 361,1548.1094 376,1548.1094 L386,1548.1094" style="stroke:#a80036;stroke-width:1"/><path fill="none" d="M242,1898.9063 L252,1898.9063 C267,1898.9063 267,1494.1406 282,1494.1406 L292,1494.1406" style="stroke:#a80036;stroke-width:1"/><rect style="stroke:#a80036;stroke-width:1.5" width="68" height="33.969" x="292" y="1720.016" fill="#FEFECE" filter="url(#frvnd781bvucx)" rx="12.5" ry="12.5"/><text x="302" y="1741.154" fill="#000" font-family="sans-serif" font-size="12" lengthAdjust="spacingAndGlyphs" textLength="48">技术范畴</text><rect style="stroke:#a80036;stroke-width:1.5" width="138" height="33.969" x="410" y="1585.094" fill="#FEFECE" filter="url(#frvnd781bvucx)" rx="12.5" ry="12.5"/><text x="420" y="1606.232" fill="#000" font-family="sans-serif" font-size="12" lengthAdjust="spacingAndGlyphs" textLength="118">云应用定义&amp;开发流程</text><path fill="none" d="M360,1737 L370,1737 C385,1737 385,1602.0781 400,1602.0781 L410,1602.0781" style="stroke:#a80036;stroke-width:1"/><rect style="stroke:#a80036;stroke-width:1.5" width="114" height="33.969" x="410" y="1639.063" fill="#FEFECE" filter="url(#frvnd781bvucx)" rx="12.5" ry="12.5"/><text x="420" y="1660.201" fill="#000" font-family="sans-serif" font-size="12" lengthAdjust="spacingAndGlyphs" textLength="94">云应用编排&amp;管理</text><path fill="none" d="M360,1737 L370,1737 C385,1737 385,1656.0469 400,1656.0469 L410,1656.0469" style="stroke:#a80036;stroke-width:1"/><rect style="stroke:#a80036;stroke-width:1.5" width="102" height="33.969" x="410" y="1693.031" fill="#FEFECE" filter="url(#frvnd781bvucx)" rx="12.5" ry="12.5"/><text x="420" y="1714.17" fill="#000" font-family="sans-serif" font-size="12" lengthAdjust="spacingAndGlyphs" textLength="82">监控&amp;可观测性</text><path fill="none" d="M360,1737 L370,1737 C385,1737 385,1710.0156 400,1710.0156 L410,1710.0156" style="stroke:#a80036;stroke-width:1"/><rect style="stroke:#a80036;stroke-width:1.5" width="104" height="33.969" x="410" y="1747" fill="#FEFECE" filter="url(#frvnd781bvucx)" rx="12.5" ry="12.5"/><text x="420" y="1768.139" fill="#000" font-family="sans-serif" font-size="12" lengthAdjust="spacingAndGlyphs" textLength="84">云原生底层技术</text><path fill="none" d="M360,1737 L370,1737 C385,1737 385,1763.9844 400,1763.9844 L410,1763.9844" style="stroke:#a80036;stroke-width:1"/><rect style="stroke:#a80036;stroke-width:1.5" width="92" height="33.969" x="410" y="1800.969" fill="#FEFECE" filter="url(#frvnd781bvucx)" rx="12.5" ry="12.5"/><text x="420" y="1822.107" fill="#000" font-family="sans-serif" font-size="12" lengthAdjust="spacingAndGlyphs" textLength="72">云原生工具集</text><path fill="none" d="M360,1737 L370,1737 C385,1737 385,1817.9531 400,1817.9531 L410,1817.9531" style="stroke:#a80036;stroke-width:1"/><rect style="stroke:#a80036;stroke-width:1.5" width="85" height="33.969" x="410" y="1854.938" fill="#FEFECE" filter="url(#frvnd781bvucx)" rx="12.5" ry="12.5"/><text x="420" y="1876.076" fill="#000" font-family="sans-serif" font-size="12" lengthAdjust="spacingAndGlyphs" textLength="65">Serverless</text><path fill="none" d="M360,1737 L370,1737 C385,1737 385,1871.9219 400,1871.9219 L410,1871.9219" style="stroke:#a80036;stroke-width:1"/><path fill="none" d="M242,1898.9063 L252,1898.9063 C267,1898.9063 267,1737 282,1737 L292,1737" style="stroke:#a80036;stroke-width:1"/><rect style="stroke:#a80036;stroke-width:1.5" width="92" height="33.969" x="292" y="1935.891" fill="#FEFECE" filter="url(#frvnd781bvucx)" rx="12.5" ry="12.5"/><text x="302" y="1957.029" fill="#000" font-family="sans-serif" font-size="12" lengthAdjust="spacingAndGlyphs" textLength="72">两个基础理论</text><rect style="stroke:#a80036;stroke-width:1.5" width="104" height="33.969" x="434" y="1908.906" fill="#FEFECE" filter="url(#frvnd781bvucx)" rx="12.5" ry="12.5"/><text x="444" y="1930.045" fill="#000" font-family="sans-serif" font-size="12" lengthAdjust="spacingAndGlyphs" textLength="84">不可变基础设施</text><rect style="stroke:#a80036;stroke-width:1.5" width="68" height="33.969" x="588" y="1908.906" fill="#FEFECE" filter="url(#frvnd781bvucx)" rx="12.5" ry="12.5"/><text x="598" y="1930.045" fill="#000" font-family="sans-serif" font-size="12" lengthAdjust="spacingAndGlyphs" textLength="48">容器镜像</text><path fill="none" d="M538,1925.8906 L548,1925.8906 C563,1925.8906 563,1925.8906 578,1925.8906 L588,1925.8906" style="stroke:#a80036;stroke-width:1"/><path fill="none" d="M384,1952.875 L394,1952.875 C409,1952.875 409,1925.8906 424,1925.8906 L434,1925.8906" style="stroke:#a80036;stroke-width:1"/><rect style="stroke:#a80036;stroke-width:1.5" width="80" height="33.969" x="434" y="1962.875" fill="#FEFECE" filter="url(#frvnd781bvucx)" rx="12.5" ry="12.5"/><text x="444" y="1984.014" fill="#000" font-family="sans-serif" font-size="12" lengthAdjust="spacingAndGlyphs" textLength="60">云应用编排</text><rect style="stroke:#a80036;stroke-width:1.5" width="128" height="33.969" x="564" y="1962.875" fill="#FEFECE" filter="url(#frvnd781bvucx)" rx="12.5" ry="12.5"/><text x="574" y="1984.014" fill="#000" font-family="sans-serif" font-size="12" lengthAdjust="spacingAndGlyphs" textLength="108">实现：容器设计模式</text><path fill="none" d="M514,1979.8594 L524,1979.8594 C539,1979.8594 539,1979.8594 554,1979.8594 L564,1979.8594" style="stroke:#a80036;stroke-width:1"/><path fill="none" d="M384,1952.875 L394,1952.875 C409,1952.875 409,1979.8594 424,1979.8594 L434,1979.8594" style="stroke:#a80036;stroke-width:1"/><path fill="none" d="M242,1898.9063 L252,1898.9063 C267,1898.9063 267,1952.875 282,1952.875 L292,1952.875" style="stroke:#a80036;stroke-width:1"/><rect style="stroke:#a80036;stroke-width:1.5" width="128" height="33.969" x="292" y="2178.75" fill="#FEFECE" filter="url(#frvnd781bvucx)" rx="12.5" ry="12.5"/><text x="302" y="2199.889" fill="#000" font-family="sans-serif" font-size="12" lengthAdjust="spacingAndGlyphs" textLength="108">向云原生演进的意义</text><rect style="stroke:#a80036;stroke-width:1.5" width="162" height="33.969" x="470" y="2070.813" fill="#FEFECE" filter="url(#frvnd781bvucx)" rx="12.5" ry="12.5"/><text x="480" y="2091.951" fill="#000" font-family="sans-serif" font-size="12" lengthAdjust="spacingAndGlyphs" textLength="142">基础设施的一致性&amp;可靠性</text><rect style="stroke:#a80036;stroke-width:1.5" width="68" height="33.969" x="682" y="2016.844" fill="#FEFECE" filter="url(#frvnd781bvucx)" rx="12.5" ry="12.5"/><text x="692" y="2037.982" fill="#000" font-family="sans-serif" font-size="12" lengthAdjust="spacingAndGlyphs" textLength="48">容器镜像</text><path fill="none" d="M632,2087.7969 L642,2087.7969 C657,2087.7969 657,2033.8281 672,2033.8281 L682,2033.8281" style="stroke:#a80036;stroke-width:1"/><rect style="stroke:#a80036;stroke-width:1.5" width="56" height="33.969" x="682" y="2070.813" fill="#FEFECE" filter="url(#frvnd781bvucx)" rx="12.5" ry="12.5"/><text x="692" y="2091.951" fill="#000" font-family="sans-serif" font-size="12" lengthAdjust="spacingAndGlyphs" textLength="36">自包含</text><path fill="none" d="M632,2087.7969 L642,2087.7969 C657,2087.7969 657,2087.7969 672,2087.7969 L682,2087.7969" style="stroke:#a80036;stroke-width:1"/><rect style="stroke:#a80036;stroke-width:1.5" width="56" height="33.969" x="682" y="2124.781" fill="#FEFECE" filter="url(#frvnd781bvucx)" rx="12.5" ry="12.5"/><text x="692" y="2145.92" fill="#000" font-family="sans-serif" font-size="12" lengthAdjust="spacingAndGlyphs" textLength="36">可漂移</text><path fill="none" d="M632,2087.7969 L642,2087.7969 C657,2087.7969 657,2141.7656 672,2141.7656 L682,2141.7656" style="stroke:#a80036;stroke-width:1"/><path fill="none" d="M420,2195.7344 L430,2195.7344 C445,2195.7344 445,2087.7969 460,2087.7969 L470,2087.7969" style="stroke:#a80036;stroke-width:1"/><rect style="stroke:#a80036;stroke-width:1.5" width="150" height="33.969" x="470" y="2259.703" fill="#FEFECE" filter="url(#frvnd781bvucx)" rx="12.5" ry="12.5"/><text x="480" y="2280.842" fill="#000" font-family="sans-serif" font-size="12" lengthAdjust="spacingAndGlyphs" textLength="130">简单可预测的部署&amp;运维</text><rect style="stroke:#a80036;stroke-width:1.5" width="102" height="33.969" x="670" y="2178.75" fill="#FEFECE" filter="url(#frvnd781bvucx)" rx="12.5" ry="12.5"/><text x="680" y="2199.889" fill="#000" font-family="sans-serif" font-size="12" lengthAdjust="spacingAndGlyphs" textLength="82">自描述&amp;自运维</text><path fill="none" d="M620,2276.6875 L630,2276.6875 C645,2276.6875 645,2195.7344 660,2195.7344 L670,2195.7344" style="stroke:#a80036;stroke-width:1"/><rect style="stroke:#a80036;stroke-width:1.5" width="80" height="33.969" x="670" y="2232.719" fill="#FEFECE" filter="url(#frvnd781bvucx)" rx="12.5" ry="12.5"/><text x="680" y="2253.857" fill="#000" font-family="sans-serif" font-size="12" lengthAdjust="spacingAndGlyphs" textLength="60">流程自动化</text><path fill="none" d="M620,2276.6875 L630,2276.6875 C645,2276.6875 645,2249.7031 660,2249.7031 L670,2249.7031" style="stroke:#a80036;stroke-width:1"/><rect style="stroke:#a80036;stroke-width:1.5" width="92" height="33.969" x="670" y="2286.688" fill="#FEFECE" filter="url(#frvnd781bvucx)" rx="12.5" ry="12.5"/><text x="680" y="2307.826" fill="#000" font-family="sans-serif" font-size="12" lengthAdjust="spacingAndGlyphs" textLength="72">容易水平扩展</text><path fill="none" d="M620,2276.6875 L630,2276.6875 C645,2276.6875 645,2303.6719 660,2303.6719 L670,2303.6719" style="stroke:#a80036;stroke-width:1"/><rect style="stroke:#a80036;stroke-width:1.5" width="198" height="33.969" x="670" y="2340.656" fill="#FEFECE" filter="url(#frvnd781bvucx)" rx="12.5" ry="12.5"/><text x="680" y="2361.795" fill="#000" font-family="sans-serif" font-size="12" lengthAdjust="spacingAndGlyphs" textLength="178">可快速复制的管控系统&amp;支撑组件</text><path fill="none" d="M620,2276.6875 L630,2276.6875 C645,2276.6875 645,2357.6406 660,2357.6406 L670,2357.6406" style="stroke:#a80036;stroke-width:1"/><path fill="none" d="M420,2195.7344 L430,2195.7344 C445,2195.7344 445,2276.6875 460,2276.6875 L470,2276.6875" style="stroke:#a80036;stroke-width:1"/><path fill="none" d="M242,1898.9063 L252,1898.9063 C267,1898.9063 267,2195.7344 282,2195.7344 L292,2195.7344" style="stroke:#a80036;stroke-width:1"/><path fill="none" d="M54,1197.3125 L64,1197.3125 C79,1197.3125 79,1898.9063 94,1898.9063 L104,1898.9063" style="stroke:#a80036;stroke-width:1"/></g></svg>