<?xml version="1.0" encoding="UTF-8" standalone="no"?><svg xmlns="http://www.w3.org/2000/svg" xmlns:xlink="http://www.w3.org/1999/xlink" contentScriptType="application/ecmascript" contentStyleType="text/css" height="2007px" preserveAspectRatio="none" style="width:819px;height:2007px;" version="1.1" viewBox="0 0 819 2007" width="819px" zoomAndPan="magnify"><defs><filter height="300%" id="fhhi1v6o3c3qb" width="300%" x="-1" y="-1"><feGaussianBlur result="blurOut" stdDeviation="2.0"/><feColorMatrix in="blurOut" result="blurOut2" type="matrix" values="0 0 0 0 0 0 0 0 0 0 0 0 0 0 0 0 0 0 .4 0"/><feOffset dx="4.0" dy="4.0" in="blurOut2" result="blurOut3"/><feBlend in="SourceGraphic" in2="blurOut3" mode="normal"/></filter></defs><g><rect fill="#FEFECE" filter="url(#fhhi1v6o3c3qb)" height="33.9688" rx="12.5" ry="12.5" style="stroke: #A80036; stroke-width: 1.5;" width="60" x="10" y="991.4375"/><text fill="#000000" font-family="sans-serif" font-size="12" lengthAdjust="spacingAndGlyphs" textLength="40" x="20" y="1012.5762">C4模型</text><rect fill="#FEFECE" filter="url(#fhhi1v6o3c3qb)" height="33.9688" rx="12.5" ry="12.5" style="stroke: #A80036; stroke-width: 1.5;" width="68" x="120" y="505.7188"/><text fill="#000000" font-family="sans-serif" font-size="12" lengthAdjust="spacingAndGlyphs" textLength="48" x="130" y="526.8574">核心图表</text><rect fill="#FEFECE" filter="url(#fhhi1v6o3c3qb)" height="33.9688" rx="12.5" ry="12.5" style="stroke: #A80036; stroke-width: 1.5;" width="201" x="238" y="262.8594"/><text fill="#000000" font-family="sans-serif" font-size="12" lengthAdjust="spacingAndGlyphs" textLength="181" x="248" y="283.998">系统上下文（System Context）</text><rect fill="#FEFECE" filter="url(#fhhi1v6o3c3qb)" height="33.9688" rx="12.5" ry="12.5" style="stroke: #A80036; stroke-width: 1.5;" width="56" x="489" y="20"/><text fill="#000000" font-family="sans-serif" font-size="12" lengthAdjust="spacingAndGlyphs" textLength="36" x="499" y="41.1387">国家级</text><path d="M439,279.8438 L449,279.8438 C464,279.8438 464,36.9844 479,36.9844 L489,36.9844 " fill="none" style="stroke: #A80036; stroke-width: 1.0;"/><rect fill="#FEFECE" filter="url(#fhhi1v6o3c3qb)" height="33.9688" rx="12.5" ry="12.5" style="stroke: #A80036; stroke-width: 1.5;" width="176" x="489" y="73.9688"/><text fill="#000000" font-family="sans-serif" font-size="12" lengthAdjust="spacingAndGlyphs" textLength="156" x="499" y="95.1074">显示了你正在构建的软件系统</text><path d="M439,279.8438 L449,279.8438 C464,279.8438 464,90.9531 479,90.9531 L489,90.9531 " fill="none" style="stroke: #A80036; stroke-width: 1.0;"/><rect fill="#FEFECE" filter="url(#fhhi1v6o3c3qb)" height="33.9688" rx="12.5" ry="12.5" style="stroke: #A80036; stroke-width: 1.5;" width="212" x="489" y="127.9375"/><text fill="#000000" font-family="sans-serif" font-size="12" lengthAdjust="spacingAndGlyphs" textLength="192" x="499" y="149.0762">与它的用户以及其他软件之间的关系</text><path d="M439,279.8438 L449,279.8438 C464,279.8438 464,144.9219 479,144.9219 L489,144.9219 " fill="none" style="stroke: #A80036; stroke-width: 1.0;"/><rect fill="#FEFECE" filter="url(#fhhi1v6o3c3qb)" height="33.9688" rx="12.5" ry="12.5" style="stroke: #A80036; stroke-width: 1.5;" width="44" x="489" y="316.8281"/><text fill="#000000" font-family="sans-serif" font-size="12" lengthAdjust="spacingAndGlyphs" textLength="24" x="499" y="337.9668">组件</text><rect fill="#FEFECE" filter="url(#fhhi1v6o3c3qb)" height="33.9688" rx="12.5" ry="12.5" style="stroke: #A80036; stroke-width: 1.5;" width="128" x="583" y="181.9063"/><text fill="#000000" font-family="sans-serif" font-size="12" lengthAdjust="spacingAndGlyphs" textLength="108" x="593" y="203.0449">关系——带箭头的线</text><path d="M533,333.8125 L543,333.8125 C558,333.8125 558,198.8906 573,198.8906 L583,198.8906 " fill="none" style="stroke: #A80036; stroke-width: 1.0;"/><rect fill="#FEFECE" filter="url(#fhhi1v6o3c3qb)" height="33.9688" rx="12.5" ry="12.5" style="stroke: #A80036; stroke-width: 1.5;" width="128" x="583" y="235.875"/><text fill="#000000" font-family="sans-serif" font-size="12" lengthAdjust="spacingAndGlyphs" textLength="108" x="593" y="257.0137">元素——方块和角色</text><path d="M533,333.8125 L543,333.8125 C558,333.8125 558,252.8594 573,252.8594 L583,252.8594 " fill="none" style="stroke: #A80036; stroke-width: 1.0;"/><rect fill="#FEFECE" filter="url(#fhhi1v6o3c3qb)" height="33.9688" rx="12.5" ry="12.5" style="stroke: #A80036; stroke-width: 1.5;" width="152" x="583" y="289.8438"/><text fill="#000000" font-family="sans-serif" font-size="12" lengthAdjust="spacingAndGlyphs" textLength="132" x="593" y="310.9824">关系描述——线上的文字</text><path d="M533,333.8125 L543,333.8125 C558,333.8125 558,306.8281 573,306.8281 L583,306.8281 " fill="none" style="stroke: #A80036; stroke-width: 1.0;"/><rect fill="#FEFECE" filter="url(#fhhi1v6o3c3qb)" height="33.9688" rx="12.5" ry="12.5" style="stroke: #A80036; stroke-width: 1.5;" width="212" x="583" y="343.8125"/><text fill="#000000" font-family="sans-serif" font-size="12" lengthAdjust="spacingAndGlyphs" textLength="192" x="593" y="364.9512">元素的描述——方块和角色里的文字</text><path d="M533,333.8125 L543,333.8125 C558,333.8125 558,360.7969 573,360.7969 L583,360.7969 " fill="none" style="stroke: #A80036; stroke-width: 1.0;"/><rect fill="#FEFECE" filter="url(#fhhi1v6o3c3qb)" height="33.9688" rx="12.5" ry="12.5" style="stroke: #A80036; stroke-width: 1.5;" width="200" x="583" y="397.7813"/><text fill="#000000" font-family="sans-serif" font-size="12" lengthAdjust="spacingAndGlyphs" textLength="180" x="593" y="418.9199">元素的标记——方块和角色的颜色</text><path d="M533,333.8125 L543,333.8125 C558,333.8125 558,414.7656 573,414.7656 L583,414.7656 " fill="none" style="stroke: #A80036; stroke-width: 1.0;"/><rect fill="#FEFECE" filter="url(#fhhi1v6o3c3qb)" height="33.9688" rx="12.5" ry="12.5" style="stroke: #A80036; stroke-width: 1.5;" width="56" x="583" y="451.75"/><text fill="#000000" font-family="sans-serif" font-size="12" lengthAdjust="spacingAndGlyphs" textLength="36" x="593" y="472.8887">虚线框</text><path d="M533,333.8125 L543,333.8125 C558,333.8125 558,468.7344 573,468.7344 L583,468.7344 " fill="none" style="stroke: #A80036; stroke-width: 1.0;"/><path d="M439,279.8438 L449,279.8438 C464,279.8438 464,333.8125 479,333.8125 L489,333.8125 " fill="none" style="stroke: #A80036; stroke-width: 1.0;"/><rect fill="#FEFECE" filter="url(#fhhi1v6o3c3qb)" height="33.9688" rx="12.5" ry="12.5" style="stroke: #A80036; stroke-width: 1.5;" width="80" x="489" y="505.7188"/><text fill="#000000" font-family="sans-serif" font-size="12" lengthAdjust="spacingAndGlyphs" textLength="60" x="499" y="526.8574">『用例图』</text><path d="M439,279.8438 L449,279.8438 C464,279.8438 464,522.7031 479,522.7031 L489,522.7031 " fill="none" style="stroke: #A80036; stroke-width: 1.0;"/><path d="M188,522.7031 L198,522.7031 C213,522.7031 213,279.8438 228,279.8438 L238,279.8438 " fill="none" style="stroke: #A80036; stroke-width: 1.0;"/><rect fill="#FEFECE" filter="url(#fhhi1v6o3c3qb)" height="33.9688" rx="12.5" ry="12.5" style="stroke: #A80036; stroke-width: 1.5;" width="129" x="238" y="640.6406"/><text fill="#000000" font-family="sans-serif" font-size="12" lengthAdjust="spacingAndGlyphs" textLength="109" x="248" y="661.7793">容器（Container）</text><rect fill="#FEFECE" filter="url(#fhhi1v6o3c3qb)" height="33.9688" rx="12.5" ry="12.5" style="stroke: #A80036; stroke-width: 1.5;" width="44" x="417" y="559.6875"/><text fill="#000000" font-family="sans-serif" font-size="12" lengthAdjust="spacingAndGlyphs" textLength="24" x="427" y="580.8262">省级</text><path d="M367,657.625 L377,657.625 C392,657.625 392,576.6719 407,576.6719 L417,576.6719 " fill="none" style="stroke: #A80036; stroke-width: 1.0;"/><rect fill="#FEFECE" filter="url(#fhhi1v6o3c3qb)" height="33.9688" rx="12.5" ry="12.5" style="stroke: #A80036; stroke-width: 1.5;" width="176" x="417" y="613.6563"/><text fill="#000000" font-family="sans-serif" font-size="12" lengthAdjust="spacingAndGlyphs" textLength="156" x="427" y="634.7949">技术决策也是该图的关键部分</text><path d="M367,657.625 L377,657.625 C392,657.625 392,630.6406 407,630.6406 L417,630.6406 " fill="none" style="stroke: #A80036; stroke-width: 1.0;"/><rect fill="#FEFECE" filter="url(#fhhi1v6o3c3qb)" height="33.9688" rx="12.5" ry="12.5" style="stroke: #A80036; stroke-width: 1.5;" width="164" x="417" y="667.625"/><text fill="#000000" font-family="sans-serif" font-size="12" lengthAdjust="spacingAndGlyphs" textLength="144" x="427" y="688.7637">系统上下文是由容器组成的</text><path d="M367,657.625 L377,657.625 C392,657.625 392,684.6094 407,684.6094 L417,684.6094 " fill="none" style="stroke: #A80036; stroke-width: 1.0;"/><rect fill="#FEFECE" filter="url(#fhhi1v6o3c3qb)" height="33.9688" rx="12.5" ry="12.5" style="stroke: #A80036; stroke-width: 1.5;" width="224" x="417" y="721.5938"/><text fill="#000000" font-family="sans-serif" font-size="12" lengthAdjust="spacingAndGlyphs" textLength="204" x="427" y="742.7324">有单独的进程空间就可以看作一个容器</text><path d="M367,657.625 L377,657.625 C392,657.625 392,738.5781 407,738.5781 L417,738.5781 " fill="none" style="stroke: #A80036; stroke-width: 1.0;"/><path d="M188,522.7031 L198,522.7031 C213,522.7031 213,657.625 228,657.625 L238,657.625 " fill="none" style="stroke: #A80036; stroke-width: 1.0;"/><rect fill="#FEFECE" filter="url(#fhhi1v6o3c3qb)" height="33.9688" rx="12.5" ry="12.5" style="stroke: #A80036; stroke-width: 1.5;" width="140" x="238" y="856.5156"/><text fill="#000000" font-family="sans-serif" font-size="12" lengthAdjust="spacingAndGlyphs" textLength="120" x="248" y="877.6543">组件（Component）</text><rect fill="#FEFECE" filter="url(#fhhi1v6o3c3qb)" height="33.9688" rx="12.5" ry="12.5" style="stroke: #A80036; stroke-width: 1.5;" width="44" x="428" y="775.5625"/><text fill="#000000" font-family="sans-serif" font-size="12" lengthAdjust="spacingAndGlyphs" textLength="24" x="438" y="796.7012">市级</text><path d="M378,873.5 L388,873.5 C403,873.5 403,792.5469 418,792.5469 L428,792.5469 " fill="none" style="stroke: #A80036; stroke-width: 1.0;"/><rect fill="#FEFECE" filter="url(#fhhi1v6o3c3qb)" height="33.9688" rx="12.5" ry="12.5" style="stroke: #A80036; stroke-width: 1.5;" width="212" x="428" y="829.5313"/><text fill="#000000" font-family="sans-serif" font-size="12" lengthAdjust="spacingAndGlyphs" textLength="192" x="438" y="850.6699">将单个容器放大，以显示其中的组件</text><path d="M378,873.5 L388,873.5 C403,873.5 403,846.5156 418,846.5156 L428,846.5156 " fill="none" style="stroke: #A80036; stroke-width: 1.0;"/><rect fill="#FEFECE" filter="url(#fhhi1v6o3c3qb)" height="33.9688" rx="12.5" ry="12.5" style="stroke: #A80036; stroke-width: 1.5;" width="188" x="428" y="883.5"/><text fill="#000000" font-family="sans-serif" font-size="12" lengthAdjust="spacingAndGlyphs" textLength="168" x="438" y="904.6387">组件映射到代码库中的真实抽象</text><path d="M378,873.5 L388,873.5 C403,873.5 403,900.4844 418,900.4844 L428,900.4844 " fill="none" style="stroke: #A80036; stroke-width: 1.0;"/><rect fill="#FEFECE" filter="url(#fhhi1v6o3c3qb)" height="33.9688" rx="12.5" ry="12.5" style="stroke: #A80036; stroke-width: 1.5;" width="380" x="428" y="937.4688"/><text fill="#000000" font-family="sans-serif" font-size="12" lengthAdjust="spacingAndGlyphs" textLength="360" x="438" y="958.6074">组件在这里面很好的把接口和它的实现类打包成一个概念来表达关系</text><path d="M378,873.5 L388,873.5 C403,873.5 403,954.4531 418,954.4531 L428,954.4531 " fill="none" style="stroke: #A80036; stroke-width: 1.0;"/><path d="M188,522.7031 L198,522.7031 C213,522.7031 213,873.5 228,873.5 L238,873.5 " fill="none" style="stroke: #A80036; stroke-width: 1.0;"/><rect fill="#FEFECE" filter="url(#fhhi1v6o3c3qb)" height="33.9688" rx="12.5" ry="12.5" style="stroke: #A80036; stroke-width: 1.5;" width="100" x="238" y="991.4375"/><text fill="#000000" font-family="sans-serif" font-size="12" lengthAdjust="spacingAndGlyphs" textLength="80" x="248" y="1012.5762">代码（Code）</text><rect fill="#FEFECE" filter="url(#fhhi1v6o3c3qb)" height="33.9688" rx="12.5" ry="12.5" style="stroke: #A80036; stroke-width: 1.5;" width="56" x="388" y="991.4375"/><text fill="#000000" font-family="sans-serif" font-size="12" lengthAdjust="spacingAndGlyphs" textLength="36" x="398" y="1012.5762">道路级</text><path d="M338,1008.4219 L348,1008.4219 C363,1008.4219 363,1008.4219 378,1008.4219 L388,1008.4219 " fill="none" style="stroke: #A80036; stroke-width: 1.0;"/><path d="M188,522.7031 L198,522.7031 C213,522.7031 213,1008.4219 228,1008.4219 L238,1008.4219 " fill="none" style="stroke: #A80036; stroke-width: 1.0;"/><path d="M70,1008.4219 L80,1008.4219 C95,1008.4219 95,522.7031 110,522.7031 L120,522.7031 " fill="none" style="stroke: #A80036; stroke-width: 1.0;"/><rect fill="#FEFECE" filter="url(#fhhi1v6o3c3qb)" height="33.9688" rx="12.5" ry="12.5" style="stroke: #A80036; stroke-width: 1.5;" width="68" x="120" y="1369.2188"/><text fill="#000000" font-family="sans-serif" font-size="12" lengthAdjust="spacingAndGlyphs" textLength="48" x="130" y="1390.3574">补充图表</text><rect fill="#FEFECE" filter="url(#fhhi1v6o3c3qb)" height="33.9688" rx="12.5" ry="12.5" style="stroke: #A80036; stroke-width: 1.5;" width="205" x="238" y="1153.3438"/><text fill="#000000" font-family="sans-serif" font-size="12" lengthAdjust="spacingAndGlyphs" textLength="185" x="248" y="1174.4824">系统景观图: System Landscape</text><rect fill="#FEFECE" filter="url(#fhhi1v6o3c3qb)" height="33.9688" rx="12.5" ry="12.5" style="stroke: #A80036; stroke-width: 1.5;" width="212" x="493" y="1045.4063"/><text fill="#000000" font-family="sans-serif" font-size="12" lengthAdjust="spacingAndGlyphs" textLength="192" x="503" y="1066.5449">比上下文图更丰富的系统级别的表达</text><path d="M443,1170.3281 L453,1170.3281 C468,1170.3281 468,1062.3906 483,1062.3906 L493,1062.3906 " fill="none" style="stroke: #A80036; stroke-width: 1.0;"/><rect fill="#FEFECE" filter="url(#fhhi1v6o3c3qb)" height="33.9688" rx="12.5" ry="12.5" style="stroke: #A80036; stroke-width: 1.5;" width="236" x="493" y="1099.375"/><text fill="#000000" font-family="sans-serif" font-size="12" lengthAdjust="spacingAndGlyphs" textLength="216" x="503" y="1120.5137">上下文图只关注聚焦系统和它的直接关系</text><path d="M443,1170.3281 L453,1170.3281 C468,1170.3281 468,1116.3594 483,1116.3594 L493,1116.3594 " fill="none" style="stroke: #A80036; stroke-width: 1.0;"/><rect fill="#FEFECE" filter="url(#fhhi1v6o3c3qb)" height="33.9688" rx="12.5" ry="12.5" style="stroke: #A80036; stroke-width: 1.5;" width="212" x="493" y="1153.3438"/><text fill="#000000" font-family="sans-serif" font-size="12" lengthAdjust="spacingAndGlyphs" textLength="192" x="503" y="1174.4824">本图把间接相关的系统都会标示出来</text><path d="M443,1170.3281 L453,1170.3281 C468,1170.3281 468,1170.3281 483,1170.3281 L493,1170.3281 " fill="none" style="stroke: #A80036; stroke-width: 1.0;"/><rect fill="#FEFECE" filter="url(#fhhi1v6o3c3qb)" height="33.9688" rx="12.5" ry="12.5" style="stroke: #A80036; stroke-width: 1.5;" width="284" x="493" y="1207.3125"/><text fill="#000000" font-family="sans-serif" font-size="12" lengthAdjust="spacingAndGlyphs" textLength="264" x="503" y="1228.4512">那些系统的用户以及用户之间的关系也会标示出来</text><path d="M443,1170.3281 L453,1170.3281 C468,1170.3281 468,1224.2969 483,1224.2969 L493,1224.2969 " fill="none" style="stroke: #A80036; stroke-width: 1.0;"/><rect fill="#FEFECE" filter="url(#fhhi1v6o3c3qb)" height="33.9688" rx="12.5" ry="12.5" style="stroke: #A80036; stroke-width: 1.5;" width="176" x="493" y="1261.2813"/><text fill="#000000" font-family="sans-serif" font-size="12" lengthAdjust="spacingAndGlyphs" textLength="156" x="503" y="1282.4199">只是内部的用户会用灰色标记</text><path d="M443,1170.3281 L453,1170.3281 C468,1170.3281 468,1278.2656 483,1278.2656 L493,1278.2656 " fill="none" style="stroke: #A80036; stroke-width: 1.0;"/><path d="M188,1386.2031 L198,1386.2031 C213,1386.2031 213,1170.3281 228,1170.3281 L238,1170.3281 " fill="none" style="stroke: #A80036; stroke-width: 1.0;"/><rect fill="#FEFECE" filter="url(#fhhi1v6o3c3qb)" height="33.9688" rx="12.5" ry="12.5" style="stroke: #A80036; stroke-width: 1.5;" width="171" x="238" y="1423.1875"/><text fill="#000000" font-family="sans-serif" font-size="12" lengthAdjust="spacingAndGlyphs" textLength="151" x="248" y="1444.3262">动态图: Dynamic diagram</text><rect fill="#FEFECE" filter="url(#fhhi1v6o3c3qb)" height="33.9688" rx="12.5" ry="12.5" style="stroke: #A80036; stroke-width: 1.5;" width="128" x="459" y="1315.25"/><text fill="#000000" font-family="sans-serif" font-size="12" lengthAdjust="spacingAndGlyphs" textLength="108" x="469" y="1336.3887">用来表达动态关系的</text><path d="M409,1440.1719 L419,1440.1719 C434,1440.1719 434,1332.2344 449,1332.2344 L459,1332.2344 " fill="none" style="stroke: #A80036; stroke-width: 1.0;"/><rect fill="#FEFECE" filter="url(#fhhi1v6o3c3qb)" height="33.9688" rx="12.5" ry="12.5" style="stroke: #A80036; stroke-width: 1.5;" width="248" x="459" y="1369.2188"/><text fill="#000000" font-family="sans-serif" font-size="12" lengthAdjust="spacingAndGlyphs" textLength="228" x="469" y="1390.3574">不同的元素之间是如何调用来完成一个业务</text><path d="M409,1440.1719 L419,1440.1719 C434,1440.1719 434,1386.2031 449,1386.2031 L459,1386.2031 " fill="none" style="stroke: #A80036; stroke-width: 1.0;"/><rect fill="#FEFECE" filter="url(#fhhi1v6o3c3qb)" height="33.9688" rx="12.5" ry="12.5" style="stroke: #A80036; stroke-width: 1.5;" width="188" x="459" y="1423.1875"/><text fill="#000000" font-family="sans-serif" font-size="12" lengthAdjust="spacingAndGlyphs" textLength="168" x="469" y="1444.3262">动态图不仅仅适用于一个层面上</text><path d="M409,1440.1719 L419,1440.1719 C434,1440.1719 434,1440.1719 449,1440.1719 L459,1440.1719 " fill="none" style="stroke: #A80036; stroke-width: 1.0;"/><rect fill="#FEFECE" filter="url(#fhhi1v6o3c3qb)" height="33.9688" rx="12.5" ry="12.5" style="stroke: #A80036; stroke-width: 1.5;" width="224" x="459" y="1477.1563"/><text fill="#000000" font-family="sans-serif" font-size="12" lengthAdjust="spacingAndGlyphs" textLength="204" x="469" y="1498.2949">它在系统级、容器级和组件级都可以画</text><path d="M409,1440.1719 L419,1440.1719 C434,1440.1719 434,1494.1406 449,1494.1406 L459,1494.1406 " fill="none" style="stroke: #A80036; stroke-width: 1.0;"/><rect fill="#FEFECE" filter="url(#fhhi1v6o3c3qb)" height="33.9688" rx="12.5" ry="12.5" style="stroke: #A80036; stroke-width: 1.5;" width="140" x="459" y="1531.125"/><text fill="#000000" font-family="sans-serif" font-size="12" lengthAdjust="spacingAndGlyphs" textLength="120" x="469" y="1552.2637">表达的目标是不一样的</text><path d="M409,1440.1719 L419,1440.1719 C434,1440.1719 434,1548.1094 449,1548.1094 L459,1548.1094 " fill="none" style="stroke: #A80036; stroke-width: 1.0;"/><path d="M188,1386.2031 L198,1386.2031 C213,1386.2031 213,1440.1719 228,1440.1719 L238,1440.1719 " fill="none" style="stroke: #A80036; stroke-width: 1.0;"/><rect fill="#FEFECE" filter="url(#fhhi1v6o3c3qb)" height="33.9688" rx="12.5" ry="12.5" style="stroke: #A80036; stroke-width: 1.5;" width="193" x="238" y="1639.0625"/><text fill="#000000" font-family="sans-serif" font-size="12" lengthAdjust="spacingAndGlyphs" textLength="173" x="248" y="1660.2012">部署图: Deployment diagram</text><rect fill="#FEFECE" filter="url(#fhhi1v6o3c3qb)" height="33.9688" rx="12.5" ry="12.5" style="stroke: #A80036; stroke-width: 1.5;" width="128" x="481" y="1585.0938"/><text fill="#000000" font-family="sans-serif" font-size="12" lengthAdjust="spacingAndGlyphs" textLength="108" x="491" y="1606.2324">站在部署的角度思考</text><path d="M431,1656.0469 L441,1656.0469 C456,1656.0469 456,1602.0781 471,1602.0781 L481,1602.0781 " fill="none" style="stroke: #A80036; stroke-width: 1.0;"/><rect fill="#FEFECE" filter="url(#fhhi1v6o3c3qb)" height="33.9688" rx="12.5" ry="12.5" style="stroke: #A80036; stroke-width: 1.5;" width="211" x="481" y="1639.0625"/><text fill="#000000" font-family="sans-serif" font-size="12" lengthAdjust="spacingAndGlyphs" textLength="191" x="491" y="1660.2012">可以成为Dev和Ops之间沟通的桥梁</text><path d="M431,1656.0469 L441,1656.0469 C456,1656.0469 456,1656.0469 471,1656.0469 L481,1656.0469 " fill="none" style="stroke: #A80036; stroke-width: 1.0;"/><rect fill="#FEFECE" filter="url(#fhhi1v6o3c3qb)" height="33.9688" rx="12.5" ry="12.5" style="stroke: #A80036; stroke-width: 1.5;" width="152" x="481" y="1693.0313"/><text fill="#000000" font-family="sans-serif" font-size="12" lengthAdjust="spacingAndGlyphs" textLength="132" x="491" y="1714.1699">部署图基本都是容器级的</text><path d="M431,1656.0469 L441,1656.0469 C456,1656.0469 456,1710.0156 471,1710.0156 L481,1710.0156 " fill="none" style="stroke: #A80036; stroke-width: 1.0;"/><path d="M188,1386.2031 L198,1386.2031 C213,1386.2031 213,1656.0469 228,1656.0469 L238,1656.0469 " fill="none" style="stroke: #A80036; stroke-width: 1.0;"/><path d="M70,1008.4219 L80,1008.4219 C95,1008.4219 95,1386.2031 110,1386.2031 L120,1386.2031 " fill="none" style="stroke: #A80036; stroke-width: 1.0;"/><rect fill="#FEFECE" filter="url(#fhhi1v6o3c3qb)" height="33.9688" rx="12.5" ry="12.5" style="stroke: #A80036; stroke-width: 1.5;" width="44" x="120" y="1854.9375"/><text fill="#000000" font-family="sans-serif" font-size="12" lengthAdjust="spacingAndGlyphs" textLength="24" x="130" y="1876.0762">总结</text><rect fill="#FEFECE" filter="url(#fhhi1v6o3c3qb)" height="33.9688" rx="12.5" ry="12.5" style="stroke: #A80036; stroke-width: 1.5;" width="188" x="214" y="1800.9688"/><text fill="#000000" font-family="sans-serif" font-size="12" lengthAdjust="spacingAndGlyphs" textLength="168" x="224" y="1822.1074">需要可视化的原因是语言不靠谱</text><rect fill="#FEFECE" filter="url(#fhhi1v6o3c3qb)" height="33.9688" rx="12.5" ry="12.5" style="stroke: #A80036; stroke-width: 1.5;" width="224" x="452" y="1747"/><text fill="#000000" font-family="sans-serif" font-size="12" lengthAdjust="spacingAndGlyphs" textLength="204" x="462" y="1768.1387">纸上的不是架构，每个人脑子里的才是</text><path d="M402,1817.9531 L412,1817.9531 C427,1817.9531 427,1763.9844 442,1763.9844 L452,1763.9844 " fill="none" style="stroke: #A80036; stroke-width: 1.0;"/><rect fill="#FEFECE" filter="url(#fhhi1v6o3c3qb)" height="33.9688" rx="12.5" ry="12.5" style="stroke: #A80036; stroke-width: 1.5;" width="296" x="452" y="1800.9688"/><text fill="#000000" font-family="sans-serif" font-size="12" lengthAdjust="spacingAndGlyphs" textLength="276" x="462" y="1822.1074">在一个团队里的人，对架构的认识也可能是不一样的</text><path d="M402,1817.9531 L412,1817.9531 C427,1817.9531 427,1817.9531 442,1817.9531 L452,1817.9531 " fill="none" style="stroke: #A80036; stroke-width: 1.0;"/><rect fill="#FEFECE" filter="url(#fhhi1v6o3c3qb)" height="33.9688" rx="12.5" ry="12.5" style="stroke: #A80036; stroke-width: 1.5;" width="296" x="452" y="1854.9375"/><text fill="#000000" font-family="sans-serif" font-size="12" lengthAdjust="spacingAndGlyphs" textLength="276" x="462" y="1876.0762">开发是团队协作的事，混乱的理解会造成架构的混乱</text><path d="M402,1817.9531 L412,1817.9531 C427,1817.9531 427,1871.9219 442,1871.9219 L452,1871.9219 " fill="none" style="stroke: #A80036; stroke-width: 1.0;"/><path d="M164,1871.9219 L174,1871.9219 C189,1871.9219 189,1817.9531 204,1817.9531 L214,1817.9531 " fill="none" style="stroke: #A80036; stroke-width: 1.0;"/><rect fill="#FEFECE" filter="url(#fhhi1v6o3c3qb)" height="33.9688" rx="12.5" ry="12.5" style="stroke: #A80036; stroke-width: 1.5;" width="84" x="214" y="1935.8906"/><text fill="#000000" font-family="sans-serif" font-size="12" lengthAdjust="spacingAndGlyphs" textLength="64" x="224" y="1957.0293">C4值得推荐</text><rect fill="#FEFECE" filter="url(#fhhi1v6o3c3qb)" height="33.9688" rx="12.5" ry="12.5" style="stroke: #A80036; stroke-width: 1.5;" width="240" x="348" y="1908.9063"/><text fill="#000000" font-family="sans-serif" font-size="12" lengthAdjust="spacingAndGlyphs" textLength="220" x="358" y="1930.0449">C4模型是最容易理解、最容易使用的工具</text><path d="M298,1952.875 L308,1952.875 C323,1952.875 323,1925.8906 338,1925.8906 L348,1925.8906 " fill="none" style="stroke: #A80036; stroke-width: 1.0;"/><rect fill="#FEFECE" filter="url(#fhhi1v6o3c3qb)" height="33.9688" rx="12.5" ry="12.5" style="stroke: #A80036; stroke-width: 1.5;" width="200" x="348" y="1962.875"/><text fill="#000000" font-family="sans-serif" font-size="12" lengthAdjust="spacingAndGlyphs" textLength="180" x="358" y="1984.0137">复用了程序员已有的一些认知模型</text><path d="M298,1952.875 L308,1952.875 C323,1952.875 323,1979.8594 338,1979.8594 L348,1979.8594 " fill="none" style="stroke: #A80036; stroke-width: 1.0;"/><path d="M164,1871.9219 L174,1871.9219 C189,1871.9219 189,1952.875 204,1952.875 L214,1952.875 " fill="none" style="stroke: #A80036; stroke-width: 1.0;"/><path d="M70,1008.4219 L80,1008.4219 C95,1008.4219 95,1871.9219 110,1871.9219 L120,1871.9219 " fill="none" style="stroke: #A80036; stroke-width: 1.0;"/><!--
--></g></svg>