<?xml version="1.0" encoding="UTF-8" standalone="no"?><svg xmlns="http://www.w3.org/2000/svg" xmlns:xlink="http://www.w3.org/1999/xlink" contentScriptType="application/ecmascript" contentStyleType="text/css" height="1657px" preserveAspectRatio="none" style="width:885px;height:1657px;" version="1.1" viewBox="0 0 885 1657" width="885px" zoomAndPan="magnify"><defs><filter height="300%" id="f1ys4jnsmwy77" width="300%" x="-1" y="-1"><feGaussianBlur result="blurOut" stdDeviation="2.0"/><feColorMatrix in="blurOut" result="blurOut2" type="matrix" values="0 0 0 0 0 0 0 0 0 0 0 0 0 0 0 0 0 0 .4 0"/><feOffset dx="4.0" dy="4.0" in="blurOut2" result="blurOut3"/><feBlend in="SourceGraphic" in2="blurOut3" mode="normal"/></filter></defs><g><rect fill="#FEFECE" filter="url(#f1ys4jnsmwy77)" height="33.9688" rx="12.5" ry="12.5" style="stroke: #A80036; stroke-width: 1.5;" width="92" x="10" y="816.0391"/><text fill="#000000" font-family="sans-serif" font-size="12" lengthAdjust="spacingAndGlyphs" textLength="72" x="20" y="837.1777">如何高效学习</text><rect fill="#FEFECE" filter="url(#f1ys4jnsmwy77)" height="33.9688" rx="12.5" ry="12.5" style="stroke: #A80036; stroke-width: 1.5;" width="68" x="152" y="73.9688"/><text fill="#000000" font-family="sans-serif" font-size="12" lengthAdjust="spacingAndGlyphs" textLength="48" x="162" y="95.1074">认识自己</text><rect fill="#FEFECE" filter="url(#f1ys4jnsmwy77)" height="33.9688" rx="12.5" ry="12.5" style="stroke: #A80036; stroke-width: 1.5;" width="80" x="270" y="73.9688"/><text fill="#000000" font-family="sans-serif" font-size="12" lengthAdjust="spacingAndGlyphs" textLength="60" x="280" y="95.1074">应该学什么</text><rect fill="#FEFECE" filter="url(#f1ys4jnsmwy77)" height="33.9688" rx="12.5" ry="12.5" style="stroke: #A80036; stroke-width: 1.5;" width="68" x="400" y="20"/><text fill="#000000" font-family="sans-serif" font-size="12" lengthAdjust="spacingAndGlyphs" textLength="48" x="410" y="41.1387">即学即用</text><path d="M350,90.9531 L360,90.9531 C375,90.9531 375,36.9844 390,36.9844 L400,36.9844 " fill="none" style="stroke: #A80036; stroke-width: 1.0;"/><rect fill="#FEFECE" filter="url(#f1ys4jnsmwy77)" height="33.9688" rx="12.5" ry="12.5" style="stroke: #A80036; stroke-width: 1.5;" width="56" x="400" y="73.9688"/><text fill="#000000" font-family="sans-serif" font-size="12" lengthAdjust="spacingAndGlyphs" textLength="36" x="410" y="95.1074">基本功</text><rect fill="#FEFECE" filter="url(#f1ys4jnsmwy77)" height="33.9688" rx="12.5" ry="12.5" style="stroke: #A80036; stroke-width: 1.5;" width="212" x="506" y="73.9688"/><text fill="#000000" font-family="sans-serif" font-size="12" lengthAdjust="spacingAndGlyphs" textLength="192" x="516" y="95.1074">可以作为其他知识或能力的基础知识</text><path d="M456,90.9531 L466,90.9531 C481,90.9531 481,90.9531 496,90.9531 L506,90.9531 " fill="none" style="stroke: #A80036; stroke-width: 1.0;"/><path d="M350,90.9531 L360,90.9531 C375,90.9531 375,90.9531 390,90.9531 L400,90.9531 " fill="none" style="stroke: #A80036; stroke-width: 1.0;"/><rect fill="#FEFECE" filter="url(#f1ys4jnsmwy77)" height="33.9688" rx="12.5" ry="12.5" style="stroke: #A80036; stroke-width: 1.5;" width="68" x="400" y="127.9375"/><text fill="#000000" font-family="sans-serif" font-size="12" lengthAdjust="spacingAndGlyphs" textLength="48" x="410" y="149.0762">兴趣驱动</text><path d="M350,90.9531 L360,90.9531 C375,90.9531 375,144.9219 390,144.9219 L400,144.9219 " fill="none" style="stroke: #A80036; stroke-width: 1.0;"/><path d="M220,90.9531 L230,90.9531 C245,90.9531 245,90.9531 260,90.9531 L270,90.9531 " fill="none" style="stroke: #A80036; stroke-width: 1.0;"/><path d="M102,833.0234 L112,833.0234 C127,833.0234 127,90.9531 142,90.9531 L152,90.9531 " fill="none" style="stroke: #A80036; stroke-width: 1.0;"/><rect fill="#FEFECE" filter="url(#f1ys4jnsmwy77)" height="33.9688" rx="12.5" ry="12.5" style="stroke: #A80036; stroke-width: 1.5;" width="68" x="152" y="613.6563"/><text fill="#000000" font-family="sans-serif" font-size="12" lengthAdjust="spacingAndGlyphs" textLength="48" x="162" y="634.7949">分清知识</text><rect fill="#FEFECE" filter="url(#f1ys4jnsmwy77)" height="33.9688" rx="12.5" ry="12.5" style="stroke: #A80036; stroke-width: 1.5;" width="123" x="270" y="208.8906"/><text fill="#000000" font-family="sans-serif" font-size="12" lengthAdjust="spacingAndGlyphs" textLength="103" x="280" y="230.0293">&#128293;取其精华去其糟粕</text><rect fill="#FEFECE" filter="url(#f1ys4jnsmwy77)" height="33.9688" rx="12.5" ry="12.5" style="stroke: #A80036; stroke-width: 1.5;" width="68" x="443" y="181.9063"/><text fill="#000000" font-family="sans-serif" font-size="12" lengthAdjust="spacingAndGlyphs" textLength="48" x="453" y="203.0449">学海无涯</text><path d="M393,225.875 L403,225.875 C418,225.875 418,198.8906 433,198.8906 L443,198.8906 " fill="none" style="stroke: #A80036; stroke-width: 1.0;"/><rect fill="#FEFECE" filter="url(#f1ys4jnsmwy77)" height="33.9688" rx="12.5" ry="12.5" style="stroke: #A80036; stroke-width: 1.5;" width="248" x="443" y="235.875"/><text fill="#000000" font-family="sans-serif" font-size="12" lengthAdjust="spacingAndGlyphs" textLength="228" x="453" y="257.0137">知识大爆炸时代，没办法把所有东西都学完</text><path d="M393,225.875 L403,225.875 C418,225.875 418,252.8594 433,252.8594 L443,252.8594 " fill="none" style="stroke: #A80036; stroke-width: 1.0;"/><path d="M220,630.6406 L230,630.6406 C245,630.6406 245,225.875 260,225.875 L270,225.875 " fill="none" style="stroke: #A80036; stroke-width: 1.0;"/><rect fill="#FEFECE" filter="url(#f1ys4jnsmwy77)" height="33.9688" rx="12.5" ry="12.5" style="stroke: #A80036; stroke-width: 1.5;" width="44" x="270" y="397.7813"/><text fill="#000000" font-family="sans-serif" font-size="12" lengthAdjust="spacingAndGlyphs" textLength="24" x="280" y="418.9199">分类</text><rect fill="#FEFECE" filter="url(#f1ys4jnsmwy77)" height="33.9688" rx="12.5" ry="12.5" style="stroke: #A80036; stroke-width: 1.5;" width="316" x="364" y="343.8125"/><text fill="#000000" font-family="sans-serif" font-size="12" lengthAdjust="spacingAndGlyphs" textLength="296" x="374" y="364.9512">第一手知识: 原创、硬干货。根据自己经历研究总结而成</text><rect fill="#FEFECE" filter="url(#f1ys4jnsmwy77)" height="33.9688" rx="12.5" ry="12.5" style="stroke: #A80036; stroke-width: 1.5;" width="80" x="730" y="289.8438"/><text fill="#000000" font-family="sans-serif" font-size="12" lengthAdjust="spacingAndGlyphs" textLength="60" x="740" y="310.9824">硬干货文章</text><path d="M680,360.7969 L690,360.7969 C705,360.7969 705,306.8281 720,306.8281 L730,306.8281 " fill="none" style="stroke: #A80036; stroke-width: 1.0;"/><rect fill="#FEFECE" filter="url(#f1ys4jnsmwy77)" height="33.9688" rx="12.5" ry="12.5" style="stroke: #A80036; stroke-width: 1.5;" width="90" x="730" y="343.8125"/><text fill="#000000" font-family="sans-serif" font-size="12" lengthAdjust="spacingAndGlyphs" textLength="70" x="740" y="364.9512">源码&amp;架构图</text><path d="M680,360.7969 L690,360.7969 C705,360.7969 705,360.7969 720,360.7969 L730,360.7969 " fill="none" style="stroke: #A80036; stroke-width: 1.0;"/><rect fill="#FEFECE" filter="url(#f1ys4jnsmwy77)" height="33.9688" rx="12.5" ry="12.5" style="stroke: #A80036; stroke-width: 1.5;" width="68" x="730" y="397.7813"/><text fill="#000000" font-family="sans-serif" font-size="12" lengthAdjust="spacingAndGlyphs" textLength="48" x="740" y="418.9199">优秀论文</text><path d="M680,360.7969 L690,360.7969 C705,360.7969 705,414.7656 720,414.7656 L730,414.7656 " fill="none" style="stroke: #A80036; stroke-width: 1.0;"/><path d="M314,414.7656 L324,414.7656 C339,414.7656 339,360.7969 354,360.7969 L364,360.7969 " fill="none" style="stroke: #A80036; stroke-width: 1.0;"/><rect fill="#FEFECE" filter="url(#f1ys4jnsmwy77)" height="33.9688" rx="12.5" ry="12.5" style="stroke: #A80036; stroke-width: 1.5;" width="280" x="364" y="397.7813"/><text fill="#000000" font-family="sans-serif" font-size="12" lengthAdjust="spacingAndGlyphs" textLength="260" x="374" y="418.9199">第二手知识: 硬干货的转述。带有作者的个人理解</text><path d="M314,414.7656 L324,414.7656 C339,414.7656 339,414.7656 354,414.7656 L364,414.7656 " fill="none" style="stroke: #A80036; stroke-width: 1.0;"/><rect fill="#FEFECE" filter="url(#f1ys4jnsmwy77)" height="33.9688" rx="12.5" ry="12.5" style="stroke: #A80036; stroke-width: 1.5;" width="220" x="364" y="451.75"/><text fill="#000000" font-family="sans-serif" font-size="12" lengthAdjust="spacingAndGlyphs" textLength="200" x="374" y="472.8887">第三手知识: 对第一、二手知识的转化</text><path d="M314,414.7656 L324,414.7656 C339,414.7656 339,468.7344 354,468.7344 L364,468.7344 " fill="none" style="stroke: #A80036; stroke-width: 1.0;"/><rect fill="#FEFECE" filter="url(#f1ys4jnsmwy77)" height="33.9688" rx="12.5" ry="12.5" style="stroke: #A80036; stroke-width: 1.5;" width="268" x="364" y="505.7188"/><text fill="#000000" font-family="sans-serif" font-size="12" lengthAdjust="spacingAndGlyphs" textLength="248" x="374" y="526.8574">第四手知识: 使用未经证实的内容。纯个人理解</text><path d="M314,414.7656 L324,414.7656 C339,414.7656 339,522.7031 354,522.7031 L364,522.7031 " fill="none" style="stroke: #A80036; stroke-width: 1.0;"/><path d="M220,630.6406 L230,630.6406 C245,630.6406 245,414.7656 260,414.7656 L270,414.7656 " fill="none" style="stroke: #A80036; stroke-width: 1.0;"/><rect fill="#FEFECE" filter="url(#f1ys4jnsmwy77)" height="33.9688" rx="12.5" ry="12.5" style="stroke: #A80036; stroke-width: 1.5;" width="68" x="270" y="721.5938"/><text fill="#000000" font-family="sans-serif" font-size="12" lengthAdjust="spacingAndGlyphs" textLength="48" x="280" y="742.7324">如何做？</text><rect fill="#FEFECE" filter="url(#f1ys4jnsmwy77)" height="33.9688" rx="12.5" ry="12.5" style="stroke: #A80036; stroke-width: 1.5;" width="104" x="388" y="586.6719"/><text fill="#000000" font-family="sans-serif" font-size="12" lengthAdjust="spacingAndGlyphs" textLength="84" x="398" y="607.8105">能够对知识评级</text><path d="M338,738.5781 L348,738.5781 C363,738.5781 363,603.6563 378,603.6563 L388,603.6563 " fill="none" style="stroke: #A80036; stroke-width: 1.0;"/><rect fill="#FEFECE" filter="url(#f1ys4jnsmwy77)" height="33.9688" rx="12.5" ry="12.5" style="stroke: #A80036; stroke-width: 1.5;" width="152" x="388" y="640.6406"/><text fill="#000000" font-family="sans-serif" font-size="12" lengthAdjust="spacingAndGlyphs" textLength="132" x="398" y="661.7793">区别对待不同等级的知识</text><rect fill="#FEFECE" filter="url(#f1ys4jnsmwy77)" height="33.9688" rx="12.5" ry="12.5" style="stroke: #A80036; stroke-width: 1.5;" width="80" x="590" y="559.6875"/><text fill="#000000" font-family="sans-serif" font-size="12" lengthAdjust="spacingAndGlyphs" textLength="60" x="600" y="580.8262">一手要研究</text><path d="M540,657.625 L550,657.625 C565,657.625 565,576.6719 580,576.6719 L590,576.6719 " fill="none" style="stroke: #A80036; stroke-width: 1.0;"/><rect fill="#FEFECE" filter="url(#f1ys4jnsmwy77)" height="33.9688" rx="12.5" ry="12.5" style="stroke: #A80036; stroke-width: 1.5;" width="80" x="590" y="613.6563"/><text fill="#000000" font-family="sans-serif" font-size="12" lengthAdjust="spacingAndGlyphs" textLength="60" x="600" y="634.7949">二手要精读</text><path d="M540,657.625 L550,657.625 C565,657.625 565,630.6406 580,630.6406 L590,630.6406 " fill="none" style="stroke: #A80036; stroke-width: 1.0;"/><rect fill="#FEFECE" filter="url(#f1ys4jnsmwy77)" height="33.9688" rx="12.5" ry="12.5" style="stroke: #A80036; stroke-width: 1.5;" width="80" x="590" y="667.625"/><text fill="#000000" font-family="sans-serif" font-size="12" lengthAdjust="spacingAndGlyphs" textLength="60" x="600" y="688.7637">三手要速读</text><path d="M540,657.625 L550,657.625 C565,657.625 565,684.6094 580,684.6094 L590,684.6094 " fill="none" style="stroke: #A80036; stroke-width: 1.0;"/><rect fill="#FEFECE" filter="url(#f1ys4jnsmwy77)" height="33.9688" rx="12.5" ry="12.5" style="stroke: #A80036; stroke-width: 1.5;" width="80" x="590" y="721.5938"/><text fill="#000000" font-family="sans-serif" font-size="12" lengthAdjust="spacingAndGlyphs" textLength="60" x="600" y="742.7324">四手要过滤</text><path d="M540,657.625 L550,657.625 C565,657.625 565,738.5781 580,738.5781 L590,738.5781 " fill="none" style="stroke: #A80036; stroke-width: 1.0;"/><path d="M338,738.5781 L348,738.5781 C363,738.5781 363,657.625 378,657.625 L388,657.625 " fill="none" style="stroke: #A80036; stroke-width: 1.0;"/><rect fill="#FEFECE" filter="url(#f1ys4jnsmwy77)" height="33.9688" rx="12.5" ry="12.5" style="stroke: #A80036; stroke-width: 1.5;" width="116" x="388" y="829.5313"/><text fill="#000000" font-family="sans-serif" font-size="12" lengthAdjust="spacingAndGlyphs" textLength="96" x="398" y="850.6699">学会追溯知识源头</text><rect fill="#FEFECE" filter="url(#f1ys4jnsmwy77)" height="33.9688" rx="12.5" ry="12.5" style="stroke: #A80036; stroke-width: 1.5;" width="172" x="554" y="775.5625"/><text fill="#000000" font-family="sans-serif" font-size="12" lengthAdjust="spacingAndGlyphs" textLength="152" x="564" y="796.7012">如: 搜索、阅读、咨询、交流</text><path d="M504,846.5156 L514,846.5156 C529,846.5156 529,792.5469 544,792.5469 L554,792.5469 " fill="none" style="stroke: #A80036; stroke-width: 1.0;"/><rect fill="#FEFECE" filter="url(#f1ys4jnsmwy77)" height="33.9688" rx="12.5" ry="12.5" style="stroke: #A80036; stroke-width: 1.5;" width="212" x="554" y="829.5313"/><text fill="#000000" font-family="sans-serif" font-size="12" lengthAdjust="spacingAndGlyphs" textLength="192" x="564" y="850.6699">对有价值的知识进行更深层次的挖掘</text><path d="M504,846.5156 L514,846.5156 C529,846.5156 529,846.5156 544,846.5156 L554,846.5156 " fill="none" style="stroke: #A80036; stroke-width: 1.0;"/><rect fill="#FEFECE" filter="url(#f1ys4jnsmwy77)" height="33.9688" rx="12.5" ry="12.5" style="stroke: #A80036; stroke-width: 1.5;" width="152" x="554" y="883.5"/><text fill="#000000" font-family="sans-serif" font-size="12" lengthAdjust="spacingAndGlyphs" textLength="132" x="564" y="904.6387">要透彻理解而非人云亦云</text><path d="M504,846.5156 L514,846.5156 C529,846.5156 529,900.4844 544,900.4844 L554,900.4844 " fill="none" style="stroke: #A80036; stroke-width: 1.0;"/><path d="M338,738.5781 L348,738.5781 C363,738.5781 363,846.5156 378,846.5156 L388,846.5156 " fill="none" style="stroke: #A80036; stroke-width: 1.0;"/><path d="M220,630.6406 L230,630.6406 C245,630.6406 245,738.5781 260,738.5781 L270,738.5781 " fill="none" style="stroke: #A80036; stroke-width: 1.0;"/><rect fill="#FEFECE" filter="url(#f1ys4jnsmwy77)" height="33.9688" rx="12.5" ry="12.5" style="stroke: #A80036; stroke-width: 1.5;" width="68" x="270" y="991.4375"/><text fill="#000000" font-family="sans-serif" font-size="12" lengthAdjust="spacingAndGlyphs" textLength="48" x="280" y="1012.5762">知识维度</text><rect fill="#FEFECE" filter="url(#f1ys4jnsmwy77)" height="33.9688" rx="12.5" ry="12.5" style="stroke: #A80036; stroke-width: 1.5;" width="68" x="388" y="937.4688"/><text fill="#000000" font-family="sans-serif" font-size="12" lengthAdjust="spacingAndGlyphs" textLength="48" x="398" y="958.6074">显性知识</text><rect fill="#FEFECE" filter="url(#f1ys4jnsmwy77)" height="33.9688" rx="12.5" ry="12.5" style="stroke: #A80036; stroke-width: 1.5;" width="152" x="506" y="937.4688"/><text fill="#000000" font-family="sans-serif" font-size="12" lengthAdjust="spacingAndGlyphs" textLength="132" x="516" y="958.6074">各种非理论、技巧类知识</text><path d="M456,954.4531 L466,954.4531 C481,954.4531 481,954.4531 496,954.4531 L506,954.4531 " fill="none" style="stroke: #A80036; stroke-width: 1.0;"/><path d="M338,1008.4219 L348,1008.4219 C363,1008.4219 363,954.4531 378,954.4531 L388,954.4531 " fill="none" style="stroke: #A80036; stroke-width: 1.0;"/><rect fill="#FEFECE" filter="url(#f1ys4jnsmwy77)" height="33.9688" rx="12.5" ry="12.5" style="stroke: #A80036; stroke-width: 1.5;" width="68" x="388" y="1018.4219"/><text fill="#000000" font-family="sans-serif" font-size="12" lengthAdjust="spacingAndGlyphs" textLength="48" x="398" y="1039.5605">隐性知识</text><rect fill="#FEFECE" filter="url(#f1ys4jnsmwy77)" height="33.9688" rx="12.5" ry="12.5" style="stroke: #A80036; stroke-width: 1.5;" width="56" x="506" y="991.4375"/><text fill="#000000" font-family="sans-serif" font-size="12" lengthAdjust="spacingAndGlyphs" textLength="36" x="516" y="1012.5762">方法论</text><path d="M456,1035.4063 L466,1035.4063 C481,1035.4063 481,1008.4219 496,1008.4219 L506,1008.4219 " fill="none" style="stroke: #A80036; stroke-width: 1.0;"/><rect fill="#FEFECE" filter="url(#f1ys4jnsmwy77)" height="33.9688" rx="12.5" ry="12.5" style="stroke: #A80036; stroke-width: 1.5;" width="68" x="506" y="1045.4063"/><text fill="#000000" font-family="sans-serif" font-size="12" lengthAdjust="spacingAndGlyphs" textLength="48" x="516" y="1066.5449">设计模式</text><path d="M456,1035.4063 L466,1035.4063 C481,1035.4063 481,1062.3906 496,1062.3906 L506,1062.3906 " fill="none" style="stroke: #A80036; stroke-width: 1.0;"/><path d="M338,1008.4219 L348,1008.4219 C363,1008.4219 363,1035.4063 378,1035.4063 L388,1035.4063 " fill="none" style="stroke: #A80036; stroke-width: 1.0;"/><path d="M220,630.6406 L230,630.6406 C245,630.6406 245,1008.4219 260,1008.4219 L270,1008.4219 " fill="none" style="stroke: #A80036; stroke-width: 1.0;"/><path d="M102,833.0234 L112,833.0234 C127,833.0234 127,630.6406 142,630.6406 L152,630.6406 " fill="none" style="stroke: #A80036; stroke-width: 1.0;"/><rect fill="#FEFECE" filter="url(#f1ys4jnsmwy77)" height="33.9688" rx="12.5" ry="12.5" style="stroke: #A80036; stroke-width: 1.5;" width="68" x="152" y="1355.7266"/><text fill="#000000" font-family="sans-serif" font-size="12" lengthAdjust="spacingAndGlyphs" textLength="48" x="162" y="1376.8652">吸收知识</text><rect fill="#FEFECE" filter="url(#f1ys4jnsmwy77)" height="33.9688" rx="12.5" ry="12.5" style="stroke: #A80036; stroke-width: 1.5;" width="176" x="270" y="1274.7734"/><text fill="#000000" font-family="sans-serif" font-size="12" lengthAdjust="spacingAndGlyphs" textLength="156" x="280" y="1295.9121">思考模板让你更快的吸收知识</text><rect fill="#FEFECE" filter="url(#f1ys4jnsmwy77)" height="33.9688" rx="12.5" ry="12.5" style="stroke: #A80036; stroke-width: 1.5;" width="166" x="496" y="1099.375"/><text fill="#000000" font-family="sans-serif" font-size="12" lengthAdjust="spacingAndGlyphs" textLength="146" x="506" y="1120.5137">what: 最简单的话讲述含义</text><path d="M446,1291.7578 L456,1291.7578 C471,1291.7578 471,1116.3594 486,1116.3594 L496,1116.3594 " fill="none" style="stroke: #A80036; stroke-width: 1.0;"/><rect fill="#FEFECE" filter="url(#f1ys4jnsmwy77)" height="33.9688" rx="12.5" ry="12.5" style="stroke: #A80036; stroke-width: 1.5;" width="183" x="496" y="1153.3438"/><text fill="#000000" font-family="sans-serif" font-size="12" lengthAdjust="spacingAndGlyphs" textLength="163" x="506" y="1174.4824">origin: 知识超源，对知识分级</text><path d="M446,1291.7578 L456,1291.7578 C471,1291.7578 471,1170.3281 486,1170.3281 L496,1170.3281 " fill="none" style="stroke: #A80036; stroke-width: 1.0;"/><rect fill="#FEFECE" filter="url(#f1ys4jnsmwy77)" height="33.9688" rx="12.5" ry="12.5" style="stroke: #A80036; stroke-width: 1.5;" width="185" x="496" y="1207.3125"/><text fill="#000000" font-family="sans-serif" font-size="12" lengthAdjust="spacingAndGlyphs" textLength="165" x="506" y="1228.4512">associate: 将知识点关联起来</text><rect fill="#FEFECE" filter="url(#f1ys4jnsmwy77)" height="33.9688" rx="12.5" ry="12.5" style="stroke: #A80036; stroke-width: 1.5;" width="68" x="731" y="1180.3281"/><text fill="#000000" font-family="sans-serif" font-size="12" lengthAdjust="spacingAndGlyphs" textLength="48" x="741" y="1201.4668">点串成线</text><path d="M681,1224.2969 L691,1224.2969 C706,1224.2969 706,1197.3125 721,1197.3125 L731,1197.3125 " fill="none" style="stroke: #A80036; stroke-width: 1.0;"/><rect fill="#FEFECE" filter="url(#f1ys4jnsmwy77)" height="33.9688" rx="12.5" ry="12.5" style="stroke: #A80036; stroke-width: 1.5;" width="68" x="731" y="1234.2969"/><text fill="#000000" font-family="sans-serif" font-size="12" lengthAdjust="spacingAndGlyphs" textLength="48" x="741" y="1255.4355">线组成面</text><path d="M681,1224.2969 L691,1224.2969 C706,1224.2969 706,1251.2813 721,1251.2813 L731,1251.2813 " fill="none" style="stroke: #A80036; stroke-width: 1.0;"/><path d="M446,1291.7578 L456,1291.7578 C471,1291.7578 471,1224.2969 486,1224.2969 L496,1224.2969 " fill="none" style="stroke: #A80036; stroke-width: 1.0;"/><rect fill="#FEFECE" filter="url(#f1ys4jnsmwy77)" height="33.9688" rx="12.5" ry="12.5" style="stroke: #A80036; stroke-width: 1.5;" width="125" x="496" y="1342.2344"/><text fill="#000000" font-family="sans-serif" font-size="12" lengthAdjust="spacingAndGlyphs" textLength="105" x="506" y="1363.373">how: 明白使用场景</text><rect fill="#FEFECE" filter="url(#f1ys4jnsmwy77)" height="33.9688" rx="12.5" ry="12.5" style="stroke: #A80036; stroke-width: 1.5;" width="92" x="671" y="1288.2656"/><text fill="#000000" font-family="sans-serif" font-size="12" lengthAdjust="spacingAndGlyphs" textLength="72" x="681" y="1309.4043">解决什么问题</text><path d="M621,1359.2188 L631,1359.2188 C646,1359.2188 646,1305.25 661,1305.25 L671,1305.25 " fill="none" style="stroke: #A80036; stroke-width: 1.0;"/><rect fill="#FEFECE" filter="url(#f1ys4jnsmwy77)" height="33.9688" rx="12.5" ry="12.5" style="stroke: #A80036; stroke-width: 1.5;" width="92" x="671" y="1342.2344"/><text fill="#000000" font-family="sans-serif" font-size="12" lengthAdjust="spacingAndGlyphs" textLength="72" x="681" y="1363.373">带来什么价值</text><path d="M621,1359.2188 L631,1359.2188 C646,1359.2188 646,1359.2188 661,1359.2188 L671,1359.2188 " fill="none" style="stroke: #A80036; stroke-width: 1.0;"/><rect fill="#FEFECE" filter="url(#f1ys4jnsmwy77)" height="33.9688" rx="12.5" ry="12.5" style="stroke: #A80036; stroke-width: 1.5;" width="128" x="671" y="1396.2031"/><text fill="#000000" font-family="sans-serif" font-size="12" lengthAdjust="spacingAndGlyphs" textLength="108" x="681" y="1417.3418">自己什么时候可以用</text><path d="M621,1359.2188 L631,1359.2188 C646,1359.2188 646,1413.1875 661,1413.1875 L671,1413.1875 " fill="none" style="stroke: #A80036; stroke-width: 1.0;"/><path d="M446,1291.7578 L456,1291.7578 C471,1291.7578 471,1359.2188 486,1359.2188 L496,1359.2188 " fill="none" style="stroke: #A80036; stroke-width: 1.0;"/><rect fill="#FEFECE" filter="url(#f1ys4jnsmwy77)" height="33.9688" rx="12.5" ry="12.5" style="stroke: #A80036; stroke-width: 1.5;" width="184" x="496" y="1450.1719"/><text fill="#000000" font-family="sans-serif" font-size="12" lengthAdjust="spacingAndGlyphs" textLength="164" x="506" y="1471.3105">result: 反馈、反思、不断优化</text><path d="M446,1291.7578 L456,1291.7578 C471,1291.7578 471,1467.1563 486,1467.1563 L496,1467.1563 " fill="none" style="stroke: #A80036; stroke-width: 1.0;"/><path d="M220,1372.7109 L230,1372.7109 C245,1372.7109 245,1291.7578 260,1291.7578 L270,1291.7578 " fill="none" style="stroke: #A80036; stroke-width: 1.0;"/><rect fill="#FEFECE" filter="url(#f1ys4jnsmwy77)" height="33.9688" rx="12.5" ry="12.5" style="stroke: #A80036; stroke-width: 1.5;" width="68" x="270" y="1558.1094"/><text fill="#000000" font-family="sans-serif" font-size="12" lengthAdjust="spacingAndGlyphs" textLength="48" x="280" y="1579.248">学习套路</text><rect fill="#FEFECE" filter="url(#f1ys4jnsmwy77)" height="33.9688" rx="12.5" ry="12.5" style="stroke: #A80036; stroke-width: 1.5;" width="80" x="388" y="1504.1406"/><text fill="#000000" font-family="sans-serif" font-size="12" lengthAdjust="spacingAndGlyphs" textLength="60" x="398" y="1525.2793">费曼学习法</text><rect fill="#FEFECE" filter="url(#f1ys4jnsmwy77)" height="33.9688" rx="12.5" ry="12.5" style="stroke: #A80036; stroke-width: 1.5;" width="68" x="518" y="1504.1406"/><text fill="#000000" font-family="sans-serif" font-size="12" lengthAdjust="spacingAndGlyphs" textLength="48" x="528" y="1525.2793">以教为学</text><path d="M468,1521.125 L478,1521.125 C493,1521.125 493,1521.125 508,1521.125 L518,1521.125 " fill="none" style="stroke: #A80036; stroke-width: 1.0;"/><path d="M338,1575.0938 L348,1575.0938 C363,1575.0938 363,1521.125 378,1521.125 L388,1521.125 " fill="none" style="stroke: #A80036; stroke-width: 1.0;"/><rect fill="#FEFECE" filter="url(#f1ys4jnsmwy77)" height="33.9688" rx="12.5" ry="12.5" style="stroke: #A80036; stroke-width: 1.5;" width="80" x="388" y="1558.1094"/><text fill="#000000" font-family="sans-serif" font-size="12" lengthAdjust="spacingAndGlyphs" textLength="60" x="398" y="1579.248">西蒙学习法</text><rect fill="#FEFECE" filter="url(#f1ys4jnsmwy77)" height="33.9688" rx="12.5" ry="12.5" style="stroke: #A80036; stroke-width: 1.5;" width="116" x="518" y="1558.1094"/><text fill="#000000" font-family="sans-serif" font-size="12" lengthAdjust="spacingAndGlyphs" textLength="96" x="528" y="1579.248">集中时间密集学习</text><path d="M468,1575.0938 L478,1575.0938 C493,1575.0938 493,1575.0938 508,1575.0938 L518,1575.0938 " fill="none" style="stroke: #A80036; stroke-width: 1.0;"/><path d="M338,1575.0938 L348,1575.0938 C363,1575.0938 363,1575.0938 378,1575.0938 L388,1575.0938 " fill="none" style="stroke: #A80036; stroke-width: 1.0;"/><rect fill="#FEFECE" filter="url(#f1ys4jnsmwy77)" height="33.9688" rx="12.5" ry="12.5" style="stroke: #A80036; stroke-width: 1.5;" width="104" x="388" y="1612.0781"/><text fill="#000000" font-family="sans-serif" font-size="12" lengthAdjust="spacingAndGlyphs" textLength="84" x="398" y="1633.2168">对知识进行分类</text><rect fill="#FEFECE" filter="url(#f1ys4jnsmwy77)" height="33.9688" rx="12.5" ry="12.5" style="stroke: #A80036; stroke-width: 1.5;" width="332" x="542" y="1612.0781"/><text fill="#000000" font-family="sans-serif" font-size="12" lengthAdjust="spacingAndGlyphs" textLength="312" x="552" y="1633.2168">对半衰期长，重要性高的知识要进行深刻的、全方位的研读</text><path d="M492,1629.0625 L502,1629.0625 C517,1629.0625 517,1629.0625 532,1629.0625 L542,1629.0625 " fill="none" style="stroke: #A80036; stroke-width: 1.0;"/><path d="M338,1575.0938 L348,1575.0938 C363,1575.0938 363,1629.0625 378,1629.0625 L388,1629.0625 " fill="none" style="stroke: #A80036; stroke-width: 1.0;"/><path d="M220,1372.7109 L230,1372.7109 C245,1372.7109 245,1575.0938 260,1575.0938 L270,1575.0938 " fill="none" style="stroke: #A80036; stroke-width: 1.0;"/><path d="M102,833.0234 L112,833.0234 C127,833.0234 127,1372.7109 142,1372.7109 L152,1372.7109 " fill="none" style="stroke: #A80036; stroke-width: 1.0;"/><!--
--></g></svg>