<svg xmlns="http://www.w3.org/2000/svg" xmlns:xlink="http://www.w3.org/1999/xlink" width="819" height="2007" contentScriptType="application/ecmascript" contentStyleType="text/css" style="width:819px;height:2007px" preserveAspectRatio="none" version="1.1" viewBox="0 0 819 2007" zoomAndPan="magnify"><defs><filter id="fhhi1v6o3c3qb" width="300%" height="300%" x="-1" y="-1"><feGaussianBlur result="blurOut" stdDeviation="2"/><feColorMatrix in="blurOut" result="blurOut2" type="matrix" values="0 0 0 0 0 0 0 0 0 0 0 0 0 0 0 0 0 0 .4 0"/><feOffset dx="4" dy="4" in="blurOut2" result="blurOut3"/><feBlend in="SourceGraphic" in2="blurOut3" mode="normal"/></filter></defs><g><rect style="stroke:#a80036;stroke-width:1.5" width="60" height="33.969" x="10" y="991.438" fill="#FEFECE" filter="url(#fhhi1v6o3c3qb)" rx="12.5" ry="12.5"/><text x="20" y="1012.576" fill="#000" font-family="sans-serif" font-size="12" lengthAdjust="spacingAndGlyphs" textLength="40">C4模型</text><rect style="stroke:#a80036;stroke-width:1.5" width="68" height="33.969" x="120" y="505.719" fill="#FEFECE" filter="url(#fhhi1v6o3c3qb)" rx="12.5" ry="12.5"/><text x="130" y="526.857" fill="#000" font-family="sans-serif" font-size="12" lengthAdjust="spacingAndGlyphs" textLength="48">核心图表</text><rect style="stroke:#a80036;stroke-width:1.5" width="201" height="33.969" x="238" y="262.859" fill="#FEFECE" filter="url(#fhhi1v6o3c3qb)" rx="12.5" ry="12.5"/><text x="248" y="283.998" fill="#000" font-family="sans-serif" font-size="12" lengthAdjust="spacingAndGlyphs" textLength="181">系统上下文（System Context）</text><rect style="stroke:#a80036;stroke-width:1.5" width="56" height="33.969" x="489" y="20" fill="#FEFECE" filter="url(#fhhi1v6o3c3qb)" rx="12.5" ry="12.5"/><text x="499" y="41.139" fill="#000" font-family="sans-serif" font-size="12" lengthAdjust="spacingAndGlyphs" textLength="36">国家级</text><path fill="none" d="M439,279.8438 L449,279.8438 C464,279.8438 464,36.9844 479,36.9844 L489,36.9844" style="stroke:#a80036;stroke-width:1"/><rect style="stroke:#a80036;stroke-width:1.5" width="176" height="33.969" x="489" y="73.969" fill="#FEFECE" filter="url(#fhhi1v6o3c3qb)" rx="12.5" ry="12.5"/><text x="499" y="95.107" fill="#000" font-family="sans-serif" font-size="12" lengthAdjust="spacingAndGlyphs" textLength="156">显示了你正在构建的软件系统</text><path fill="none" d="M439,279.8438 L449,279.8438 C464,279.8438 464,90.9531 479,90.9531 L489,90.9531" style="stroke:#a80036;stroke-width:1"/><rect style="stroke:#a80036;stroke-width:1.5" width="212" height="33.969" x="489" y="127.938" fill="#FEFECE" filter="url(#fhhi1v6o3c3qb)" rx="12.5" ry="12.5"/><text x="499" y="149.076" fill="#000" font-family="sans-serif" font-size="12" lengthAdjust="spacingAndGlyphs" textLength="192">与它的用户以及其他软件之间的关系</text><path fill="none" d="M439,279.8438 L449,279.8438 C464,279.8438 464,144.9219 479,144.9219 L489,144.9219" style="stroke:#a80036;stroke-width:1"/><rect style="stroke:#a80036;stroke-width:1.5" width="44" height="33.969" x="489" y="316.828" fill="#FEFECE" filter="url(#fhhi1v6o3c3qb)" rx="12.5" ry="12.5"/><text x="499" y="337.967" fill="#000" font-family="sans-serif" font-size="12" lengthAdjust="spacingAndGlyphs" textLength="24">组件</text><rect style="stroke:#a80036;stroke-width:1.5" width="128" height="33.969" x="583" y="181.906" fill="#FEFECE" filter="url(#fhhi1v6o3c3qb)" rx="12.5" ry="12.5"/><text x="593" y="203.045" fill="#000" font-family="sans-serif" font-size="12" lengthAdjust="spacingAndGlyphs" textLength="108">关系——带箭头的线</text><path fill="none" d="M533,333.8125 L543,333.8125 C558,333.8125 558,198.8906 573,198.8906 L583,198.8906" style="stroke:#a80036;stroke-width:1"/><rect style="stroke:#a80036;stroke-width:1.5" width="128" height="33.969" x="583" y="235.875" fill="#FEFECE" filter="url(#fhhi1v6o3c3qb)" rx="12.5" ry="12.5"/><text x="593" y="257.014" fill="#000" font-family="sans-serif" font-size="12" lengthAdjust="spacingAndGlyphs" textLength="108">元素——方块和角色</text><path fill="none" d="M533,333.8125 L543,333.8125 C558,333.8125 558,252.8594 573,252.8594 L583,252.8594" style="stroke:#a80036;stroke-width:1"/><rect style="stroke:#a80036;stroke-width:1.5" width="152" height="33.969" x="583" y="289.844" fill="#FEFECE" filter="url(#fhhi1v6o3c3qb)" rx="12.5" ry="12.5"/><text x="593" y="310.982" fill="#000" font-family="sans-serif" font-size="12" lengthAdjust="spacingAndGlyphs" textLength="132">关系描述——线上的文字</text><path fill="none" d="M533,333.8125 L543,333.8125 C558,333.8125 558,306.8281 573,306.8281 L583,306.8281" style="stroke:#a80036;stroke-width:1"/><rect style="stroke:#a80036;stroke-width:1.5" width="212" height="33.969" x="583" y="343.813" fill="#FEFECE" filter="url(#fhhi1v6o3c3qb)" rx="12.5" ry="12.5"/><text x="593" y="364.951" fill="#000" font-family="sans-serif" font-size="12" lengthAdjust="spacingAndGlyphs" textLength="192">元素的描述——方块和角色里的文字</text><path fill="none" d="M533,333.8125 L543,333.8125 C558,333.8125 558,360.7969 573,360.7969 L583,360.7969" style="stroke:#a80036;stroke-width:1"/><rect style="stroke:#a80036;stroke-width:1.5" width="200" height="33.969" x="583" y="397.781" fill="#FEFECE" filter="url(#fhhi1v6o3c3qb)" rx="12.5" ry="12.5"/><text x="593" y="418.92" fill="#000" font-family="sans-serif" font-size="12" lengthAdjust="spacingAndGlyphs" textLength="180">元素的标记——方块和角色的颜色</text><path fill="none" d="M533,333.8125 L543,333.8125 C558,333.8125 558,414.7656 573,414.7656 L583,414.7656" style="stroke:#a80036;stroke-width:1"/><rect style="stroke:#a80036;stroke-width:1.5" width="56" height="33.969" x="583" y="451.75" fill="#FEFECE" filter="url(#fhhi1v6o3c3qb)" rx="12.5" ry="12.5"/><text x="593" y="472.889" fill="#000" font-family="sans-serif" font-size="12" lengthAdjust="spacingAndGlyphs" textLength="36">虚线框</text><path fill="none" d="M533,333.8125 L543,333.8125 C558,333.8125 558,468.7344 573,468.7344 L583,468.7344" style="stroke:#a80036;stroke-width:1"/><path fill="none" d="M439,279.8438 L449,279.8438 C464,279.8438 464,333.8125 479,333.8125 L489,333.8125" style="stroke:#a80036;stroke-width:1"/><rect style="stroke:#a80036;stroke-width:1.5" width="80" height="33.969" x="489" y="505.719" fill="#FEFECE" filter="url(#fhhi1v6o3c3qb)" rx="12.5" ry="12.5"/><text x="499" y="526.857" fill="#000" font-family="sans-serif" font-size="12" lengthAdjust="spacingAndGlyphs" textLength="60">『用例图』</text><path fill="none" d="M439,279.8438 L449,279.8438 C464,279.8438 464,522.7031 479,522.7031 L489,522.7031" style="stroke:#a80036;stroke-width:1"/><path fill="none" d="M188,522.7031 L198,522.7031 C213,522.7031 213,279.8438 228,279.8438 L238,279.8438" style="stroke:#a80036;stroke-width:1"/><rect style="stroke:#a80036;stroke-width:1.5" width="129" height="33.969" x="238" y="640.641" fill="#FEFECE" filter="url(#fhhi1v6o3c3qb)" rx="12.5" ry="12.5"/><text x="248" y="661.779" fill="#000" font-family="sans-serif" font-size="12" lengthAdjust="spacingAndGlyphs" textLength="109">容器（Container）</text><rect style="stroke:#a80036;stroke-width:1.5" width="44" height="33.969" x="417" y="559.688" fill="#FEFECE" filter="url(#fhhi1v6o3c3qb)" rx="12.5" ry="12.5"/><text x="427" y="580.826" fill="#000" font-family="sans-serif" font-size="12" lengthAdjust="spacingAndGlyphs" textLength="24">省级</text><path fill="none" d="M367,657.625 L377,657.625 C392,657.625 392,576.6719 407,576.6719 L417,576.6719" style="stroke:#a80036;stroke-width:1"/><rect style="stroke:#a80036;stroke-width:1.5" width="176" height="33.969" x="417" y="613.656" fill="#FEFECE" filter="url(#fhhi1v6o3c3qb)" rx="12.5" ry="12.5"/><text x="427" y="634.795" fill="#000" font-family="sans-serif" font-size="12" lengthAdjust="spacingAndGlyphs" textLength="156">技术决策也是该图的关键部分</text><path fill="none" d="M367,657.625 L377,657.625 C392,657.625 392,630.6406 407,630.6406 L417,630.6406" style="stroke:#a80036;stroke-width:1"/><rect style="stroke:#a80036;stroke-width:1.5" width="164" height="33.969" x="417" y="667.625" fill="#FEFECE" filter="url(#fhhi1v6o3c3qb)" rx="12.5" ry="12.5"/><text x="427" y="688.764" fill="#000" font-family="sans-serif" font-size="12" lengthAdjust="spacingAndGlyphs" textLength="144">系统上下文是由容器组成的</text><path fill="none" d="M367,657.625 L377,657.625 C392,657.625 392,684.6094 407,684.6094 L417,684.6094" style="stroke:#a80036;stroke-width:1"/><rect style="stroke:#a80036;stroke-width:1.5" width="224" height="33.969" x="417" y="721.594" fill="#FEFECE" filter="url(#fhhi1v6o3c3qb)" rx="12.5" ry="12.5"/><text x="427" y="742.732" fill="#000" font-family="sans-serif" font-size="12" lengthAdjust="spacingAndGlyphs" textLength="204">有单独的进程空间就可以看作一个容器</text><path fill="none" d="M367,657.625 L377,657.625 C392,657.625 392,738.5781 407,738.5781 L417,738.5781" style="stroke:#a80036;stroke-width:1"/><path fill="none" d="M188,522.7031 L198,522.7031 C213,522.7031 213,657.625 228,657.625 L238,657.625" style="stroke:#a80036;stroke-width:1"/><rect style="stroke:#a80036;stroke-width:1.5" width="140" height="33.969" x="238" y="856.516" fill="#FEFECE" filter="url(#fhhi1v6o3c3qb)" rx="12.5" ry="12.5"/><text x="248" y="877.654" fill="#000" font-family="sans-serif" font-size="12" lengthAdjust="spacingAndGlyphs" textLength="120">组件（Component）</text><rect style="stroke:#a80036;stroke-width:1.5" width="44" height="33.969" x="428" y="775.563" fill="#FEFECE" filter="url(#fhhi1v6o3c3qb)" rx="12.5" ry="12.5"/><text x="438" y="796.701" fill="#000" font-family="sans-serif" font-size="12" lengthAdjust="spacingAndGlyphs" textLength="24">市级</text><path fill="none" d="M378,873.5 L388,873.5 C403,873.5 403,792.5469 418,792.5469 L428,792.5469" style="stroke:#a80036;stroke-width:1"/><rect style="stroke:#a80036;stroke-width:1.5" width="212" height="33.969" x="428" y="829.531" fill="#FEFECE" filter="url(#fhhi1v6o3c3qb)" rx="12.5" ry="12.5"/><text x="438" y="850.67" fill="#000" font-family="sans-serif" font-size="12" lengthAdjust="spacingAndGlyphs" textLength="192">将单个容器放大，以显示其中的组件</text><path fill="none" d="M378,873.5 L388,873.5 C403,873.5 403,846.5156 418,846.5156 L428,846.5156" style="stroke:#a80036;stroke-width:1"/><rect style="stroke:#a80036;stroke-width:1.5" width="188" height="33.969" x="428" y="883.5" fill="#FEFECE" filter="url(#fhhi1v6o3c3qb)" rx="12.5" ry="12.5"/><text x="438" y="904.639" fill="#000" font-family="sans-serif" font-size="12" lengthAdjust="spacingAndGlyphs" textLength="168">组件映射到代码库中的真实抽象</text><path fill="none" d="M378,873.5 L388,873.5 C403,873.5 403,900.4844 418,900.4844 L428,900.4844" style="stroke:#a80036;stroke-width:1"/><rect style="stroke:#a80036;stroke-width:1.5" width="380" height="33.969" x="428" y="937.469" fill="#FEFECE" filter="url(#fhhi1v6o3c3qb)" rx="12.5" ry="12.5"/><text x="438" y="958.607" fill="#000" font-family="sans-serif" font-size="12" lengthAdjust="spacingAndGlyphs" textLength="360">组件在这里面很好的把接口和它的实现类打包成一个概念来表达关系</text><path fill="none" d="M378,873.5 L388,873.5 C403,873.5 403,954.4531 418,954.4531 L428,954.4531" style="stroke:#a80036;stroke-width:1"/><path fill="none" d="M188,522.7031 L198,522.7031 C213,522.7031 213,873.5 228,873.5 L238,873.5" style="stroke:#a80036;stroke-width:1"/><rect style="stroke:#a80036;stroke-width:1.5" width="100" height="33.969" x="238" y="991.438" fill="#FEFECE" filter="url(#fhhi1v6o3c3qb)" rx="12.5" ry="12.5"/><text x="248" y="1012.576" fill="#000" font-family="sans-serif" font-size="12" lengthAdjust="spacingAndGlyphs" textLength="80">代码（Code）</text><rect style="stroke:#a80036;stroke-width:1.5" width="56" height="33.969" x="388" y="991.438" fill="#FEFECE" filter="url(#fhhi1v6o3c3qb)" rx="12.5" ry="12.5"/><text x="398" y="1012.576" fill="#000" font-family="sans-serif" font-size="12" lengthAdjust="spacingAndGlyphs" textLength="36">道路级</text><path fill="none" d="M338,1008.4219 L348,1008.4219 C363,1008.4219 363,1008.4219 378,1008.4219 L388,1008.4219" style="stroke:#a80036;stroke-width:1"/><path fill="none" d="M188,522.7031 L198,522.7031 C213,522.7031 213,1008.4219 228,1008.4219 L238,1008.4219" style="stroke:#a80036;stroke-width:1"/><path fill="none" d="M70,1008.4219 L80,1008.4219 C95,1008.4219 95,522.7031 110,522.7031 L120,522.7031" style="stroke:#a80036;stroke-width:1"/><rect style="stroke:#a80036;stroke-width:1.5" width="68" height="33.969" x="120" y="1369.219" fill="#FEFECE" filter="url(#fhhi1v6o3c3qb)" rx="12.5" ry="12.5"/><text x="130" y="1390.357" fill="#000" font-family="sans-serif" font-size="12" lengthAdjust="spacingAndGlyphs" textLength="48">补充图表</text><rect style="stroke:#a80036;stroke-width:1.5" width="205" height="33.969" x="238" y="1153.344" fill="#FEFECE" filter="url(#fhhi1v6o3c3qb)" rx="12.5" ry="12.5"/><text x="248" y="1174.482" fill="#000" font-family="sans-serif" font-size="12" lengthAdjust="spacingAndGlyphs" textLength="185">系统景观图: System Landscape</text><rect style="stroke:#a80036;stroke-width:1.5" width="212" height="33.969" x="493" y="1045.406" fill="#FEFECE" filter="url(#fhhi1v6o3c3qb)" rx="12.5" ry="12.5"/><text x="503" y="1066.545" fill="#000" font-family="sans-serif" font-size="12" lengthAdjust="spacingAndGlyphs" textLength="192">比上下文图更丰富的系统级别的表达</text><path fill="none" d="M443,1170.3281 L453,1170.3281 C468,1170.3281 468,1062.3906 483,1062.3906 L493,1062.3906" style="stroke:#a80036;stroke-width:1"/><rect style="stroke:#a80036;stroke-width:1.5" width="236" height="33.969" x="493" y="1099.375" fill="#FEFECE" filter="url(#fhhi1v6o3c3qb)" rx="12.5" ry="12.5"/><text x="503" y="1120.514" fill="#000" font-family="sans-serif" font-size="12" lengthAdjust="spacingAndGlyphs" textLength="216">上下文图只关注聚焦系统和它的直接关系</text><path fill="none" d="M443,1170.3281 L453,1170.3281 C468,1170.3281 468,1116.3594 483,1116.3594 L493,1116.3594" style="stroke:#a80036;stroke-width:1"/><rect style="stroke:#a80036;stroke-width:1.5" width="212" height="33.969" x="493" y="1153.344" fill="#FEFECE" filter="url(#fhhi1v6o3c3qb)" rx="12.5" ry="12.5"/><text x="503" y="1174.482" fill="#000" font-family="sans-serif" font-size="12" lengthAdjust="spacingAndGlyphs" textLength="192">本图把间接相关的系统都会标示出来</text><path fill="none" d="M443,1170.3281 L453,1170.3281 C468,1170.3281 468,1170.3281 483,1170.3281 L493,1170.3281" style="stroke:#a80036;stroke-width:1"/><rect style="stroke:#a80036;stroke-width:1.5" width="284" height="33.969" x="493" y="1207.313" fill="#FEFECE" filter="url(#fhhi1v6o3c3qb)" rx="12.5" ry="12.5"/><text x="503" y="1228.451" fill="#000" font-family="sans-serif" font-size="12" lengthAdjust="spacingAndGlyphs" textLength="264">那些系统的用户以及用户之间的关系也会标示出来</text><path fill="none" d="M443,1170.3281 L453,1170.3281 C468,1170.3281 468,1224.2969 483,1224.2969 L493,1224.2969" style="stroke:#a80036;stroke-width:1"/><rect style="stroke:#a80036;stroke-width:1.5" width="176" height="33.969" x="493" y="1261.281" fill="#FEFECE" filter="url(#fhhi1v6o3c3qb)" rx="12.5" ry="12.5"/><text x="503" y="1282.42" fill="#000" font-family="sans-serif" font-size="12" lengthAdjust="spacingAndGlyphs" textLength="156">只是内部的用户会用灰色标记</text><path fill="none" d="M443,1170.3281 L453,1170.3281 C468,1170.3281 468,1278.2656 483,1278.2656 L493,1278.2656" style="stroke:#a80036;stroke-width:1"/><path fill="none" d="M188,1386.2031 L198,1386.2031 C213,1386.2031 213,1170.3281 228,1170.3281 L238,1170.3281" style="stroke:#a80036;stroke-width:1"/><rect style="stroke:#a80036;stroke-width:1.5" width="171" height="33.969" x="238" y="1423.188" fill="#FEFECE" filter="url(#fhhi1v6o3c3qb)" rx="12.5" ry="12.5"/><text x="248" y="1444.326" fill="#000" font-family="sans-serif" font-size="12" lengthAdjust="spacingAndGlyphs" textLength="151">动态图: Dynamic diagram</text><rect style="stroke:#a80036;stroke-width:1.5" width="128" height="33.969" x="459" y="1315.25" fill="#FEFECE" filter="url(#fhhi1v6o3c3qb)" rx="12.5" ry="12.5"/><text x="469" y="1336.389" fill="#000" font-family="sans-serif" font-size="12" lengthAdjust="spacingAndGlyphs" textLength="108">用来表达动态关系的</text><path fill="none" d="M409,1440.1719 L419,1440.1719 C434,1440.1719 434,1332.2344 449,1332.2344 L459,1332.2344" style="stroke:#a80036;stroke-width:1"/><rect style="stroke:#a80036;stroke-width:1.5" width="248" height="33.969" x="459" y="1369.219" fill="#FEFECE" filter="url(#fhhi1v6o3c3qb)" rx="12.5" ry="12.5"/><text x="469" y="1390.357" fill="#000" font-family="sans-serif" font-size="12" lengthAdjust="spacingAndGlyphs" textLength="228">不同的元素之间是如何调用来完成一个业务</text><path fill="none" d="M409,1440.1719 L419,1440.1719 C434,1440.1719 434,1386.2031 449,1386.2031 L459,1386.2031" style="stroke:#a80036;stroke-width:1"/><rect style="stroke:#a80036;stroke-width:1.5" width="188" height="33.969" x="459" y="1423.188" fill="#FEFECE" filter="url(#fhhi1v6o3c3qb)" rx="12.5" ry="12.5"/><text x="469" y="1444.326" fill="#000" font-family="sans-serif" font-size="12" lengthAdjust="spacingAndGlyphs" textLength="168">动态图不仅仅适用于一个层面上</text><path fill="none" d="M409,1440.1719 L419,1440.1719 C434,1440.1719 434,1440.1719 449,1440.1719 L459,1440.1719" style="stroke:#a80036;stroke-width:1"/><rect style="stroke:#a80036;stroke-width:1.5" width="224" height="33.969" x="459" y="1477.156" fill="#FEFECE" filter="url(#fhhi1v6o3c3qb)" rx="12.5" ry="12.5"/><text x="469" y="1498.295" fill="#000" font-family="sans-serif" font-size="12" lengthAdjust="spacingAndGlyphs" textLength="204">它在系统级、容器级和组件级都可以画</text><path fill="none" d="M409,1440.1719 L419,1440.1719 C434,1440.1719 434,1494.1406 449,1494.1406 L459,1494.1406" style="stroke:#a80036;stroke-width:1"/><rect style="stroke:#a80036;stroke-width:1.5" width="140" height="33.969" x="459" y="1531.125" fill="#FEFECE" filter="url(#fhhi1v6o3c3qb)" rx="12.5" ry="12.5"/><text x="469" y="1552.264" fill="#000" font-family="sans-serif" font-size="12" lengthAdjust="spacingAndGlyphs" textLength="120">表达的目标是不一样的</text><path fill="none" d="M409,1440.1719 L419,1440.1719 C434,1440.1719 434,1548.1094 449,1548.1094 L459,1548.1094" style="stroke:#a80036;stroke-width:1"/><path fill="none" d="M188,1386.2031 L198,1386.2031 C213,1386.2031 213,1440.1719 228,1440.1719 L238,1440.1719" style="stroke:#a80036;stroke-width:1"/><rect style="stroke:#a80036;stroke-width:1.5" width="193" height="33.969" x="238" y="1639.063" fill="#FEFECE" filter="url(#fhhi1v6o3c3qb)" rx="12.5" ry="12.5"/><text x="248" y="1660.201" fill="#000" font-family="sans-serif" font-size="12" lengthAdjust="spacingAndGlyphs" textLength="173">部署图: Deployment diagram</text><rect style="stroke:#a80036;stroke-width:1.5" width="128" height="33.969" x="481" y="1585.094" fill="#FEFECE" filter="url(#fhhi1v6o3c3qb)" rx="12.5" ry="12.5"/><text x="491" y="1606.232" fill="#000" font-family="sans-serif" font-size="12" lengthAdjust="spacingAndGlyphs" textLength="108">站在部署的角度思考</text><path fill="none" d="M431,1656.0469 L441,1656.0469 C456,1656.0469 456,1602.0781 471,1602.0781 L481,1602.0781" style="stroke:#a80036;stroke-width:1"/><rect style="stroke:#a80036;stroke-width:1.5" width="211" height="33.969" x="481" y="1639.063" fill="#FEFECE" filter="url(#fhhi1v6o3c3qb)" rx="12.5" ry="12.5"/><text x="491" y="1660.201" fill="#000" font-family="sans-serif" font-size="12" lengthAdjust="spacingAndGlyphs" textLength="191">可以成为Dev和Ops之间沟通的桥梁</text><path fill="none" d="M431,1656.0469 L441,1656.0469 C456,1656.0469 456,1656.0469 471,1656.0469 L481,1656.0469" style="stroke:#a80036;stroke-width:1"/><rect style="stroke:#a80036;stroke-width:1.5" width="152" height="33.969" x="481" y="1693.031" fill="#FEFECE" filter="url(#fhhi1v6o3c3qb)" rx="12.5" ry="12.5"/><text x="491" y="1714.17" fill="#000" font-family="sans-serif" font-size="12" lengthAdjust="spacingAndGlyphs" textLength="132">部署图基本都是容器级的</text><path fill="none" d="M431,1656.0469 L441,1656.0469 C456,1656.0469 456,1710.0156 471,1710.0156 L481,1710.0156" style="stroke:#a80036;stroke-width:1"/><path fill="none" d="M188,1386.2031 L198,1386.2031 C213,1386.2031 213,1656.0469 228,1656.0469 L238,1656.0469" style="stroke:#a80036;stroke-width:1"/><path fill="none" d="M70,1008.4219 L80,1008.4219 C95,1008.4219 95,1386.2031 110,1386.2031 L120,1386.2031" style="stroke:#a80036;stroke-width:1"/><rect style="stroke:#a80036;stroke-width:1.5" width="44" height="33.969" x="120" y="1854.938" fill="#FEFECE" filter="url(#fhhi1v6o3c3qb)" rx="12.5" ry="12.5"/><text x="130" y="1876.076" fill="#000" font-family="sans-serif" font-size="12" lengthAdjust="spacingAndGlyphs" textLength="24">总结</text><rect style="stroke:#a80036;stroke-width:1.5" width="188" height="33.969" x="214" y="1800.969" fill="#FEFECE" filter="url(#fhhi1v6o3c3qb)" rx="12.5" ry="12.5"/><text x="224" y="1822.107" fill="#000" font-family="sans-serif" font-size="12" lengthAdjust="spacingAndGlyphs" textLength="168">需要可视化的原因是语言不靠谱</text><rect style="stroke:#a80036;stroke-width:1.5" width="224" height="33.969" x="452" y="1747" fill="#FEFECE" filter="url(#fhhi1v6o3c3qb)" rx="12.5" ry="12.5"/><text x="462" y="1768.139" fill="#000" font-family="sans-serif" font-size="12" lengthAdjust="spacingAndGlyphs" textLength="204">纸上的不是架构，每个人脑子里的才是</text><path fill="none" d="M402,1817.9531 L412,1817.9531 C427,1817.9531 427,1763.9844 442,1763.9844 L452,1763.9844" style="stroke:#a80036;stroke-width:1"/><rect style="stroke:#a80036;stroke-width:1.5" width="296" height="33.969" x="452" y="1800.969" fill="#FEFECE" filter="url(#fhhi1v6o3c3qb)" rx="12.5" ry="12.5"/><text x="462" y="1822.107" fill="#000" font-family="sans-serif" font-size="12" lengthAdjust="spacingAndGlyphs" textLength="276">在一个团队里的人，对架构的认识也可能是不一样的</text><path fill="none" d="M402,1817.9531 L412,1817.9531 C427,1817.9531 427,1817.9531 442,1817.9531 L452,1817.9531" style="stroke:#a80036;stroke-width:1"/><rect style="stroke:#a80036;stroke-width:1.5" width="296" height="33.969" x="452" y="1854.938" fill="#FEFECE" filter="url(#fhhi1v6o3c3qb)" rx="12.5" ry="12.5"/><text x="462" y="1876.076" fill="#000" font-family="sans-serif" font-size="12" lengthAdjust="spacingAndGlyphs" textLength="276">开发是团队协作的事，混乱的理解会造成架构的混乱</text><path fill="none" d="M402,1817.9531 L412,1817.9531 C427,1817.9531 427,1871.9219 442,1871.9219 L452,1871.9219" style="stroke:#a80036;stroke-width:1"/><path fill="none" d="M164,1871.9219 L174,1871.9219 C189,1871.9219 189,1817.9531 204,1817.9531 L214,1817.9531" style="stroke:#a80036;stroke-width:1"/><rect style="stroke:#a80036;stroke-width:1.5" width="84" height="33.969" x="214" y="1935.891" fill="#FEFECE" filter="url(#fhhi1v6o3c3qb)" rx="12.5" ry="12.5"/><text x="224" y="1957.029" fill="#000" font-family="sans-serif" font-size="12" lengthAdjust="spacingAndGlyphs" textLength="64">C4值得推荐</text><rect style="stroke:#a80036;stroke-width:1.5" width="240" height="33.969" x="348" y="1908.906" fill="#FEFECE" filter="url(#fhhi1v6o3c3qb)" rx="12.5" ry="12.5"/><text x="358" y="1930.045" fill="#000" font-family="sans-serif" font-size="12" lengthAdjust="spacingAndGlyphs" textLength="220">C4模型是最容易理解、最容易使用的工具</text><path fill="none" d="M298,1952.875 L308,1952.875 C323,1952.875 323,1925.8906 338,1925.8906 L348,1925.8906" style="stroke:#a80036;stroke-width:1"/><rect style="stroke:#a80036;stroke-width:1.5" width="200" height="33.969" x="348" y="1962.875" fill="#FEFECE" filter="url(#fhhi1v6o3c3qb)" rx="12.5" ry="12.5"/><text x="358" y="1984.014" fill="#000" font-family="sans-serif" font-size="12" lengthAdjust="spacingAndGlyphs" textLength="180">复用了程序员已有的一些认知模型</text><path fill="none" d="M298,1952.875 L308,1952.875 C323,1952.875 323,1979.8594 338,1979.8594 L348,1979.8594" style="stroke:#a80036;stroke-width:1"/><path fill="none" d="M164,1871.9219 L174,1871.9219 C189,1871.9219 189,1952.875 204,1952.875 L214,1952.875" style="stroke:#a80036;stroke-width:1"/><path fill="none" d="M70,1008.4219 L80,1008.4219 C95,1008.4219 95,1871.9219 110,1871.9219 L120,1871.9219" style="stroke:#a80036;stroke-width:1"/></g></svg>