<?xml version="1.0" encoding="UTF-8" standalone="no"?><svg xmlns="http://www.w3.org/2000/svg" xmlns:xlink="http://www.w3.org/1999/xlink" contentScriptType="application/ecmascript" contentStyleType="text/css" height="334px" preserveAspectRatio="none" style="width:469px;height:334px;" version="1.1" viewBox="0 0 469 334" width="469px" zoomAndPan="magnify"><defs><filter height="300%" id="f1rxckmz0j94cu" width="300%" x="-1" y="-1"><feGaussianBlur result="blurOut" stdDeviation="2.0"/><feColorMatrix in="blurOut" result="blurOut2" type="matrix" values="0 0 0 0 0 0 0 0 0 0 0 0 0 0 0 0 0 0 .4 0"/><feOffset dx="4.0" dy="4.0" in="blurOut2" result="blurOut3"/><feBlend in="SourceGraphic" in2="blurOut3" mode="normal"/></filter></defs><g><rect fill="#FEFECE" filter="url(#f1rxckmz0j94cu)" height="33.9688" rx="12.5" ry="12.5" style="stroke: #A80036; stroke-width: 1.5;" width="44" x="10" y="154.9219"/><text fill="#000000" font-family="sans-serif" font-size="12" lengthAdjust="spacingAndGlyphs" textLength="24" x="20" y="176.0605">简理</text><rect fill="#FEFECE" filter="url(#f1rxckmz0j94cu)" height="33.9688" rx="12.5" ry="12.5" style="stroke: #A80036; stroke-width: 1.5;" width="44" x="104" y="20"/><text fill="#000000" font-family="sans-serif" font-size="12" lengthAdjust="spacingAndGlyphs" textLength="24" x="114" y="41.1387">智者</text><rect fill="#FEFECE" filter="url(#f1rxckmz0j94cu)" height="33.9688" rx="12.5" ry="12.5" style="stroke: #A80036; stroke-width: 1.5;" width="260" x="198" y="20"/><text fill="#000000" font-family="sans-serif" font-size="12" lengthAdjust="spacingAndGlyphs" textLength="240" x="208" y="41.1387">规则对智者来说是指导，对愚蠢者来说是遵从</text><path d="M148,36.9844 L158,36.9844 C173,36.9844 173,36.9844 188,36.9844 L198,36.9844 " fill="none" style="stroke: #A80036; stroke-width: 1.0;"/><path d="M54,171.9063 L64,171.9063 C79,171.9063 79,36.9844 94,36.9844 L104,36.9844 " fill="none" style="stroke: #A80036; stroke-width: 1.0;"/><rect fill="#FEFECE" filter="url(#f1rxckmz0j94cu)" height="33.9688" rx="12.5" ry="12.5" style="stroke: #A80036; stroke-width: 1.5;" width="44" x="104" y="154.9219"/><text fill="#000000" font-family="sans-serif" font-size="12" lengthAdjust="spacingAndGlyphs" textLength="24" x="114" y="176.0605">原则</text><rect fill="#FEFECE" filter="url(#f1rxckmz0j94cu)" height="33.9688" rx="12.5" ry="12.5" style="stroke: #A80036; stroke-width: 1.5;" width="108" x="198" y="73.9688"/><text fill="#000000" font-family="sans-serif" font-size="12" lengthAdjust="spacingAndGlyphs" textLength="88" x="208" y="95.1074">原则不超过10个</text><path d="M148,171.9063 L158,171.9063 C173,171.9063 173,90.9531 188,90.9531 L198,90.9531 " fill="none" style="stroke: #A80036; stroke-width: 1.0;"/><rect fill="#FEFECE" filter="url(#f1rxckmz0j94cu)" height="33.9688" rx="12.5" ry="12.5" style="stroke: #A80036; stroke-width: 1.5;" width="128" x="198" y="127.9375"/><text fill="#000000" font-family="sans-serif" font-size="12" lengthAdjust="spacingAndGlyphs" textLength="108" x="208" y="149.0762">能够写在一个海报上</text><path d="M148,171.9063 L158,171.9063 C173,171.9063 173,144.9219 188,144.9219 L198,144.9219 " fill="none" style="stroke: #A80036; stroke-width: 1.0;"/><rect fill="#FEFECE" filter="url(#f1rxckmz0j94cu)" height="33.9688" rx="12.5" ry="12.5" style="stroke: #A80036; stroke-width: 1.5;" width="104" x="198" y="181.9063"/><text fill="#000000" font-family="sans-serif" font-size="12" lengthAdjust="spacingAndGlyphs" textLength="84" x="208" y="203.0449">不然大家记不住</text><path d="M148,171.9063 L158,171.9063 C173,171.9063 173,198.8906 188,198.8906 L198,198.8906 " fill="none" style="stroke: #A80036; stroke-width: 1.0;"/><rect fill="#FEFECE" filter="url(#f1rxckmz0j94cu)" height="33.9688" rx="12.5" ry="12.5" style="stroke: #A80036; stroke-width: 1.5;" width="176" x="198" y="235.875"/><text fill="#000000" font-family="sans-serif" font-size="12" lengthAdjust="spacingAndGlyphs" textLength="156" x="208" y="257.0137">原则越多，越易重叠和冲突。</text><path d="M148,171.9063 L158,171.9063 C173,171.9063 173,252.8594 188,252.8594 L198,252.8594 " fill="none" style="stroke: #A80036; stroke-width: 1.0;"/><path d="M54,171.9063 L64,171.9063 C79,171.9063 79,171.9063 94,171.9063 L104,171.9063 " fill="none" style="stroke: #A80036; stroke-width: 1.0;"/><rect fill="#FEFECE" filter="url(#f1rxckmz0j94cu)" height="33.9688" rx="12.5" ry="12.5" style="stroke: #A80036; stroke-width: 1.5;" width="60" x="104" y="289.8438"/><text fill="#000000" font-family="sans-serif" font-size="12" lengthAdjust="spacingAndGlyphs" textLength="40" x="114" y="310.9824">其他12</text><path d="M54,171.9063 L64,171.9063 C79,171.9063 79,306.8281 94,306.8281 L104,306.8281 " fill="none" style="stroke: #A80036; stroke-width: 1.0;"/><!--
--></g></svg>