<?xml version="1.0" encoding="UTF-8" standalone="no"?><svg xmlns="http://www.w3.org/2000/svg" xmlns:xlink="http://www.w3.org/1999/xlink" contentScriptType="application/ecmascript" contentStyleType="text/css" height="2385px" preserveAspectRatio="none" style="width:879px;height:2385px;" version="1.1" viewBox="0 0 879 2385" width="879px" zoomAndPan="magnify"><defs><filter height="300%" id="frvnd781bvucx" width="300%" x="-1" y="-1"><feGaussianBlur result="blurOut" stdDeviation="2.0"/><feColorMatrix in="blurOut" result="blurOut2" type="matrix" values="0 0 0 0 0 0 0 0 0 0 0 0 0 0 0 0 0 0 .4 0"/><feOffset dx="4.0" dy="4.0" in="blurOut2" result="blurOut3"/><feBlend in="SourceGraphic" in2="blurOut3" mode="normal"/></filter></defs><g><rect fill="#FEFECE" filter="url(#frvnd781bvucx)" height="33.9688" rx="12.5" ry="12.5" style="stroke: #A80036; stroke-width: 1.5;" width="44" x="10" y="1180.3281"/><text fill="#000000" font-family="sans-serif" font-size="12" lengthAdjust="spacingAndGlyphs" textLength="24" x="20" y="1201.4668">起点</text><rect fill="#FEFECE" filter="url(#frvnd781bvucx)" height="33.9688" rx="12.5" ry="12.5" style="stroke: #A80036; stroke-width: 1.5;" width="104" x="104" y="181.9063"/><text fill="#000000" font-family="sans-serif" font-size="12" lengthAdjust="spacingAndGlyphs" textLength="84" x="114" y="203.0449">云原生发展历程</text><rect fill="#FEFECE" filter="url(#frvnd781bvucx)" height="33.9688" rx="12.5" ry="12.5" style="stroke: #A80036; stroke-width: 1.5;" width="302" x="258" y="20"/><text fill="#000000" font-family="sans-serif" font-size="12" lengthAdjust="spacingAndGlyphs" textLength="282" x="268" y="41.1387">2004-2007, Google大规模使用容器(cgroup)技术</text><path d="M208,198.8906 L218,198.8906 C233,198.8906 233,36.9844 248,36.9844 L258,36.9844 " fill="none" style="stroke: #A80036; stroke-width: 1.0;"/><rect fill="#FEFECE" filter="url(#frvnd781bvucx)" height="33.9688" rx="12.5" ry="12.5" style="stroke: #A80036; stroke-width: 1.5;" width="215" x="258" y="73.9688"/><text fill="#000000" font-family="sans-serif" font-size="12" lengthAdjust="spacingAndGlyphs" textLength="195" x="268" y="95.1074">2008.01, cgroup合并到Linux主干</text><path d="M208,198.8906 L218,198.8906 C233,198.8906 233,90.9531 248,90.9531 L258,90.9531 " fill="none" style="stroke: #A80036; stroke-width: 1.0;"/><rect fill="#FEFECE" filter="url(#frvnd781bvucx)" height="33.9688" rx="12.5" ry="12.5" style="stroke: #A80036; stroke-width: 1.5;" width="172" x="258" y="127.9375"/><text fill="#000000" font-family="sans-serif" font-size="12" lengthAdjust="spacingAndGlyphs" textLength="152" x="268" y="149.0762">2013.03, Docker正式发布</text><path d="M208,198.8906 L218,198.8906 C233,198.8906 233,144.9219 248,144.9219 L258,144.9219 " fill="none" style="stroke: #A80036; stroke-width: 1.0;"/><rect fill="#FEFECE" filter="url(#frvnd781bvucx)" height="33.9688" rx="12.5" ry="12.5" style="stroke: #A80036; stroke-width: 1.5;" width="200" x="258" y="181.9063"/><text fill="#000000" font-family="sans-serif" font-size="12" lengthAdjust="spacingAndGlyphs" textLength="180" x="268" y="203.0449">2014.06, Kubernetes正式发布</text><path d="M208,198.8906 L218,198.8906 C233,198.8906 233,198.8906 248,198.8906 L258,198.8906 " fill="none" style="stroke: #A80036; stroke-width: 1.0;"/><rect fill="#FEFECE" filter="url(#frvnd781bvucx)" height="33.9688" rx="12.5" ry="12.5" style="stroke: #A80036; stroke-width: 1.5;" width="222" x="258" y="235.875"/><text fill="#000000" font-family="sans-serif" font-size="12" lengthAdjust="spacingAndGlyphs" textLength="202" x="268" y="257.0137">2015.07, CNCF成立(22个创始成员)</text><path d="M208,198.8906 L218,198.8906 C233,198.8906 233,252.8594 248,252.8594 L258,252.8594 " fill="none" style="stroke: #A80036; stroke-width: 1.0;"/><rect fill="#FEFECE" filter="url(#frvnd781bvucx)" height="33.9688" rx="12.5" ry="12.5" style="stroke: #A80036; stroke-width: 1.5;" width="200" x="258" y="289.8438"/><text fill="#000000" font-family="sans-serif" font-size="12" lengthAdjust="spacingAndGlyphs" textLength="180" x="268" y="310.9824">2017.07, 14个项目, 170个成员</text><path d="M208,198.8906 L218,198.8906 C233,198.8906 233,306.8281 248,306.8281 L258,306.8281 " fill="none" style="stroke: #A80036; stroke-width: 1.0;"/><rect fill="#FEFECE" filter="url(#frvnd781bvucx)" height="33.9688" rx="12.5" ry="12.5" style="stroke: #A80036; stroke-width: 1.5;" width="232" x="258" y="343.8125"/><text fill="#000000" font-family="sans-serif" font-size="12" lengthAdjust="spacingAndGlyphs" textLength="212" x="268" y="364.9512">2018.07, 19(+11)个项目,195个成员</text><path d="M208,198.8906 L218,198.8906 C233,198.8906 233,360.7969 248,360.7969 L258,360.7969 " fill="none" style="stroke: #A80036; stroke-width: 1.0;"/><path d="M54,1197.3125 L64,1197.3125 C79,1197.3125 79,198.8906 94,198.8906 L104,198.8906 " fill="none" style="stroke: #A80036; stroke-width: 1.0;"/><rect fill="#FEFECE" filter="url(#frvnd781bvucx)" height="33.9688" rx="12.5" ry="12.5" style="stroke: #A80036; stroke-width: 1.5;" width="68" x="104" y="478.7344"/><text fill="#000000" font-family="sans-serif" font-size="12" lengthAdjust="spacingAndGlyphs" textLength="48" x="114" y="499.873">关键节点</text><rect fill="#FEFECE" filter="url(#frvnd781bvucx)" height="33.9688" rx="12.5" ry="12.5" style="stroke: #A80036; stroke-width: 1.5;" width="152" x="222" y="397.7813"/><text fill="#000000" font-family="sans-serif" font-size="12" lengthAdjust="spacingAndGlyphs" textLength="132" x="232" y="418.9199">2013, Docker项目发布</text><path d="M172,495.7188 L182,495.7188 C197,495.7188 197,414.7656 212,414.7656 L222,414.7656 " fill="none" style="stroke: #A80036; stroke-width: 1.0;"/><rect fill="#FEFECE" filter="url(#frvnd781bvucx)" height="33.9688" rx="12.5" ry="12.5" style="stroke: #A80036; stroke-width: 1.5;" width="180" x="222" y="451.75"/><text fill="#000000" font-family="sans-serif" font-size="12" lengthAdjust="spacingAndGlyphs" textLength="160" x="232" y="472.8887">2014, Kubernetes正式发布</text><path d="M172,495.7188 L182,495.7188 C197,495.7188 197,468.7344 212,468.7344 L222,468.7344 " fill="none" style="stroke: #A80036; stroke-width: 1.0;"/><rect fill="#FEFECE" filter="url(#frvnd781bvucx)" height="33.9688" rx="12.5" ry="12.5" style="stroke: #A80036; stroke-width: 1.5;" width="192" x="222" y="505.7188"/><text fill="#000000" font-family="sans-serif" font-size="12" lengthAdjust="spacingAndGlyphs" textLength="172" x="232" y="526.8574">2015-2016, 容器编排三国争霸</text><path d="M172,495.7188 L182,495.7188 C197,495.7188 197,522.7031 212,522.7031 L222,522.7031 " fill="none" style="stroke: #A80036; stroke-width: 1.0;"/><rect fill="#FEFECE" filter="url(#frvnd781bvucx)" height="33.9688" rx="12.5" ry="12.5" style="stroke: #A80036; stroke-width: 1.5;" width="204" x="222" y="559.6875"/><text fill="#000000" font-family="sans-serif" font-size="12" lengthAdjust="spacingAndGlyphs" textLength="184" x="232" y="580.8262">2017, Kubernetes成为编排标准</text><path d="M172,495.7188 L182,495.7188 C197,495.7188 197,576.6719 212,576.6719 L222,576.6719 " fill="none" style="stroke: #A80036; stroke-width: 1.0;"/><path d="M54,1197.3125 L64,1197.3125 C79,1197.3125 79,495.7188 94,495.7188 L104,495.7188 " fill="none" style="stroke: #A80036; stroke-width: 1.0;"/><rect fill="#FEFECE" filter="url(#frvnd781bvucx)" height="33.9688" rx="12.5" ry="12.5" style="stroke: #A80036; stroke-width: 1.5;" width="68" x="104" y="991.4375"/><text fill="#000000" font-family="sans-serif" font-size="12" lengthAdjust="spacingAndGlyphs" textLength="48" x="114" y="1012.5762">课程简介</text><rect fill="#FEFECE" filter="url(#frvnd781bvucx)" height="33.9688" rx="12.5" ry="12.5" style="stroke: #A80036; stroke-width: 1.5;" width="44" x="222" y="721.5938"/><text fill="#000000" font-family="sans-serif" font-size="12" lengthAdjust="spacingAndGlyphs" textLength="24" x="232" y="742.7324">基础</text><rect fill="#FEFECE" filter="url(#frvnd781bvucx)" height="33.9688" rx="12.5" ry="12.5" style="stroke: #A80036; stroke-width: 1.5;" width="102" x="316" y="613.6563"/><text fill="#000000" font-family="sans-serif" font-size="12" lengthAdjust="spacingAndGlyphs" textLength="82" x="326" y="634.7949">应用编排&amp;管理</text><path d="M266,738.5781 L276,738.5781 C291,738.5781 291,630.6406 306,630.6406 L316,630.6406 " fill="none" style="stroke: #A80036; stroke-width: 1.0;"/><rect fill="#FEFECE" filter="url(#frvnd781bvucx)" height="33.9688" rx="12.5" ry="12.5" style="stroke: #A80036; stroke-width: 1.5;" width="92" x="316" y="667.625"/><text fill="#000000" font-family="sans-serif" font-size="12" lengthAdjust="spacingAndGlyphs" textLength="72" x="326" y="688.7637">应用配置管理</text><path d="M266,738.5781 L276,738.5781 C291,738.5781 291,684.6094 306,684.6094 L316,684.6094 " fill="none" style="stroke: #A80036; stroke-width: 1.0;"/><rect fill="#FEFECE" filter="url(#frvnd781bvucx)" height="33.9688" rx="12.5" ry="12.5" style="stroke: #A80036; stroke-width: 1.5;" width="162" x="316" y="721.5938"/><text fill="#000000" font-family="sans-serif" font-size="12" lengthAdjust="spacingAndGlyphs" textLength="142" x="326" y="742.7324">应用存储&amp;可持久化存储卷</text><path d="M266,738.5781 L276,738.5781 C291,738.5781 291,738.5781 306,738.5781 L316,738.5781 " fill="none" style="stroke: #A80036; stroke-width: 1.0;"/><rect fill="#FEFECE" filter="url(#frvnd781bvucx)" height="33.9688" rx="12.5" ry="12.5" style="stroke: #A80036; stroke-width: 1.5;" width="126" x="316" y="775.5625"/><text fill="#000000" font-family="sans-serif" font-size="12" lengthAdjust="spacingAndGlyphs" textLength="106" x="326" y="796.7012">应用监控&amp;可观测性</text><path d="M266,738.5781 L276,738.5781 C291,738.5781 291,792.5469 306,792.5469 L316,792.5469 " fill="none" style="stroke: #A80036; stroke-width: 1.0;"/><rect fill="#FEFECE" filter="url(#frvnd781bvucx)" height="33.9688" rx="12.5" ry="12.5" style="stroke: #A80036; stroke-width: 1.5;" width="102" x="316" y="829.5313"/><text fill="#000000" font-family="sans-serif" font-size="12" lengthAdjust="spacingAndGlyphs" textLength="82" x="326" y="850.6699">应用服务&amp;网络</text><path d="M266,738.5781 L276,738.5781 C291,738.5781 291,846.5156 306,846.5156 L316,846.5156 " fill="none" style="stroke: #A80036; stroke-width: 1.0;"/><path d="M172,1008.4219 L182,1008.4219 C197,1008.4219 197,738.5781 212,738.5781 L222,738.5781 " fill="none" style="stroke: #A80036; stroke-width: 1.0;"/><rect fill="#FEFECE" filter="url(#frvnd781bvucx)" height="33.9688" rx="12.5" ry="12.5" style="stroke: #A80036; stroke-width: 1.5;" width="44" x="222" y="1126.3594"/><text fill="#000000" font-family="sans-serif" font-size="12" lengthAdjust="spacingAndGlyphs" textLength="24" x="232" y="1147.498">进阶</text><rect fill="#FEFECE" filter="url(#frvnd781bvucx)" height="33.9688" rx="12.5" ry="12.5" style="stroke: #A80036; stroke-width: 1.5;" width="96" x="316" y="883.5"/><text fill="#000000" font-family="sans-serif" font-size="12" lengthAdjust="spacingAndGlyphs" textLength="76" x="326" y="904.6387">深入理解etcd</text><path d="M266,1143.3438 L276,1143.3438 C291,1143.3438 291,900.4844 306,900.4844 L316,900.4844 " fill="none" style="stroke: #A80036; stroke-width: 1.0;"/><rect fill="#FEFECE" filter="url(#frvnd781bvucx)" height="33.9688" rx="12.5" ry="12.5" style="stroke: #A80036; stroke-width: 1.5;" width="102" x="316" y="937.4688"/><text fill="#000000" font-family="sans-serif" font-size="12" lengthAdjust="spacingAndGlyphs" textLength="82" x="326" y="958.6074">调试&amp;资源管理</text><path d="M266,1143.3438 L276,1143.3438 C291,1143.3438 291,954.4531 306,954.4531 L316,954.4531 " fill="none" style="stroke: #A80036; stroke-width: 1.0;"/><rect fill="#FEFECE" filter="url(#frvnd781bvucx)" height="33.9688" rx="12.5" ry="12.5" style="stroke: #A80036; stroke-width: 1.5;" width="115" x="316" y="991.4375"/><text fill="#000000" font-family="sans-serif" font-size="12" lengthAdjust="spacingAndGlyphs" textLength="95" x="326" y="1012.5762">CPU&amp;硬件加速器</text><path d="M266,1143.3438 L276,1143.3438 C291,1143.3438 291,1008.4219 306,1008.4219 L316,1008.4219 " fill="none" style="stroke: #A80036; stroke-width: 1.0;"/><rect fill="#FEFECE" filter="url(#frvnd781bvucx)" height="33.9688" rx="12.5" ry="12.5" style="stroke: #A80036; stroke-width: 1.5;" width="87" x="316" y="1045.4063"/><text fill="#000000" font-family="sans-serif" font-size="12" lengthAdjust="spacingAndGlyphs" textLength="67" x="326" y="1066.5449">API编程范式</text><path d="M266,1143.3438 L276,1143.3438 C291,1143.3438 291,1062.3906 306,1062.3906 L316,1062.3906 " fill="none" style="stroke: #A80036; stroke-width: 1.0;"/><rect fill="#FEFECE" filter="url(#frvnd781bvucx)" height="33.9688" rx="12.5" ry="12.5" style="stroke: #A80036; stroke-width: 1.5;" width="90" x="316" y="1099.375"/><text fill="#000000" font-family="sans-serif" font-size="12" lengthAdjust="spacingAndGlyphs" textLength="70" x="326" y="1120.5137">k8s网络模型</text><path d="M266,1143.3438 L276,1143.3438 C291,1143.3438 291,1116.3594 306,1116.3594 L316,1116.3594 " fill="none" style="stroke: #A80036; stroke-width: 1.0;"/><rect fill="#FEFECE" filter="url(#frvnd781bvucx)" height="33.9688" rx="12.5" ry="12.5" style="stroke: #A80036; stroke-width: 1.5;" width="118" x="316" y="1153.3438"/><text fill="#000000" font-family="sans-serif" font-size="12" lengthAdjust="spacingAndGlyphs" textLength="98" x="326" y="1174.4824">CNI&amp;CNI网络插件</text><path d="M266,1143.3438 L276,1143.3438 C291,1143.3438 291,1170.3281 306,1170.3281 L316,1170.3281 " fill="none" style="stroke: #A80036; stroke-width: 1.0;"/><rect fill="#FEFECE" filter="url(#frvnd781bvucx)" height="33.9688" rx="12.5" ry="12.5" style="stroke: #A80036; stroke-width: 1.5;" width="126" x="316" y="1207.3125"/><text fill="#000000" font-family="sans-serif" font-size="12" lengthAdjust="spacingAndGlyphs" textLength="106" x="326" y="1228.4512">集群安装配置&amp;验证</text><path d="M266,1143.3438 L276,1143.3438 C291,1143.3438 291,1224.2969 306,1224.2969 L316,1224.2969 " fill="none" style="stroke: #A80036; stroke-width: 1.0;"/><rect fill="#FEFECE" filter="url(#frvnd781bvucx)" height="33.9688" rx="12.5" ry="12.5" style="stroke: #A80036; stroke-width: 1.5;" width="102" x="316" y="1261.2813"/><text fill="#000000" font-family="sans-serif" font-size="12" lengthAdjust="spacingAndGlyphs" textLength="82" x="326" y="1282.4199">容器&amp;集群安全</text><path d="M266,1143.3438 L276,1143.3438 C291,1143.3438 291,1278.2656 306,1278.2656 L316,1278.2656 " fill="none" style="stroke: #A80036; stroke-width: 1.0;"/><rect fill="#FEFECE" filter="url(#frvnd781bvucx)" height="33.9688" rx="12.5" ry="12.5" style="stroke: #A80036; stroke-width: 1.5;" width="97" x="316" y="1315.25"/><text fill="#000000" font-family="sans-serif" font-size="12" lengthAdjust="spacingAndGlyphs" textLength="77" x="326" y="1336.3887">CRI&amp;安全容器</text><path d="M266,1143.3438 L276,1143.3438 C291,1143.3438 291,1332.2344 306,1332.2344 L316,1332.2344 " fill="none" style="stroke: #A80036; stroke-width: 1.0;"/><rect fill="#FEFECE" filter="url(#frvnd781bvucx)" height="33.9688" rx="12.5" ry="12.5" style="stroke: #A80036; stroke-width: 1.5;" width="92" x="316" y="1369.2188"/><text fill="#000000" font-family="sans-serif" font-size="12" lengthAdjust="spacingAndGlyphs" textLength="72" x="326" y="1390.3574">多容器运行时</text><path d="M266,1143.3438 L276,1143.3438 C291,1143.3438 291,1386.2031 306,1386.2031 L316,1386.2031 " fill="none" style="stroke: #A80036; stroke-width: 1.0;"/><path d="M172,1008.4219 L182,1008.4219 C197,1008.4219 197,1143.3438 212,1143.3438 L222,1143.3438 " fill="none" style="stroke: #A80036; stroke-width: 1.0;"/><path d="M54,1197.3125 L64,1197.3125 C79,1197.3125 79,1008.4219 94,1008.4219 L104,1008.4219 " fill="none" style="stroke: #A80036; stroke-width: 1.0;"/><rect fill="#FEFECE" filter="url(#frvnd781bvucx)" height="33.9688" rx="12.5" ry="12.5" style="stroke: #A80036; stroke-width: 1.5;" width="138" x="104" y="1881.9219"/><text fill="#000000" font-family="sans-serif" font-size="12" lengthAdjust="spacingAndGlyphs" textLength="118" x="114" y="1903.0605">云原生定义&amp;技术要点</text><rect fill="#FEFECE" filter="url(#frvnd781bvucx)" height="33.9688" rx="12.5" ry="12.5" style="stroke: #A80036; stroke-width: 1.5;" width="44" x="292" y="1477.1563"/><text fill="#000000" font-family="sans-serif" font-size="12" lengthAdjust="spacingAndGlyphs" textLength="24" x="302" y="1498.2949">定义</text><rect fill="#FEFECE" filter="url(#frvnd781bvucx)" height="33.9688" rx="12.5" ry="12.5" style="stroke: #A80036; stroke-width: 1.5;" width="44" x="386" y="1423.1875"/><text fill="#000000" font-family="sans-serif" font-size="12" lengthAdjust="spacingAndGlyphs" textLength="24" x="396" y="1444.3262">敏捷</text><path d="M336,1494.1406 L346,1494.1406 C361,1494.1406 361,1440.1719 376,1440.1719 L386,1440.1719 " fill="none" style="stroke: #A80036; stroke-width: 1.0;"/><rect fill="#FEFECE" filter="url(#frvnd781bvucx)" height="33.9688" rx="12.5" ry="12.5" style="stroke: #A80036; stroke-width: 1.5;" width="102" x="386" y="1477.1563"/><text fill="#000000" font-family="sans-serif" font-size="12" lengthAdjust="spacingAndGlyphs" textLength="82" x="396" y="1498.2949">可扩展&amp;可复制</text><path d="M336,1494.1406 L346,1494.1406 C361,1494.1406 361,1494.1406 376,1494.1406 L386,1494.1406 " fill="none" style="stroke: #A80036; stroke-width: 1.0;"/><rect fill="#FEFECE" filter="url(#frvnd781bvucx)" height="33.9688" rx="12.5" ry="12.5" style="stroke: #A80036; stroke-width: 1.5;" width="208" x="386" y="1531.125"/><text fill="#000000" font-family="sans-serif" font-size="12" lengthAdjust="spacingAndGlyphs" textLength="188" x="396" y="1552.2637">愿景: 软件「生在云上、长在云上」</text><path d="M336,1494.1406 L346,1494.1406 C361,1494.1406 361,1548.1094 376,1548.1094 L386,1548.1094 " fill="none" style="stroke: #A80036; stroke-width: 1.0;"/><path d="M242,1898.9063 L252,1898.9063 C267,1898.9063 267,1494.1406 282,1494.1406 L292,1494.1406 " fill="none" style="stroke: #A80036; stroke-width: 1.0;"/><rect fill="#FEFECE" filter="url(#frvnd781bvucx)" height="33.9688" rx="12.5" ry="12.5" style="stroke: #A80036; stroke-width: 1.5;" width="68" x="292" y="1720.0156"/><text fill="#000000" font-family="sans-serif" font-size="12" lengthAdjust="spacingAndGlyphs" textLength="48" x="302" y="1741.1543">技术范畴</text><rect fill="#FEFECE" filter="url(#frvnd781bvucx)" height="33.9688" rx="12.5" ry="12.5" style="stroke: #A80036; stroke-width: 1.5;" width="138" x="410" y="1585.0938"/><text fill="#000000" font-family="sans-serif" font-size="12" lengthAdjust="spacingAndGlyphs" textLength="118" x="420" y="1606.2324">云应用定义&amp;开发流程</text><path d="M360,1737 L370,1737 C385,1737 385,1602.0781 400,1602.0781 L410,1602.0781 " fill="none" style="stroke: #A80036; stroke-width: 1.0;"/><rect fill="#FEFECE" filter="url(#frvnd781bvucx)" height="33.9688" rx="12.5" ry="12.5" style="stroke: #A80036; stroke-width: 1.5;" width="114" x="410" y="1639.0625"/><text fill="#000000" font-family="sans-serif" font-size="12" lengthAdjust="spacingAndGlyphs" textLength="94" x="420" y="1660.2012">云应用编排&amp;管理</text><path d="M360,1737 L370,1737 C385,1737 385,1656.0469 400,1656.0469 L410,1656.0469 " fill="none" style="stroke: #A80036; stroke-width: 1.0;"/><rect fill="#FEFECE" filter="url(#frvnd781bvucx)" height="33.9688" rx="12.5" ry="12.5" style="stroke: #A80036; stroke-width: 1.5;" width="102" x="410" y="1693.0313"/><text fill="#000000" font-family="sans-serif" font-size="12" lengthAdjust="spacingAndGlyphs" textLength="82" x="420" y="1714.1699">监控&amp;可观测性</text><path d="M360,1737 L370,1737 C385,1737 385,1710.0156 400,1710.0156 L410,1710.0156 " fill="none" style="stroke: #A80036; stroke-width: 1.0;"/><rect fill="#FEFECE" filter="url(#frvnd781bvucx)" height="33.9688" rx="12.5" ry="12.5" style="stroke: #A80036; stroke-width: 1.5;" width="104" x="410" y="1747"/><text fill="#000000" font-family="sans-serif" font-size="12" lengthAdjust="spacingAndGlyphs" textLength="84" x="420" y="1768.1387">云原生底层技术</text><path d="M360,1737 L370,1737 C385,1737 385,1763.9844 400,1763.9844 L410,1763.9844 " fill="none" style="stroke: #A80036; stroke-width: 1.0;"/><rect fill="#FEFECE" filter="url(#frvnd781bvucx)" height="33.9688" rx="12.5" ry="12.5" style="stroke: #A80036; stroke-width: 1.5;" width="92" x="410" y="1800.9688"/><text fill="#000000" font-family="sans-serif" font-size="12" lengthAdjust="spacingAndGlyphs" textLength="72" x="420" y="1822.1074">云原生工具集</text><path d="M360,1737 L370,1737 C385,1737 385,1817.9531 400,1817.9531 L410,1817.9531 " fill="none" style="stroke: #A80036; stroke-width: 1.0;"/><rect fill="#FEFECE" filter="url(#frvnd781bvucx)" height="33.9688" rx="12.5" ry="12.5" style="stroke: #A80036; stroke-width: 1.5;" width="85" x="410" y="1854.9375"/><text fill="#000000" font-family="sans-serif" font-size="12" lengthAdjust="spacingAndGlyphs" textLength="65" x="420" y="1876.0762">Serverless</text><path d="M360,1737 L370,1737 C385,1737 385,1871.9219 400,1871.9219 L410,1871.9219 " fill="none" style="stroke: #A80036; stroke-width: 1.0;"/><path d="M242,1898.9063 L252,1898.9063 C267,1898.9063 267,1737 282,1737 L292,1737 " fill="none" style="stroke: #A80036; stroke-width: 1.0;"/><rect fill="#FEFECE" filter="url(#frvnd781bvucx)" height="33.9688" rx="12.5" ry="12.5" style="stroke: #A80036; stroke-width: 1.5;" width="92" x="292" y="1935.8906"/><text fill="#000000" font-family="sans-serif" font-size="12" lengthAdjust="spacingAndGlyphs" textLength="72" x="302" y="1957.0293">两个基础理论</text><rect fill="#FEFECE" filter="url(#frvnd781bvucx)" height="33.9688" rx="12.5" ry="12.5" style="stroke: #A80036; stroke-width: 1.5;" width="104" x="434" y="1908.9063"/><text fill="#000000" font-family="sans-serif" font-size="12" lengthAdjust="spacingAndGlyphs" textLength="84" x="444" y="1930.0449">不可变基础设施</text><rect fill="#FEFECE" filter="url(#frvnd781bvucx)" height="33.9688" rx="12.5" ry="12.5" style="stroke: #A80036; stroke-width: 1.5;" width="68" x="588" y="1908.9063"/><text fill="#000000" font-family="sans-serif" font-size="12" lengthAdjust="spacingAndGlyphs" textLength="48" x="598" y="1930.0449">容器镜像</text><path d="M538,1925.8906 L548,1925.8906 C563,1925.8906 563,1925.8906 578,1925.8906 L588,1925.8906 " fill="none" style="stroke: #A80036; stroke-width: 1.0;"/><path d="M384,1952.875 L394,1952.875 C409,1952.875 409,1925.8906 424,1925.8906 L434,1925.8906 " fill="none" style="stroke: #A80036; stroke-width: 1.0;"/><rect fill="#FEFECE" filter="url(#frvnd781bvucx)" height="33.9688" rx="12.5" ry="12.5" style="stroke: #A80036; stroke-width: 1.5;" width="80" x="434" y="1962.875"/><text fill="#000000" font-family="sans-serif" font-size="12" lengthAdjust="spacingAndGlyphs" textLength="60" x="444" y="1984.0137">云应用编排</text><rect fill="#FEFECE" filter="url(#frvnd781bvucx)" height="33.9688" rx="12.5" ry="12.5" style="stroke: #A80036; stroke-width: 1.5;" width="128" x="564" y="1962.875"/><text fill="#000000" font-family="sans-serif" font-size="12" lengthAdjust="spacingAndGlyphs" textLength="108" x="574" y="1984.0137">实现：容器设计模式</text><path d="M514,1979.8594 L524,1979.8594 C539,1979.8594 539,1979.8594 554,1979.8594 L564,1979.8594 " fill="none" style="stroke: #A80036; stroke-width: 1.0;"/><path d="M384,1952.875 L394,1952.875 C409,1952.875 409,1979.8594 424,1979.8594 L434,1979.8594 " fill="none" style="stroke: #A80036; stroke-width: 1.0;"/><path d="M242,1898.9063 L252,1898.9063 C267,1898.9063 267,1952.875 282,1952.875 L292,1952.875 " fill="none" style="stroke: #A80036; stroke-width: 1.0;"/><rect fill="#FEFECE" filter="url(#frvnd781bvucx)" height="33.9688" rx="12.5" ry="12.5" style="stroke: #A80036; stroke-width: 1.5;" width="128" x="292" y="2178.75"/><text fill="#000000" font-family="sans-serif" font-size="12" lengthAdjust="spacingAndGlyphs" textLength="108" x="302" y="2199.8887">向云原生演进的意义</text><rect fill="#FEFECE" filter="url(#frvnd781bvucx)" height="33.9688" rx="12.5" ry="12.5" style="stroke: #A80036; stroke-width: 1.5;" width="162" x="470" y="2070.8125"/><text fill="#000000" font-family="sans-serif" font-size="12" lengthAdjust="spacingAndGlyphs" textLength="142" x="480" y="2091.9512">基础设施的一致性&amp;可靠性</text><rect fill="#FEFECE" filter="url(#frvnd781bvucx)" height="33.9688" rx="12.5" ry="12.5" style="stroke: #A80036; stroke-width: 1.5;" width="68" x="682" y="2016.8438"/><text fill="#000000" font-family="sans-serif" font-size="12" lengthAdjust="spacingAndGlyphs" textLength="48" x="692" y="2037.9824">容器镜像</text><path d="M632,2087.7969 L642,2087.7969 C657,2087.7969 657,2033.8281 672,2033.8281 L682,2033.8281 " fill="none" style="stroke: #A80036; stroke-width: 1.0;"/><rect fill="#FEFECE" filter="url(#frvnd781bvucx)" height="33.9688" rx="12.5" ry="12.5" style="stroke: #A80036; stroke-width: 1.5;" width="56" x="682" y="2070.8125"/><text fill="#000000" font-family="sans-serif" font-size="12" lengthAdjust="spacingAndGlyphs" textLength="36" x="692" y="2091.9512">自包含</text><path d="M632,2087.7969 L642,2087.7969 C657,2087.7969 657,2087.7969 672,2087.7969 L682,2087.7969 " fill="none" style="stroke: #A80036; stroke-width: 1.0;"/><rect fill="#FEFECE" filter="url(#frvnd781bvucx)" height="33.9688" rx="12.5" ry="12.5" style="stroke: #A80036; stroke-width: 1.5;" width="56" x="682" y="2124.7813"/><text fill="#000000" font-family="sans-serif" font-size="12" lengthAdjust="spacingAndGlyphs" textLength="36" x="692" y="2145.9199">可漂移</text><path d="M632,2087.7969 L642,2087.7969 C657,2087.7969 657,2141.7656 672,2141.7656 L682,2141.7656 " fill="none" style="stroke: #A80036; stroke-width: 1.0;"/><path d="M420,2195.7344 L430,2195.7344 C445,2195.7344 445,2087.7969 460,2087.7969 L470,2087.7969 " fill="none" style="stroke: #A80036; stroke-width: 1.0;"/><rect fill="#FEFECE" filter="url(#frvnd781bvucx)" height="33.9688" rx="12.5" ry="12.5" style="stroke: #A80036; stroke-width: 1.5;" width="150" x="470" y="2259.7031"/><text fill="#000000" font-family="sans-serif" font-size="12" lengthAdjust="spacingAndGlyphs" textLength="130" x="480" y="2280.8418">简单可预测的部署&amp;运维</text><rect fill="#FEFECE" filter="url(#frvnd781bvucx)" height="33.9688" rx="12.5" ry="12.5" style="stroke: #A80036; stroke-width: 1.5;" width="102" x="670" y="2178.75"/><text fill="#000000" font-family="sans-serif" font-size="12" lengthAdjust="spacingAndGlyphs" textLength="82" x="680" y="2199.8887">自描述&amp;自运维</text><path d="M620,2276.6875 L630,2276.6875 C645,2276.6875 645,2195.7344 660,2195.7344 L670,2195.7344 " fill="none" style="stroke: #A80036; stroke-width: 1.0;"/><rect fill="#FEFECE" filter="url(#frvnd781bvucx)" height="33.9688" rx="12.5" ry="12.5" style="stroke: #A80036; stroke-width: 1.5;" width="80" x="670" y="2232.7188"/><text fill="#000000" font-family="sans-serif" font-size="12" lengthAdjust="spacingAndGlyphs" textLength="60" x="680" y="2253.8574">流程自动化</text><path d="M620,2276.6875 L630,2276.6875 C645,2276.6875 645,2249.7031 660,2249.7031 L670,2249.7031 " fill="none" style="stroke: #A80036; stroke-width: 1.0;"/><rect fill="#FEFECE" filter="url(#frvnd781bvucx)" height="33.9688" rx="12.5" ry="12.5" style="stroke: #A80036; stroke-width: 1.5;" width="92" x="670" y="2286.6875"/><text fill="#000000" font-family="sans-serif" font-size="12" lengthAdjust="spacingAndGlyphs" textLength="72" x="680" y="2307.8262">容易水平扩展</text><path d="M620,2276.6875 L630,2276.6875 C645,2276.6875 645,2303.6719 660,2303.6719 L670,2303.6719 " fill="none" style="stroke: #A80036; stroke-width: 1.0;"/><rect fill="#FEFECE" filter="url(#frvnd781bvucx)" height="33.9688" rx="12.5" ry="12.5" style="stroke: #A80036; stroke-width: 1.5;" width="198" x="670" y="2340.6563"/><text fill="#000000" font-family="sans-serif" font-size="12" lengthAdjust="spacingAndGlyphs" textLength="178" x="680" y="2361.7949">可快速复制的管控系统&amp;支撑组件</text><path d="M620,2276.6875 L630,2276.6875 C645,2276.6875 645,2357.6406 660,2357.6406 L670,2357.6406 " fill="none" style="stroke: #A80036; stroke-width: 1.0;"/><path d="M420,2195.7344 L430,2195.7344 C445,2195.7344 445,2276.6875 460,2276.6875 L470,2276.6875 " fill="none" style="stroke: #A80036; stroke-width: 1.0;"/><path d="M242,1898.9063 L252,1898.9063 C267,1898.9063 267,2195.7344 282,2195.7344 L292,2195.7344 " fill="none" style="stroke: #A80036; stroke-width: 1.0;"/><path d="M54,1197.3125 L64,1197.3125 C79,1197.3125 79,1898.9063 94,1898.9063 L104,1898.9063 " fill="none" style="stroke: #A80036; stroke-width: 1.0;"/><!--
--></g></svg>