<?xml version="1.0" encoding="UTF-8" standalone="no"?><svg xmlns="http://www.w3.org/2000/svg" xmlns:xlink="http://www.w3.org/1999/xlink" contentScriptType="application/ecmascript" contentStyleType="text/css" height="874px" preserveAspectRatio="none" style="width:839px;height:874px;" version="1.1" viewBox="0 0 839 874" width="839px" zoomAndPan="magnify"><defs><filter height="300%" id="f7cjhreb8gtup" width="300%" x="-1" y="-1"><feGaussianBlur result="blurOut" stdDeviation="2.0"/><feColorMatrix in="blurOut" result="blurOut2" type="matrix" values="0 0 0 0 0 0 0 0 0 0 0 0 0 0 0 0 0 0 .4 0"/><feOffset dx="4.0" dy="4.0" in="blurOut2" result="blurOut3"/><feBlend in="SourceGraphic" in2="blurOut3" mode="normal"/></filter></defs><g><rect fill="#FEFECE" filter="url(#f7cjhreb8gtup)" height="33.9688" rx="12.5" ry="12.5" style="stroke: #A80036; stroke-width: 1.5;" width="44" x="10" y="424.7656"/><text fill="#000000" font-family="sans-serif" font-size="12" lengthAdjust="spacingAndGlyphs" textLength="24" x="20" y="445.9043">平台</text><rect fill="#FEFECE" filter="url(#f7cjhreb8gtup)" height="33.9688" rx="12.5" ry="12.5" style="stroke: #A80036; stroke-width: 1.5;" width="128" x="104" y="154.9219"/><text fill="#000000" font-family="sans-serif" font-size="12" lengthAdjust="spacingAndGlyphs" textLength="108" x="114" y="176.0605">平台型团队核心价值</text><rect fill="#FEFECE" filter="url(#f7cjhreb8gtup)" height="33.9688" rx="12.5" ry="12.5" style="stroke: #A80036; stroke-width: 1.5;" width="176" x="282" y="20"/><text fill="#000000" font-family="sans-serif" font-size="12" lengthAdjust="spacingAndGlyphs" textLength="156" x="292" y="41.1387">1.对于重复的事情要做精做专</text><path d="M232,171.9063 L242,171.9063 C257,171.9063 257,36.9844 272,36.9844 L282,36.9844 " fill="none" style="stroke: #A80036; stroke-width: 1.0;"/><rect fill="#FEFECE" filter="url(#f7cjhreb8gtup)" height="33.9688" rx="12.5" ry="12.5" style="stroke: #A80036; stroke-width: 1.5;" width="68" x="282" y="127.9375"/><text fill="#000000" font-family="sans-serif" font-size="12" lengthAdjust="spacingAndGlyphs" textLength="48" x="292" y="149.0762">2.统一化</text><rect fill="#FEFECE" filter="url(#f7cjhreb8gtup)" height="33.9688" rx="12.5" ry="12.5" style="stroke: #A80036; stroke-width: 1.5;" width="104" x="400" y="73.9688"/><text fill="#000000" font-family="sans-serif" font-size="12" lengthAdjust="spacingAndGlyphs" textLength="84" x="410" y="95.1074">可以推一些标准</text><path d="M350,144.9219 L360,144.9219 C375,144.9219 375,90.9531 390,90.9531 L400,90.9531 " fill="none" style="stroke: #A80036; stroke-width: 1.0;"/><rect fill="#FEFECE" filter="url(#f7cjhreb8gtup)" height="33.9688" rx="12.5" ry="12.5" style="stroke: #A80036; stroke-width: 1.5;" width="140" x="400" y="127.9375"/><text fill="#000000" font-family="sans-serif" font-size="12" lengthAdjust="spacingAndGlyphs" textLength="120" x="410" y="149.0762">推一些数据管理的模式</text><path d="M350,144.9219 L360,144.9219 C375,144.9219 375,144.9219 390,144.9219 L400,144.9219 " fill="none" style="stroke: #A80036; stroke-width: 1.0;"/><rect fill="#FEFECE" filter="url(#f7cjhreb8gtup)" height="33.9688" rx="12.5" ry="12.5" style="stroke: #A80036; stroke-width: 1.5;" width="152" x="400" y="181.9063"/><text fill="#000000" font-family="sans-serif" font-size="12" lengthAdjust="spacingAndGlyphs" textLength="132" x="410" y="203.0449">减少业务之间的对接成本</text><path d="M350,144.9219 L360,144.9219 C375,144.9219 375,198.8906 390,198.8906 L400,198.8906 " fill="none" style="stroke: #A80036; stroke-width: 1.0;"/><path d="M232,171.9063 L242,171.9063 C257,171.9063 257,144.9219 272,144.9219 L282,144.9219 " fill="none" style="stroke: #A80036; stroke-width: 1.0;"/><rect fill="#FEFECE" filter="url(#f7cjhreb8gtup)" height="33.9688" rx="12.5" ry="12.5" style="stroke: #A80036; stroke-width: 1.5;" width="147" x="282" y="262.8594"/><text fill="#000000" font-family="sans-serif" font-size="12" lengthAdjust="spacingAndGlyphs" textLength="127" x="292" y="283.998">3.为业务整体效率负责&#128293;</text><rect fill="#FEFECE" filter="url(#f7cjhreb8gtup)" height="33.9688" rx="12.5" ry="12.5" style="stroke: #A80036; stroke-width: 1.5;" width="296" x="479" y="235.875"/><text fill="#000000" font-family="sans-serif" font-size="12" lengthAdjust="spacingAndGlyphs" textLength="276" x="489" y="257.0137">包括开发效率、迭代效率、维护运维数据流程的效率</text><path d="M429,279.8438 L439,279.8438 C454,279.8438 454,252.8594 469,252.8594 L479,252.8594 " fill="none" style="stroke: #A80036; stroke-width: 1.0;"/><rect fill="#FEFECE" filter="url(#f7cjhreb8gtup)" height="33.9688" rx="12.5" ry="12.5" style="stroke: #A80036; stroke-width: 1.5;" width="152" x="479" y="289.8438"/><text fill="#000000" font-family="sans-serif" font-size="12" lengthAdjust="spacingAndGlyphs" textLength="132" x="489" y="310.9824">还有整个资源利用的效率</text><path d="M429,279.8438 L439,279.8438 C454,279.8438 454,306.8281 469,306.8281 L479,306.8281 " fill="none" style="stroke: #A80036; stroke-width: 1.0;"/><path d="M232,171.9063 L242,171.9063 C257,171.9063 257,279.8438 272,279.8438 L282,279.8438 " fill="none" style="stroke: #A80036; stroke-width: 1.0;"/><path d="M54,441.75 L64,441.75 C79,441.75 79,171.9063 94,171.9063 L104,171.9063 " fill="none" style="stroke: #A80036; stroke-width: 1.0;"/><rect fill="#FEFECE" filter="url(#f7cjhreb8gtup)" height="33.9688" rx="12.5" ry="12.5" style="stroke: #A80036; stroke-width: 1.5;" width="68" x="104" y="586.6719"/><text fill="#000000" font-family="sans-serif" font-size="12" lengthAdjust="spacingAndGlyphs" textLength="48" x="114" y="607.8105">好的平台</text><rect fill="#FEFECE" filter="url(#f7cjhreb8gtup)" height="33.9688" rx="12.5" ry="12.5" style="stroke: #A80036; stroke-width: 1.5;" width="104" x="222" y="343.8125"/><text fill="#000000" font-family="sans-serif" font-size="12" lengthAdjust="spacingAndGlyphs" textLength="84" x="232" y="364.9512">1.首先支持业务</text><rect fill="#FEFECE" filter="url(#f7cjhreb8gtup)" height="33.9688" rx="12.5" ry="12.5" style="stroke: #A80036; stroke-width: 1.5;" width="140" x="376" y="343.8125"/><text fill="#000000" font-family="sans-serif" font-size="12" lengthAdjust="spacingAndGlyphs" textLength="120" x="386" y="364.9512">没有业务平台没法发展</text><path d="M326,360.7969 L336,360.7969 C351,360.7969 351,360.7969 366,360.7969 L376,360.7969 " fill="none" style="stroke: #A80036; stroke-width: 1.0;"/><path d="M172,603.6563 L182,603.6563 C197,603.6563 197,360.7969 212,360.7969 L222,360.7969 " fill="none" style="stroke: #A80036; stroke-width: 1.0;"/><rect fill="#FEFECE" filter="url(#f7cjhreb8gtup)" height="33.9688" rx="12.5" ry="12.5" style="stroke: #A80036; stroke-width: 1.5;" width="248" x="222" y="478.7344"/><text fill="#000000" font-family="sans-serif" font-size="12" lengthAdjust="spacingAndGlyphs" textLength="228" x="232" y="499.873">2.第二是与先进业务同行，辅助并沉淀技术</text><rect fill="#FEFECE" filter="url(#f7cjhreb8gtup)" height="33.9688" rx="12.5" ry="12.5" style="stroke: #A80036; stroke-width: 1.5;" width="176" x="520" y="397.7813"/><text fill="#000000" font-family="sans-serif" font-size="12" lengthAdjust="spacingAndGlyphs" textLength="156" x="530" y="418.9199">平台化的公司，有多个业务线</text><path d="M470,495.7188 L480,495.7188 C495,495.7188 495,414.7656 510,414.7656 L520,414.7656 " fill="none" style="stroke: #A80036; stroke-width: 1.0;"/><rect fill="#FEFECE" filter="url(#f7cjhreb8gtup)" height="33.9688" rx="12.5" ry="12.5" style="stroke: #A80036; stroke-width: 1.5;" width="308" x="520" y="451.75"/><text fill="#000000" font-family="sans-serif" font-size="12" lengthAdjust="spacingAndGlyphs" textLength="288" x="530" y="472.8887">各业务线已独立的情况下，必定有一些业务线是先行者</text><path d="M470,495.7188 L480,495.7188 C495,495.7188 495,468.7344 510,468.7344 L520,468.7344 " fill="none" style="stroke: #A80036; stroke-width: 1.0;"/><rect fill="#FEFECE" filter="url(#f7cjhreb8gtup)" height="33.9688" rx="12.5" ry="12.5" style="stroke: #A80036; stroke-width: 1.5;" width="200" x="520" y="505.7188"/><text fill="#000000" font-family="sans-serif" font-size="12" lengthAdjust="spacingAndGlyphs" textLength="180" x="530" y="526.8574">他们有很强的开发能力、调研能力</text><path d="M470,495.7188 L480,495.7188 C495,495.7188 495,522.7031 510,522.7031 L520,522.7031 " fill="none" style="stroke: #A80036; stroke-width: 1.0;"/><rect fill="#FEFECE" filter="url(#f7cjhreb8gtup)" height="33.9688" rx="12.5" ry="12.5" style="stroke: #A80036; stroke-width: 1.5;" width="212" x="520" y="559.6875"/><text fill="#000000" font-family="sans-serif" font-size="12" lengthAdjust="spacingAndGlyphs" textLength="192" x="530" y="580.8262">我们的目标是跟这些先行业务线同行</text><path d="M470,495.7188 L480,495.7188 C495,495.7188 495,576.6719 510,576.6719 L520,576.6719 " fill="none" style="stroke: #A80036; stroke-width: 1.0;"/><path d="M172,603.6563 L182,603.6563 C197,603.6563 197,495.7188 212,495.7188 L222,495.7188 " fill="none" style="stroke: #A80036; stroke-width: 1.0;"/><rect fill="#FEFECE" filter="url(#f7cjhreb8gtup)" height="33.9688" rx="12.5" ry="12.5" style="stroke: #A80036; stroke-width: 1.5;" width="236" x="222" y="721.5938"/><text fill="#000000" font-family="sans-serif" font-size="12" lengthAdjust="spacingAndGlyphs" textLength="216" x="232" y="742.7324">3.设立规范，用积累的技术支撑后发业务</text><rect fill="#FEFECE" filter="url(#f7cjhreb8gtup)" height="33.9688" rx="12.5" ry="12.5" style="stroke: #A80036; stroke-width: 1.5;" width="296" x="508" y="613.6563"/><text fill="#000000" font-family="sans-serif" font-size="12" lengthAdjust="spacingAndGlyphs" textLength="276" x="518" y="634.7949">与业务一起前进中，把经验、技术、方案、规范沉淀</text><path d="M458,738.5781 L468,738.5781 C483,738.5781 483,630.6406 498,630.6406 L508,630.6406 " fill="none" style="stroke: #A80036; stroke-width: 1.0;"/><rect fill="#FEFECE" filter="url(#f7cjhreb8gtup)" height="33.9688" rx="12.5" ry="12.5" style="stroke: #A80036; stroke-width: 1.5;" width="176" x="508" y="667.625"/><text fill="#000000" font-family="sans-serif" font-size="12" lengthAdjust="spacingAndGlyphs" textLength="156" x="518" y="688.7637">对发展慢的业务线，设置规范</text><path d="M458,738.5781 L468,738.5781 C483,738.5781 483,684.6094 498,684.6094 L508,684.6094 " fill="none" style="stroke: #A80036; stroke-width: 1.0;"/><rect fill="#FEFECE" filter="url(#f7cjhreb8gtup)" height="33.9688" rx="12.5" ry="12.5" style="stroke: #A80036; stroke-width: 1.5;" width="236" x="508" y="721.5938"/><text fill="#000000" font-family="sans-serif" font-size="12" lengthAdjust="spacingAndGlyphs" textLength="216" x="518" y="742.7324">跟据先行业务线积累去支撑后续的业务线</text><path d="M458,738.5781 L468,738.5781 C483,738.5781 483,738.5781 498,738.5781 L508,738.5781 " fill="none" style="stroke: #A80036; stroke-width: 1.0;"/><rect fill="#FEFECE" filter="url(#f7cjhreb8gtup)" height="33.9688" rx="12.5" ry="12.5" style="stroke: #A80036; stroke-width: 1.5;" width="176" x="508" y="775.5625"/><text fill="#000000" font-family="sans-serif" font-size="12" lengthAdjust="spacingAndGlyphs" textLength="156" x="518" y="796.7012">功能开发的时候也可以借助。</text><path d="M458,738.5781 L468,738.5781 C483,738.5781 483,792.5469 498,792.5469 L508,792.5469 " fill="none" style="stroke: #A80036; stroke-width: 1.0;"/><rect fill="#FEFECE" filter="url(#f7cjhreb8gtup)" height="33.9688" rx="12.5" ry="12.5" style="stroke: #A80036; stroke-width: 1.5;" width="176" x="508" y="829.5313"/><text fill="#000000" font-family="sans-serif" font-size="12" lengthAdjust="spacingAndGlyphs" textLength="156" x="518" y="850.6699">保持平台团队对业务的理解。</text><path d="M458,738.5781 L468,738.5781 C483,738.5781 483,846.5156 498,846.5156 L508,846.5156 " fill="none" style="stroke: #A80036; stroke-width: 1.0;"/><path d="M172,603.6563 L182,603.6563 C197,603.6563 197,738.5781 212,738.5781 L222,738.5781 " fill="none" style="stroke: #A80036; stroke-width: 1.0;"/><path d="M54,441.75 L64,441.75 C79,441.75 79,603.6563 94,603.6563 L104,603.6563 " fill="none" style="stroke: #A80036; stroke-width: 1.0;"/><!--
--></g></svg>