<?xml version="1.0" encoding="UTF-8" standalone="no"?><svg xmlns="http://www.w3.org/2000/svg" xmlns:xlink="http://www.w3.org/1999/xlink" contentScriptType="application/ecmascript" contentStyleType="text/css" height="1387px" preserveAspectRatio="none" style="width:1276px;height:1387px;" version="1.1" viewBox="0 0 1276 1387" width="1276px" zoomAndPan="magnify"><defs><filter height="300%" id="fe65s7cfj66my" width="300%" x="-1" y="-1"><feGaussianBlur result="blurOut" stdDeviation="2.0"/><feColorMatrix in="blurOut" result="blurOut2" type="matrix" values="0 0 0 0 0 0 0 0 0 0 0 0 0 0 0 0 0 0 .4 0"/><feOffset dx="4.0" dy="4.0" in="blurOut2" result="blurOut3"/><feBlend in="SourceGraphic" in2="blurOut3" mode="normal"/></filter></defs><g><rect fill="#FEFECE" filter="url(#fe65s7cfj66my)" height="33.9688" rx="12.5" ry="12.5" style="stroke: #A80036; stroke-width: 1.5;" width="68" x="10" y="681.1172"/><text fill="#000000" font-family="sans-serif" font-size="12" lengthAdjust="spacingAndGlyphs" textLength="48" x="20" y="702.2559">设计思维</text><rect fill="#FEFECE" filter="url(#fe65s7cfj66my)" height="33.9688" rx="12.5" ry="12.5" style="stroke: #A80036; stroke-width: 1.5;" width="44" x="128" y="262.8594"/><text fill="#000000" font-family="sans-serif" font-size="12" lengthAdjust="spacingAndGlyphs" textLength="24" x="138" y="283.998">背景</text><rect fill="#FEFECE" filter="url(#fe65s7cfj66my)" height="33.9688" rx="12.5" ry="12.5" style="stroke: #A80036; stroke-width: 1.5;" width="49" x="222" y="127.9375"/><text fill="#000000" font-family="sans-serif" font-size="12" lengthAdjust="spacingAndGlyphs" textLength="29" x="232" y="149.0762">IDEO</text><rect fill="#FEFECE" filter="url(#fe65s7cfj66my)" height="33.9688" rx="12.5" ry="12.5" style="stroke: #A80036; stroke-width: 1.5;" width="277" x="321" y="20"/><text fill="#000000" font-family="sans-serif" font-size="12" lengthAdjust="spacingAndGlyphs" textLength="257" x="331" y="41.1387">IDEO是第一家将设计思维应用于商业问题的解决</text><path d="M271,144.9219 L281,144.9219 C296,144.9219 296,36.9844 311,36.9844 L321,36.9844 " fill="none" style="stroke: #A80036; stroke-width: 1.0;"/><rect fill="#FEFECE" filter="url(#fe65s7cfj66my)" height="33.9688" rx="12.5" ry="12.5" style="stroke: #A80036; stroke-width: 1.5;" width="182" x="321" y="154.9219"/><text fill="#000000" font-family="sans-serif" font-size="12" lengthAdjust="spacingAndGlyphs" textLength="162" x="331" y="176.0605">IDEO的创始人，David Kelley</text><rect fill="#FEFECE" filter="url(#fe65s7cfj66my)" height="33.9688" rx="12.5" ry="12.5" style="stroke: #A80036; stroke-width: 1.5;" width="339" x="553" y="73.9688"/><text fill="#000000" font-family="sans-serif" font-size="12" lengthAdjust="spacingAndGlyphs" textLength="319" x="563" y="95.1074">在美国斯坦福大学创建了著名的D.School，斯坦福设计学院</text><path d="M503,171.9063 L513,171.9063 C528,171.9063 528,90.9531 543,90.9531 L553,90.9531 " fill="none" style="stroke: #A80036; stroke-width: 1.0;"/><rect fill="#FEFECE" filter="url(#fe65s7cfj66my)" height="33.9688" rx="12.5" ry="12.5" style="stroke: #A80036; stroke-width: 1.5;" width="219" x="553" y="181.9063"/><text fill="#000000" font-family="sans-serif" font-size="12" lengthAdjust="spacingAndGlyphs" textLength="199" x="563" y="203.0449">D.School与其他设计学院间特别之处</text><rect fill="#FEFECE" filter="url(#fe65s7cfj66my)" height="33.9688" rx="12.5" ry="12.5" style="stroke: #A80036; stroke-width: 1.5;" width="224" x="822" y="127.9375"/><text fill="#000000" font-family="sans-serif" font-size="12" lengthAdjust="spacingAndGlyphs" textLength="204" x="832" y="149.0762">它在硅谷，与硅谷有着千丝万缕的联系</text><path d="M772,198.8906 L782,198.8906 C797,198.8906 797,144.9219 812,144.9219 L822,144.9219 " fill="none" style="stroke: #A80036; stroke-width: 1.0;"/><rect fill="#FEFECE" filter="url(#fe65s7cfj66my)" height="33.9688" rx="12.5" ry="12.5" style="stroke: #A80036; stroke-width: 1.5;" width="320" x="822" y="181.9063"/><text fill="#000000" font-family="sans-serif" font-size="12" lengthAdjust="spacingAndGlyphs" textLength="300" x="832" y="203.0449">与斯坦福的商学院关系密切，商业模式和设计思维两手抓</text><path d="M772,198.8906 L782,198.8906 C797,198.8906 797,198.8906 812,198.8906 L822,198.8906 " fill="none" style="stroke: #A80036; stroke-width: 1.0;"/><rect fill="#FEFECE" filter="url(#fe65s7cfj66my)" height="33.9688" rx="12.5" ry="12.5" style="stroke: #A80036; stroke-width: 1.5;" width="443" x="822" y="235.875"/><text fill="#000000" font-family="sans-serif" font-size="12" lengthAdjust="spacingAndGlyphs" textLength="423" x="832" y="257.0137">有一套通俗易懂的理论根基作为行为准则，也就是我们常说的Design Thinking</text><path d="M772,198.8906 L782,198.8906 C797,198.8906 797,252.8594 812,252.8594 L822,252.8594 " fill="none" style="stroke: #A80036; stroke-width: 1.0;"/><path d="M503,171.9063 L513,171.9063 C528,171.9063 528,198.8906 543,198.8906 L553,198.8906 " fill="none" style="stroke: #A80036; stroke-width: 1.0;"/><path d="M271,144.9219 L281,144.9219 C296,144.9219 296,171.9063 311,171.9063 L321,171.9063 " fill="none" style="stroke: #A80036; stroke-width: 1.0;"/><path d="M172,279.8438 L182,279.8438 C197,279.8438 197,144.9219 212,144.9219 L222,144.9219 " fill="none" style="stroke: #A80036; stroke-width: 1.0;"/><rect fill="#FEFECE" filter="url(#fe65s7cfj66my)" height="33.9688" rx="12.5" ry="12.5" style="stroke: #A80036; stroke-width: 1.5;" width="136" x="222" y="397.7813"/><text fill="#000000" font-family="sans-serif" font-size="12" lengthAdjust="spacingAndGlyphs" textLength="116" x="232" y="418.9199">设计思维分成5大步骤</text><rect fill="#FEFECE" filter="url(#fe65s7cfj66my)" height="33.9688" rx="12.5" ry="12.5" style="stroke: #A80036; stroke-width: 1.5;" width="134" x="408" y="289.8438"/><text fill="#000000" font-family="sans-serif" font-size="12" lengthAdjust="spacingAndGlyphs" textLength="114" x="418" y="310.9824">Empathy同理心思考</text><path d="M358,414.7656 L368,414.7656 C383,414.7656 383,306.8281 398,306.8281 L408,306.8281 " fill="none" style="stroke: #A80036; stroke-width: 1.0;"/><rect fill="#FEFECE" filter="url(#fe65s7cfj66my)" height="33.9688" rx="12.5" ry="12.5" style="stroke: #A80036; stroke-width: 1.5;" width="108" x="408" y="343.8125"/><text fill="#000000" font-family="sans-serif" font-size="12" lengthAdjust="spacingAndGlyphs" textLength="88" x="418" y="364.9512">Define需求定义</text><path d="M358,414.7656 L368,414.7656 C383,414.7656 383,360.7969 398,360.7969 L408,360.7969 " fill="none" style="stroke: #A80036; stroke-width: 1.0;"/><rect fill="#FEFECE" filter="url(#fe65s7cfj66my)" height="33.9688" rx="12.5" ry="12.5" style="stroke: #A80036; stroke-width: 1.5;" width="108" x="408" y="397.7813"/><text fill="#000000" font-family="sans-serif" font-size="12" lengthAdjust="spacingAndGlyphs" textLength="88" x="418" y="418.9199">Ideate创意构思</text><path d="M358,414.7656 L368,414.7656 C383,414.7656 383,414.7656 398,414.7656 L408,414.7656 " fill="none" style="stroke: #A80036; stroke-width: 1.0;"/><rect fill="#FEFECE" filter="url(#fe65s7cfj66my)" height="33.9688" rx="12.5" ry="12.5" style="stroke: #A80036; stroke-width: 1.5;" width="129" x="408" y="451.75"/><text fill="#000000" font-family="sans-serif" font-size="12" lengthAdjust="spacingAndGlyphs" textLength="109" x="418" y="472.8887">Prototype原型实现</text><path d="M358,414.7656 L368,414.7656 C383,414.7656 383,468.7344 398,468.7344 L408,468.7344 " fill="none" style="stroke: #A80036; stroke-width: 1.0;"/><rect fill="#FEFECE" filter="url(#fe65s7cfj66my)" height="33.9688" rx="12.5" ry="12.5" style="stroke: #A80036; stroke-width: 1.5;" width="95" x="408" y="505.7188"/><text fill="#000000" font-family="sans-serif" font-size="12" lengthAdjust="spacingAndGlyphs" textLength="75" x="418" y="526.8574">Test实际测试</text><path d="M358,414.7656 L368,414.7656 C383,414.7656 383,522.7031 398,522.7031 L408,522.7031 " fill="none" style="stroke: #A80036; stroke-width: 1.0;"/><path d="M172,279.8438 L182,279.8438 C197,279.8438 197,414.7656 212,414.7656 L222,414.7656 " fill="none" style="stroke: #A80036; stroke-width: 1.0;"/><path d="M78,698.1016 L88,698.1016 C103,698.1016 103,279.8438 118,279.8438 L128,279.8438 " fill="none" style="stroke: #A80036; stroke-width: 1.0;"/><rect fill="#FEFECE" filter="url(#fe65s7cfj66my)" height="33.9688" rx="12.5" ry="12.5" style="stroke: #A80036; stroke-width: 1.5;" width="44" x="128" y="586.6719"/><text fill="#000000" font-family="sans-serif" font-size="12" lengthAdjust="spacingAndGlyphs" textLength="24" x="138" y="607.8105">核心</text><rect fill="#FEFECE" filter="url(#fe65s7cfj66my)" height="33.9688" rx="12.5" ry="12.5" style="stroke: #A80036; stroke-width: 1.5;" width="248" x="222" y="559.6875"/><text fill="#000000" font-family="sans-serif" font-size="12" lengthAdjust="spacingAndGlyphs" textLength="228" x="232" y="580.8262">设计思维并不是一个技能，也不是一个工具</text><path d="M172,603.6563 L182,603.6563 C197,603.6563 197,576.6719 212,576.6719 L222,576.6719 " fill="none" style="stroke: #A80036; stroke-width: 1.0;"/><rect fill="#FEFECE" filter="url(#fe65s7cfj66my)" height="33.9688" rx="12.5" ry="12.5" style="stroke: #A80036; stroke-width: 1.5;" width="332" x="222" y="613.6563"/><text fill="#000000" font-family="sans-serif" font-size="12" lengthAdjust="spacingAndGlyphs" textLength="312" x="232" y="634.7949">而是一种思维方式，人们可以结合自身的特点与性质去应用</text><path d="M172,603.6563 L182,603.6563 C197,603.6563 197,630.6406 212,630.6406 L222,630.6406 " fill="none" style="stroke: #A80036; stroke-width: 1.0;"/><path d="M78,698.1016 L88,698.1016 C103,698.1016 103,603.6563 118,603.6563 L128,603.6563 " fill="none" style="stroke: #A80036; stroke-width: 1.0;"/><rect fill="#FEFECE" filter="url(#fe65s7cfj66my)" height="33.9688" rx="12.5" ry="12.5" style="stroke: #A80036; stroke-width: 1.5;" width="136" x="128" y="667.625"/><text fill="#000000" font-family="sans-serif" font-size="12" lengthAdjust="spacingAndGlyphs" textLength="116" x="138" y="688.7637">第1步：移情／同理心</text><rect fill="#FEFECE" filter="url(#fe65s7cfj66my)" height="33.9688" rx="12.5" ry="12.5" style="stroke: #A80036; stroke-width: 1.5;" width="260" x="314" y="667.625"/><text fill="#000000" font-family="sans-serif" font-size="12" lengthAdjust="spacingAndGlyphs" textLength="240" x="324" y="688.7637">移情就是对他人的情感或情绪感同身受的能力</text><path d="M264,684.6094 L274,684.6094 C289,684.6094 289,684.6094 304,684.6094 L314,684.6094 " fill="none" style="stroke: #A80036; stroke-width: 1.0;"/><path d="M78,698.1016 L88,698.1016 C103,698.1016 103,684.6094 118,684.6094 L128,684.6094 " fill="none" style="stroke: #A80036; stroke-width: 1.0;"/><rect fill="#FEFECE" filter="url(#fe65s7cfj66my)" height="33.9688" rx="12.5" ry="12.5" style="stroke: #A80036; stroke-width: 1.5;" width="136" x="128" y="762.0703"/><text fill="#000000" font-family="sans-serif" font-size="12" lengthAdjust="spacingAndGlyphs" textLength="116" x="138" y="783.209">第2步：确定（问题）</text><rect fill="#FEFECE" filter="url(#fe65s7cfj66my)" height="33.9688" rx="12.5" ry="12.5" style="stroke: #A80036; stroke-width: 1.5;" width="188" x="314" y="721.5938"/><text fill="#000000" font-family="sans-serif" font-size="12" lengthAdjust="spacingAndGlyphs" textLength="168" x="324" y="742.7324">“以人为中心”的方式来定义问题</text><path d="M264,779.0547 L274,779.0547 C289,779.0547 289,738.5781 304,738.5781 L314,738.5781 " fill="none" style="stroke: #A80036; stroke-width: 1.0;"/><rect fill="#FEFECE" filter="url(#fe65s7cfj66my)" height="33.9688" rx="12.5" ry="12.5" style="stroke: #A80036; stroke-width: 1.5;" width="272" x="314" y="775.5625"/><text fill="#000000" font-family="sans-serif" font-size="12" lengthAdjust="spacingAndGlyphs" textLength="252" x="324" y="796.7012">不要将问题定义为你自己的愿望或者公司的需要</text><rect fill="#FEFECE" filter="url(#fe65s7cfj66my)" height="33.9688" rx="12.5" ry="12.5" style="stroke: #A80036; stroke-width: 1.5;" width="287" x="636" y="748.5781"/><text fill="#000000" font-family="sans-serif" font-size="12" lengthAdjust="spacingAndGlyphs" textLength="267" x="646" y="769.7168">❌我们需要将年轻女孩的食品产品市场份额提高5％</text><path d="M586,792.5469 L596,792.5469 C611,792.5469 611,765.5625 626,765.5625 L636,765.5625 " fill="none" style="stroke: #A80036; stroke-width: 1.0;"/><rect fill="#FEFECE" filter="url(#fe65s7cfj66my)" height="33.9688" rx="12.5" ry="12.5" style="stroke: #A80036; stroke-width: 1.5;" width="327" x="636" y="802.5469"/><text fill="#000000" font-family="sans-serif" font-size="12" lengthAdjust="spacingAndGlyphs" textLength="307" x="646" y="823.6855">✅十几岁的女孩需要吃营养食物才能茁壮成长，健康成长。</text><path d="M586,792.5469 L596,792.5469 C611,792.5469 611,819.5313 626,819.5313 L636,819.5313 " fill="none" style="stroke: #A80036; stroke-width: 1.0;"/><path d="M264,779.0547 L274,779.0547 C289,779.0547 289,792.5469 304,792.5469 L314,792.5469 " fill="none" style="stroke: #A80036; stroke-width: 1.0;"/><path d="M78,698.1016 L88,698.1016 C103,698.1016 103,779.0547 118,779.0547 L128,779.0547 " fill="none" style="stroke: #A80036; stroke-width: 1.0;"/><rect fill="#FEFECE" filter="url(#fe65s7cfj66my)" height="33.9688" rx="12.5" ry="12.5" style="stroke: #A80036; stroke-width: 1.5;" width="156" x="128" y="910.4844"/><text fill="#000000" font-family="sans-serif" font-size="12" lengthAdjust="spacingAndGlyphs" textLength="136" x="138" y="931.623">第3步：形成概念-Ideate</text><rect fill="#FEFECE" filter="url(#fe65s7cfj66my)" height="33.9688" rx="12.5" ry="12.5" style="stroke: #A80036; stroke-width: 1.5;" width="344" x="334" y="856.5156"/><text fill="#000000" font-family="sans-serif" font-size="12" lengthAdjust="spacingAndGlyphs" textLength="324" x="344" y="877.6543">重点不在于获得一个完美的想法，而是要想出尽可能多的想法</text><path d="M284,927.4688 L294,927.4688 C309,927.4688 309,873.5 324,873.5 L334,873.5 " fill="none" style="stroke: #A80036; stroke-width: 1.0;"/><rect fill="#FEFECE" filter="url(#fe65s7cfj66my)" height="33.9688" rx="12.5" ry="12.5" style="stroke: #A80036; stroke-width: 1.5;" width="68" x="334" y="937.4688"/><text fill="#000000" font-family="sans-serif" font-size="12" lengthAdjust="spacingAndGlyphs" textLength="48" x="344" y="958.6074">创意技巧</text><rect fill="#FEFECE" filter="url(#fe65s7cfj66my)" height="33.9688" rx="12.5" ry="12.5" style="stroke: #A80036; stroke-width: 1.5;" width="68" x="452" y="910.4844"/><text fill="#000000" font-family="sans-serif" font-size="12" lengthAdjust="spacingAndGlyphs" textLength="48" x="462" y="931.623">头脑风暴</text><path d="M402,954.4531 L412,954.4531 C427,954.4531 427,927.4688 442,927.4688 L452,927.4688 " fill="none" style="stroke: #A80036; stroke-width: 1.0;"/><rect fill="#FEFECE" filter="url(#fe65s7cfj66my)" height="33.9688" rx="12.5" ry="12.5" style="stroke: #A80036; stroke-width: 1.5;" width="90" x="452" y="964.4531"/><text fill="#000000" font-family="sans-serif" font-size="12" lengthAdjust="spacingAndGlyphs" textLength="70" x="462" y="985.5918">SCAMPER法</text><path d="M402,954.4531 L412,954.4531 C427,954.4531 427,981.4375 442,981.4375 L452,981.4375 " fill="none" style="stroke: #A80036; stroke-width: 1.0;"/><path d="M284,927.4688 L294,927.4688 C309,927.4688 309,954.4531 324,954.4531 L334,954.4531 " fill="none" style="stroke: #A80036; stroke-width: 1.0;"/><path d="M78,698.1016 L88,698.1016 C103,698.1016 103,927.4688 118,927.4688 L128,927.4688 " fill="none" style="stroke: #A80036; stroke-width: 1.0;"/><rect fill="#FEFECE" filter="url(#fe65s7cfj66my)" height="33.9688" rx="12.5" ry="12.5" style="stroke: #A80036; stroke-width: 1.5;" width="197" x="128" y="1018.4219"/><text fill="#000000" font-family="sans-serif" font-size="12" lengthAdjust="spacingAndGlyphs" textLength="177" x="138" y="1039.5605">第4步：制作原型——Prototype</text><rect fill="#FEFECE" filter="url(#fe65s7cfj66my)" height="33.9688" rx="12.5" ry="12.5" style="stroke: #A80036; stroke-width: 1.5;" width="44" x="375" y="1018.4219"/><text fill="#000000" font-family="sans-serif" font-size="12" lengthAdjust="spacingAndGlyphs" textLength="24" x="385" y="1039.5605">目的</text><rect fill="#FEFECE" filter="url(#fe65s7cfj66my)" height="33.9688" rx="12.5" ry="12.5" style="stroke: #A80036; stroke-width: 1.5;" width="284" x="469" y="1018.4219"/><text fill="#000000" font-family="sans-serif" font-size="12" lengthAdjust="spacingAndGlyphs" textLength="264" x="479" y="1039.5605">为前三个阶段发现的每个问题找出最佳解决方案。</text><path d="M419,1035.4063 L429,1035.4063 C444,1035.4063 444,1035.4063 459,1035.4063 L469,1035.4063 " fill="none" style="stroke: #A80036; stroke-width: 1.0;"/><path d="M325,1035.4063 L335,1035.4063 C350,1035.4063 350,1035.4063 365,1035.4063 L375,1035.4063 " fill="none" style="stroke: #A80036; stroke-width: 1.0;"/><path d="M78,698.1016 L88,698.1016 C103,698.1016 103,1035.4063 118,1035.4063 L128,1035.4063 " fill="none" style="stroke: #A80036; stroke-width: 1.0;"/><rect fill="#FEFECE" filter="url(#fe65s7cfj66my)" height="33.9688" rx="12.5" ry="12.5" style="stroke: #A80036; stroke-width: 1.5;" width="88" x="128" y="1126.3594"/><text fill="#000000" font-family="sans-serif" font-size="12" lengthAdjust="spacingAndGlyphs" textLength="68" x="138" y="1147.498">第5步：测试</text><rect fill="#FEFECE" filter="url(#fe65s7cfj66my)" height="33.9688" rx="12.5" ry="12.5" style="stroke: #A80036; stroke-width: 1.5;" width="332" x="266" y="1072.3906"/><text fill="#000000" font-family="sans-serif" font-size="12" lengthAdjust="spacingAndGlyphs" textLength="312" x="276" y="1093.5293">使用原型设计阶段确定的最佳解决方案，严格测试整个产品</text><path d="M216,1143.3438 L226,1143.3438 C241,1143.3438 241,1089.375 256,1089.375 L266,1089.375 " fill="none" style="stroke: #A80036; stroke-width: 1.0;"/><rect fill="#FEFECE" filter="url(#fe65s7cfj66my)" height="33.9688" rx="12.5" ry="12.5" style="stroke: #A80036; stroke-width: 1.5;" width="164" x="266" y="1153.3438"/><text fill="#000000" font-family="sans-serif" font-size="12" lengthAdjust="spacingAndGlyphs" textLength="144" x="276" y="1174.4824">寻找实际用户测试你的原型</text><rect fill="#FEFECE" filter="url(#fe65s7cfj66my)" height="33.9688" rx="12.5" ry="12.5" style="stroke: #A80036; stroke-width: 1.5;" width="212" x="480" y="1126.3594"/><text fill="#000000" font-family="sans-serif" font-size="12" lengthAdjust="spacingAndGlyphs" textLength="192" x="490" y="1147.498">如果人们不喜欢它，要敢于接受意见</text><path d="M430,1170.3281 L440,1170.3281 C455,1170.3281 455,1143.3438 470,1143.3438 L480,1143.3438 " fill="none" style="stroke: #A80036; stroke-width: 1.0;"/><rect fill="#FEFECE" filter="url(#fe65s7cfj66my)" height="33.9688" rx="12.5" ry="12.5" style="stroke: #A80036; stroke-width: 1.5;" width="344" x="480" y="1180.3281"/><text fill="#000000" font-family="sans-serif" font-size="12" lengthAdjust="spacingAndGlyphs" textLength="324" x="490" y="1201.4668">关键是要了解哪些是有效的，哪些没有，所以任何反馈都很好</text><path d="M430,1170.3281 L440,1170.3281 C455,1170.3281 455,1197.3125 470,1197.3125 L480,1197.3125 " fill="none" style="stroke: #A80036; stroke-width: 1.0;"/><path d="M216,1143.3438 L226,1143.3438 C241,1143.3438 241,1170.3281 256,1170.3281 L266,1170.3281 " fill="none" style="stroke: #A80036; stroke-width: 1.0;"/><path d="M78,698.1016 L88,698.1016 C103,698.1016 103,1143.3438 118,1143.3438 L128,1143.3438 " fill="none" style="stroke: #A80036; stroke-width: 1.0;"/><rect fill="#FEFECE" filter="url(#fe65s7cfj66my)" height="33.9688" rx="12.5" ry="12.5" style="stroke: #A80036; stroke-width: 1.5;" width="184" x="128" y="1288.2656"/><text fill="#000000" font-family="sans-serif" font-size="12" lengthAdjust="spacingAndGlyphs" textLength="164" x="138" y="1309.4043">第6步：重复以上步骤进行迭代</text><rect fill="#FEFECE" filter="url(#fe65s7cfj66my)" height="33.9688" rx="12.5" ry="12.5" style="stroke: #A80036; stroke-width: 1.5;" width="140" x="362" y="1234.2969"/><text fill="#000000" font-family="sans-serif" font-size="12" lengthAdjust="spacingAndGlyphs" textLength="120" x="372" y="1255.4355">设计思维的非线性本质</text><path d="M312,1305.25 L322,1305.25 C337,1305.25 337,1251.2813 352,1251.2813 L362,1251.2813 " fill="none" style="stroke: #A80036; stroke-width: 1.0;"/><rect fill="#FEFECE" filter="url(#fe65s7cfj66my)" height="33.9688" rx="12.5" ry="12.5" style="stroke: #A80036; stroke-width: 1.5;" width="260" x="362" y="1288.2656"/><text fill="#000000" font-family="sans-serif" font-size="12" lengthAdjust="spacingAndGlyphs" textLength="240" x="372" y="1309.4043">设计思维不应被视为固定和不灵活的设计方法</text><path d="M312,1305.25 L322,1305.25 C337,1305.25 337,1305.25 352,1305.25 L362,1305.25 " fill="none" style="stroke: #A80036; stroke-width: 1.0;"/><rect fill="#FEFECE" filter="url(#fe65s7cfj66my)" height="33.9688" rx="12.5" ry="12.5" style="stroke: #A80036; stroke-width: 1.5;" width="212" x="362" y="1342.2344"/><text fill="#000000" font-family="sans-serif" font-size="12" lengthAdjust="spacingAndGlyphs" textLength="192" x="372" y="1363.373">后期获得的知识可以反馈到早期阶段</text><path d="M312,1305.25 L322,1305.25 C337,1305.25 337,1359.2188 352,1359.2188 L362,1359.2188 " fill="none" style="stroke: #A80036; stroke-width: 1.0;"/><path d="M78,698.1016 L88,698.1016 C103,698.1016 103,1305.25 118,1305.25 L128,1305.25 " fill="none" style="stroke: #A80036; stroke-width: 1.0;"/><!--
--></g></svg>