<svg xmlns="http://www.w3.org/2000/svg" xmlns:xlink="http://www.w3.org/1999/xlink" width="1115" height="2007" contentScriptType="application/ecmascript" contentStyleType="text/css" style="width:1115px;height:2007px" preserveAspectRatio="none" version="1.1" viewBox="0 0 1115 2007" zoomAndPan="magnify"><defs><filter id="fk2vlmmgcjzj9" width="300%" height="300%" x="-1" y="-1"><feGaussianBlur result="blurOut" stdDeviation="2"/><feColorMatrix in="blurOut" result="blurOut2" type="matrix" values="0 0 0 0 0 0 0 0 0 0 0 0 0 0 0 0 0 0 .4 0"/><feOffset dx="4" dy="4" in="blurOut2" result="blurOut3"/><feBlend in="SourceGraphic" in2="blurOut3" mode="normal"/></filter></defs><g><rect style="stroke:#a80036;stroke-width:1.5" width="68" height="33.969" x="10" y="991.438" fill="#FEFECE" filter="url(#fk2vlmmgcjzj9)" rx="12.5" ry="12.5"/><text x="20" y="1012.576" fill="#000" font-family="sans-serif" font-size="12" lengthAdjust="spacingAndGlyphs" textLength="48">冰山理论</text><rect style="stroke:#a80036;stroke-width:1.5" width="68" height="33.969" x="128" y="100.953" fill="#FEFECE" filter="url(#fk2vlmmgcjzj9)" rx="12.5" ry="12.5"/><text x="138" y="122.092" fill="#000" font-family="sans-serif" font-size="12" lengthAdjust="spacingAndGlyphs" textLength="48">基本介绍</text><rect style="stroke:#a80036;stroke-width:1.5" width="113" height="33.969" x="246" y="20" fill="#FEFECE" filter="url(#fk2vlmmgcjzj9)" rx="12.5" ry="12.5"/><text x="256" y="41.139" fill="#000" font-family="sans-serif" font-size="12" lengthAdjust="spacingAndGlyphs" textLength="93">Iceberg Theory</text><path fill="none" d="M196,117.9375 L206,117.9375 C221,117.9375 221,36.9844 236,36.9844 L246,36.9844" style="stroke:#a80036;stroke-width:1"/><rect style="stroke:#a80036;stroke-width:1.5" width="295" height="33.969" x="246" y="73.969" fill="#FEFECE" filter="url(#fk2vlmmgcjzj9)" rx="12.5" ry="12.5"/><text x="256" y="95.107" fill="#000" font-family="sans-serif" font-size="12" lengthAdjust="spacingAndGlyphs" textLength="275">美国心理治疗师维吉尼亚·萨提亚（Virginia Satir）</text><rect style="stroke:#a80036;stroke-width:1.5" width="128" height="33.969" x="591" y="73.969" fill="#FEFECE" filter="url(#fk2vlmmgcjzj9)" rx="12.5" ry="12.5"/><text x="601" y="95.107" fill="#000" font-family="sans-serif" font-size="12" lengthAdjust="spacingAndGlyphs" textLength="108">萨提亚家庭治疗模式</text><path fill="none" d="M541,90.9531 L551,90.9531 C566,90.9531 566,90.9531 581,90.9531 L591,90.9531" style="stroke:#a80036;stroke-width:1"/><path fill="none" d="M196,117.9375 L206,117.9375 C221,117.9375 221,90.9531 236,90.9531 L246,90.9531" style="stroke:#a80036;stroke-width:1"/><rect style="stroke:#a80036;stroke-width:1.5" width="116" height="33.969" x="246" y="154.922" fill="#FEFECE" filter="url(#fk2vlmmgcjzj9)" rx="12.5" ry="12.5"/><text x="256" y="176.06" fill="#000" font-family="sans-serif" font-size="12" lengthAdjust="spacingAndGlyphs" textLength="96">实际上是一个隐喻</text><rect style="stroke:#a80036;stroke-width:1.5" width="452" height="33.969" x="412" y="127.938" fill="#FEFECE" filter="url(#fk2vlmmgcjzj9)" rx="12.5" ry="12.5"/><text x="422" y="149.076" fill="#000" font-family="sans-serif" font-size="12" lengthAdjust="spacingAndGlyphs" textLength="432">它指人的“自我”就像一座冰山一样，我们能看到的只是表面很少的一部分——行为</text><path fill="none" d="M362,171.9063 L372,171.9063 C387,171.9063 387,144.9219 402,144.9219 L412,144.9219" style="stroke:#a80036;stroke-width:1"/><rect style="stroke:#a80036;stroke-width:1.5" width="368" height="33.969" x="412" y="181.906" fill="#FEFECE" filter="url(#fk2vlmmgcjzj9)" rx="12.5" ry="12.5"/><text x="422" y="203.045" fill="#000" font-family="sans-serif" font-size="12" lengthAdjust="spacingAndGlyphs" textLength="348">而更大一部分的内在世界却藏在更深层次，不为人所见，恰如冰山</text><path fill="none" d="M362,171.9063 L372,171.9063 C387,171.9063 387,198.8906 402,198.8906 L412,198.8906" style="stroke:#a80036;stroke-width:1"/><path fill="none" d="M196,117.9375 L206,117.9375 C221,117.9375 221,171.9063 236,171.9063 L246,171.9063" style="stroke:#a80036;stroke-width:1"/><path fill="none" d="M78,1008.4219 L88,1008.4219 C103,1008.4219 103,117.9375 118,117.9375 L128,117.9375" style="stroke:#a80036;stroke-width:1"/><rect style="stroke:#a80036;stroke-width:1.5" width="68" height="33.969" x="128" y="883.5" fill="#FEFECE" filter="url(#fk2vlmmgcjzj9)" rx="12.5" ry="12.5"/><text x="138" y="904.639" fill="#000" font-family="sans-serif" font-size="12" lengthAdjust="spacingAndGlyphs" textLength="48">七个层次</text><rect style="stroke:#a80036;stroke-width:1.5" width="44" height="33.969" x="246" y="262.859" fill="#FEFECE" filter="url(#fk2vlmmgcjzj9)" rx="12.5" ry="12.5"/><text x="256" y="283.998" fill="#000" font-family="sans-serif" font-size="12" lengthAdjust="spacingAndGlyphs" textLength="24">行为</text><rect style="stroke:#a80036;stroke-width:1.5" width="104" height="33.969" x="340" y="235.875" fill="#FEFECE" filter="url(#fk2vlmmgcjzj9)" rx="12.5" ry="12.5"/><text x="350" y="257.014" fill="#000" font-family="sans-serif" font-size="12" lengthAdjust="spacingAndGlyphs" textLength="84">行为、故事内容</text><path fill="none" d="M290,279.8438 L300,279.8438 C315,279.8438 315,252.8594 330,252.8594 L340,252.8594" style="stroke:#a80036;stroke-width:1"/><rect style="stroke:#a80036;stroke-width:1.5" width="92" height="33.969" x="340" y="289.844" fill="#FEFECE" filter="url(#fk2vlmmgcjzj9)" rx="12.5" ry="12.5"/><text x="350" y="310.982" fill="#000" font-family="sans-serif" font-size="12" lengthAdjust="spacingAndGlyphs" textLength="72">浮在水面之上</text><path fill="none" d="M290,279.8438 L300,279.8438 C315,279.8438 315,306.8281 330,306.8281 L340,306.8281" style="stroke:#a80036;stroke-width:1"/><path fill="none" d="M196,900.4844 L206,900.4844 C221,900.4844 221,279.8438 236,279.8438 L246,279.8438" style="stroke:#a80036;stroke-width:1"/><rect style="stroke:#a80036;stroke-width:1.5" width="68" height="33.969" x="246" y="613.656" fill="#FEFECE" filter="url(#fk2vlmmgcjzj9)" rx="12.5" ry="12.5"/><text x="256" y="634.795" fill="#000" font-family="sans-serif" font-size="12" lengthAdjust="spacingAndGlyphs" textLength="48">应对姿态</text><rect style="stroke:#a80036;stroke-width:1.5" width="176" height="33.969" x="364" y="343.813" fill="#FEFECE" filter="url(#fk2vlmmgcjzj9)" rx="12.5" ry="12.5"/><text x="374" y="364.951" fill="#000" font-family="sans-serif" font-size="12" lengthAdjust="spacingAndGlyphs" textLength="156">目的并非与人连结，而是自保</text><rect style="stroke:#a80036;stroke-width:1.5" width="176" height="33.969" x="590" y="343.813" fill="#FEFECE" filter="url(#fk2vlmmgcjzj9)" rx="12.5" ry="12.5"/><text x="600" y="364.951" fill="#000" font-family="sans-serif" font-size="12" lengthAdjust="spacingAndGlyphs" textLength="156">为了求生存，保护自己的姿态</text><path fill="none" d="M540,360.7969 L550,360.7969 C565,360.7969 565,360.7969 580,360.7969 L590,360.7969" style="stroke:#a80036;stroke-width:1"/><path fill="none" d="M314,630.6406 L324,630.6406 C339,630.6406 339,360.7969 354,360.7969 L364,360.7969" style="stroke:#a80036;stroke-width:1"/><rect style="stroke:#a80036;stroke-width:1.5" width="104" height="33.969" x="364" y="640.641" fill="#FEFECE" filter="url(#fk2vlmmgcjzj9)" rx="12.5" ry="12.5"/><text x="374" y="661.779" fill="#000" font-family="sans-serif" font-size="12" lengthAdjust="spacingAndGlyphs" textLength="84">四种“沟通姿态”</text><rect style="stroke:#a80036;stroke-width:1.5" width="44" height="33.969" x="518" y="424.766" fill="#FEFECE" filter="url(#fk2vlmmgcjzj9)" rx="12.5" ry="12.5"/><text x="528" y="445.904" fill="#000" font-family="sans-serif" font-size="12" lengthAdjust="spacingAndGlyphs" textLength="24">指责</text><rect style="stroke:#a80036;stroke-width:1.5" width="272" height="33.969" x="612" y="397.781" fill="#FEFECE" filter="url(#fk2vlmmgcjzj9)" rx="12.5" ry="12.5"/><text x="622" y="418.92" fill="#000" font-family="sans-serif" font-size="12" lengthAdjust="spacingAndGlyphs" textLength="252">在与人应对时，在乎自己，在乎情境，忽略他人</text><path fill="none" d="M562,441.75 L572,441.75 C587,441.75 587,414.7656 602,414.7656 L612,414.7656" style="stroke:#a80036;stroke-width:1"/><rect style="stroke:#a80036;stroke-width:1.5" width="248" height="33.969" x="612" y="451.75" fill="#FEFECE" filter="url(#fk2vlmmgcjzj9)" rx="12.5" ry="12.5"/><text x="622" y="472.889" fill="#000" font-family="sans-serif" font-size="12" lengthAdjust="spacingAndGlyphs" textLength="228">总是用否定、命令来沟通，并不是表达自己</text><path fill="none" d="M562,441.75 L572,441.75 C587,441.75 587,468.7344 602,468.7344 L612,468.7344" style="stroke:#a80036;stroke-width:1"/><path fill="none" d="M468,657.625 L478,657.625 C493,657.625 493,441.75 508,441.75 L518,441.75" style="stroke:#a80036;stroke-width:1"/><rect style="stroke:#a80036;stroke-width:1.5" width="44" height="33.969" x="518" y="586.672" fill="#FEFECE" filter="url(#fk2vlmmgcjzj9)" rx="12.5" ry="12.5"/><text x="528" y="607.811" fill="#000" font-family="sans-serif" font-size="12" lengthAdjust="spacingAndGlyphs" textLength="24">讨好</text><rect style="stroke:#a80036;stroke-width:1.5" width="260" height="33.969" x="612" y="505.719" fill="#FEFECE" filter="url(#fk2vlmmgcjzj9)" rx="12.5" ry="12.5"/><text x="622" y="526.857" fill="#000" font-family="sans-serif" font-size="12" lengthAdjust="spacingAndGlyphs" textLength="240">与人应对时，忽略自己，在乎情境，在乎他人</text><path fill="none" d="M562,603.6563 L572,603.6563 C587,603.6563 587,522.7031 602,522.7031 L612,522.7031" style="stroke:#a80036;stroke-width:1"/><rect style="stroke:#a80036;stroke-width:1.5" width="296" height="33.969" x="612" y="559.688" fill="#FEFECE" filter="url(#fk2vlmmgcjzj9)" rx="12.5" ry="12.5"/><text x="622" y="580.826" fill="#000" font-family="sans-serif" font-size="12" lengthAdjust="spacingAndGlyphs" textLength="276">为了得到父母的爱，得到他人的认同，总是唯唯诺诺</text><path fill="none" d="M562,603.6563 L572,603.6563 C587,603.6563 587,576.6719 602,576.6719 L612,576.6719" style="stroke:#a80036;stroke-width:1"/><rect style="stroke:#a80036;stroke-width:1.5" width="272" height="33.969" x="612" y="613.656" fill="#FEFECE" filter="url(#fk2vlmmgcjzj9)" rx="12.5" ry="12.5"/><text x="622" y="634.795" fill="#000" font-family="sans-serif" font-size="12" lengthAdjust="spacingAndGlyphs" textLength="252">并非表达自己，因为讨好者担心，一旦表达自己</text><path fill="none" d="M562,603.6563 L572,603.6563 C587,603.6563 587,630.6406 602,630.6406 L612,630.6406" style="stroke:#a80036;stroke-width:1"/><rect style="stroke:#a80036;stroke-width:1.5" width="176" height="33.969" x="612" y="667.625" fill="#FEFECE" filter="url(#fk2vlmmgcjzj9)" rx="12.5" ry="12.5"/><text x="622" y="688.764" fill="#000" font-family="sans-serif" font-size="12" lengthAdjust="spacingAndGlyphs" textLength="156">就得不到他人重视、爱与价值</text><path fill="none" d="M562,603.6563 L572,603.6563 C587,603.6563 587,684.6094 602,684.6094 L612,684.6094" style="stroke:#a80036;stroke-width:1"/><path fill="none" d="M468,657.625 L478,657.625 C493,657.625 493,603.6563 508,603.6563 L518,603.6563" style="stroke:#a80036;stroke-width:1"/><rect style="stroke:#a80036;stroke-width:1.5" width="56" height="33.969" x="518" y="748.578" fill="#FEFECE" filter="url(#fk2vlmmgcjzj9)" rx="12.5" ry="12.5"/><text x="528" y="769.717" fill="#000" font-family="sans-serif" font-size="12" lengthAdjust="spacingAndGlyphs" textLength="36">超理智</text><rect style="stroke:#a80036;stroke-width:1.5" width="272" height="33.969" x="624" y="721.594" fill="#FEFECE" filter="url(#fk2vlmmgcjzj9)" rx="12.5" ry="12.5"/><text x="634" y="742.732" fill="#000" font-family="sans-serif" font-size="12" lengthAdjust="spacingAndGlyphs" textLength="252">在与人应对时，忽略自己，在乎情境，忽略他人</text><path fill="none" d="M574,765.5625 L584,765.5625 C599,765.5625 599,738.5781 614,738.5781 L624,738.5781" style="stroke:#a80036;stroke-width:1"/><rect style="stroke:#a80036;stroke-width:1.5" width="416" height="33.969" x="624" y="775.563" fill="#FEFECE" filter="url(#fk2vlmmgcjzj9)" rx="12.5" ry="12.5"/><text x="634" y="796.701" fill="#000" font-family="sans-serif" font-size="12" lengthAdjust="spacingAndGlyphs" textLength="396">为了得到被认同，沟通时总是争辩、说理认为自己是对的，并不是表达自己</text><path fill="none" d="M574,765.5625 L584,765.5625 C599,765.5625 599,792.5469 614,792.5469 L624,792.5469" style="stroke:#a80036;stroke-width:1"/><path fill="none" d="M468,657.625 L478,657.625 C493,657.625 493,765.5625 508,765.5625 L518,765.5625" style="stroke:#a80036;stroke-width:1"/><rect style="stroke:#a80036;stroke-width:1.5" width="44" height="33.969" x="518" y="856.516" fill="#FEFECE" filter="url(#fk2vlmmgcjzj9)" rx="12.5" ry="12.5"/><text x="528" y="877.654" fill="#000" font-family="sans-serif" font-size="12" lengthAdjust="spacingAndGlyphs" textLength="24">打岔</text><rect style="stroke:#a80036;stroke-width:1.5" width="272" height="33.969" x="612" y="829.531" fill="#FEFECE" filter="url(#fk2vlmmgcjzj9)" rx="12.5" ry="12.5"/><text x="622" y="850.67" fill="#000" font-family="sans-serif" font-size="12" lengthAdjust="spacingAndGlyphs" textLength="252">在与人应对时，忽略自己，忽略情境，在乎他人</text><path fill="none" d="M562,873.5 L572,873.5 C587,873.5 587,846.5156 602,846.5156 L612,846.5156" style="stroke:#a80036;stroke-width:1"/><rect style="stroke:#a80036;stroke-width:1.5" width="320" height="33.969" x="612" y="883.5" fill="#FEFECE" filter="url(#fk2vlmmgcjzj9)" rx="12.5" ry="12.5"/><text x="622" y="904.639" fill="#000" font-family="sans-serif" font-size="12" lengthAdjust="spacingAndGlyphs" textLength="300">为了面对压力，沟通时不表达自己，而是用不沟通来沟通</text><path fill="none" d="M562,873.5 L572,873.5 C587,873.5 587,900.4844 602,900.4844 L612,900.4844" style="stroke:#a80036;stroke-width:1"/><path fill="none" d="M468,657.625 L478,657.625 C493,657.625 493,873.5 508,873.5 L518,873.5" style="stroke:#a80036;stroke-width:1"/><path fill="none" d="M314,630.6406 L324,630.6406 C339,630.6406 339,657.625 354,657.625 L364,657.625" style="stroke:#a80036;stroke-width:1"/><path fill="none" d="M196,900.4844 L206,900.4844 C221,900.4844 221,630.6406 236,630.6406 L246,630.6406" style="stroke:#a80036;stroke-width:1"/><rect style="stroke:#a80036;stroke-width:1.5" width="44" height="33.969" x="246" y="964.453" fill="#FEFECE" filter="url(#fk2vlmmgcjzj9)" rx="12.5" ry="12.5"/><text x="256" y="985.592" fill="#000" font-family="sans-serif" font-size="12" lengthAdjust="spacingAndGlyphs" textLength="24">感受</text><rect style="stroke:#a80036;stroke-width:1.5" width="260" height="33.969" x="340" y="937.469" fill="#FEFECE" filter="url(#fk2vlmmgcjzj9)" rx="12.5" ry="12.5"/><text x="350" y="958.607" fill="#000" font-family="sans-serif" font-size="12" lengthAdjust="spacingAndGlyphs" textLength="240">喜悦、兴奋、着迷、愤怒、伤害、恐惧、悲伤</text><path fill="none" d="M290,981.4375 L300,981.4375 C315,981.4375 315,954.4531 330,954.4531 L340,954.4531" style="stroke:#a80036;stroke-width:1"/><rect style="stroke:#a80036;stroke-width:1.5" width="164" height="33.969" x="340" y="991.438" fill="#FEFECE" filter="url(#fk2vlmmgcjzj9)" rx="12.5" ry="12.5"/><text x="350" y="1012.576" fill="#000" font-family="sans-serif" font-size="12" lengthAdjust="spacingAndGlyphs" textLength="144">感受的感受——感受的决定</text><path fill="none" d="M290,981.4375 L300,981.4375 C315,981.4375 315,1008.4219 330,1008.4219 L340,1008.4219" style="stroke:#a80036;stroke-width:1"/><path fill="none" d="M196,900.4844 L206,900.4844 C221,900.4844 221,981.4375 236,981.4375 L246,981.4375" style="stroke:#a80036;stroke-width:1"/><rect style="stroke:#a80036;stroke-width:1.5" width="44" height="33.969" x="246" y="1072.391" fill="#FEFECE" filter="url(#fk2vlmmgcjzj9)" rx="12.5" ry="12.5"/><text x="256" y="1093.529" fill="#000" font-family="sans-serif" font-size="12" lengthAdjust="spacingAndGlyphs" textLength="24">观点</text><rect style="stroke:#a80036;stroke-width:1.5" width="140" height="33.969" x="340" y="1045.406" fill="#FEFECE" filter="url(#fk2vlmmgcjzj9)" rx="12.5" ry="12.5"/><text x="350" y="1066.545" fill="#000" font-family="sans-serif" font-size="12" lengthAdjust="spacingAndGlyphs" textLength="120">信念、假设、预设立场</text><path fill="none" d="M290,1089.375 L300,1089.375 C315,1089.375 315,1062.3906 330,1062.3906 L340,1062.3906" style="stroke:#a80036;stroke-width:1"/><rect style="stroke:#a80036;stroke-width:1.5" width="104" height="33.969" x="340" y="1099.375" fill="#FEFECE" filter="url(#fk2vlmmgcjzj9)" rx="12.5" ry="12.5"/><text x="350" y="1120.514" fill="#000" font-family="sans-serif" font-size="12" lengthAdjust="spacingAndGlyphs" textLength="84">主观现实、认知</text><path fill="none" d="M290,1089.375 L300,1089.375 C315,1089.375 315,1116.3594 330,1116.3594 L340,1116.3594" style="stroke:#a80036;stroke-width:1"/><path fill="none" d="M196,900.4844 L206,900.4844 C221,900.4844 221,1089.375 236,1089.375 L246,1089.375" style="stroke:#a80036;stroke-width:1"/><rect style="stroke:#a80036;stroke-width:1.5" width="44" height="33.969" x="246" y="1207.313" fill="#FEFECE" filter="url(#fk2vlmmgcjzj9)" rx="12.5" ry="12.5"/><text x="256" y="1228.451" fill="#000" font-family="sans-serif" font-size="12" lengthAdjust="spacingAndGlyphs" textLength="24">期待</text><rect style="stroke:#a80036;stroke-width:1.5" width="56" height="33.969" x="340" y="1153.344" fill="#FEFECE" filter="url(#fk2vlmmgcjzj9)" rx="12.5" ry="12.5"/><text x="350" y="1174.482" fill="#000" font-family="sans-serif" font-size="12" lengthAdjust="spacingAndGlyphs" textLength="36">对自己</text><path fill="none" d="M290,1224.2969 L300,1224.2969 C315,1224.2969 315,1170.3281 330,1170.3281 L340,1170.3281" style="stroke:#a80036;stroke-width:1"/><rect style="stroke:#a80036;stroke-width:1.5" width="56" height="33.969" x="340" y="1207.313" fill="#FEFECE" filter="url(#fk2vlmmgcjzj9)" rx="12.5" ry="12.5"/><text x="350" y="1228.451" fill="#000" font-family="sans-serif" font-size="12" lengthAdjust="spacingAndGlyphs" textLength="36">对他人</text><path fill="none" d="M290,1224.2969 L300,1224.2969 C315,1224.2969 315,1224.2969 330,1224.2969 L340,1224.2969" style="stroke:#a80036;stroke-width:1"/><rect style="stroke:#a80036;stroke-width:1.5" width="68" height="33.969" x="340" y="1261.281" fill="#FEFECE" filter="url(#fk2vlmmgcjzj9)" rx="12.5" ry="12.5"/><text x="350" y="1282.42" fill="#000" font-family="sans-serif" font-size="12" lengthAdjust="spacingAndGlyphs" textLength="48">来自他人</text><path fill="none" d="M290,1224.2969 L300,1224.2969 C315,1224.2969 315,1278.2656 330,1278.2656 L340,1278.2656" style="stroke:#a80036;stroke-width:1"/><path fill="none" d="M196,900.4844 L206,900.4844 C221,900.4844 221,1224.2969 236,1224.2969 L246,1224.2969" style="stroke:#a80036;stroke-width:1"/><rect style="stroke:#a80036;stroke-width:1.5" width="44" height="33.969" x="246" y="1369.219" fill="#FEFECE" filter="url(#fk2vlmmgcjzj9)" rx="12.5" ry="12.5"/><text x="256" y="1390.357" fill="#000" font-family="sans-serif" font-size="12" lengthAdjust="spacingAndGlyphs" textLength="24">渴望</text><rect style="stroke:#a80036;stroke-width:1.5" width="68" height="33.969" x="340" y="1315.25" fill="#FEFECE" filter="url(#fk2vlmmgcjzj9)" rx="12.5" ry="12.5"/><text x="350" y="1336.389" fill="#000" font-family="sans-serif" font-size="12" lengthAdjust="spacingAndGlyphs" textLength="48">人共共有</text><path fill="none" d="M290,1386.2031 L300,1386.2031 C315,1386.2031 315,1332.2344 330,1332.2344 L340,1332.2344" style="stroke:#a80036;stroke-width:1"/><rect style="stroke:#a80036;stroke-width:1.5" width="164" height="33.969" x="340" y="1369.219" fill="#FEFECE" filter="url(#fk2vlmmgcjzj9)" rx="12.5" ry="12.5"/><text x="350" y="1390.357" fill="#000" font-family="sans-serif" font-size="12" lengthAdjust="spacingAndGlyphs" textLength="144">爱、被爱、被接纳、被认同</text><path fill="none" d="M290,1386.2031 L300,1386.2031 C315,1386.2031 315,1386.2031 330,1386.2031 L340,1386.2031" style="stroke:#a80036;stroke-width:1"/><rect style="stroke:#a80036;stroke-width:1.5" width="140" height="33.969" x="340" y="1423.188" fill="#FEFECE" filter="url(#fk2vlmmgcjzj9)" rx="12.5" ry="12.5"/><text x="350" y="1444.326" fill="#000" font-family="sans-serif" font-size="12" lengthAdjust="spacingAndGlyphs" textLength="120">有意义、有价值、自由</text><path fill="none" d="M290,1386.2031 L300,1386.2031 C315,1386.2031 315,1440.1719 330,1440.1719 L340,1440.1719" style="stroke:#a80036;stroke-width:1"/><path fill="none" d="M196,900.4844 L206,900.4844 C221,900.4844 221,1386.2031 236,1386.2031 L246,1386.2031" style="stroke:#a80036;stroke-width:1"/><rect style="stroke:#a80036;stroke-width:1.5" width="44" height="33.969" x="246" y="1504.141" fill="#FEFECE" filter="url(#fk2vlmmgcjzj9)" rx="12.5" ry="12.5"/><text x="256" y="1525.279" fill="#000" font-family="sans-serif" font-size="12" lengthAdjust="spacingAndGlyphs" textLength="24">自我</text><rect style="stroke:#a80036;stroke-width:1.5" width="44" height="33.969" x="340" y="1477.156" fill="#FEFECE" filter="url(#fk2vlmmgcjzj9)" rx="12.5" ry="12.5"/><text x="350" y="1498.295" fill="#000" font-family="sans-serif" font-size="12" lengthAdjust="spacingAndGlyphs" textLength="24">我是</text><path fill="none" d="M290,1521.125 L300,1521.125 C315,1521.125 315,1494.1406 330,1494.1406 L340,1494.1406" style="stroke:#a80036;stroke-width:1"/><rect style="stroke:#a80036;stroke-width:1.5" width="200" height="33.969" x="340" y="1531.125" fill="#FEFECE" filter="url(#fk2vlmmgcjzj9)" rx="12.5" ry="12.5"/><text x="350" y="1552.264" fill="#000" font-family="sans-serif" font-size="12" lengthAdjust="spacingAndGlyphs" textLength="180">生命力、精神、灵性、核心、本质</text><path fill="none" d="M290,1521.125 L300,1521.125 C315,1521.125 315,1548.1094 330,1548.1094 L340,1548.1094" style="stroke:#a80036;stroke-width:1"/><path fill="none" d="M196,900.4844 L206,900.4844 C221,900.4844 221,1521.125 236,1521.125 L246,1521.125" style="stroke:#a80036;stroke-width:1"/><path fill="none" d="M78,1008.4219 L88,1008.4219 C103,1008.4219 103,900.4844 118,900.4844 L128,900.4844" style="stroke:#a80036;stroke-width:1"/><rect style="stroke:#a80036;stroke-width:1.5" width="56" height="33.969" x="128" y="1773.984" fill="#FEFECE" filter="url(#fk2vlmmgcjzj9)" rx="12.5" ry="12.5"/><text x="138" y="1795.123" fill="#000" font-family="sans-serif" font-size="12" lengthAdjust="spacingAndGlyphs" textLength="36">一致性</text><rect style="stroke:#a80036;stroke-width:1.5" width="152" height="33.969" x="234" y="1585.094" fill="#FEFECE" filter="url(#fk2vlmmgcjzj9)" rx="12.5" ry="12.5"/><text x="244" y="1606.232" fill="#000" font-family="sans-serif" font-size="12" lengthAdjust="spacingAndGlyphs" textLength="132">什么样的姿态比较健康呢</text><rect style="stroke:#a80036;stroke-width:1.5" width="246" height="33.969" x="436" y="1585.094" fill="#FEFECE" filter="url(#fk2vlmmgcjzj9)" rx="12.5" ry="12.5"/><text x="446" y="1606.232" fill="#000" font-family="sans-serif" font-size="12" lengthAdjust="spacingAndGlyphs" textLength="226">自己能觉察姿态，并愿意为自己负责(初级)</text><rect style="stroke:#a80036;stroke-width:1.5" width="372" height="33.969" x="732" y="1585.094" fill="#FEFECE" filter="url(#fk2vlmmgcjzj9)" rx="12.5" ry="12.5"/><text x="742" y="1606.232" fill="#000" font-family="sans-serif" font-size="12" lengthAdjust="spacingAndGlyphs" textLength="352">如:知道自己在指责，但你就是要指责，并且愿意为指责的后果负责</text><path fill="none" d="M682,1602.0781 L692,1602.0781 C707,1602.0781 707,1602.0781 722,1602.0781 L732,1602.0781" style="stroke:#a80036;stroke-width:1"/><path fill="none" d="M386,1602.0781 L396,1602.0781 C411,1602.0781 411,1602.0781 426,1602.0781 L436,1602.0781" style="stroke:#a80036;stroke-width:1"/><path fill="none" d="M184,1790.9688 L194,1790.9688 C209,1790.9688 209,1602.0781 224,1602.0781 L234,1602.0781" style="stroke:#a80036;stroke-width:1"/><rect style="stroke:#a80036;stroke-width:1.5" width="92" height="33.969" x="234" y="1693.031" fill="#FEFECE" filter="url(#fk2vlmmgcjzj9)" rx="12.5" ry="12.5"/><text x="244" y="1714.17" fill="#000" font-family="sans-serif" font-size="12" lengthAdjust="spacingAndGlyphs" textLength="72">一致性的姿态</text><rect style="stroke:#a80036;stroke-width:1.5" width="176" height="33.969" x="376" y="1639.063" fill="#FEFECE" filter="url(#fk2vlmmgcjzj9)" rx="12.5" ry="12.5"/><text x="386" y="1660.201" fill="#000" font-family="sans-serif" font-size="12" lengthAdjust="spacingAndGlyphs" textLength="156">内在和谐宁静，外表专注放松</text><path fill="none" d="M326,1710.0156 L336,1710.0156 C351,1710.0156 351,1656.0469 366,1656.0469 L376,1656.0469" style="stroke:#a80036;stroke-width:1"/><rect style="stroke:#a80036;stroke-width:1.5" width="392" height="33.969" x="376" y="1693.031" fill="#FEFECE" filter="url(#fk2vlmmgcjzj9)" rx="12.5" ry="12.5"/><text x="386" y="1714.17" fill="#000" font-family="sans-serif" font-size="12" lengthAdjust="spacingAndGlyphs" textLength="372">在与人应对时，在乎自己，在乎情境，在乎他人。沟通时懂得表达自己</text><path fill="none" d="M326,1710.0156 L336,1710.0156 C351,1710.0156 351,1710.0156 366,1710.0156 L376,1710.0156" style="stroke:#a80036;stroke-width:1"/><rect style="stroke:#a80036;stroke-width:1.5" width="164" height="33.969" x="376" y="1747" fill="#FEFECE" filter="url(#fk2vlmmgcjzj9)" rx="12.5" ry="12.5"/><text x="386" y="1768.139" fill="#000" font-family="sans-serif" font-size="12" lengthAdjust="spacingAndGlyphs" textLength="144">最简单的理解就是内外一致</text><path fill="none" d="M326,1710.0156 L336,1710.0156 C351,1710.0156 351,1763.9844 366,1763.9844 L376,1763.9844" style="stroke:#a80036;stroke-width:1"/><path fill="none" d="M184,1790.9688 L194,1790.9688 C209,1790.9688 209,1710.0156 224,1710.0156 L234,1710.0156" style="stroke:#a80036;stroke-width:1"/><rect style="stroke:#a80036;stroke-width:1.5" width="44" height="33.969" x="234" y="1854.938" fill="#FEFECE" filter="url(#fk2vlmmgcjzj9)" rx="12.5" ry="12.5"/><text x="244" y="1876.076" fill="#000" font-family="sans-serif" font-size="12" lengthAdjust="spacingAndGlyphs" textLength="24">难点</text><rect style="stroke:#a80036;stroke-width:1.5" width="224" height="33.969" x="328" y="1800.969" fill="#FEFECE" filter="url(#fk2vlmmgcjzj9)" rx="12.5" ry="12.5"/><text x="338" y="1822.107" fill="#000" font-family="sans-serif" font-size="12" lengthAdjust="spacingAndGlyphs" textLength="204">很多人不清楚自己的感受、想法与期待</text><path fill="none" d="M278,1871.9219 L288,1871.9219 C303,1871.9219 303,1817.9531 318,1817.9531 L328,1817.9531" style="stroke:#a80036;stroke-width:1"/><rect style="stroke:#a80036;stroke-width:1.5" width="308" height="33.969" x="328" y="1854.938" fill="#FEFECE" filter="url(#fk2vlmmgcjzj9)" rx="12.5" ry="12.5"/><text x="338" y="1876.076" fill="#000" font-family="sans-serif" font-size="12" lengthAdjust="spacingAndGlyphs" textLength="288">或者知道自己的感觉、想法与期待，却不一定懂得表达</text><path fill="none" d="M278,1871.9219 L288,1871.9219 C303,1871.9219 303,1871.9219 318,1871.9219 L328,1871.9219" style="stroke:#a80036;stroke-width:1"/><rect style="stroke:#a80036;stroke-width:1.5" width="248" height="33.969" x="328" y="1908.906" fill="#FEFECE" filter="url(#fk2vlmmgcjzj9)" rx="12.5" ry="12.5"/><text x="338" y="1930.045" fill="#000" font-family="sans-serif" font-size="12" lengthAdjust="spacingAndGlyphs" textLength="228">或者能表达出来，却不是以负责的态度表达</text><rect style="stroke:#a80036;stroke-width:1.5" width="200" height="33.969" x="626" y="1908.906" fill="#FEFECE" filter="url(#fk2vlmmgcjzj9)" rx="12.5" ry="12.5"/><text x="636" y="1930.045" fill="#000" font-family="sans-serif" font-size="12" lengthAdjust="spacingAndGlyphs" textLength="180">而是以控制者、受害者的方式表达</text><path fill="none" d="M576,1925.8906 L586,1925.8906 C601,1925.8906 601,1925.8906 616,1925.8906 L626,1925.8906" style="stroke:#a80036;stroke-width:1"/><path fill="none" d="M278,1871.9219 L288,1871.9219 C303,1871.9219 303,1925.8906 318,1925.8906 L328,1925.8906" style="stroke:#a80036;stroke-width:1"/><path fill="none" d="M184,1790.9688 L194,1790.9688 C209,1790.9688 209,1871.9219 224,1871.9219 L234,1871.9219" style="stroke:#a80036;stroke-width:1"/><rect style="stroke:#a80036;stroke-width:1.5" width="164" height="33.969" x="234" y="1962.875" fill="#FEFECE" filter="url(#fk2vlmmgcjzj9)" rx="12.5" ry="12.5"/><text x="244" y="1984.014" fill="#000" font-family="sans-serif" font-size="12" lengthAdjust="spacingAndGlyphs" textLength="144">一致是个选择，不是个规则</text><rect style="stroke:#a80036;stroke-width:1.5" width="260" height="33.969" x="448" y="1962.875" fill="#FEFECE" filter="url(#fk2vlmmgcjzj9)" rx="12.5" ry="12.5"/><text x="458" y="1984.014" fill="#000" font-family="sans-serif" font-size="12" lengthAdjust="spacingAndGlyphs" textLength="240">人可以选择任何姿态，但是人必须为自己负责</text><path fill="none" d="M398,1979.8594 L408,1979.8594 C423,1979.8594 423,1979.8594 438,1979.8594 L448,1979.8594" style="stroke:#a80036;stroke-width:1"/><path fill="none" d="M184,1790.9688 L194,1790.9688 C209,1790.9688 209,1979.8594 224,1979.8594 L234,1979.8594" style="stroke:#a80036;stroke-width:1"/><path fill="none" d="M78,1008.4219 L88,1008.4219 C103,1008.4219 103,1790.9688 118,1790.9688 L128,1790.9688" style="stroke:#a80036;stroke-width:1"/></g></svg>